<?xml version="1.0" encoding="UTF-8" standalone="no"?>
<svg width="225px" height="194px" viewBox="0 0 225 194" version="1.1" xmlns="http://www.w3.org/2000/svg" xmlns:xlink="http://www.w3.org/1999/xlink">
    <!-- Generator: Sketch 42 (36781) - http://www.bohemiancoding.com/sketch -->
    <title>deafHardOfHearing/ccSpeechBubble</title>
    <desc>Created with Sketch.</desc>
    <defs></defs>
    <g id="Site-assets" stroke="none" stroke-width="1" fill="none" fill-rule="evenodd">
        <g id="Deaf-and-hard-of-hearing" transform="translate(-484.000000, -1076.000000)">
            <g id="deafHardOfHearing/ccSpeechBubble" transform="translate(484.000000, 1076.000000)">
                <path d="M225,80.6428571 C225,95.2076621 219.977729,108.663164 209.933036,121.009766 C199.888343,133.356368 186.244506,143.107944 169.001116,150.264788 C151.757726,157.421632 132.924209,161 112.5,161 C106.640596,161 100.572018,160.665182 94.2940848,159.995536 C77.7203412,174.644046 58.4683016,184.772293 36.5373884,190.38058 C32.4358054,191.552461 27.6646477,192.473211 22.2237723,193.142857 C20.8007741,193.310269 19.5242802,192.933598 18.3942522,192.012835 C17.2642243,191.092071 16.5318097,189.878356 16.1969866,188.371652 L16.1969866,188.246094 C15.9458693,187.911271 15.9249432,187.409044 16.1342076,186.739397 C16.343472,186.069751 16.4271765,185.651229 16.3853237,185.483817 C16.3434708,185.316405 16.5318059,184.918809 16.9503348,184.291016 L17.703683,183.160993 C17.7873888,183.035435 18.0803546,182.67969 18.5825893,182.09375 C19.0848239,181.50781 19.419642,181.131139 19.5870536,180.963728 C20.172994,180.294081 21.4704141,178.850179 23.4793527,176.631975 C25.4882913,174.413772 26.9321943,172.823387 27.8111049,171.86077 C28.6900156,170.898154 29.9874356,169.244989 31.703404,166.901228 C33.4193724,164.557466 34.7795709,162.423001 35.7840402,160.497768 C36.7885095,158.572535 37.9185205,156.103252 39.1741071,153.089844 C40.4296938,150.076436 41.5178525,146.895664 42.4386161,143.547433 C29.2968093,136.097619 18.9383749,126.890122 11.3630022,115.924665 C3.78762953,104.959209 0,93.1987235 0,80.6428571 C0,69.7611063 2.97151046,59.3608197 8.91462054,49.4416853 C14.8577306,39.5225509 22.8515123,30.9637637 32.8962054,23.765067 C42.9408984,16.5663703 54.9106448,10.8535368 68.8058036,6.62639509 C82.7009623,2.39925342 97.2655488,0.285714286 112.5,0.285714286 C132.924209,0.285714286 151.757726,3.86408252 169.001116,11.0209263 C186.244506,18.1777702 199.888343,27.9293467 209.933036,40.2759487 C219.977729,52.6225506 225,66.0780522 225,80.6428571 Z" id="ïµ" fill="#FFBF47"></path>
                <text id="CC" font-family="HelveticaNeue-Bold, Helvetica Neue" font-size="100" font-weight="bold" fill="#DF3034">
                    <tspan x="35" y="119">CC</tspan>
                </text>
            </g>
        </g>
    </g>
</svg>