<?xml version="1.0" encoding="UTF-8" standalone="no"?>
<svg width="153px" height="187px" viewBox="0 0 153 187" version="1.1" xmlns="http://www.w3.org/2000/svg" xmlns:xlink="http://www.w3.org/1999/xlink">
    <!-- Generator: Sketch 42 (36781) - http://www.bohemiancoding.com/sketch -->
    <title>deafHardOfHearing/complextTabletLayout</title>
    <desc>Created with Sketch.</desc>
    <defs></defs>
    <g id="Site-assets" stroke="none" stroke-width="1" fill="none" fill-rule="evenodd">
        <g id="Deaf-and-hard-of-hearing" transform="translate(-1285.000000, -1369.000000)">
            <g id="deafHardOfHearing/complextTabletLayout" transform="translate(1285.000000, 1369.000000)">
                <rect id="Rectangle-236" fill="#FFFFFF" x="12" y="10" width="125" height="171"></rect>
                <path d="M84.8186344,170.036273 C84.8186344,167.73909 83.9792917,165.751173 82.3005812,164.072463 C80.6218707,162.393752 78.6339538,161.55441 76.336771,161.55441 C74.0395881,161.55441 72.0516713,162.393752 70.3729607,164.072463 C68.6942502,165.751173 67.8549075,167.73909 67.8549075,170.036273 C67.8549075,172.333456 68.6942502,174.321373 70.3729607,176.000083 C72.0516713,177.678794 74.0395881,178.518137 76.336771,178.518137 C78.6339538,178.518137 80.6218707,177.678794 82.3005812,176.000083 C83.9792917,174.321373 84.8186344,172.333456 84.8186344,170.036273 Z M135.709815,148.831615 L135.709815,21.6036629 C135.709815,20.4550715 135.290144,19.461113 134.450788,18.6217578 C133.611433,17.7824025 132.617475,17.3627312 131.468883,17.3627312 L21.2046586,17.3627312 C20.0560672,17.3627312 19.0621088,17.7824025 18.2227535,18.6217578 C17.3833982,19.461113 16.9637269,20.4550715 16.9637269,21.6036629 L16.9637269,148.831615 C16.9637269,149.980206 17.3833982,150.974164 18.2227535,151.81352 C19.0621088,152.652875 20.0560672,153.072546 21.2046586,153.072546 L131.468883,153.072546 C132.617475,153.072546 133.611433,152.652875 134.450788,151.81352 C135.290144,150.974164 135.709815,149.980206 135.709815,148.831615 Z M152.673542,21.6036629 L152.673542,165.795341 C152.673542,171.626652 150.597273,176.618532 146.444673,180.771132 C142.292074,184.923731 137.300194,187 131.468883,187 L21.2046586,187 C15.3733483,187 10.3814682,184.923731 6.22886847,180.771132 C2.07626873,176.618532 0,171.626652 0,165.795341 L0,21.6036629 C0,15.7723526 2.07626873,10.7804725 6.22886847,6.62787273 C10.3814682,2.47527299 15.3733483,0.399004267 21.2046586,0.399004267 L131.468883,0.399004267 C137.300194,0.399004267 142.292074,2.47527299 146.444673,6.62787273 C150.597273,10.7804725 152.673542,15.7723526 152.673542,21.6036629 Z" id="" fill="#333333"></path>
                <rect id="Rectangle-51" fill="#B58840" x="71.3648649" y="53.4347826" width="59.9594595" height="10.3478261"></rect>
                <rect id="Rectangle-51" fill="#F47738" x="21.3648649" y="53.4347826" width="44.9599991" height="10.3478261"></rect>
                <rect id="Rectangle-51" fill="#FFBF47" x="21.3648649" y="69.4347826" width="44.9599991" height="10.3478261"></rect>
                <rect id="Rectangle-51" fill="#F47738" x="71.3648649" y="68.9565217" width="59.9594595" height="10.3478261"></rect>
                <rect id="Rectangle-51" fill="#B58840" x="20.7094595" y="84.4782609" width="59.9594595" height="10.3478261"></rect>
                <rect id="Rectangle-51" fill="#F47738" x="20.7094595" y="100" width="59.9594595" height="10.3478261"></rect>
                <rect id="Rectangle-51" fill="#B58840" x="20.7094595" y="115.521739" width="59.9594595" height="10.3478261"></rect>
                <rect id="Rectangle-51" fill="#28A197" x="20.7094595" y="131.043478" width="110.614865" height="16.5565217"></rect>
                <rect id="Rectangle-51" fill="#FFFFFF" x="20.7094595" y="19.2869565" width="110.614865" height="30.0086957"></rect>
                <rect id="Rectangle-51" fill="#FFBF47" x="85.3209459" y="84.4782609" width="44.9695946" height="10.3478261"></rect>
                <rect id="Rectangle-51" fill="#28A197" x="85.3209459" y="100.478261" width="44.9695946" height="10.3478261"></rect>
                <rect id="Rectangle-51" fill="#FFBF47" x="85.3209459" y="115.478261" width="22" height="10.3478261"></rect>
                <rect id="Rectangle-51" fill="#B58840" x="112.320946" y="115.478261" width="18" height="10.3478261"></rect>
                <rect id="Rectangle-51" fill="#FFBF47" x="20.972973" y="23.3913043" width="110.050003" height="24.8347826"></rect>
            </g>
        </g>
    </g>
</svg>