<?xml version="1.0" encoding="UTF-8" standalone="no"?>
<svg width="304px" height="114px" viewBox="0 0 304 114" version="1.1" xmlns="http://www.w3.org/2000/svg" xmlns:xlink="http://www.w3.org/1999/xlink">
    <!-- Generator: Sketch 42 (36781) - http://www.bohemiancoding.com/sketch -->
    <title>deafHardOfHearing/justifiedContent</title>
    <desc>Created with Sketch.</desc>
    <defs></defs>
    <g id="Site-assets" stroke="none" stroke-width="1" fill="none" fill-rule="evenodd">
        <g id="Deaf-and-hard-of-hearing" transform="translate(-1186.000000, -1691.000000)" fill="#F47738">
            <g id="deafHardOfHearing/justifiedContent" transform="translate(1186.000000, 1691.000000)">
                <path d="M144,98.5714286 L144,108.857143 C144,110.250007 143.491077,111.455352 142.473214,112.473214 C141.455352,113.491077 140.250007,114 138.857143,114 L5.14285714,114 C3.74999304,114 2.54464795,113.491077 1.52678571,112.473214 C0.508923482,111.455352 0,110.250007 0,108.857143 L0,98.5714286 C0,97.1785645 0.508923482,95.9732194 1.52678571,94.9553571 C2.54464795,93.9374949 3.74999304,93.4285714 5.14285714,93.4285714 L138.857143,93.4285714 C140.250007,93.4285714 141.455352,93.9374949 142.473214,94.9553571 C143.491077,95.9732194 144,97.1785645 144,98.5714286 Z M144,67.7142857 L144,78 C144,79.3928641 143.491077,80.5982092 142.473214,81.6160714 C141.455352,82.6339337 140.250007,83.1428571 138.857143,83.1428571 L5.14285714,83.1428571 C3.74999304,83.1428571 2.54464795,82.6339337 1.52678571,81.6160714 C0.508923482,80.5982092 0,79.3928641 0,78 L0,67.7142857 C0,66.3214216 0.508923482,65.1160765 1.52678571,64.0982143 C2.54464795,63.0803521 3.74999304,62.5714286 5.14285714,62.5714286 L138.857143,62.5714286 C140.250007,62.5714286 141.455352,63.0803521 142.473214,64.0982143 C143.491077,65.1160765 144,66.3214216 144,67.7142857 Z M144,36.8571429 L144,47.1428571 C144,48.5357213 143.491077,49.7410663 142.473214,50.7589286 C141.455352,51.7767908 140.250007,52.2857143 138.857143,52.2857143 L5.14285714,52.2857143 C3.74999304,52.2857143 2.54464795,51.7767908 1.52678571,50.7589286 C0.508923482,49.7410663 0,48.5357213 0,47.1428571 L0,36.8571429 C0,35.4642788 0.508923482,34.2589337 1.52678571,33.2410714 C2.54464795,32.2232092 3.74999304,31.7142857 5.14285714,31.7142857 L138.857143,31.7142857 C140.250007,31.7142857 141.455352,32.2232092 142.473214,33.2410714 C143.491077,34.2589337 144,35.4642788 144,36.8571429 Z M144,6 L144,16.2857143 C144,17.6785784 143.491077,18.8839235 142.473214,19.9017857 C141.455352,20.9196479 140.250007,21.4285714 138.857143,21.4285714 L5.14285714,21.4285714 C3.74999304,21.4285714 2.54464795,20.9196479 1.52678571,19.9017857 C0.508923482,18.8839235 0,17.6785784 0,16.2857143 L0,6 C0,4.60713589 0.508923482,3.4017908 1.52678571,2.38392857 C2.54464795,1.36606634 3.74999304,0.857142857 5.14285714,0.857142857 L138.857143,0.857142857 C140.250007,0.857142857 141.455352,1.36606634 142.473214,2.38392857 C143.491077,3.4017908 144,4.60713589 144,6 Z" id=""></path>
                <path d="M304,98.5714286 L304,108.857143 C304,110.250007 303.491077,111.455352 302.473214,112.473214 C301.455352,113.491077 300.250007,114 298.857143,114 L165.142857,114 C163.749993,114 162.544648,113.491077 161.526786,112.473214 C160.508923,111.455352 160,110.250007 160,108.857143 L160,98.5714286 C160,97.1785645 160.508923,95.9732194 161.526786,94.9553571 C162.544648,93.9374949 163.749993,93.4285714 165.142857,93.4285714 L298.857143,93.4285714 C300.250007,93.4285714 301.455352,93.9374949 302.473214,94.9553571 C303.491077,95.9732194 304,97.1785645 304,98.5714286 Z M304,67.7142857 L304,78 C304,79.3928641 303.491077,80.5982092 302.473214,81.6160714 C301.455352,82.6339337 300.250007,83.1428571 298.857143,83.1428571 L165.142857,83.1428571 C163.749993,83.1428571 162.544648,82.6339337 161.526786,81.6160714 C160.508923,80.5982092 160,79.3928641 160,78 L160,67.7142857 C160,66.3214216 160.508923,65.1160765 161.526786,64.0982143 C162.544648,63.0803521 163.749993,62.5714286 165.142857,62.5714286 L298.857143,62.5714286 C300.250007,62.5714286 301.455352,63.0803521 302.473214,64.0982143 C303.491077,65.1160765 304,66.3214216 304,67.7142857 Z M304,36.8571429 L304,47.1428571 C304,48.5357213 303.491077,49.7410663 302.473214,50.7589286 C301.455352,51.7767908 300.250007,52.2857143 298.857143,52.2857143 L165.142857,52.2857143 C163.749993,52.2857143 162.544648,51.7767908 161.526786,50.7589286 C160.508923,49.7410663 160,48.5357213 160,47.1428571 L160,36.8571429 C160,35.4642788 160.508923,34.2589337 161.526786,33.2410714 C162.544648,32.2232092 163.749993,31.7142857 165.142857,31.7142857 L298.857143,31.7142857 C300.250007,31.7142857 301.455352,32.2232092 302.473214,33.2410714 C303.491077,34.2589337 304,35.4642788 304,36.8571429 Z M304,6 L304,16.2857143 C304,17.6785784 303.491077,18.8839235 302.473214,19.9017857 C301.455352,20.9196479 300.250007,21.4285714 298.857143,21.4285714 L165.142857,21.4285714 C163.749993,21.4285714 162.544648,20.9196479 161.526786,19.9017857 C160.508923,18.8839235 160,17.6785784 160,16.2857143 L160,6 C160,4.60713589 160.508923,3.4017908 161.526786,2.38392857 C162.544648,1.36606634 163.749993,0.857142857 165.142857,0.857142857 L298.857143,0.857142857 C300.250007,0.857142857 301.455352,1.36606634 302.473214,2.38392857 C303.491077,3.4017908 304,4.60713589 304,6 Z" id=""></path>
            </g>
        </g>
    </g>
</svg>