<?xml version="1.0" encoding="utf-8"?>
<!-- Generator: Adobe Illustrator 23.0.4, SVG Export Plug-In . SVG Version: 6.00 Build 0)  -->
<svg version="1.1" id="レイヤー_1" xmlns="http://www.w3.org/2000/svg" xmlns:xlink="http://www.w3.org/1999/xlink" x="0px"
	 y="0px" viewBox="0 0 1590 2328" style="enable-background:new 0 0 1590 2328;" xml:space="preserve">
<style type="text/css">
	.st0{fill:#C2CAE6;}
	.st1{opacity:0.5;fill:#FFFFFF;enable-background:new    ;}
	.st2{fill:none;stroke:#035EA5;stroke-width:8;stroke-linecap:square;}
	.st3{fill:#1A2B68;}
	.st4{fill:#035EA5;}
	.st5{fill:none;stroke:#3C3C3B;stroke-width:16.51;stroke-linecap:round;stroke-linejoin:round;}
	.st6{fill:#3C3C3B;}
	.st7{font-family:'Helvetica';}
	.st8{font-size:44.29px;}
	.st9{font-size:27px;}
	.st10{font-size:18.12px;}
	.st11{font-size:80.02px;}
	.st12{fill:#860A3D;}
	.st13{fill:#BE8190;}
	.st14{fill:#FFFFFF;}
	.st15{fill:none;stroke:#9A9C00;stroke-width:9.269;}
	.st16{fill:#9A9C00;}
	.st17{font-family:'Helvetica-Bold';}
	.st18{font-size:39.83px;}
	.st19{fill:#F9F9F8;}
	.st20{fill:none;stroke:#000000;stroke-width:10.05;}
	.st21{fill:#EDEDED;}
	.st22{fill:#BA7100;}
	.st23{fill:none;stroke:#82368C;stroke-width:5.08;}
	.st24{fill:#82368C;}
	.st25{fill:#575756;}
	.st26{fill:none;stroke:#000000;stroke-width:7.68;}
	.st27{fill:#006F7A;}
	.st28{enable-background:new    ;}
	.st29{font-family:'SourceHanSans-Bold-83pv-RKSJ-H';}
	.st30{font-size:20px;}
	.st31{font-size:34px;}
	.st32{font-family:'SourceHanSans-Heavy-83pv-RKSJ-H';}
	.st33{font-size:130px;}
	.st34{font-size:100px;}
	.st35{font-size:80px;}
	.st36{fill-rule:evenodd;clip-rule:evenodd;fill:#AAB2AB;}
	.st37{fill-rule:evenodd;clip-rule:evenodd;}
	.st38{fill-rule:evenodd;clip-rule:evenodd;fill:#FFFFFF;}
	.st39{font-family:'HelveticaNeue';}
	.st40{font-size:12px;}
	.st41{fill-rule:evenodd;clip-rule:evenodd;fill:none;}
	.st42{font-family:'SourceHanSansJP-Normal-83pv-RKSJ-H';}
	.st43{font-size:17px;}
	.st44{letter-spacing:-8;}
</style>
<title>anxiety</title>
<desc>Created with Sketch.</desc>
<rect id="background" x="44" y="41.5" class="st0" width="1502" height="2146"/>
<rect id="Rectangle-2" x="44" y="715.5" class="st1" width="1502" height="294.4"/>
<rect x="44" y="1303.5" class="st1" width="1502" height="294.4"/>
<rect x="44" y="1901" class="st1" width="1502" height="294.4"/>
<path id="Line" class="st2" d="M121,464.5h1354"/>
<path class="st2" d="M794.5,552.2v1528.5"/>
<g id="Group-2" transform="translate(1031.000000, 0.000000)">
	<path id="Shape" class="st3" d="M313.1,286.5c4.6,0,9-0.7,13.3-1.7l0.7-7.7c1.2-15.2,14.6-26.7,29.8-25.4c2.3,0.1,4.7,0.7,6.8,1.4
		c2.9-6.6,4.4-13.9,4.4-21.6c0-30.3-24.6-55.1-55.1-55.1c-30.3,0-54.9,24.6-54.9,55.1S282.7,286.5,313.1,286.5"/>
	<path d="M408.8,172.5c-8.3-0.6-31.8,0.6-29.7,14c1.8,11.5,25,9.9,32.6,6.7c10.5-4.3,15.7-15.4,9.9-25.5c-7.6-13.4-24.3-13-36.9-7.9
		c-4.1,1.7-2.4,8.4,1.8,6.7c7.5-3,17.3-5.4,24.5-0.3c7.5,5.2,7.9,15.3-0.4,19.8c-3.3,1.8-7.2,2.2-10.9,2.2c-3,0-9.1,0.3-11.7-1.6
		c-4.9-3.2,4.7-6.2,7.5-6.9c4.4-0.9,8.7-0.9,13.2-0.6C413.3,179.7,413.3,172.9,408.8,172.5"/>
	<path class="st3" d="M229.3,437.5l26.8-68l78.6,60.4c5,3.8,10.8,5.8,17,5.8c3.8,0,7.7-0.8,11.4-2.4c9.3-4.2,15.7-13.1,16.4-23.3
		l9.5-119.4c1.2-15.3-10.2-28.8-25.5-30c-15.3-1.2-28.7,10.2-29.9,25.5l-5.5,68.4l-81.7-62.9c-4.6-3.8-9.7-7.1-15.5-9.4
		c-28.6-11.3-60.8,2.8-72.2,31.4L110,437.5H229.3z"/>
	<path d="M113.3,181.9c-1.2,9.1,1.1,19.3,8.8,24.9c6.8,4.9,16.4,5.3,22.5-1c5-5.2,6.3-14.3,1-19.8c-5.1-5.2-13.8-5.5-18.6,0
		c-3,3.4,1.9,8.3,4.8,4.9c3-3.4,9.1-2.2,10.2,2.4c1.2,4.9-3.3,9.6-7.7,10.1c-11.6,1.3-15.2-12.5-14.1-21.6
		C120.8,177.4,113.9,177.4,113.3,181.9"/>
	<path d="M189.4,229.5c9.5-2.1,15.2-11,19-19.4c3.7-8.1,7.2-17.1-0.9-23.5C191.3,174,171,184,162,200.1
		c-9.7,17.3-9.4,46.3,14.7,50.8c22.8,4.3,47.1-16.9,56.1-36.2c5.1-10.9,7.6-24.9,2.4-36.2c-5.4-11.7-17.3-15.6-29-17.9
		c-7.1-1.3-10.1,9.5-3,10.8c7.7,1.4,17.1,3,21.3,10.6c5.1,9.2,1.4,22.1-3.3,30.6c-7.2,13-31,36.1-47.4,25.3
		c-15.7-10.2-4.1-38.1,9.8-44.4c5.6-2.6,19-2.6,17,6.2c-1.4,6.7-6.9,17.3-14.1,18.9C179.5,220.2,182.4,231,189.4,229.5"/>
	<path d="M277.3,108.9c6.7,6.5,12.2,18.3,4,26.2c-3.6,3.4-9.8,4-13.3,0c-4.3-4.7,0.1-11.6,5.9-10.8c4.6,0.5,4.6-7,0-7.5
		c-8-0.9-15.1,6.1-15,14.2c0,8.3,7.9,14.4,15.6,14.5c8.5,0.1,15.5-6.6,17.7-14.8c2.7-10.3-2.3-20.3-9.5-27.1
		C279.1,100.2,273.8,105.6,277.3,108.9"/>
</g>
<path class="st4" d="M1470,1986c0,19.6-15.9,35.5-35.5,35.5s-35.5-15.9-35.5-35.5c0-19.6,15.9-35.5,35.5-35.5S1470,1966.4,1470,1986
	"/>
<polyline class="st5" points="1268,2057.5 1298.1,2136.5 1388,2136.5 "/>
<path class="st4" d="M1422.2,2098.8l2-4.4l5.6,51.1h58.2l-10.3-94.3c-1.7-15.9-13.7-26.6-31.9-25.6c-11,0.5-20.5,9.1-22,12.3
	l-21.4,46l-56.3,19.5c-6.3,2.1-9.6,9.1-7.5,15.4c1.7,5,6.4,8.2,11.4,8.2c1.3,0,2.7-0.2,4-0.6l61.2-21.2
	C1418.4,2104.1,1420.8,2101.7,1422.2,2098.8"/>
<text transform="matrix(1 0 0 1 1323.0079 2057.5046)" class="st6 st7 st8">?</text>
<text transform="matrix(1 0 0 1 1290.0079 2049.5046)" class="st6 st7 st9">?</text>
<text transform="matrix(1 0 0 1 1310.0079 2088.5046)" class="st6 st7 st9">?</text>
<text transform="matrix(1 0 0 1 1293.0079 2083.5046)" class="st6 st7 st10">?</text>
<text transform="matrix(1 0 0 1 1300.0079 2009.5048)" class="st6 st7 st8">?</text>
<text transform="matrix(1 0 0 1 1338.0079 2010.5048)" class="st6 st7 st11">?</text>
<path class="st12" d="M1270,1692.5v114c0,26.8,0,57,42.7,57h56.8c32.1,0,40-17.1,41.9-37.1l54.4-67.9c4.6-5.7,4.1-13.9-1-19
	c-1.7-1.7-11.2-10.5-24.8-10.5c-6.1,0-15,1.9-23.7,10.5l-18.4,18.5V1664c0-7.9-6.4-14.3-14.3-14.3h-14.2c0-7.9-6.4-14.2-14.2-14.2
	h-14.3c-7.8,0-14.2,6.4-14.2,14.2h-14.2c-7.8,0-14.3,6.4-14.3,14.3v14.2h-14.2C1276.3,1678.2,1270,1684.6,1270,1692.5"/>
<path class="st13" d="M1284.1,1692.2h14.3v14.3v42.6h14.2v-71.1v-14.2h14.2v14.2v71.1h14.2v-85.2v-14.3h14.3v14.3v85.2h14.3v-56.8
	v-14.3v-14.2h14.2v14.2v14.3v85.2h14.2v0.1c0,0,14.2-14.2,28.5-28.4c4.8-4.7,9.5-6.3,13.8-6.3c8.4,0,14.7,6.3,14.7,6.3l-57,70.8v0.2
	h-0.2c-0.8,18.8-5,28.4-28.3,28.4h-57c-28.5,0-28.5-14.2-28.5-42.7v-99.4v-14.3H1284.1z"/>
<polygon class="st14" points="1319.9,1826.5 1339.6,1806.9 1359.2,1826.5 1369,1816.6 1349.3,1797 1369,1777.4 1359.2,1767.5 
	1339.6,1787.2 1319.9,1767.5 1310,1777.4 1329.7,1797 1310,1816.6 "/>
<path class="st14" d="M1331.8,1340.5h-67.6c-6.2,0-11.2,4-11.2,8.8v39.4c0,4.9,5.1,8.8,11.2,8.8h67.6c6.2,0,11.2-4,11.2-8.8v-39.4
	C1343,1344.5,1337.9,1340.5,1331.8,1340.5"/>
<path class="st15" d="M1331.8,1340.5h-67.6c-6.2,0-11.2,4-11.2,8.8v39.4c0,4.9,5.1,8.8,11.2,8.8h67.6c6.2,0,11.2-4,11.2-8.8v-39.4
	C1343,1344.5,1337.9,1340.5,1331.8,1340.5z"/>
<path class="st14" d="M1439.8,1340.5h-67.6c-6.2,0-11.2,4-11.2,8.8v39.4c0,4.9,5.1,8.8,11.2,8.8h67.6c6.2,0,11.2-4,11.2-8.8v-39.4
	C1451.1,1344.5,1446,1340.5,1439.8,1340.5"/>
<path class="st15" d="M1439.8,1340.5h-67.6c-6.2,0-11.2,4-11.2,8.8v39.4c0,4.9,5.1,8.8,11.2,8.8h67.6c6.2,0,11.2-4,11.2-8.8v-39.4
	C1451.1,1344.5,1446,1340.5,1439.8,1340.5z"/>
<path class="st14" d="M1331.8,1416.5h-67.6c-6.2,0-11.2,4-11.2,8.8v39.4c0,4.9,5.1,8.8,11.2,8.8h67.6c6.2,0,11.2-4,11.2-8.8v-39.4
	C1343,1420.4,1337.9,1416.5,1331.8,1416.5"/>
<path class="st15" d="M1331.8,1416.5h-67.6c-6.2,0-11.2,4-11.2,8.8v39.4c0,4.9,5.1,8.8,11.2,8.8h67.6c6.2,0,11.2-4,11.2-8.8v-39.4
	C1343,1420.4,1337.9,1416.5,1331.8,1416.5z"/>
<path class="st16" d="M1439.8,1416.5h-67.6c-6.2,0-11.2,4-11.2,8.8v39.4c0,4.9,5.1,8.8,11.2,8.8h67.6c6.2,0,11.2-4,11.2-8.8v-39.4
	C1451.1,1420.4,1446,1416.5,1439.8,1416.5"/>
<path class="st15" d="M1439.8,1416.5h-67.6c-6.2,0-11.2,4-11.2,8.8v39.4c0,4.9,5.1,8.8,11.2,8.8h67.6c6.2,0,11.2-4,11.2-8.8v-39.4
	C1451.1,1420.4,1446,1416.5,1439.8,1416.5z"/>
<text transform="matrix(1 0 0 1 1287.0079 1383.5048)" class="st17 st18">1</text>
<text transform="matrix(1 0 0 1 1287.0079 1459.5048)" class="st17 st18">3</text>
<text transform="matrix(1 0 0 1 1395.0079 1383.5048)" class="st17 st18">2</text>
<text transform="matrix(1 0 0 1 1395.0079 1456.5048)" class="st14 st17 st18">4</text>
<path class="st19" d="M1493.9,1540.7l-52.4,26.8c0,0-50.2-23.6-54.2-25.3c-2.9-1.2-1.5-19.6,7.7-17.3l22.1,4.4
	c0,0-27.1-56.9-29.8-61.8c-2.6-5,15.7-18.7,20.3-10.4c6.2,11,16.3,32.2,16.3,32.2l39.4-8.5c0,0,8.9,1.2,12.9,9.2
	C1480.4,1497.9,1499.8,1527.8,1493.9,1540.7"/>
<path class="st20" d="M1494.9,1541.5l-52.9,27c0,0-50.7-23.8-54.7-25.6c-2.9-1.2-1.6-19.8,7.8-17.4l22.3,4.5
	c0,0-27.4-57.4-30.1-62.4c-2.7-5,15.8-18.9,20.5-10.5c6.2,11,16.5,32.5,16.5,32.5l39.7-8.6c0,0,9,1.2,13,9.3
	C1481.2,1498.3,1500.8,1528.4,1494.9,1541.5z"/>
<rect id="Rectangle-path" x="1250" y="1065.5" class="st21" width="211" height="137"/>
<path d="M1469,1222v-158.6c0-3.4-2.7-5.9-6-5.9H1247c-3.4,0-6,2.7-6,5.9V1222c0,3.4,2.7,5.9,6,5.9h73.5c3.4,0,6,2.7,6,5.9v16.4
	c0,3.4-2.7,5.9-6,5.9h-45c-3.4,0-6,2.7-6,5.9v2.3c0,3.4,2.7,5.9,6,5.9h158.9c3.4,0,6-2.7,6-5.9v-2.3c0-3.4-2.7-5.9-6-5.9h-45
	c-3.4,0-6-2.7-6-5.9v-16.4c0-3.4,2.7-5.9,6-5.9h73.5C1466.3,1228.1,1469,1225.4,1469,1222 M1255.2,1183v-105.3c0-3.4,2.7-5.9,6-5.9
	h187.5c3.4,0,6,2.7,6,5.9V1183c0,3.4-2.7,5.9-6,5.9h-187.3C1257.9,1188.9,1255.2,1186.2,1255.2,1183"/>
<rect x="1269" y="1081.5" class="st22" width="172" height="98"/>
<polygon class="st14" points="1362.9,1123.5 1362.9,1108.5 1373,1108.5 1358.1,1088.5 1343,1108.5 1352.8,1108.5 1352.8,1123.5 "/>
<polygon class="st14" points="1367,1136.5 1382,1136.5 1382,1146.5 1402,1131.6 1382,1116.5 1382,1126.5 1367,1126.5 "/>
<polygon class="st14" points="1352.8,1140.5 1352.8,1155.6 1343,1155.6 1358.1,1175.5 1373,1155.6 1362.9,1155.6 1362.9,1140.5 "/>
<polygon class="st14" points="1347,1136.5 1332,1136.5 1332,1146.5 1312,1131.6 1332,1116.5 1332,1126.5 1347,1126.5 "/>
<path class="st6" d="M1423.2,773.7h11.8v-22.2h-163v22.2h14.1c1.7,42.4,17.3,70.2,44.4,79.2v23.6c-26.7,8.9-42.2,36.1-44.3,77.8
	H1272v22.2h162.9v-22.2H1423c-2.1-41.7-17.6-68.9-44.3-77.8v-23.6C1405.9,844,1421.4,816.1,1423.2,773.7L1423.2,773.7z
	 M1371.8,886.1c29.9,7.5,38.6,39.4,40.2,68.2h-114.6c1.4-28.8,10.1-60.7,40-68.2l4.3-1.1v-40.6l-4.3-1.1
	c-30.4-7.6-38.8-40.4-40.1-69.6h114.8c-1.3,29.3-9.7,62-40.2,69.6l-4.3,1.1V885L1371.8,886.1z"/>
<polygon class="st12" points="1379,819.5 1333,819.5 1344.5,833 1356,846.5 1367.5,833 "/>
<polygon class="st12" points="1354.7,900.5 1316,953.5 1394,953.5 "/>
<path class="st23" d="M540.5,1966.5h-33c-3,0-5.5,2.4-5.5,5.3v23.5c0,2.9,2.5,5.3,5.5,5.3h33c3,0,5.5-2.4,5.5-5.3v-23.5
	C546,1968.9,543.5,1966.5,540.5,1966.5z"/>
<path class="st24" d="M729.5,1966.5h-157c-3,0-5.4,2.4-5.4,5.3v23.5c0,2.9,2.4,5.3,5.4,5.3h157.1c3,0,5.4-2.4,5.4-5.3v-23.5
	C735,1968.9,732.6,1966.5,729.5,1966.5"/>
<path class="st23" d="M540.5,2029.5h-33c-3,0-5.5,2.4-5.5,5.3v23.5c0,2.9,2.5,5.3,5.5,5.3h33c3,0,5.5-2.4,5.5-5.3v-23.5
	C546,2031.9,543.5,2029.5,540.5,2029.5z"/>
<path class="st24" d="M729.5,2029.5h-157c-3,0-5.4,2.4-5.4,5.3v23.5c0,2.9,2.4,5.3,5.4,5.3h157.1c3,0,5.4-2.4,5.4-5.3v-23.5
	C735,2031.9,732.6,2029.5,729.5,2029.5"/>
<path class="st23" d="M540.5,2086.5h-33c-3,0-5.5,2.4-5.5,5.3v23.5c0,2.9,2.5,5.3,5.5,5.3h33c3,0,5.5-2.4,5.5-5.3v-23.5
	C546,2088.9,543.5,2086.5,540.5,2086.5z"/>
<path class="st24" d="M729.5,2087.5h-157c-3,0-5.4,2.4-5.4,5.3v23.5c0,2.9,2.4,5.3,5.4,5.3h157.1c3,0,5.4-2.4,5.4-5.3v-23.5
	C735,2089.9,732.6,2087.5,729.5,2087.5"/>
<path class="st25" d="M556.1,1954.3c-2.1-1.3-5-0.9-6.5,0.9l-23.5,28l-7.8-8.6c-1.5-1.7-4.5-2-6.5-0.6c-2,1.4-2.3,3.9-0.8,5.7
	l15.4,17l30.7-36.6C558.6,1958.1,558.2,1955.5,556.1,1954.3"/>
<path class="st25" d="M556.1,2017.3c-2.1-1.3-5-0.9-6.5,0.9l-23.5,28l-7.8-8.6c-1.5-1.7-4.5-2-6.5-0.6c-2,1.4-2.3,3.9-0.8,5.7
	l15.4,17l30.7-36.6C558.6,2021.1,558.2,2018.5,556.1,2017.3"/>
<path class="st25" d="M556.1,2074.3c-2.1-1.3-5-0.9-6.5,0.9l-23.5,28l-7.8-8.6c-1.5-1.7-4.5-2-6.5-0.6c-2,1.4-2.3,3.9-0.8,5.7
	l15.4,17l30.7-36.6C558.6,2078.1,558.2,2075.5,556.1,2074.3"/>
<path class="st22" d="M634.7,1669.8c0,9.6-7.8,17.5-17.4,17.5c-9.6,0-17.4-7.8-17.4-17.5s7.8-17.5,17.4-17.5
	C626.9,1652.5,634.7,1660.4,634.7,1669.8"/>
<path class="st22" d="M618.1,1696L618.1,1696c-32.4,0-32.4,17.9-32.4,39.5v7.8c0,2.7,2.1,4.7,4.7,4.7h55.3c2.7,0,4.7-2.1,4.7-4.7
	v-7.8C650.4,1713.7,653.4,1696,618.1,1696"/>
<path class="st22" d="M583.9,1659c0,9.6-7.8,17.5-17.4,17.5s-17.4-7.8-17.4-17.5s7.8-17.5,17.4-17.5S583.9,1649.3,583.9,1659"/>
<path class="st22" d="M589.8,1688.6c-4.9-2.8-12-4.3-22.5-4.3l0,0c-32.4,0-32.4,17.9-32.4,39.5v7.8c0,2.7,2.1,4.7,4.7,4.7H580v-5.6
	c0-14.7,0-27.4,9.8-34.2C592.5,1694.6,592.7,1690.4,589.8,1688.6"/>
<path class="st22" d="M653.5,1659c0,9.6,7.8,17.5,17.4,17.5c9.6,0,17.4-7.8,17.4-17.5s-7.8-17.5-17.4-17.5
	C661.3,1641.5,653.5,1649.3,653.5,1659"/>
<path class="st22" d="M670.1,1684.2L670.1,1684.2c-10.5,0-17.6,1.5-22.5,4.3c-2.9,1.7-2.8,6,0,8c9.8,6.8,9.8,19.7,9.8,34.2v5.6h40.3
	c2.7,0,4.7-2.1,4.7-4.7v-7.8C702.6,1702,702.6,1684.2,670.1,1684.2"/>
<path class="st26" d="M536.2,1833.1h-9.6c-4.2,0-7.5-3.4-7.5-7.5v-59.1c0-4.2,3.3-7.5,7.5-7.5h9.6c4.2,0,7.5,3.4,7.5,7.5v59.1
	C543.7,1829.7,540.4,1833.1,536.2,1833.1z"/>
<path class="st26" d="M657.4,1794.3c0,0,37.4-9.1,43.5-10.9c10.6-3.2,14.4,11.7,12.4,15.9c-3.6,7.7-85.4,37.3-85.4,37.3
	s-6.3,2.1-11.4,0c-8.4-4.9-71.9-13.8-74.2-12.4l0.1-55.6c0,0,20.9,6.8,31.3,2.7c8.8-3.4,18.4-11.4,31.4-2.5
	c13,8.9,40.2,18.8,44.8,20.1c10.3,3.1,6.4,19.1-5,19l-38.1-10.5"/>
<path class="st27" d="M673.6,1362.5H515.9c-3.3,0-5.9,2.8-5.9,6.1v14.7c0,3.4,2.7,6.1,5.9,6.1h157.7c2.4,0,4.4-2.1,4.4-4.5v-18
	C678,1364.6,676.1,1362.5,673.6,1362.5"/>
<path class="st27" d="M719.4,1397.5H517.6c-4.2,0-7.6,2.8-7.6,6.1v14.7c0,3.4,3.4,6.1,7.6,6.1h201.8c3.1,0,5.6-2.1,5.6-4.5v-18
	C725,1399.5,722.5,1397.5,719.4,1397.5"/>
<path class="st3" d="M674.6,1438.5H550.9c-3.3,0-5.9,2.8-5.9,6.1v14.7c0,3.4,2.7,6.1,5.9,6.1h123.7c2.4,0,4.4-2.1,4.4-4.5v-18
	C679,1440.6,677,1438.5,674.6,1438.5"/>
<path class="st3" d="M720.4,1473.5H552.6c-4.1,0-7.6,2.8-7.6,6.1v14.7c0,3.4,3.4,6.1,7.6,6.1h167.8c3.1,0,5.6-2.1,5.6-4.5v-18
	C726,1475.5,723.4,1473.5,720.4,1473.5"/>
<path class="st3" d="M534,1452.5c0,6.2-4.9,11-11,11c-6.1,0-11-5-11-11c0-6.2,4.9-11,11-11C529.1,1441.5,534,1446.5,534,1452.5"/>
<path class="st3" d="M534,1487.6c0,6.1-4.9,10.9-11,10.9c-6.1,0-11-4.9-11-10.9c0-6.1,4.9-11.1,11-11.1
	C529.1,1476.5,534,1481.4,534,1487.6"/>
<path class="st3" d="M720.4,1509.5H552.6c-4.1,0-7.6,2.8-7.6,6.1v14.7c0,3.4,3.4,6.1,7.6,6.1h167.8c3.1,0,5.6-2.1,5.6-4.5v-18
	C726,1511.6,723.4,1509.5,720.4,1509.5"/>
<path class="st3" d="M534,1523.6c0,6.1-4.9,10.9-11,10.9c-6.1,0-11-4.9-11-10.9c0-6.1,4.9-11.1,11-11.1
	C529.1,1512.6,534,1517.4,534,1523.6"/>
<rect x="515" y="1063.5" class="st21" width="210" height="137"/>
<path d="M730,1221.5v-157.1c0-3.3-2.7-5.9-5.9-5.9H510.9c-3.3,0-5.9,2.7-5.9,5.9v157.1c0,3.3,2.7,5.9,5.9,5.9h72.5
	c3.3,0,5.9,2.7,5.9,5.9v16.3c0,3.3-2.7,5.9-5.9,5.9h-44.4c-3.3,0-5.9,2.7-5.9,5.9v2.3c0,3.3,2.7,5.9,5.9,5.9h156.9
	c3.3,0,5.9-2.7,5.9-5.9v-2.3c0-3.3-2.7-5.9-5.9-5.9h-44.4c-3.3,0-5.9-2.7-5.9-5.9v-16.3c0-3.3,2.7-5.9,5.9-5.9H724
	C727.3,1227.5,730,1224.8,730,1221.5 M519,1182.8v-104.3c0-3.3,2.7-5.9,5.9-5.9H710c3.3,0,5.9,2.7,5.9,5.9v104.3
	c0,3.3-2.7,5.9-5.9,5.9H524.9C521.6,1188.7,519,1186,519,1182.8"/>
<rect x="533.5" y="1090.7" class="st4" width="169.7" height="69"/>
<text transform="matrix(1 0 0 1 558.3887 1121.5048)" class="st28"><tspan x="0" y="0" class="st14 st29 st30">確認メールを</tspan><tspan x="0" y="24" class="st14 st29 st30">送信しました</tspan></text>
<text transform="matrix(1 0 0 1 861 829.0754)" class="st28"><tspan x="0" y="0" class="st29 st31">ユーザーを急がせたり、</tspan><tspan x="0" y="45" class="st29 st31">必要のない</tspan><tspan x="0" y="90" class="st29 st31">時間制限を設ける</tspan></text>
<path class="st16" d="M619.3,750.4c-62,0-112.3,50.4-112.3,112.2c0,61.9,50.5,112.2,112.3,112.2c62,0,112.3-50.4,112.3-112.2
	S681.3,750.4,619.3,750.4 M619.3,951.2c-49,0-88.7-39.7-88.7-88.6c0-48.9,39.8-88.6,88.7-88.6s88.7,39.7,88.7,88.6
	C708,911.5,668.2,951.2,619.3,951.2"/>
<path class="st16" d="M660.4,857.7h-30.6c-1.1-1.8-2.7-3.4-4.5-4.5v-36.7c0-3.9-3.1-7-7-7s-7,3.1-7,7v36.7
	c-3.9,2.4-6.4,6.6-6.4,11.5c0,7.4,6,13.4,13.4,13.4c4.9,0,9.1-2.5,11.4-6.4h30.6c3.9,0,7-3.1,7-7
	C667.4,860.9,664.2,857.7,660.4,857.7"/>
<text transform="matrix(1 0 0 1 111.312 266.6739)" class="st32 st33">不安状態</text>
<text transform="matrix(1 0 0 1 111 624.0047)" class="st32 st34">すること</text>
<text transform="matrix(1 0 0 1 854 624.0047)" class="st32 st34">しないこと</text>
<text transform="matrix(1 0 0 1 115 851.5757)" class="st28"><tspan x="0" y="0" class="st29 st31">操作を終えるのに</tspan><tspan x="0" y="45" class="st29 st31">十分な時間がある</tspan></text>
<text transform="matrix(1 0 0 1 861 1123.0758)" class="st28"><tspan x="0" y="0" class="st29 st31">次にすることや</tspan><tspan x="0" y="45" class="st29 st31">時間制限で</tspan><tspan x="0" y="90" class="st29 st31">利用者を混乱させる</tspan></text>
<text transform="matrix(1 0 0 1 115 1145.5758)" class="st28"><tspan x="0" y="0" class="st29 st31">これから</tspan><tspan x="0" y="45" class="st29 st31">何が起こるかを説明する</tspan></text>
<text transform="matrix(1 0 0 1 861 1439.5752)" class="st28"><tspan x="0" y="0" class="st29 st31">操作の結果が</tspan><tspan x="0" y="45" class="st29 st31">はっきりわからない</tspan></text>
<text transform="matrix(1 0 0 1 115 1462.0759)" class="st29 st31">重要な情報は明確に</text>
<text transform="matrix(1 0 0 1 861 1738.3457)" class="st28"><tspan x="0" y="0" class="st29 st31">サポートやヘルプに</tspan><tspan x="0" y="45" class="st29 st31">アクセスしづらい</tspan></text>
<text transform="matrix(1 0 0 1 115 1738.3464)" class="st28"><tspan x="0" y="0" class="st29 st31">操作を完了するために</tspan><tspan x="0" y="45" class="st29 st31">必要なサポートを提供する</tspan></text>
<text transform="matrix(1 0 0 1 861 2037.116)" class="st28"><tspan x="0" y="0" class="st29 st31">質問に回答した</tspan><tspan x="0" y="45" class="st29 st31">ユーザーを放置しない</tspan></text>
<text transform="matrix(1 0 0 1 115 2037.1167)" class="st28"><tspan x="0" y="0" class="st29 st31">ユーザーが送信前に</tspan><tspan x="0" y="45" class="st29 st31">入力内容を確認できる</tspan></text>
<text transform="matrix(1 0 0 1 110 389.7138)" class="st32 st35">のためのデザイン</text>
<g>
	<g id="by-nc-sa" transform="translate(496.000000, 2244.000000)">
		<g id="svg2759">
			<g id="layer1">
				<g id="g117" transform="translate(0.146431, 0.094636)">
					<path id="path3817_5_" class="st36" d="M-448.7-2l113.4,0.2c1.6,0,3-0.2,3,3.2l-0.2,37.2h-119.1V1.2
						C-451.6-0.5-451.4-2-448.7-2L-448.7-2z"/>
					<path id="path120" class="st37" d="M-334.4-2.5h-115.5c-1.2,0-2.2,1-2.2,2.2v39.2c0,0.3,0.2,0.5,0.5,0.5h119
						c0.3,0,0.5-0.2,0.5-0.5V-0.2C-332.1-1.5-333.2-2.5-334.4-2.5L-334.4-2.5z M-449.9-1.5h115.5c0.7,0,1.2,0.6,1.2,1.2v27.2h-82.5
						c-3,5.5-8.9,9.2-15.5,9.2c-6.7,0-12.5-3.7-15.5-9.2h-4.4V-0.2C-451.1-0.9-450.6-1.5-449.9-1.5L-449.9-1.5z"/>
					<g id="g5908_5_" transform="translate(5.650292, 4.589011)">
						<path id="path5906_5_" class="st38" d="M-423.3,12.5c0,7.5-6.1,13.6-13.6,13.6s-13.6-6.1-13.6-13.6l0,0
							c0-7.5,6.1-13.6,13.6-13.6C-429.4-1.2-423.3,4.9-423.3,12.5L-423.3,12.5L-423.3,12.5z"/>
						<g id="g5706_5_" transform="translate(0.333377, 0.056641)">
							<path id="path5708_5_" class="st37" d="M-426.2,1.3c3,3,4.5,6.7,4.5,11.1s-1.5,8-4.5,11c-3.2,3.1-6.9,4.7-11.2,4.7
								c-4.2,0-7.9-1.5-11-4.6c-3.1-3.1-4.6-6.8-4.6-11c0-4.3,1.5-8,4.6-11.1c3-3,6.7-4.5,11-4.5C-432.9-3.2-429.2-1.7-426.2,1.3
								L-426.2,1.3z M-446.2,3.3c-2.6,2.6-3.8,5.6-3.8,9.1s1.3,6.5,3.8,9s5.5,3.8,9,3.8s6.5-1.3,9.1-3.8c2.5-2.4,3.7-5.4,3.7-9
								s-1.2-6.6-3.7-9.1c-2.6-2.5-5.6-3.7-9.1-3.7S-443.8,0.8-446.2,3.3L-446.2,3.3z M-439.5,10.9c-0.4-0.9-1-1.3-1.8-1.3
								c-1.4,0-2.1,0.9-2.1,2.8s0.7,2.8,2.1,2.8c0.9,0,1.6-0.5,2-1.4l1.9,1c-0.9,1.6-2.3,2.4-4.1,2.4c-1.4,0-2.5-0.4-3.4-1.3
								c-0.8-0.9-1.3-2-1.3-3.6c0-1.5,0.4-2.7,1.3-3.5c0.9-0.9,2-1.3,3.3-1.3c1.9,0,3.3,0.8,4.1,2.3L-439.5,10.9L-439.5,10.9z
								 M-430.5,10.9c-0.4-0.9-1-1.3-1.7-1.3c-1.4,0-2.1,0.9-2.1,2.8s0.7,2.8,2.1,2.8c0.9,0,1.6-0.5,1.9-1.4l2,1
								c-0.9,1.6-2.3,2.4-4.1,2.4c-1.4,0-2.5-0.4-3.4-1.3c-0.8-0.9-1.3-2-1.3-3.6c0-1.5,0.4-2.7,1.3-3.5c0.9-0.9,1.9-1.3,3.3-1.3
								c1.9,0,3.3,0.8,4.1,2.3L-430.5,10.9L-430.5,10.9z"/>
						</g>
					</g>
					<g id="g126" transform="translate(40.745013, 3.974678)">
						<ellipse id="circle128" class="st38" cx="-441.1" cy="8.8" rx="10.7" ry="10.7"/>
						<g id="g130" transform="translate(7.950246, 3.974678)">
							<path id="path132" class="st37" d="M-446,1.7c0-0.4-0.3-0.7-0.7-0.7h-4.8c-0.4,0-0.7,0.3-0.7,0.7v4.7h1.3V12h3.6V6.4h1.3V1.7
								L-446,1.7L-446,1.7z"/>
							<ellipse id="circle134" class="st37" cx="-449.1" cy="-1.3" rx="1.6" ry="1.6"/>
						</g>
						<path id="path136" class="st37" d="M-441.2-3.1c-3.2,0-5.9,1.1-8.2,3.4c-2.2,2.3-3.3,5-3.3,8.2s1.1,5.9,3.4,8.2
							c2.3,2.3,5,3.4,8.2,3.4c3.2,0,6-1.1,8.3-3.4c2.2-2.2,3.3-4.9,3.3-8.1s-1.1-6-3.4-8.2C-435.2-1.8-437.9-3.1-441.2-3.1
							L-441.2-3.1z M-441.1-1c2.6,0,4.9,0.9,6.7,2.8c1.9,1.8,2.8,4.1,2.8,6.7c0,2.7-0.9,4.9-2.7,6.6c-1.9,1.9-4.2,2.8-6.8,2.8
							c-2.6,0-4.8-0.9-6.7-2.8s-2.8-4.1-2.8-6.7s0.9-4.8,2.8-6.7C-446-0.1-443.8-1-441.1-1L-441.1-1z"/>
					</g>
					<g id="g138" transform="translate(45.713917, 32.791097)">
						<path id="path140" class="st38" d="M-449.5-2.5c0.3,0,0.6,0,0.9,0.1c0.3,0,0.5,0.1,0.7,0.2c0.2,0.1,0.3,0.3,0.4,0.5
							c0.1,0.2,0.2,0.5,0.2,0.8s-0.1,0.6-0.2,0.8c-0.2,0.3-0.4,0.4-0.7,0.6c0.4,0.1,0.7,0.3,0.9,0.6c0.2,0.3,0.3,0.6,0.3,1.1
							c0,0.3-0.1,0.6-0.2,0.9c-0.1,0.2-0.3,0.4-0.5,0.5c-0.3,0.2-0.5,0.3-0.8,0.4c-0.3,0-0.6,0.1-0.9,0.1h-3.2v-6.6H-449.5
							L-449.5-2.5L-449.5-2.5z M-449.6,0.1c0.3,0,0.5-0.1,0.6-0.2c0.2-0.1,0.2-0.3,0.2-0.5s0-0.3-0.1-0.4c0-0.1-0.1-0.2-0.2-0.3
							c-0.1,0-0.2-0.1-0.3-0.1c-0.1,0-0.2,0-0.4,0h-1.3v1.5H-449.6L-449.6,0.1z M-449.6,3c0.1,0,0.3,0,0.4,0s0.2-0.1,0.3-0.1
							c0.2-0.2,0.3-0.3,0.3-0.4c0.1-0.1,0.1-0.3,0.1-0.4c0-0.3-0.1-0.6-0.3-0.7c-0.2-0.2-0.4-0.3-0.7-0.3h-1.6v1.8L-449.6,3
							L-449.6,3z"/>
						<polygon id="path142" class="st38" points="-446.8,-2.5 -445.1,-2.5 -443.6,0.1 -442,-2.5 -440.4,-2.5 -442.9,1.5 -442.9,4.1 
							-444.3,4.1 -444.3,1.5 						"/>
					</g>
					<g id="g144" transform="translate(97.390518, 32.791097)">
						<path id="path146" class="st38" d="M-451.1,2.4c0.1,0.2,0.2,0.3,0.3,0.4s0.3,0.2,0.5,0.2c0.2,0,0.4,0.1,0.6,0.1
							c0.1,0,0.3,0,0.4,0S-449,3-448.9,3c0.1-0.1,0.2-0.1,0.3-0.3c0.1-0.1,0.1-0.3,0.1-0.4c0-0.2-0.1-0.3-0.2-0.4
							c-0.1-0.2-0.2-0.3-0.4-0.3c-0.2-0.1-0.4-0.2-0.6-0.2c-0.3-0.1-0.5-0.1-0.7-0.2c-0.3-0.1-0.5-0.2-0.8-0.2
							c-0.2-0.1-0.4-0.2-0.6-0.4c-0.2-0.1-0.3-0.3-0.4-0.5s-0.2-0.5-0.2-0.8s0.1-0.6,0.2-0.9c0.2-0.2,0.3-0.4,0.6-0.6
							c0.2-0.2,0.5-0.3,0.8-0.4c0.3-0.1,0.6-0.1,0.9-0.1c0.3,0,0.7,0,1,0.1c0.3,0.1,0.6,0.2,0.8,0.4c0.2,0.2,0.4,0.4,0.6,0.7
							c0.1,0.3,0.2,0.6,0.2,1h-1.4c0-0.2-0.1-0.4-0.1-0.5c-0.1-0.2-0.2-0.3-0.3-0.4c-0.1,0-0.3-0.1-0.4-0.1c-0.2,0-0.3,0-0.5,0
							c-0.1,0-0.2,0-0.4,0c-0.1,0-0.2,0-0.3,0.1c-0.1,0.1-0.1,0.1-0.2,0.2C-451-1.1-451-1-451-0.8c0,0.1,0,0.2,0.1,0.3
							c0,0.1,0.1,0.2,0.3,0.2c0.1,0.1,0.3,0.2,0.6,0.2c0.3,0.1,0.6,0.2,1,0.3c0.1,0,0.3,0.1,0.5,0.1c0.2,0.1,0.4,0.2,0.6,0.3
							c0.2,0.1,0.4,0.3,0.6,0.6c0.2,0.2,0.2,0.5,0.2,0.9c0,0.3-0.1,0.6-0.2,0.8c0,0.3-0.2,0.5-0.5,0.7c-0.2,0.2-0.5,0.4-0.8,0.5
							c-0.4,0.1-0.8,0.1-1.2,0.1s-0.7,0-1.1-0.1c-0.3-0.1-0.6-0.2-0.9-0.4c-0.2-0.2-0.5-0.5-0.6-0.8c-0.2-0.3-0.2-0.6-0.2-1h1.4
							C-451.2,2.1-451.2,2.3-451.1,2.4L-451.1,2.4z"/>
						<path id="path148" class="st38" d="M-442.9-2.5l2.5,6.6h-1.5l-0.5-1.5h-2.5l-0.5,1.5h-1.5l2.5-6.6H-442.9L-442.9-2.5z
							 M-442.8,1.5l-0.8-2.4l0,0l-0.9,2.4H-442.8L-442.8,1.5z"/>
					</g>
					<g id="g150" transform="translate(71.552218, 32.791097)">
						<polygon id="path152" class="st38" points="-451.2,-2.5 -448.4,1.9 -448.4,1.9 -448.4,-2.5 -447,-2.5 -447,4.1 -448.5,4.1 
							-451.2,-0.4 -451.3,-0.4 -451.3,4.1 -452.6,4.1 -452.6,-2.5 						"/>
						<path id="path154" class="st38" d="M-441.5-0.8c-0.1-0.1-0.2-0.3-0.3-0.4c-0.2,0-0.3-0.1-0.5-0.2c-0.2-0.1-0.3-0.1-0.5-0.1
							c-0.3,0-0.6,0.1-0.8,0.2c-0.2,0.1-0.4,0.3-0.6,0.5c-0.1,0.2-0.2,0.5-0.3,0.8c-0.1,0.3-0.1,0.5-0.1,0.8c0,0.3,0,0.5,0.1,0.8
							c0.1,0.3,0.2,0.5,0.3,0.7c0.2,0.2,0.4,0.4,0.6,0.5c0.2,0.1,0.5,0.2,0.8,0.2c0.4,0,0.8-0.1,1-0.4c0.3-0.3,0.4-0.6,0.5-1.1h1.4
							c0,0.4-0.1,0.8-0.3,1.1c-0.2,0.3-0.4,0.6-0.6,0.9s-0.6,0.4-0.9,0.5s-0.7,0.2-1.1,0.2c-0.5,0-1-0.1-1.4-0.3
							c-0.4-0.2-0.7-0.4-1-0.7c-0.3-0.3-0.5-0.6-0.6-1.1c-0.2-0.4-0.2-0.8-0.2-1.3s0.1-1,0.2-1.4s0.3-0.8,0.6-1.1s0.6-0.6,1-0.7
							c0.4-0.2,0.9-0.3,1.4-0.3c0.4,0,0.7,0.1,1,0.2c0.3,0.1,0.6,0.3,0.9,0.5c0.3,0.2,0.5,0.5,0.6,0.7s0.3,0.6,0.3,1h-1.4
							C-441.4-0.5-441.4-0.6-441.5-0.8L-441.5-0.8z"/>
					</g>
					<g id="g6332_1_" transform="translate(92.715436, 3.537181)">
						<path id="path6334_1_" class="st38" d="M-430.3,8.9c0,5.8-4.7,10.6-10.6,10.6c-5.8,0-10.6-4.7-10.6-10.6l0,0
							c0-5.8,4.7-10.6,10.6-10.6C-435-1.6-430.3,3.1-430.3,8.9L-430.3,8.9L-430.3,8.9z"/>
						<g id="g6336_1_" transform="translate(0.029751, 0.167916)">
							<path id="path6338_1_" class="st37" d="M-441-2.8c-3.2,0-5.9,1.1-8.2,3.4c-2.2,2.3-3.4,5-3.4,8.2s1.1,5.9,3.4,8.2
								s5,3.4,8.2,3.4c3.2,0,6-1.2,8.3-3.4c2.2-2.2,3.3-4.9,3.3-8.1s-1.1-6-3.4-8.2C-435-1.7-437.7-2.8-441-2.8L-441-2.8z
								 M-440.9-0.7c2.6,0,4.9,0.9,6.7,2.8c1.9,1.8,2.8,4.1,2.8,6.7c0,2.7-0.9,4.9-2.7,6.6c-1.9,1.9-4.2,2.8-6.8,2.8
								s-4.8-0.9-6.7-2.8c-1.9-1.9-2.8-4.1-2.8-6.7s0.9-4.8,2.8-6.7C-445.8,0.2-443.6-0.7-440.9-0.7L-440.9-0.7z"/>
							<path id="path6340_1_" class="st37" d="M-446.1,7.1c0.4-2.9,2.5-4.4,5.1-4.4c3.7,0,6,2.7,6,6.3c0,3.5-2.4,6.2-6,6.2
								c-2.5,0-4.7-1.5-5.1-4.5h2.9c0.1,1.6,1.1,2.1,2.5,2.1c1.6,0,2.7-1.5,2.7-3.9c0-2.5-0.9-3.8-2.7-3.8c-1.3,0-2.4,0.5-2.6,2.1
								h0.8l-2.3,2.3l-2.2-2.4H-446.1L-446.1,7.1z"/>
						</g>
					</g>
					<g id="g6361_1_" transform="translate(66.419849, 3.823348)">
						<path id="path6363_1_" class="st38" d="M-429.9,8.7c0,6-4.8,10.8-10.8,10.8s-10.8-4.8-10.8-10.8l0,0c0-6,4.8-10.8,10.8-10.8
							C-434.8-2.1-429.9,2.7-429.9,8.7L-429.9,8.7L-429.9,8.7z"/>
						<path id="path6365_1_" class="st37" d="M-440.7-2.9c3.3,0,6,1.1,8.2,3.4c2.2,2.2,3.4,5,3.4,8.2s-1.1,6-3.3,8.1
							c-2.3,2.3-5.1,3.4-8.3,3.4s-5.9-1.1-8.2-3.4c-2.3-2.3-3.4-5-3.4-8.2s1.1-5.9,3.4-8.2C-446.7-1.8-444-2.9-440.7-2.9L-440.7-2.9
							z M-449.7,5.5c-0.3,1-0.5,2-0.5,3.1c0,2.6,0.9,4.8,2.8,6.7c1.9,1.9,4.1,2.8,6.7,2.8s4.8-0.9,6.8-2.8c0.6-0.6,1.2-1.3,1.6-2
							l-4.4-1.9c-0.3,1.5-1.6,2.5-3.2,2.6v1.8h-1.3V14c-1.3,0-2.6-0.5-3.5-1.4l1.6-1.6c0.8,0.7,1.5,1,2.6,1c0.7,0,1.4-0.3,1.4-1.2
							c0-0.3-0.1-0.5-0.3-0.7l-1.2-0.5L-442,9c-0.7-0.3-1.3-0.6-1.8-0.8L-449.7,5.5L-449.7,5.5z M-440.7-0.8c-2.6,0-4.9,0.9-6.7,2.8
							c-0.5,0.5-0.9,1-1.3,1.6l4.4,2c0.4-1.2,1.6-2,3-2.1V1.6h1.3v1.8c1,0.1,2,0.3,3,1.1l-1.5,1.6c-0.6-0.4-1.3-0.7-2-0.7
							c-0.6,0-1.4,0.2-1.4,0.9c0,0.1,0,0.2,0.1,0.3l1.5,0.7l1,0.4c0.6,0.3,1.3,0.6,1.9,0.8l5.9,2.6c0.2-0.8,0.3-1.6,0.3-2.5
							c0-2.6-0.9-4.9-2.8-6.7C-435.8,0.1-438.1-0.8-440.7-0.8L-440.7-0.8z"/>
					</g>
				</g>
			</g>
		</g>
	</g>
	<text transform="matrix(1 0 0 1 187.9536 2248)" class="st39 st40">This work is licensed under the Creative Commons Attribution-</text>
	<text transform="matrix(1 0 0 1 187.9536 2266)" class="st39 st40">NonCommercial-ShareAlike 4.0 International License. To view a copy of </text>
	<text transform="matrix(1 0 0 1 187.9536 2284)" class="st39 st40">this license, visit http://creativecommons.org/licenses/by-nc-sa/4.0/.</text>
</g>
<rect x="707.5" y="2224.2" class="st41" width="822.4" height="86.8"/>
<text transform="matrix(1 0 0 1 707.5385 2239.1938)"><tspan x="0" y="0" class="st42 st43">英国内務省（UK Home Office）が制作した、アクセシビリティの啓発ポスターを日本語訳したものです</tspan><tspan x="786.8" y="0" class="st42 st43 st44">。</tspan><tspan x="0" y="27" class="st42 st43">原本は GitHub に公開されています</tspan><tspan x="267" y="27" class="st42 st43 st44">。</tspan><tspan x="0" y="54" class="st42 st43">https://github.com/UKHomeOffice/posters/tree/master/accessibility/dos-donts</tspan></text>
<text transform="matrix(1 0 0 1 1402.1696 2291.2065)" class="st39 st40">thanks: A11YJ Slack Team</text>
</svg>
