<?xml version="1.0" encoding="utf-8"?>
<!-- Generator: Adobe Illustrator 23.0.4, SVG Export Plug-In . SVG Version: 6.00 Build 0)  -->
<svg version="1.1" id="レイヤー_1" xmlns="http://www.w3.org/2000/svg" xmlns:xlink="http://www.w3.org/1999/xlink" x="0px"
	 y="0px" viewBox="0 0 1590 2328" style="enable-background:new 0 0 1590 2328;" xml:space="preserve">
<style type="text/css">
	.st0{fill-rule:evenodd;clip-rule:evenodd;fill:#EDE2D0;}
	.st1{font-family:'SourceHanSans-Heavy-83pv-RKSJ-H';}
	.st2{font-size:130px;}
	.st3{opacity:0.25;fill-rule:evenodd;clip-rule:evenodd;fill:#DF3034;enable-background:new    ;}
	.st4{opacity:0.25;fill-rule:evenodd;clip-rule:evenodd;fill:#F47738;enable-background:new    ;}
	.st5{opacity:0.25;fill-rule:evenodd;clip-rule:evenodd;fill:#FFBF47;enable-background:new    ;}
	.st6{opacity:0.25;fill-rule:evenodd;clip-rule:evenodd;fill:#85994B;enable-background:new    ;}
	.st7{opacity:0.25;fill-rule:evenodd;clip-rule:evenodd;fill:#2E8ACA;enable-background:new    ;}
	.st8{opacity:0.25;fill-rule:evenodd;clip-rule:evenodd;fill:#6F71AF;enable-background:new    ;}
	.st9{opacity:0.5;fill-rule:evenodd;clip-rule:evenodd;fill:#FFFFFF;enable-background:new    ;}
	.st10{fill:none;stroke:#F47738;stroke-width:8;stroke-linecap:square;}
	.st11{font-size:100px;}
	.st12{enable-background:new    ;}
	.st13{font-family:'SourceHanSans-Bold-83pv-RKSJ-H';}
	.st14{font-size:34px;}
	.st15{fill-rule:evenodd;clip-rule:evenodd;fill:#FFFFFF;}
	.st16{fill:#0B0C0C;}
	.st17{font-family:'FontAwesome';}
	.st18{font-size:237.955px;}
	.st19{fill-rule:evenodd;clip-rule:evenodd;fill:#FFBF47;}
	.st20{fill-rule:evenodd;clip-rule:evenodd;fill:#F47738;}
	.st21{fill-rule:evenodd;clip-rule:evenodd;fill:#28A197;}
	.st22{font-family:'HelveticaNeue-Bold';}
	.st23{fill:#333333;}
	.st24{font-size:237.4922px;}
	.st25{fill-rule:evenodd;clip-rule:evenodd;fill:#B58840;}
	.st26{fill:#FFFFFF;}
	.st27{fill:#F47738;}
	.st28{font-size:144px;}
	.st29{font-size:84px;}
	.st30{opacity:0.8;fill-rule:evenodd;clip-rule:evenodd;fill:#F47738;enable-background:new    ;}
	.st31{opacity:0.7976;fill-rule:evenodd;clip-rule:evenodd;fill:#FFBF47;enable-background:new    ;}
	.st32{opacity:0.8;fill-rule:evenodd;clip-rule:evenodd;fill:#28A197;enable-background:new    ;}
	.st33{opacity:0.9397;fill-rule:evenodd;clip-rule:evenodd;fill:#F5157C;enable-background:new    ;}
	.st34{opacity:0.91;fill-rule:evenodd;clip-rule:evenodd;fill:#BD0FE1;enable-background:new    ;}
	.st35{opacity:0.8794;fill-rule:evenodd;clip-rule:evenodd;fill:#F8E81C;enable-background:new    ;}
	.st36{font-size:80px;}
	.st37{fill:#F47738;enable-background:new    ;}
	.st38{fill:#42A6D3;}
	.st39{fill:none;stroke:#000000;stroke-width:5;stroke-linecap:round;stroke-miterlimit:10;}
	.st40{fill-rule:evenodd;clip-rule:evenodd;fill:#AAB2AB;}
	.st41{fill-rule:evenodd;clip-rule:evenodd;}
	.st42{font-family:'HelveticaNeue';}
	.st43{font-size:12px;}
	.st44{fill-rule:evenodd;clip-rule:evenodd;fill:none;}
	.st45{font-family:'SourceHanSansJP-Normal-83pv-RKSJ-H';}
	.st46{font-size:17px;}
	.st47{letter-spacing:-8;}
</style>
<title>Autistic spectrum</title>
<desc>Created with Sketch.</desc>
<rect id="background" x="44" y="50" class="st0" width="1502" height="2146"/>
<text transform="matrix(1 0 0 1 111.312 266.6692)" class="st1 st2">自閉症スペクトラム</text>
<ellipse id="Oval-23" class="st3" cx="1255.9" cy="228.3" rx="75.9" ry="75.3"/>
<ellipse class="st4" cx="1325.5" cy="189.3" rx="75.9" ry="75.3"/>
<ellipse class="st5" cx="1395.1" cy="228.3" rx="75.9" ry="75.3"/>
<path class="st6" d="M1395.1,383.3c41.9,0,75.9-33.7,75.9-75.3s-34-75.3-75.9-75.3s-75.9,33.7-75.9,75.3S1353.2,383.3,1395.1,383.3z
	"/>
<path class="st7" d="M1325.5,417c41.9,0,75.9-33.7,75.9-75.3s-34-75.3-75.9-75.3s-75.9,33.7-75.9,75.3S1283.6,417,1325.5,417z"/>
<path class="st8" d="M1255.9,383.3c41.9,0,75.9-33.7,75.9-75.3s-34-75.3-75.9-75.3S1180,266.4,1180,308S1214,383.3,1255.9,383.3z"/>
<rect id="Rectangle-2" x="44" y="724" class="st9" width="1502" height="294.4"/>
<rect x="44" y="1312" class="st9" width="1502" height="294.4"/>
<rect x="44" y="1909.5" class="st9" width="1502" height="294.4"/>
<path id="Line" class="st10" d="M121,473h1354"/>
<path class="st10" d="M791,557.5V2086"/>
<text transform="matrix(1 0 0 1 111 624)" class="st1 st11">すること</text>
<text transform="matrix(1 0 0 1 854 624)" class="st1 st11">しないこと</text>
<g id="Do-5" transform="translate(115.000000, 1941.000000)">
	<text transform="matrix(1 0 0 1 0 102.2339)" class="st12"><tspan x="0" y="0" class="st13 st14">簡潔で一貫した</tspan><tspan x="0" y="45" class="st13 st14">レイアウトを構築する</tspan></text>
	<text transform="matrix(1 0 0 1 265.5021 109)" class="st13 st14"> </text>
	<g id="Group" transform="translate(402.000000, 0.000000)">
		<rect id="Rectangle-236" x="14.2" y="28.3" class="st15" width="129.7" height="142.3"/>
		<text transform="matrix(1 0 0 1 0 204)" class="st16 st17 st18"></text>
		<rect id="Rectangle-51" x="25" y="41.4" class="st19" width="104.1" height="24.8"/>
		<rect x="25" y="78.6" class="st20" width="104.1" height="10.3"/>
		<rect x="25" y="99.3" class="st20" width="104.1" height="10.3"/>
		<rect x="25" y="120" class="st20" width="104.1" height="10.3"/>
		<rect id="Rectangle-63" x="25" y="141.8" class="st21" width="38.5" height="15.5"/>
	</g>
</g>
<g id="Dont-5" transform="translate(862.000000, 1940.000000)">
	<text transform="matrix(1 0 0 1 0 80.7339)" class="st12"><tspan x="0" y="0" class="st13 st14">複雑でごちゃごちゃした</tspan><tspan x="0" y="45" class="st13 st14">レイアウトを構築する</tspan></text>
	<text transform="matrix(1 0 0 1 297.0198 110)" class="st22 st14"> </text>
	<g transform="translate(414.000000, 0.000000)">
		<rect x="13" y="29" class="st15" width="125" height="171"/>
		<text transform="matrix(1 0 0 1 0 204)" class="st23 st17 st24"></text>
		<rect x="72.4" y="72.4" class="st25" width="60" height="10.3"/>
		<rect x="22.4" y="72.4" class="st20" width="45" height="10.3"/>
		<rect x="22.4" y="88.4" class="st19" width="45" height="10.3"/>
		<rect x="72.4" y="88" class="st20" width="60" height="10.3"/>
		<rect x="21.7" y="103.5" class="st25" width="60" height="10.3"/>
		<rect x="21.7" y="119" class="st20" width="60" height="10.3"/>
		<rect x="21.7" y="134.5" class="st25" width="60" height="10.3"/>
		<rect x="21.7" y="150" class="st21" width="110.6" height="16.6"/>
		<rect x="21.7" y="38.3" class="st15" width="110.6" height="30"/>
		<rect x="86.3" y="103.5" class="st19" width="45" height="10.3"/>
		<rect x="86.3" y="119.5" class="st21" width="45" height="10.3"/>
		<rect x="86.3" y="134.5" class="st19" width="22" height="10.3"/>
		<rect x="113.3" y="134.5" class="st25" width="18" height="10.3"/>
		<rect x="22" y="42.4" class="st19" width="110.1" height="24.8"/>
	</g>
</g>
<g id="Do-4" transform="translate(115.000000, 1714.000000)">
	<text transform="matrix(1 0 0 1 0 34.4732)" class="st12"><tspan x="0" y="0" class="st13 st14">説明的な</tspan><tspan x="0" y="45" class="st13 st14">ボタンにする</tspan></text>
	<rect id="Rectangle-5" x="365" y="0" class="st21" width="236" height="96"/>
	<text transform="matrix(1 0 0 1 381.0005 62)" class="st26 st13 st14">添付ファイル</text>
</g>
<g id="Dont-4" transform="translate(862.000000, 1686.000000)">
	<text transform="matrix(1 0 0 1 0 62.4732)" class="st12"><tspan x="0" y="0" class="st13 st14">曖昧で予測不能な</tspan><tspan x="0" y="45" class="st13 st14">ボタンにする</tspan></text>
	<text transform="matrix(1 0 0 1 222.8661 33)" class="st22 st14"> </text>
	<rect x="373" y="18" class="st21" width="236" height="96"/>
	<text transform="matrix(1 0 0 1 372 80)" class="st26 st13 st14">ここをクリック</text>
</g>
<g id="Do-3" transform="translate(115.000000, 1383.000000)">
	<g id="Page-1" transform="translate(403.000000, 11.000000)">
		<path id="Fill-1" class="st20" d="M20.7,10.3c0,5.7-4.6,10.3-10.3,10.3C4.6,20.7,0,16.1,0,10.3S4.6,0,10.3,0
			C16.1,0,20.7,4.6,20.7,10.3L20.7,10.3z"/>
		<path id="Fill-3" class="st20" d="M20.7,40c0,5.7-4.6,10.3-10.3,10.3C4.6,50.4,0,45.7,0,40s4.6-10.3,10.3-10.3
			C16.1,29.7,20.7,34.3,20.7,40"/>
		<path class="st20" d="M20.7,69c0,5.7-4.6,10.3-10.3,10.3C4.6,79.4,0,74.7,0,69s4.6-10.3,10.3-10.3C16.1,58.7,20.7,63.3,20.7,69"/>
		<path id="Fill-9" class="st20" d="M20.7,99.7c0,5.7-4.6,10.3-10.3,10.3C4.6,110.1,0,105.4,0,99.7C0,94,4.6,89.4,10.3,89.4
			C16.1,89.4,20.7,94,20.7,99.7"/>
	</g>
	<text transform="matrix(1 0 0 1 0 62.6932)" class="st12"><tspan x="0" y="0" class="st13 st14">簡単な文章と</tspan><tspan x="0" y="45" class="st13 st14">箇条書きを使う</tspan></text>
	<text transform="matrix(1 0 0 1 442 123)" class="st27 st17 st28"></text>
</g>
<g id="Dont-3" transform="translate(861.000000, 1383.000000)">
	<text transform="matrix(1 0 0 1 0 62.6939)" class="st12"><tspan x="0" y="0" class="st13 st14">区切りのない長文で</tspan><tspan x="0" y="45" class="st13 st14">文字の壁をつくる</tspan></text>
	<text transform="matrix(1 0 0 1 326 123)" class="st27 st17 st28"></text>
	<text transform="matrix(1 0 0 1 486 123)" class="st27 st17 st28"></text>
</g>
<g id="Do-2" transform="translate(115.000000, 1113.000000)">
	<text transform="matrix(1 0 0 1 325 82)" class="st16 st22 st29">Do this.</text>
	<text transform="matrix(1 0 0 1 0 38.6932)" class="st12"><tspan x="0" y="0" class="st13 st14">やさしい言葉で</tspan><tspan x="0" y="45" class="st13 st14">書く</tspan></text>
</g>
<text transform="matrix(1 0 0 1 861 1151.6932)" class="st12"><tspan x="0" y="0" class="st13 st14">比喩表現や</tspan><tspan x="0" y="45" class="st13 st14">慣用句を使う</tspan></text>
<text transform="matrix(1 0 0 1 115 882.5709)" class="st13 st14">単純な色を使う</text>
<circle id="Oval-29" class="st30" cx="547" cy="903" r="55"/>
<circle class="st31" cx="586" cy="838" r="55"/>
<circle class="st32" cx="631" cy="903" r="55"/>
<circle id="Oval-1" class="st33" cx="1305.5" cy="890.5" r="54.5"/>
<circle class="st34" cx="1395.5" cy="890.5" r="54.5"/>
<circle class="st35" cx="1354.5" cy="826.5" r="54.5"/>
<text transform="matrix(1 0 0 1 861 857.6932)" class="st12"><tspan x="0" y="0" class="st13 st14">鮮やかで</tspan><tspan x="0" y="45" class="st13 st14">まぶしい色を使う</tspan></text>
<text transform="matrix(1 0 0 1 110 389.7091)" class="st1 st36">のためのデザイン</text>
<g>
	<path class="st37" d="M1462.6,1159.9c-8.4,8.4-19.5,19.5-19.5,19.5c-7.1,7.1-9.7,24.2-12.9,34.4c-6.1,19.8-13.3,38.8-18.7,46.9
		c-7,10.5-16.7,2.7-11.7-5.6c6.3-10.5,6.4-21.7,6.8-26.1c0.3-4.9-3.6-6.7-5.6-1.9c-1.8,6.5-9.8,30.4-20.4,42.5
		c-11.5,13-25.6,1.9-16.2-8.2c18.6-20.1,18.1-36.3,19.3-42.8c0.8-4.5-1.2-5.9-3.1-2.2c-10.1,19.6-22.5,32.5-34.2,39.1
		c-11.5,6.5-23.1-6-10.4-14.7c19.9-13.7,25-24.5,29.4-35c0.9-2.2-1.5-2.9-2.3-2.3c-12.5,9.9-34.5,16-40.9,16.8
		c-9.7,1.3-13.8-12.7-3.1-16.3c25-8.3,59-30.2,54-46.9c-2.8-9.4-15.5-10.4-24.2,4.3c-6.1,8.2-20.2,0.5-10.7-15.8
		c5.6-9.7,18.3-19.4,32.1-17.8c10.6,1.2,19.1,4.8,26.8,3.3c5.5-1.1,17.7-13.1,24.2-19.9l40.1-48.4l49.5,52.7L1462.6,1159.9z"/>
	<g>
		<path class="st38" d="M1265.8,1067.8c-15.3,11.9-29,44.9-31.8,51.7c-2.8,6.8-12.2,6.5-18.2,9.1c-9.9,4.3-19.9,13.2-21.9,25.6
			c-1.7,10.5,5,26.5,25.8,24.1c17.9-2,28.4-19.3,25-41.8c-3.3-21.9,29.3-47.3,37.5-54C1294.2,1072.9,1281.1,1055.9,1265.8,1067.8z"
			/>
	</g>
	<path class="st39" d="M1262,1133.9c24.7,1.5,43.6,11.1,53.2,36.6"/>
	<path class="st39" d="M1269.5,1163.1c19.6-0.9,31,10.2,37.8,20.7"/>
</g>
<g>
	<g id="by-nc-sa" transform="translate(496.000000, 2244.000000)">
		<g id="svg2759">
			<g id="layer1">
				<g id="g117" transform="translate(0.146431, 0.094636)">
					<path id="path3817_5_" class="st40" d="M-448.7-2l113.4,0.2c1.6,0,3-0.2,3,3.2l-0.2,37.2h-119.1V1.2
						C-451.6-0.5-451.4-2-448.7-2L-448.7-2z"/>
					<path id="path120" class="st41" d="M-334.4-2.5h-115.5c-1.2,0-2.2,1-2.2,2.2v39.2c0,0.3,0.2,0.5,0.5,0.5h119
						c0.3,0,0.5-0.2,0.5-0.5V-0.2C-332.1-1.5-333.2-2.5-334.4-2.5L-334.4-2.5z M-449.9-1.5h115.5c0.7,0,1.2,0.6,1.2,1.2v27.2h-82.5
						c-3,5.5-8.9,9.2-15.5,9.2c-6.7,0-12.5-3.7-15.5-9.2h-4.4V-0.2C-451.1-0.9-450.6-1.5-449.9-1.5L-449.9-1.5z"/>
					<g id="g5908_5_" transform="translate(5.650292, 4.589011)">
						<path id="path5906_5_" class="st15" d="M-423.3,12.5c0,7.5-6.1,13.6-13.6,13.6s-13.6-6.1-13.6-13.6l0,0
							c0-7.5,6.1-13.6,13.6-13.6C-429.4-1.2-423.3,4.9-423.3,12.5L-423.3,12.5L-423.3,12.5z"/>
						<g id="g5706_5_" transform="translate(0.333377, 0.056641)">
							<path id="path5708_5_" class="st41" d="M-426.2,1.3c3,3,4.5,6.7,4.5,11.1s-1.5,8-4.5,11c-3.2,3.1-6.9,4.7-11.2,4.7
								c-4.2,0-7.9-1.5-11-4.6c-3.1-3.1-4.6-6.8-4.6-11c0-4.3,1.5-8,4.6-11.1c3-3,6.7-4.5,11-4.5C-432.9-3.2-429.2-1.7-426.2,1.3
								L-426.2,1.3z M-446.2,3.3c-2.6,2.6-3.8,5.6-3.8,9.1s1.3,6.5,3.8,9s5.5,3.8,9,3.8s6.5-1.3,9.1-3.8c2.5-2.4,3.7-5.4,3.7-9
								s-1.2-6.6-3.7-9.1c-2.6-2.5-5.6-3.7-9.1-3.7S-443.8,0.8-446.2,3.3L-446.2,3.3z M-439.5,10.9c-0.4-0.9-1-1.3-1.8-1.3
								c-1.4,0-2.1,0.9-2.1,2.8s0.7,2.8,2.1,2.8c0.9,0,1.6-0.5,2-1.4l1.9,1c-0.9,1.6-2.3,2.4-4.1,2.4c-1.4,0-2.5-0.4-3.4-1.3
								c-0.8-0.9-1.3-2-1.3-3.6c0-1.5,0.4-2.7,1.3-3.5c0.9-0.9,2-1.3,3.3-1.3c1.9,0,3.3,0.8,4.1,2.3L-439.5,10.9L-439.5,10.9z
								 M-430.5,10.9c-0.4-0.9-1-1.3-1.7-1.3c-1.4,0-2.1,0.9-2.1,2.8s0.7,2.8,2.1,2.8c0.9,0,1.6-0.5,1.9-1.4l2,1
								c-0.9,1.6-2.3,2.4-4.1,2.4c-1.4,0-2.5-0.4-3.4-1.3c-0.8-0.9-1.3-2-1.3-3.6c0-1.5,0.4-2.7,1.3-3.5c0.9-0.9,1.9-1.3,3.3-1.3
								c1.9,0,3.3,0.8,4.1,2.3L-430.5,10.9L-430.5,10.9z"/>
						</g>
					</g>
					<g id="g126" transform="translate(40.745013, 3.974678)">
						<ellipse id="circle128" class="st15" cx="-441.1" cy="8.8" rx="10.7" ry="10.7"/>
						<g id="g130" transform="translate(7.950246, 3.974678)">
							<path id="path132" class="st41" d="M-446,1.7c0-0.4-0.3-0.7-0.7-0.7h-4.8c-0.4,0-0.7,0.3-0.7,0.7v4.7h1.3V12h3.6V6.4h1.3V1.7
								L-446,1.7L-446,1.7z"/>
							<ellipse id="circle134" class="st41" cx="-449.1" cy="-1.3" rx="1.6" ry="1.6"/>
						</g>
						<path id="path136" class="st41" d="M-441.2-3.1c-3.2,0-5.9,1.1-8.2,3.4c-2.2,2.3-3.3,5-3.3,8.2s1.1,5.9,3.4,8.2
							c2.3,2.3,5,3.4,8.2,3.4c3.2,0,6-1.1,8.3-3.4c2.2-2.2,3.3-4.9,3.3-8.1s-1.1-6-3.4-8.2C-435.2-1.8-437.9-3.1-441.2-3.1
							L-441.2-3.1z M-441.1-1c2.6,0,4.9,0.9,6.7,2.8c1.9,1.8,2.8,4.1,2.8,6.7c0,2.7-0.9,4.9-2.7,6.6c-1.9,1.9-4.2,2.8-6.8,2.8
							c-2.6,0-4.8-0.9-6.7-2.8s-2.8-4.1-2.8-6.7s0.9-4.8,2.8-6.7C-446-0.1-443.8-1-441.1-1L-441.1-1z"/>
					</g>
					<g id="g138" transform="translate(45.713917, 32.791097)">
						<path id="path140" class="st15" d="M-449.5-2.5c0.3,0,0.6,0,0.9,0.1c0.3,0,0.5,0.1,0.7,0.2c0.2,0.1,0.3,0.3,0.4,0.5
							c0.1,0.2,0.2,0.5,0.2,0.8s-0.1,0.6-0.2,0.8c-0.2,0.3-0.4,0.4-0.7,0.6c0.4,0.1,0.7,0.3,0.9,0.6c0.2,0.3,0.3,0.6,0.3,1.1
							c0,0.3-0.1,0.6-0.2,0.9c-0.1,0.2-0.3,0.4-0.5,0.5c-0.3,0.2-0.5,0.3-0.8,0.4c-0.3,0-0.6,0.1-0.9,0.1h-3.2v-6.6H-449.5
							L-449.5-2.5L-449.5-2.5z M-449.6,0.1c0.3,0,0.5-0.1,0.6-0.2c0.2-0.1,0.2-0.3,0.2-0.5s0-0.3-0.1-0.4c0-0.1-0.1-0.2-0.2-0.3
							c-0.1,0-0.2-0.1-0.3-0.1c-0.1,0-0.2,0-0.4,0h-1.3v1.5H-449.6L-449.6,0.1z M-449.6,3c0.1,0,0.3,0,0.4,0s0.2-0.1,0.3-0.1
							c0.2-0.2,0.3-0.3,0.3-0.4c0.1-0.1,0.1-0.3,0.1-0.4c0-0.3-0.1-0.6-0.3-0.7c-0.2-0.2-0.4-0.3-0.7-0.3h-1.6v1.8L-449.6,3
							L-449.6,3z"/>
						<polygon id="path142" class="st15" points="-446.8,-2.5 -445.1,-2.5 -443.6,0.1 -442,-2.5 -440.4,-2.5 -442.9,1.5 -442.9,4.1 
							-444.3,4.1 -444.3,1.5 						"/>
					</g>
					<g id="g144" transform="translate(97.390518, 32.791097)">
						<path id="path146" class="st15" d="M-451.1,2.4c0.1,0.2,0.2,0.3,0.3,0.4s0.3,0.2,0.5,0.2c0.2,0,0.4,0.1,0.6,0.1
							c0.1,0,0.3,0,0.4,0S-449,3-448.9,3c0.1-0.1,0.2-0.1,0.3-0.3c0.1-0.1,0.1-0.3,0.1-0.4c0-0.2-0.1-0.3-0.2-0.4
							c-0.1-0.2-0.2-0.3-0.4-0.3c-0.2-0.1-0.4-0.2-0.6-0.2c-0.3-0.1-0.5-0.1-0.7-0.2c-0.3-0.1-0.5-0.2-0.8-0.2
							c-0.2-0.1-0.4-0.2-0.6-0.4c-0.2-0.1-0.3-0.3-0.4-0.5s-0.2-0.5-0.2-0.8s0.1-0.6,0.2-0.9c0.2-0.2,0.3-0.4,0.6-0.6
							c0.2-0.2,0.5-0.3,0.8-0.4c0.3-0.1,0.6-0.1,0.9-0.1c0.3,0,0.7,0,1,0.1c0.3,0.1,0.6,0.2,0.8,0.4c0.2,0.2,0.4,0.4,0.6,0.7
							c0.1,0.3,0.2,0.6,0.2,1h-1.4c0-0.2-0.1-0.4-0.1-0.5c-0.1-0.2-0.2-0.3-0.3-0.4c-0.1,0-0.3-0.1-0.4-0.1c-0.2,0-0.3,0-0.5,0
							c-0.1,0-0.2,0-0.4,0c-0.1,0-0.2,0-0.3,0.1c-0.1,0.1-0.1,0.1-0.2,0.2C-451-1.1-451-1-451-0.8c0,0.1,0,0.2,0.1,0.3
							c0,0.1,0.1,0.2,0.3,0.2c0.1,0.1,0.3,0.2,0.6,0.2c0.3,0.1,0.6,0.2,1,0.3c0.1,0,0.3,0.1,0.5,0.1c0.2,0.1,0.4,0.2,0.6,0.3
							c0.2,0.1,0.4,0.3,0.6,0.6c0.2,0.2,0.2,0.5,0.2,0.9c0,0.3-0.1,0.6-0.2,0.8c0,0.3-0.2,0.5-0.5,0.7c-0.2,0.2-0.5,0.4-0.8,0.5
							c-0.4,0.1-0.8,0.1-1.2,0.1s-0.7,0-1.1-0.1c-0.3-0.1-0.6-0.2-0.9-0.4c-0.2-0.2-0.5-0.5-0.6-0.8c-0.2-0.3-0.2-0.6-0.2-1h1.4
							C-451.2,2.1-451.2,2.3-451.1,2.4L-451.1,2.4z"/>
						<path id="path148" class="st15" d="M-442.9-2.5l2.5,6.6h-1.5l-0.5-1.5h-2.5l-0.5,1.5h-1.5l2.5-6.6H-442.9L-442.9-2.5z
							 M-442.8,1.5l-0.8-2.4l0,0l-0.9,2.4H-442.8L-442.8,1.5z"/>
					</g>
					<g id="g150" transform="translate(71.552218, 32.791097)">
						<polygon id="path152" class="st15" points="-451.2,-2.5 -448.4,1.9 -448.4,1.9 -448.4,-2.5 -447,-2.5 -447,4.1 -448.5,4.1 
							-451.2,-0.4 -451.3,-0.4 -451.3,4.1 -452.6,4.1 -452.6,-2.5 						"/>
						<path id="path154" class="st15" d="M-441.5-0.8c-0.1-0.1-0.2-0.3-0.3-0.4c-0.2,0-0.3-0.1-0.5-0.2c-0.2-0.1-0.3-0.1-0.5-0.1
							c-0.3,0-0.6,0.1-0.8,0.2c-0.2,0.1-0.4,0.3-0.6,0.5c-0.1,0.2-0.2,0.5-0.3,0.8c-0.1,0.3-0.1,0.5-0.1,0.8c0,0.3,0,0.5,0.1,0.8
							c0.1,0.3,0.2,0.5,0.3,0.7c0.2,0.2,0.4,0.4,0.6,0.5c0.2,0.1,0.5,0.2,0.8,0.2c0.4,0,0.8-0.1,1-0.4c0.3-0.3,0.4-0.6,0.5-1.1h1.4
							c0,0.4-0.1,0.8-0.3,1.1c-0.2,0.3-0.4,0.6-0.6,0.9s-0.6,0.4-0.9,0.5s-0.7,0.2-1.1,0.2c-0.5,0-1-0.1-1.4-0.3
							c-0.4-0.2-0.7-0.4-1-0.7c-0.3-0.3-0.5-0.6-0.6-1.1c-0.2-0.4-0.2-0.8-0.2-1.3s0.1-1,0.2-1.4s0.3-0.8,0.6-1.1s0.6-0.6,1-0.7
							c0.4-0.2,0.9-0.3,1.4-0.3c0.4,0,0.7,0.1,1,0.2c0.3,0.1,0.6,0.3,0.9,0.5c0.3,0.2,0.5,0.5,0.6,0.7s0.3,0.6,0.3,1h-1.4
							C-441.4-0.5-441.4-0.6-441.5-0.8L-441.5-0.8z"/>
					</g>
					<g id="g6332_1_" transform="translate(92.715436, 3.537181)">
						<path id="path6334_1_" class="st15" d="M-430.3,8.9c0,5.8-4.7,10.6-10.6,10.6c-5.8,0-10.6-4.7-10.6-10.6l0,0
							c0-5.8,4.7-10.6,10.6-10.6C-435-1.6-430.3,3.1-430.3,8.9L-430.3,8.9L-430.3,8.9z"/>
						<g id="g6336_1_" transform="translate(0.029751, 0.167916)">
							<path id="path6338_1_" class="st41" d="M-441-2.8c-3.2,0-5.9,1.1-8.2,3.4c-2.2,2.3-3.4,5-3.4,8.2s1.1,5.9,3.4,8.2
								s5,3.4,8.2,3.4c3.2,0,6-1.2,8.3-3.4c2.2-2.2,3.3-4.9,3.3-8.1s-1.1-6-3.4-8.2C-435-1.7-437.7-2.8-441-2.8L-441-2.8z
								 M-440.9-0.7c2.6,0,4.9,0.9,6.7,2.8c1.9,1.8,2.8,4.1,2.8,6.7c0,2.7-0.9,4.9-2.7,6.6c-1.9,1.9-4.2,2.8-6.8,2.8
								s-4.8-0.9-6.7-2.8c-1.9-1.9-2.8-4.1-2.8-6.7s0.9-4.8,2.8-6.7C-445.8,0.2-443.6-0.7-440.9-0.7L-440.9-0.7z"/>
							<path id="path6340_1_" class="st41" d="M-446.1,7.1c0.4-2.9,2.5-4.4,5.1-4.4c3.7,0,6,2.7,6,6.3c0,3.5-2.4,6.2-6,6.2
								c-2.5,0-4.7-1.5-5.1-4.5h2.9c0.1,1.6,1.1,2.1,2.5,2.1c1.6,0,2.7-1.5,2.7-3.9c0-2.5-0.9-3.8-2.7-3.8c-1.3,0-2.4,0.5-2.6,2.1
								h0.8l-2.3,2.3l-2.2-2.4H-446.1L-446.1,7.1z"/>
						</g>
					</g>
					<g id="g6361_1_" transform="translate(66.419849, 3.823348)">
						<path id="path6363_1_" class="st15" d="M-429.9,8.7c0,6-4.8,10.8-10.8,10.8s-10.8-4.8-10.8-10.8l0,0c0-6,4.8-10.8,10.8-10.8
							C-434.8-2.1-429.9,2.7-429.9,8.7L-429.9,8.7L-429.9,8.7z"/>
						<path id="path6365_1_" class="st41" d="M-440.7-2.9c3.3,0,6,1.1,8.2,3.4c2.2,2.2,3.4,5,3.4,8.2s-1.1,6-3.3,8.1
							c-2.3,2.3-5.1,3.4-8.3,3.4s-5.9-1.1-8.2-3.4c-2.3-2.3-3.4-5-3.4-8.2s1.1-5.9,3.4-8.2C-446.7-1.8-444-2.9-440.7-2.9L-440.7-2.9
							z M-449.7,5.5c-0.3,1-0.5,2-0.5,3.1c0,2.6,0.9,4.8,2.8,6.7c1.9,1.9,4.1,2.8,6.7,2.8s4.8-0.9,6.8-2.8c0.6-0.6,1.2-1.3,1.6-2
							l-4.4-1.9c-0.3,1.5-1.6,2.5-3.2,2.6v1.8h-1.3V14c-1.3,0-2.6-0.5-3.5-1.4l1.6-1.6c0.8,0.7,1.5,1,2.6,1c0.7,0,1.4-0.3,1.4-1.2
							c0-0.3-0.1-0.5-0.3-0.7l-1.2-0.5L-442,9c-0.7-0.3-1.3-0.6-1.8-0.8L-449.7,5.5L-449.7,5.5z M-440.7-0.8c-2.6,0-4.9,0.9-6.7,2.8
							c-0.5,0.5-0.9,1-1.3,1.6l4.4,2c0.4-1.2,1.6-2,3-2.1V1.6h1.3v1.8c1,0.1,2,0.3,3,1.1l-1.5,1.6c-0.6-0.4-1.3-0.7-2-0.7
							c-0.6,0-1.4,0.2-1.4,0.9c0,0.1,0,0.2,0.1,0.3l1.5,0.7l1,0.4c0.6,0.3,1.3,0.6,1.9,0.8l5.9,2.6c0.2-0.8,0.3-1.6,0.3-2.5
							c0-2.6-0.9-4.9-2.8-6.7C-435.8,0.1-438.1-0.8-440.7-0.8L-440.7-0.8z"/>
					</g>
				</g>
			</g>
		</g>
	</g>
	<text transform="matrix(1 0 0 1 187.9536 2248)" class="st42 st43">This work is licensed under the Creative Commons Attribution-</text>
	<text transform="matrix(1 0 0 1 187.9536 2266)" class="st42 st43">NonCommercial-ShareAlike 4.0 International License. To view a copy of </text>
	<text transform="matrix(1 0 0 1 187.9536 2284)" class="st42 st43">this license, visit http://creativecommons.org/licenses/by-nc-sa/4.0/.</text>
</g>
<rect x="707.5" y="2224.2" class="st44" width="822.4" height="86.8"/>
<text transform="matrix(1 0 0 1 707.5385 2239.1938)"><tspan x="0" y="0" class="st45 st46">英国内務省（UK Home Office）が制作した、アクセシビリティの啓発ポスターを日本語訳したものです</tspan><tspan x="786.8" y="0" class="st45 st46 st47">。</tspan><tspan x="0" y="27" class="st45 st46">原本は GitHub に公開されています</tspan><tspan x="267" y="27" class="st45 st46 st47">。</tspan><tspan x="0" y="54" class="st45 st46">https://github.com/UKHomeOffice/posters/tree/master/accessibility/dos-donts</tspan></text>
<text transform="matrix(1 0 0 1 1402.1696 2291.2065)" class="st42 st43">thanks: A11YJ Slack Team</text>
</svg>
