<?xml version="1.0" encoding="utf-8"?>
<!-- Generator: Adobe Illustrator 23.0.4, SVG Export Plug-In . SVG Version: 6.00 Build 0)  -->
<svg version="1.1" id="レイヤー_1" xmlns="http://www.w3.org/2000/svg" xmlns:xlink="http://www.w3.org/1999/xlink" x="0px"
	 y="0px" viewBox="0 0 1590 2328" style="enable-background:new 0 0 1590 2328;" xml:space="preserve">
<style type="text/css">
	.st0{fill-rule:evenodd;clip-rule:evenodd;fill:#D9E8E1;}
	.st1{opacity:0.5;fill-rule:evenodd;clip-rule:evenodd;fill:#FFFFFF;enable-background:new    ;}
	.st2{fill:none;stroke:#FFBF47;stroke-width:8;stroke-linecap:square;}
	.st3{font-family:'HelveticaNeue-Bold';}
	.st4{font-size:34px;}
	.st5{fill:#F47738;}
	.st6{font-family:'FontAwesome';}
	.st7{font-size:144px;}
	.st8{fill:#28A197;}
	.st9{font-size:100px;}
	.st10{fill-rule:evenodd;clip-rule:evenodd;fill:#F47738;}
	.st11{fill-rule:evenodd;clip-rule:evenodd;fill:#B58840;}
	.st12{fill-rule:evenodd;clip-rule:evenodd;fill:#FFBF47;}
	.st13{fill-rule:evenodd;clip-rule:evenodd;fill:#28A197;}
	.st14{fill-rule:evenodd;clip-rule:evenodd;fill:#FFFFFF;}
	.st15{fill:#333333;}
	.st16{font-size:237.4922px;}
	.st17{fill:#0B0C0C;}
	.st18{font-size:237.955px;}
	.st19{fill:#FFBF47;}
	.st20{font-size:225px;}
	.st21{fill:#DF3034;}
	.st22{font-size:190px;}
	.st23{font-size:84px;}
	.st24{opacity:0.6767;fill-rule:evenodd;clip-rule:evenodd;fill:#F8F8F8;enable-background:new    ;}
	.st25{font-size:270px;}
	.st26{fill:#F47738;enable-background:new    ;}
	.st27{fill:#42A6D3;}
	.st28{fill:none;stroke:#000000;stroke-width:5;stroke-linecap:round;stroke-miterlimit:10;}
	.st29{fill-rule:evenodd;clip-rule:evenodd;fill:#AAB2AB;}
	.st30{fill-rule:evenodd;clip-rule:evenodd;}
	.st31{font-family:'HelveticaNeue';}
	.st32{font-size:12px;}
	.st33{fill-rule:evenodd;clip-rule:evenodd;fill:none;}
	.st34{font-family:'SourceHanSansJP-Normal-83pv-RKSJ-H';}
	.st35{font-size:17px;}
	.st36{letter-spacing:-8;}
	.st37{font-family:'SourceHanSansJP-Heavy-83pv-RKSJ-H';}
	.st38{font-size:130px;}
	.st39{enable-background:new    ;}
	.st40{font-family:'SourceHanSans-Bold-83pv-RKSJ-H';}
	.st41{font-size:80px;}
</style>
<title>Deaf and hard of hearing</title>
<desc>Created with Sketch.</desc>
<g id="Deaf-and-hard-of-hearing">
	<rect id="background" x="44" y="50" class="st0" width="1502" height="2146"/>
	<rect id="Rectangle-2" x="44" y="724" class="st1" width="1502" height="294.4"/>
	<rect x="44" y="1312" class="st1" width="1502" height="294.4"/>
	<rect x="44" y="1909.5" class="st1" width="1502" height="294.4"/>
	<path id="Line" class="st2" d="M121,473h1354"/>
	<path class="st2" d="M791,557.5V2086"/>
	<g id="Do-5" transform="translate(117.000000, 1967.000000)">
		<text transform="matrix(1 0 0 1 324.1632 73)" class="st3 st4"> </text>
		<text transform="matrix(1 0 0 1 333.0585 113)" class="st3 st4"> </text>
		<text transform="matrix(1 0 0 1 420 129)" class="st5 st6 st7"></text>
	</g>
	<g id="Dont-5" transform="translate(863.000000, 1937.000000)">
		<text transform="matrix(1 0 0 1 383 123)" class="st8 st6 st7"></text>
		<text transform="matrix(-1 0 0 1 595 189)" class="st5 st6 st9"></text>
	</g>
	<g id="Dont-4" transform="translate(863.000000, 1682.000000)">
		<text transform="matrix(1 0 0 1 269.418 89)" class="st3 st4"> </text>
		<text transform="matrix(1 0 0 1 323 123)" class="st5 st6 st7"></text>
		<text transform="matrix(1 0 0 1 483 123)" class="st5 st6 st7"></text>
	</g>
	<g id="Do-4" transform="translate(115.000000, 1662.000000)">
		<text transform="matrix(1 0 0 1 275.8433 69)" class="st3 st4"> </text>
		<text transform="matrix(1 0 0 1 308.443 109)" class="st3 st4"> </text>
		<g id="Group-4" transform="translate(394.000000, 0.000000)">
			<path id="Rectangle-95" class="st10" d="M5,0h134c2.8,0,5,2.2,5,5v11c0,2.8-2.2,5-5,5H5c-2.8,0-5-2.2-5-5V5C0,2.2,2.2,0,5,0z"/>
			<path class="st10" d="M0,35c0-2.8,2.2-5,5-5h177c2.8,0,5,2.2,5,5v11c0,2.8-2.2,5-5,5h-56.7H5c-2.8,0-5-2.2-5-5V35z"/>
			<path class="st11" d="M0,77c0-2.8,2.2-5,5-5h85c2.8,0,5,2.2,5,5v11c0,2.8-2.2,5-5,5H63.7H5c-2.8,0-5-2.2-5-5V77z"/>
			<path class="st11" d="M0,109c0-2.8,2.2-5,5-5h85c2.8,0,5,2.2,5,5v11c0,2.8-2.2,5-5,5H63.7H5c-2.8,0-5-2.2-5-5V109z"/>
			<path id="Rectangle-136" class="st12" d="M117,65h60c5,0,9,4,9,9v43c0,5-4,9-9,9h-60c-5,0-9-4-9-9V74C108,69,112,65,117,65z"/>
			<path class="st13" d="M30,147c0-2.8,2.2-5,5-5h147c2.8,0,5,2.2,5,5v11c0,2.8-2.2,5-5,5h-46.7H35c-2.8,0-5-2.2-5-5V147z"/>
			<path class="st13" d="M30,177c0-2.8,2.2-5,5-5h147c2.8,0,5,2.2,5,5v11c0,2.8-2.2,5-5,5h-46.7H35c-2.8,0-5-2.2-5-5V177z"/>
			<circle id="Oval-84" class="st13" cx="11.2" cy="151.2" r="10.2"/>
			<circle class="st13" cx="11.2" cy="181.2" r="10.2"/>
		</g>
	</g>
	<g id="Dont-3" transform="translate(864.000000, 1350.000000)">
		<text transform="matrix(1 0 0 1 237.2146 70)" class="st3 st4"> </text>
		<text transform="matrix(1 0 0 1 186.9969 110)" class="st3 st4"> </text>
		<g id="Group" transform="translate(420.000000, 0.000000)">
			<rect id="Rectangle-236" x="13" y="29" class="st14" width="125" height="171"/>
			<text transform="matrix(1 0 0 1 0 204)" class="st15 st6 st16"></text>
			<rect id="Rectangle-51" x="72.4" y="72.4" class="st11" width="60" height="10.3"/>
			<rect x="22.4" y="72.4" class="st10" width="45" height="10.3"/>
			<rect x="22.4" y="88.4" class="st12" width="45" height="10.3"/>
			<rect x="72.4" y="88" class="st10" width="60" height="10.3"/>
			<rect x="21.7" y="103.5" class="st11" width="60" height="10.3"/>
			<rect x="21.7" y="119" class="st10" width="60" height="10.3"/>
			<rect x="21.7" y="134.5" class="st11" width="60" height="10.3"/>
			<rect x="21.7" y="150" class="st13" width="110.6" height="16.6"/>
			<rect x="21.7" y="38.3" class="st14" width="110.6" height="30"/>
			<rect x="86.3" y="103.5" class="st12" width="45" height="10.3"/>
			<rect x="86.3" y="119.5" class="st13" width="45" height="10.3"/>
			<rect x="86.3" y="134.5" class="st12" width="22" height="10.3"/>
			<rect x="113.3" y="134.5" class="st11" width="18" height="10.3"/>
			<rect x="22" y="42.4" class="st12" width="110.1" height="24.8"/>
		</g>
	</g>
	<g id="Do-3" transform="translate(115.000000, 1351.000000)">
		<text transform="matrix(1 0 0 1 192.6476 99)" class="st3 st4"> </text>
		<g transform="translate(402.000000, 0.000000)">
			<rect x="14.2" y="28.3" class="st14" width="129.7" height="142.3"/>
			<text transform="matrix(1 0 0 1 0 204)" class="st17 st6 st18"></text>
			<rect x="25" y="41.4" class="st12" width="104.1" height="24.8"/>
			<rect x="25" y="78.6" class="st10" width="104.1" height="10.3"/>
			<rect x="25" y="99.3" class="st10" width="104.1" height="10.3"/>
			<rect x="25" y="120" class="st10" width="104.1" height="10.3"/>
			<rect id="Rectangle-63" x="25" y="141.8" class="st13" width="38.5" height="15.5"/>
		</g>
	</g>
	<g id="Do-2" transform="translate(115.000000, 1044.000000)">
		<text transform="matrix(1 0 0 1 369 193)" class="st19 st6 st20"></text>
		<text transform="matrix(1 0 0 1 404 151)" class="st21 st3 st9">CC</text>
	</g>
	<g id="Dont-2" transform="translate(865.000000, 1068.000000)">
		<text transform="matrix(1 0 0 1 224.8038 70)" class="st3 st4"> </text>
		<text transform="matrix(1 0 0 1 230.4147 110)" class="st3 st4"> </text>
		<text transform="matrix(1 0 0 1 399 163)" class="st5 st6 st22"></text>
	</g>
	<g id="Do-1" transform="translate(115.000000, 821.000000)">
		<text transform="matrix(1 0 0 1 312 82)" class="st17 st3 st23">Do this.</text>
	</g>
	<circle id="Oval-40" class="st24" cx="1340" cy="277" r="140"/>
	<text transform="matrix(1 0 0 1 1217 372)" class="st19 st6 st25"></text>
	<g>
		<path class="st26" d="M1462.6,864.8c-8.4,8.4-19.5,19.5-19.5,19.5c-7.1,7.1-9.7,24.2-12.9,34.4c-6.1,19.8-13.3,38.8-18.7,46.9
			c-7,10.5-16.7,2.7-11.7-5.6c6.3-10.5,6.4-21.7,6.8-26.1c0.3-4.9-3.6-6.7-5.6-1.9c-1.8,6.5-9.8,30.4-20.4,42.5
			c-11.5,13-25.6,1.9-16.2-8.2c18.6-20.1,18.1-36.3,19.3-42.8c0.8-4.5-1.2-5.9-3.1-2.2c-10.1,19.6-22.5,32.5-34.2,39.1
			c-11.5,6.5-23.1-6-10.4-14.7c19.9-13.7,25-24.5,29.4-35c0.9-2.2-1.5-2.9-2.3-2.3c-12.5,9.9-34.5,16-40.9,16.8
			c-9.7,1.3-13.8-12.7-3.1-16.3c25-8.3,59-30.2,54-46.9c-2.8-9.4-15.5-10.4-24.2,4.3c-6.1,8.2-20.2,0.5-10.7-15.8
			c5.6-9.7,18.3-19.4,32.1-17.8c10.6,1.2,19.1,4.8,26.8,3.3c5.5-1.1,17.7-13.1,24.2-19.9l40.1-48.4l49.5,52.7L1462.6,864.8z"/>
		<g>
			<path class="st27" d="M1265.8,772.7c-15.3,11.9-29,44.9-31.8,51.7c-2.8,6.8-12.2,6.5-18.2,9.1c-9.9,4.3-19.9,13.2-21.9,25.6
				c-1.7,10.5,5,26.5,25.8,24.1c17.9-2,28.4-19.3,25-41.8c-3.3-21.9,29.3-47.3,37.5-54C1294.2,777.8,1281.1,760.8,1265.8,772.7z"/>
		</g>
		<path class="st28" d="M1262,838.9c24.7,1.5,43.6,11.1,53.2,36.6"/>
		<path class="st28" d="M1269.5,868c19.6-0.9,31,10.2,37.8,20.7"/>
	</g>
	<g>
		<g id="by-nc-sa" transform="translate(496.000000, 2244.000000)">
			<g id="svg2759">
				<g id="layer1">
					<g id="g117" transform="translate(0.146431, 0.094636)">
						<path id="path3817_5_" class="st29" d="M-448.7-2l113.4,0.2c1.6,0,3-0.2,3,3.2l-0.2,37.2h-119.1V1.2
							C-451.6-0.5-451.4-2-448.7-2L-448.7-2z"/>
						<path id="path120" class="st30" d="M-334.4-2.5h-115.5c-1.2,0-2.2,1-2.2,2.2v39.2c0,0.3,0.2,0.5,0.5,0.5h119
							c0.3,0,0.5-0.2,0.5-0.5V-0.2C-332.1-1.5-333.2-2.5-334.4-2.5L-334.4-2.5z M-449.9-1.5h115.5c0.7,0,1.2,0.6,1.2,1.2v27.2h-82.5
							c-3,5.5-8.9,9.2-15.5,9.2c-6.7,0-12.5-3.7-15.5-9.2h-4.4V-0.2C-451.1-0.9-450.6-1.5-449.9-1.5L-449.9-1.5z"/>
						<g id="g5908_5_" transform="translate(5.650292, 4.589011)">
							<path id="path5906_5_" class="st14" d="M-423.3,12.5c0,7.5-6.1,13.6-13.6,13.6s-13.6-6.1-13.6-13.6l0,0
								c0-7.5,6.1-13.6,13.6-13.6C-429.4-1.2-423.3,4.9-423.3,12.5L-423.3,12.5L-423.3,12.5z"/>
							<g id="g5706_5_" transform="translate(0.333377, 0.056641)">
								<path id="path5708_5_" class="st30" d="M-426.2,1.3c3,3,4.5,6.7,4.5,11.1s-1.5,8-4.5,11c-3.2,3.1-6.9,4.7-11.2,4.7
									c-4.2,0-7.9-1.5-11-4.6c-3.1-3.1-4.6-6.8-4.6-11c0-4.3,1.5-8,4.6-11.1c3-3,6.7-4.5,11-4.5C-432.9-3.2-429.2-1.7-426.2,1.3
									L-426.2,1.3z M-446.2,3.3c-2.6,2.6-3.8,5.6-3.8,9.1s1.3,6.5,3.8,9s5.5,3.8,9,3.8s6.5-1.3,9.1-3.8c2.5-2.4,3.7-5.4,3.7-9
									s-1.2-6.6-3.7-9.1c-2.6-2.5-5.6-3.7-9.1-3.7S-443.8,0.8-446.2,3.3L-446.2,3.3z M-439.5,10.9c-0.4-0.9-1-1.3-1.8-1.3
									c-1.4,0-2.1,0.9-2.1,2.8s0.7,2.8,2.1,2.8c0.9,0,1.6-0.5,2-1.4l1.9,1c-0.9,1.6-2.3,2.4-4.1,2.4c-1.4,0-2.5-0.4-3.4-1.3
									c-0.8-0.9-1.3-2-1.3-3.6c0-1.5,0.4-2.7,1.3-3.5c0.9-0.9,2-1.3,3.3-1.3c1.9,0,3.3,0.8,4.1,2.3L-439.5,10.9L-439.5,10.9z
									 M-430.5,10.9c-0.4-0.9-1-1.3-1.7-1.3c-1.4,0-2.1,0.9-2.1,2.8s0.7,2.8,2.1,2.8c0.9,0,1.6-0.5,1.9-1.4l2,1
									c-0.9,1.6-2.3,2.4-4.1,2.4c-1.4,0-2.5-0.4-3.4-1.3c-0.8-0.9-1.3-2-1.3-3.6c0-1.5,0.4-2.7,1.3-3.5c0.9-0.9,1.9-1.3,3.3-1.3
									c1.9,0,3.3,0.8,4.1,2.3L-430.5,10.9L-430.5,10.9z"/>
							</g>
						</g>
						<g id="g126" transform="translate(40.745013, 3.974678)">
							<ellipse id="circle128" class="st14" cx="-441.1" cy="8.8" rx="10.7" ry="10.7"/>
							<g id="g130" transform="translate(7.950246, 3.974678)">
								<path id="path132" class="st30" d="M-446,1.7c0-0.4-0.3-0.7-0.7-0.7h-4.8c-0.4,0-0.7,0.3-0.7,0.7v4.7h1.3V12h3.6V6.4h1.3
									V1.7L-446,1.7L-446,1.7z"/>
								<ellipse id="circle134" class="st30" cx="-449.1" cy="-1.3" rx="1.6" ry="1.6"/>
							</g>
							<path id="path136" class="st30" d="M-441.2-3.1c-3.2,0-5.9,1.1-8.2,3.4c-2.2,2.3-3.3,5-3.3,8.2s1.1,5.9,3.4,8.2
								c2.3,2.3,5,3.4,8.2,3.4c3.2,0,6-1.1,8.3-3.4c2.2-2.2,3.3-4.9,3.3-8.1s-1.1-6-3.4-8.2C-435.2-1.8-437.9-3.1-441.2-3.1
								L-441.2-3.1z M-441.1-1c2.6,0,4.9,0.9,6.7,2.8c1.9,1.8,2.8,4.1,2.8,6.7c0,2.7-0.9,4.9-2.7,6.6c-1.9,1.9-4.2,2.8-6.8,2.8
								c-2.6,0-4.8-0.9-6.7-2.8s-2.8-4.1-2.8-6.7s0.9-4.8,2.8-6.7C-446-0.1-443.8-1-441.1-1L-441.1-1z"/>
						</g>
						<g id="g138" transform="translate(45.713917, 32.791097)">
							<path id="path140" class="st14" d="M-449.5-2.5c0.3,0,0.6,0,0.9,0.1c0.3,0,0.5,0.1,0.7,0.2c0.2,0.1,0.3,0.3,0.4,0.5
								c0.1,0.2,0.2,0.5,0.2,0.8s-0.1,0.6-0.2,0.8c-0.2,0.3-0.4,0.4-0.7,0.6c0.4,0.1,0.7,0.3,0.9,0.6c0.2,0.3,0.3,0.6,0.3,1.1
								c0,0.3-0.1,0.6-0.2,0.9c-0.1,0.2-0.3,0.4-0.5,0.5c-0.3,0.2-0.5,0.3-0.8,0.4c-0.3,0-0.6,0.1-0.9,0.1h-3.2v-6.6H-449.5
								L-449.5-2.5L-449.5-2.5z M-449.6,0.1c0.3,0,0.5-0.1,0.6-0.2c0.2-0.1,0.2-0.3,0.2-0.5s0-0.3-0.1-0.4c0-0.1-0.1-0.2-0.2-0.3
								c-0.1,0-0.2-0.1-0.3-0.1c-0.1,0-0.2,0-0.4,0h-1.3v1.5H-449.6L-449.6,0.1z M-449.6,3c0.1,0,0.3,0,0.4,0s0.2-0.1,0.3-0.1
								c0.2-0.2,0.3-0.3,0.3-0.4c0.1-0.1,0.1-0.3,0.1-0.4c0-0.3-0.1-0.6-0.3-0.7c-0.2-0.2-0.4-0.3-0.7-0.3h-1.6v1.8L-449.6,3
								L-449.6,3z"/>
							<polygon id="path142" class="st14" points="-446.8,-2.5 -445.1,-2.5 -443.6,0.1 -442,-2.5 -440.4,-2.5 -442.9,1.5 
								-442.9,4.1 -444.3,4.1 -444.3,1.5 							"/>
						</g>
						<g id="g144" transform="translate(97.390518, 32.791097)">
							<path id="path146" class="st14" d="M-451.1,2.4c0.1,0.2,0.2,0.3,0.3,0.4s0.3,0.2,0.5,0.2c0.2,0,0.4,0.1,0.6,0.1
								c0.1,0,0.3,0,0.4,0S-449,3-448.9,3c0.1-0.1,0.2-0.1,0.3-0.3c0.1-0.1,0.1-0.3,0.1-0.4c0-0.2-0.1-0.3-0.2-0.4
								c-0.1-0.2-0.2-0.3-0.4-0.3c-0.2-0.1-0.4-0.2-0.6-0.2c-0.3-0.1-0.5-0.1-0.7-0.2c-0.3-0.1-0.5-0.2-0.8-0.2
								c-0.2-0.1-0.4-0.2-0.6-0.4c-0.2-0.1-0.3-0.3-0.4-0.5s-0.2-0.5-0.2-0.8s0.1-0.6,0.2-0.9c0.2-0.2,0.3-0.4,0.6-0.6
								c0.2-0.2,0.5-0.3,0.8-0.4c0.3-0.1,0.6-0.1,0.9-0.1c0.3,0,0.7,0,1,0.1c0.3,0.1,0.6,0.2,0.8,0.4c0.2,0.2,0.4,0.4,0.6,0.7
								c0.1,0.3,0.2,0.6,0.2,1h-1.4c0-0.2-0.1-0.4-0.1-0.5c-0.1-0.2-0.2-0.3-0.3-0.4c-0.1,0-0.3-0.1-0.4-0.1c-0.2,0-0.3,0-0.5,0
								c-0.1,0-0.2,0-0.4,0c-0.1,0-0.2,0-0.3,0.1c-0.1,0.1-0.1,0.1-0.2,0.2C-451-1.1-451-1-451-0.8c0,0.1,0,0.2,0.1,0.3
								c0,0.1,0.1,0.2,0.3,0.2c0.1,0.1,0.3,0.2,0.6,0.2c0.3,0.1,0.6,0.2,1,0.3c0.1,0,0.3,0.1,0.5,0.1c0.2,0.1,0.4,0.2,0.6,0.3
								c0.2,0.1,0.4,0.3,0.6,0.6c0.2,0.2,0.2,0.5,0.2,0.9c0,0.3-0.1,0.6-0.2,0.8c0,0.3-0.2,0.5-0.5,0.7c-0.2,0.2-0.5,0.4-0.8,0.5
								c-0.4,0.1-0.8,0.1-1.2,0.1s-0.7,0-1.1-0.1c-0.3-0.1-0.6-0.2-0.9-0.4c-0.2-0.2-0.5-0.5-0.6-0.8c-0.2-0.3-0.2-0.6-0.2-1h1.4
								C-451.2,2.1-451.2,2.3-451.1,2.4L-451.1,2.4z"/>
							<path id="path148" class="st14" d="M-442.9-2.5l2.5,6.6h-1.5l-0.5-1.5h-2.5l-0.5,1.5h-1.5l2.5-6.6H-442.9L-442.9-2.5z
								 M-442.8,1.5l-0.8-2.4l0,0l-0.9,2.4H-442.8L-442.8,1.5z"/>
						</g>
						<g id="g150" transform="translate(71.552218, 32.791097)">
							<polygon id="path152" class="st14" points="-451.2,-2.5 -448.4,1.9 -448.4,1.9 -448.4,-2.5 -447,-2.5 -447,4.1 -448.5,4.1 
								-451.2,-0.4 -451.3,-0.4 -451.3,4.1 -452.6,4.1 -452.6,-2.5 							"/>
							<path id="path154" class="st14" d="M-441.5-0.8c-0.1-0.1-0.2-0.3-0.3-0.4c-0.2,0-0.3-0.1-0.5-0.2c-0.2-0.1-0.3-0.1-0.5-0.1
								c-0.3,0-0.6,0.1-0.8,0.2c-0.2,0.1-0.4,0.3-0.6,0.5c-0.1,0.2-0.2,0.5-0.3,0.8c-0.1,0.3-0.1,0.5-0.1,0.8c0,0.3,0,0.5,0.1,0.8
								c0.1,0.3,0.2,0.5,0.3,0.7c0.2,0.2,0.4,0.4,0.6,0.5c0.2,0.1,0.5,0.2,0.8,0.2c0.4,0,0.8-0.1,1-0.4c0.3-0.3,0.4-0.6,0.5-1.1h1.4
								c0,0.4-0.1,0.8-0.3,1.1c-0.2,0.3-0.4,0.6-0.6,0.9s-0.6,0.4-0.9,0.5s-0.7,0.2-1.1,0.2c-0.5,0-1-0.1-1.4-0.3
								c-0.4-0.2-0.7-0.4-1-0.7c-0.3-0.3-0.5-0.6-0.6-1.1c-0.2-0.4-0.2-0.8-0.2-1.3s0.1-1,0.2-1.4s0.3-0.8,0.6-1.1s0.6-0.6,1-0.7
								c0.4-0.2,0.9-0.3,1.4-0.3c0.4,0,0.7,0.1,1,0.2c0.3,0.1,0.6,0.3,0.9,0.5c0.3,0.2,0.5,0.5,0.6,0.7s0.3,0.6,0.3,1h-1.4
								C-441.4-0.5-441.4-0.6-441.5-0.8L-441.5-0.8z"/>
						</g>
						<g id="g6332_1_" transform="translate(92.715436, 3.537181)">
							<path id="path6334_1_" class="st14" d="M-430.3,8.9c0,5.8-4.7,10.6-10.6,10.6c-5.8,0-10.6-4.7-10.6-10.6l0,0
								c0-5.8,4.7-10.6,10.6-10.6C-435-1.6-430.3,3.1-430.3,8.9L-430.3,8.9L-430.3,8.9z"/>
							<g id="g6336_1_" transform="translate(0.029751, 0.167916)">
								<path id="path6338_1_" class="st30" d="M-441-2.8c-3.2,0-5.9,1.1-8.2,3.4c-2.2,2.3-3.4,5-3.4,8.2s1.1,5.9,3.4,8.2
									s5,3.4,8.2,3.4c3.2,0,6-1.2,8.3-3.4c2.2-2.2,3.3-4.9,3.3-8.1s-1.1-6-3.4-8.2C-435-1.7-437.7-2.8-441-2.8L-441-2.8z
									 M-440.9-0.7c2.6,0,4.9,0.9,6.7,2.8c1.9,1.8,2.8,4.1,2.8,6.7c0,2.7-0.9,4.9-2.7,6.6c-1.9,1.9-4.2,2.8-6.8,2.8
									s-4.8-0.9-6.7-2.8c-1.9-1.9-2.8-4.1-2.8-6.7s0.9-4.8,2.8-6.7C-445.8,0.2-443.6-0.7-440.9-0.7L-440.9-0.7z"/>
								<path id="path6340_1_" class="st30" d="M-446.1,7.1c0.4-2.9,2.5-4.4,5.1-4.4c3.7,0,6,2.7,6,6.3c0,3.5-2.4,6.2-6,6.2
									c-2.5,0-4.7-1.5-5.1-4.5h2.9c0.1,1.6,1.1,2.1,2.5,2.1c1.6,0,2.7-1.5,2.7-3.9c0-2.5-0.9-3.8-2.7-3.8c-1.3,0-2.4,0.5-2.6,2.1
									h0.8l-2.3,2.3l-2.2-2.4H-446.1L-446.1,7.1z"/>
							</g>
						</g>
						<g id="g6361_1_" transform="translate(66.419849, 3.823348)">
							<path id="path6363_1_" class="st14" d="M-429.9,8.7c0,6-4.8,10.8-10.8,10.8s-10.8-4.8-10.8-10.8l0,0c0-6,4.8-10.8,10.8-10.8
								C-434.8-2.1-429.9,2.7-429.9,8.7L-429.9,8.7L-429.9,8.7z"/>
							<path id="path6365_1_" class="st30" d="M-440.7-2.9c3.3,0,6,1.1,8.2,3.4c2.2,2.2,3.4,5,3.4,8.2s-1.1,6-3.3,8.1
								c-2.3,2.3-5.1,3.4-8.3,3.4s-5.9-1.1-8.2-3.4c-2.3-2.3-3.4-5-3.4-8.2s1.1-5.9,3.4-8.2C-446.7-1.8-444-2.9-440.7-2.9
								L-440.7-2.9z M-449.7,5.5c-0.3,1-0.5,2-0.5,3.1c0,2.6,0.9,4.8,2.8,6.7c1.9,1.9,4.1,2.8,6.7,2.8s4.8-0.9,6.8-2.8
								c0.6-0.6,1.2-1.3,1.6-2l-4.4-1.9c-0.3,1.5-1.6,2.5-3.2,2.6v1.8h-1.3V14c-1.3,0-2.6-0.5-3.5-1.4l1.6-1.6c0.8,0.7,1.5,1,2.6,1
								c0.7,0,1.4-0.3,1.4-1.2c0-0.3-0.1-0.5-0.3-0.7l-1.2-0.5L-442,9c-0.7-0.3-1.3-0.6-1.8-0.8L-449.7,5.5L-449.7,5.5z M-440.7-0.8
								c-2.6,0-4.9,0.9-6.7,2.8c-0.5,0.5-0.9,1-1.3,1.6l4.4,2c0.4-1.2,1.6-2,3-2.1V1.6h1.3v1.8c1,0.1,2,0.3,3,1.1l-1.5,1.6
								c-0.6-0.4-1.3-0.7-2-0.7c-0.6,0-1.4,0.2-1.4,0.9c0,0.1,0,0.2,0.1,0.3l1.5,0.7l1,0.4c0.6,0.3,1.3,0.6,1.9,0.8l5.9,2.6
								c0.2-0.8,0.3-1.6,0.3-2.5c0-2.6-0.9-4.9-2.8-6.7C-435.8,0.1-438.1-0.8-440.7-0.8L-440.7-0.8z"/>
						</g>
					</g>
				</g>
			</g>
		</g>
		<text transform="matrix(1 0 0 1 187.9536 2248)" class="st31 st32">This work is licensed under the Creative Commons Attribution-</text>
		<text transform="matrix(1 0 0 1 187.9536 2266)" class="st31 st32">NonCommercial-ShareAlike 4.0 International License. To view a copy of </text>
		<text transform="matrix(1 0 0 1 187.9536 2284)" class="st31 st32">this license, visit http://creativecommons.org/licenses/by-nc-sa/4.0/.</text>
	</g>
	<rect x="707.5" y="2224.2" class="st33" width="822.4" height="86.8"/>
	<text transform="matrix(1 0 0 1 707.5385 2239.1938)"><tspan x="0" y="0" class="st34 st35">英国内務省（UK Home Office）が制作した、アクセシビリティの啓発ポスターを日本語訳したものです</tspan><tspan x="786.8" y="0" class="st34 st35 st36">。</tspan><tspan x="0" y="27" class="st34 st35">原本は GitHub に公開されています</tspan><tspan x="267" y="27" class="st34 st35 st36">。</tspan><tspan x="0" y="54" class="st34 st35">https://github.com/UKHomeOffice/posters/tree/master/accessibility/dos-donts</tspan></text>
	<text transform="matrix(1 0 0 1 1402.1696 2291.2065)" class="st31 st32">thanks: A11YJ Slack Team</text>
</g>
<text transform="matrix(1 0 0 1 111.312 266.6692)" class="st37 st38">聴覚障害・難聴</text>
<text transform="matrix(1 0 0 1 111 624)" class="st37 st9">すること</text>
<text transform="matrix(1 0 0 1 854 624)" class="st37 st9">しないこと</text>
<text transform="matrix(1 0 0 1 115 857.6933)" class="st39"><tspan x="0" y="0" class="st40 st4">やさしい言葉で</tspan><tspan x="0" y="45" class="st40 st4">書く</tspan></text>
<text transform="matrix(1 0 0 1 861 857.6933)" class="st39"><tspan x="0" y="0" class="st40 st4">難しい言葉や</tspan><tspan x="0" y="45" class="st40 st4">比喩表現を使う</tspan></text>
<text transform="matrix(1 0 0 1 115 1129.1931)" class="st39"><tspan x="0" y="0" class="st40 st4">字幕を使うか、</tspan><tspan x="0" y="45" class="st40 st4">動画の書き起こし文を</tspan><tspan x="0" y="90" class="st40 st4">提供する</tspan></text>
<text transform="matrix(1 0 0 1 861 1151.6931)" class="st39"><tspan x="0" y="0" class="st40 st4">音声や動画のみで</tspan><tspan x="0" y="45" class="st40 st4">情報提供する</tspan></text>
<text transform="matrix(1 0 0 1 115 1445.6935)" class="st39"><tspan x="0" y="0" class="st40 st4">順序立てた論理的な</tspan><tspan x="0" y="45" class="st40 st4">レイアウトにする</tspan></text>
<text transform="matrix(1 0 0 1 861 1445.6935)" class="st39"><tspan x="0" y="0" class="st40 st4">複雑なレイアウトや</tspan><tspan x="0" y="45" class="st40 st4">メニューをつくる</tspan></text>
<text transform="matrix(1 0 0 1 115 1746.8009)" class="st39"><tspan x="0" y="0" class="st40 st4">小見出し、画像、動画で</tspan><tspan x="0" y="45" class="st40 st4">コンテンツを分割する</tspan></text>
<text transform="matrix(1 0 0 1 861 1746.8009)" class="st39"><tspan x="0" y="0" class="st40 st4">長いかたまりの</tspan><tspan x="0" y="45" class="st40 st4">コンテンツを読ませる</tspan></text>
<text transform="matrix(1 0 0 1 115 2000.5507)" class="st39"><tspan x="0" y="0" class="st40 st4">予約や手続きの際に</tspan><tspan x="0" y="45" class="st40 st4">利用者が希望する</tspan><tspan x="0" y="90" class="st40 st4">コミュニケーション支援を</tspan><tspan x="0" y="135" class="st40 st4">利用できる</tspan></text>
<text transform="matrix(1 0 0 1 861 2043.2333)" class="st39"><tspan x="0" y="0" class="st40 st4">電話を唯一の</tspan><tspan x="0" y="45" class="st40 st4">連絡手段にする</tspan></text>
<text transform="matrix(1 0 0 1 110 389.7091)" class="st37 st41">のためのデザイン</text>
</svg>
