<?xml version="1.0" encoding="utf-8"?>
<!-- Generator: Adobe Illustrator 23.0.4, SVG Export Plug-In . SVG Version: 6.00 Build 0)  -->
<svg version="1.1" id="レイヤー_1" xmlns="http://www.w3.org/2000/svg" xmlns:xlink="http://www.w3.org/1999/xlink" x="0px"
	 y="0px" viewBox="0 0 1590 2328" style="enable-background:new 0 0 1590 2328;" xml:space="preserve">
<style type="text/css">
	.st0{fill-rule:evenodd;clip-rule:evenodd;fill:#E1E6D2;}
	.st1{fill-rule:evenodd;clip-rule:evenodd;fill:#85994B;}
	.st2{fill:#0B0C0C;}
	.st3{font-family:'FontAwesome';}
	.st4{font-size:268px;}
	.st5{fill:#FFFFFF;}
	.st6{font-size:90px;}
	.st7{opacity:0.5;fill-rule:evenodd;clip-rule:evenodd;fill:#FFFFFF;enable-background:new    ;}
	.st8{enable-background:new    ;}
	.st9{font-family:'SourceHanSans-Bold-83pv-RKSJ-H';}
	.st10{font-size:34px;}
	.st11{fill:none;stroke:#85994B;stroke-width:8;stroke-linecap:square;}
	.st12{font-family:'HelveticaNeue-Bold';}
	.st13{fill:#005EA5;}
	.st14{font-size:47px;}
	.st15{fill-rule:evenodd;clip-rule:evenodd;fill:#FFFFFF;}
	.st16{fill:#28A197;}
	.st17{font-size:200px;}
	.st18{opacity:0.4666;fill-rule:evenodd;clip-rule:evenodd;fill:#FFFFFF;enable-background:new    ;}
	.st19{fill:#F47738;}
	.st20{font-size:135px;}
	.st21{fill:#B58840;}
	.st22{font-size:80px;}
	.st23{font-size:64px;}
	.st24{font-size:60px;}
	.st25{fill:#333333;}
	.st26{font-size:82px;}
	.st27{font-size:48px;}
	.st28{fill:none;stroke:#28A197;stroke-width:4;stroke-linecap:square;}
	.st29{font-size:235px;}
	.st30{fill-rule:evenodd;clip-rule:evenodd;fill:#F47738;}
	.st31{fill-rule:evenodd;clip-rule:evenodd;fill:#28A197;}
	.st32{fill-rule:evenodd;clip-rule:evenodd;fill:#B58840;}
	.st33{fill-rule:evenodd;clip-rule:evenodd;fill:#FFBF47;}
	.st34{fill:#85994B;}
	.st35{font-size:124px;}
	.st36{fill-rule:evenodd;clip-rule:evenodd;fill:#DF3034;}
	.st37{font-family:'HelveticaNeue';}
	.st38{font-size:12px;}
	.st39{fill-rule:evenodd;clip-rule:evenodd;fill:#AAB2AB;}
	.st40{fill-rule:evenodd;clip-rule:evenodd;}
	.st41{font-family:'SourceHanSans-Heavy-83pv-RKSJ-H';}
	.st42{font-size:130px;}
	.st43{letter-spacing:-1;}
	.st44{font-size:100px;}
	.st45{fill-rule:evenodd;clip-rule:evenodd;fill:none;}
	.st46{font-family:'SourceHanSansJP-Normal-83pv-RKSJ-H';}
	.st47{font-size:17px;}
	.st48{letter-spacing:-8;}
</style>
<title>Visually impaired - screenreader</title>
<desc>Created with Sketch.</desc>
<g id="Page-1">
	<g id="Visually-impaired---screenreader">
		<rect id="background" x="44" y="50" class="st0" width="1502" height="2146"/>
		<g id="Group-2" transform="translate(1184.000000, 165.000000)">
			<rect id="Rectangle-112" x="9" y="13" class="st1" width="267" height="151"/>
			<text transform="matrix(1 0 0 1 0 230)" class="st2 st3 st4"></text>
			<text transform="matrix(1 0 0 1 104 119)" class="st5 st3 st6"></text>
		</g>
		<rect id="Rectangle-2" x="44" y="724.2" class="st7" width="1502" height="294.4"/>
		<text transform="matrix(1 0 0 1 115 835.341)" class="st8"><tspan x="0" y="0" class="st9 st10">画像の説明、</tspan><tspan x="0" y="45" class="st9 st10">動画の書き起こしを</tspan><tspan x="0" y="90" class="st9 st10">提供する</tspan></text>
		<text transform="matrix(1 0 0 1 115 1151.7936)" class="st8"><tspan x="0" y="0" class="st9 st10">順序立てた論理的な</tspan><tspan x="0" y="45" class="st9 st10">レイアウトにする</tspan></text>
		<text transform="matrix(1 0 0 1 861 857.841)" class="st8"><tspan x="0" y="0" class="st9 st10">画像や動画だけで</tspan><tspan x="0" y="45" class="st9 st10">情報を表示する</tspan></text>
		<text transform="matrix(1 0 0 1 861 1129.2937)" class="st8"><tspan x="0" y="0" class="st9 st10">ページ全体に</tspan><tspan x="0" y="45" class="st9 st10">コンテンツを</tspan><tspan x="0" y="90" class="st9 st10">バラバラに配置する</tspan></text>
		<rect x="44" y="1900.9" class="st7" width="1502" height="294.4"/>
		<rect x="44" y="1312.1" class="st7" width="1502" height="294.4"/>
		<path id="Line" class="st11" d="M791,556.5V2085"/>
		<path class="st11" d="M121,473h1354"/>
		<g id="Do-5" transform="translate(115.000000, 2007.000000)">
			<text transform="matrix(1 0 0 1 269.3775 33)" class="st12 st10"> </text>
			<text transform="matrix(1 0 0 1 339.8268 62)" class="st13 st9 st14" style="text-decoration: underline;">お問い合わせ</text>
		</g>
		<g id="Dont-5" transform="translate(867.000000, 2007.000000)">
			<text transform="matrix(1 0 0 1 313.4407 33)" class="st12 st10"> </text>
			<text transform="matrix(1 0 0 1 350.5 62)" class="st13 st9 st14" style="text-decoration: underline;">ここをクリック</text>
		</g>
		<g id="Do-4" transform="translate(115.000000, 1666.000000)">
			<text transform="matrix(1 0 0 1 308.4498 91)" class="st12 st10"> </text>
			<rect id="Rectangle-81" x="401" y="57" class="st15" width="198" height="101"/>
			<text transform="matrix(1 0 0 1 387 171)" class="st16 st3 st17"></text>
		</g>
		<g id="Dont-4" transform="translate(867.000000, 1653.000000)">
			<text transform="matrix(1 0 0 1 246.1622 102)" class="st12 st10"> </text>
			<circle id="Oval-78" class="st18" cx="433" cy="100" r="100"/>
			<text transform="matrix(1 0 0 1 452 185)" class="st19 st3 st20"></text>
		</g>
		<g id="Do-3" transform="translate(115.000000, 1344.000000)">
			<text transform="matrix(1 0 0 1 280.9083 109)" class="st12 st10"> </text>
			<text transform="matrix(1 0 0 1 328 78)" class="st21 st12 st22">&lt;h1&gt;</text>
			<text transform="matrix(1 0 0 1 458 143)" class="st16 st12 st23">&lt;nav&gt;</text>
			<text transform="matrix(1 0 0 1 345 218)" class="st19 st12 st24">&lt;label&gt;</text>
		</g>
		<g id="Dont-3" transform="translate(865.000000, 1381.000000)">
			<text transform="matrix(1 0 0 1 253.744 42)" class="st12 st10"> </text>
			<text transform="matrix(1 0 0 1 240.4441 82)" class="st12 st10"> </text>
			<g id="Group" transform="translate(328.000000, 0.000000)">
				<text transform="matrix(1 0 0 1 44 135)" class="st25 st12 st26">Header</text>
				<text transform="matrix(1 0 0 1 0 47)" class="st16 st12 st27">36pt, bold</text>
				<path class="st28" d="M40.7,78H8.5"/>
				<path class="st28" d="M24.5,125.1V86"/>
				<path id="Line-decoration-1" class="st28" d="M32.9,102.9l10.8,3l-10.8,3"/>
				<path id="Line-decoration-2" class="st28" d="M15.4,102.9l-10.8,3l10.8,3"/>
				<path class="st28" d="M40.7,133H8.5"/>
			</g>
		</g>
		<g id="Do-2" transform="translate(115.000000, 1063.000000)">
			<text transform="matrix(1 0 0 1 232.8016 88)" class="st12 st10"> </text>
			<rect id="Rectangle-64" x="376" y="10" class="st15" width="232" height="125"/>
			<text transform="matrix(1 0 0 1 359 201)" class="st25 st3 st29"></text>
			<rect id="Rectangle-66" x="386" y="25" class="st30" width="199" height="20"/>
			<rect x="406" y="60" class="st1" width="100" height="13.2"/>
			<circle id="Oval-80" class="st1" cx="392" cy="66" r="6"/>
			<rect x="406" y="80" class="st1" width="100" height="13.2"/>
			<circle class="st1" cx="392" cy="86" r="6"/>
			<rect x="406" y="100" class="st1" width="100" height="13.2"/>
			<circle class="st1" cx="392" cy="106" r="6"/>
			<rect id="Rectangle-70" x="516" y="59" class="st31" width="69" height="58"/>
		</g>
		<g id="Dont-2" transform="translate(866.000000, 1063.000000)">
			<text transform="matrix(1 0 0 1 244.9717 87)" class="st12 st10"> </text>
			<rect x="372" y="10" class="st15" width="232" height="125"/>
			<text transform="matrix(1 0 0 1 368 201)" class="st25 st3 st29"></text>
			<rect x="525" y="52" class="st31" width="69" height="21.5"/>
			<rect x="525" y="77.8" class="st32" width="69" height="21.5"/>
			<rect x="525" y="103.7" class="st31" width="69" height="21.5"/>
			<rect x="392" y="25" class="st30" width="52" height="20"/>
			<rect x="458.5" y="25" class="st30" width="52" height="20"/>
			<rect x="525" y="25" class="st30" width="69" height="21.9"/>
			<rect x="392.1" y="52" class="st1" width="122.9" height="13.2"/>
			<rect x="392.1" y="72" class="st33" width="122.9" height="13.2"/>
			<rect x="392.1" y="92" class="st1" width="122.9" height="13.2"/>
			<rect x="392.1" y="112" class="st33" width="122.9" height="13.2"/>
		</g>
		<g id="Do-1" transform="translate(115.000000, 788.000000)">
			<text transform="matrix(1 0 0 1 175.6404 113)" class="st12 st10"> </text>
			<text transform="matrix(1 0 0 1 396.8212 134.9999)" class="st34 st12 st35">alt</text>
		</g>
		<g id="Dont-1" transform="translate(866.000000, 792.000000)">
			<path id="Oval-83" class="st36" d="M495.5,169c46.7,0,84.5-37.8,84.5-84.5S542.2,0,495.5,0S411,37.8,411,84.5
				S448.8,169,495.5,169z"/>
			<polygon id="Triangle-1" class="st15" points="547,86 467,126 467,46 			"/>
		</g>
		<text transform="matrix(1 0 0 1 977.2827 2248)" class="st37 st38"> </text>
		<g>
			<g id="by-nc-sa" transform="translate(496.000000, 2244.000000)">
				<g id="svg2759">
					<g id="layer1">
						<g id="g117" transform="translate(0.146431, 0.094636)">
							<path id="path3817_5_" class="st39" d="M-448.7-2l113.4,0.2c1.6,0,3-0.2,3,3.2l-0.2,37.2h-119.1V1.2
								C-451.6-0.5-451.4-2-448.7-2L-448.7-2z"/>
							<path id="path120" class="st40" d="M-334.4-2.5h-115.5c-1.2,0-2.2,1-2.2,2.2v39.2c0,0.3,0.2,0.5,0.5,0.5h119
								c0.3,0,0.5-0.2,0.5-0.5V-0.2C-332.1-1.5-333.2-2.5-334.4-2.5L-334.4-2.5z M-449.9-1.5h115.5c0.7,0,1.2,0.6,1.2,1.2v27.2
								h-82.5c-3,5.5-8.9,9.2-15.5,9.2c-6.7,0-12.5-3.7-15.5-9.2h-4.4V-0.2C-451.1-0.9-450.6-1.5-449.9-1.5L-449.9-1.5z"/>
							<g id="g5908_5_" transform="translate(5.650292, 4.589011)">
								<path id="path5906_5_" class="st15" d="M-423.3,12.5c0,7.5-6.1,13.6-13.6,13.6s-13.6-6.1-13.6-13.6l0,0
									c0-7.5,6.1-13.6,13.6-13.6C-429.4-1.2-423.3,4.9-423.3,12.5L-423.3,12.5L-423.3,12.5z"/>
								<g id="g5706_5_" transform="translate(0.333377, 0.056641)">
									<path id="path5708_5_" class="st40" d="M-426.2,1.3c3,3,4.5,6.7,4.5,11.1s-1.5,8-4.5,11c-3.2,3.1-6.9,4.7-11.2,4.7
										c-4.2,0-7.9-1.5-11-4.6c-3.1-3.1-4.6-6.8-4.6-11c0-4.3,1.5-8,4.6-11.1c3-3,6.7-4.5,11-4.5C-432.9-3.2-429.2-1.7-426.2,1.3
										L-426.2,1.3z M-446.2,3.3c-2.6,2.6-3.8,5.6-3.8,9.1s1.3,6.5,3.8,9s5.5,3.8,9,3.8s6.5-1.3,9.1-3.8c2.5-2.4,3.7-5.4,3.7-9
										s-1.2-6.6-3.7-9.1c-2.6-2.5-5.6-3.7-9.1-3.7S-443.8,0.8-446.2,3.3L-446.2,3.3z M-439.5,10.9c-0.4-0.9-1-1.3-1.8-1.3
										c-1.4,0-2.1,0.9-2.1,2.8s0.7,2.8,2.1,2.8c0.9,0,1.6-0.5,2-1.4l1.9,1c-0.9,1.6-2.3,2.4-4.1,2.4c-1.4,0-2.5-0.4-3.4-1.3
										c-0.8-0.9-1.3-2-1.3-3.6c0-1.5,0.4-2.7,1.3-3.5c0.9-0.9,2-1.3,3.3-1.3c1.9,0,3.3,0.8,4.1,2.3L-439.5,10.9L-439.5,10.9z
										 M-430.5,10.9c-0.4-0.9-1-1.3-1.7-1.3c-1.4,0-2.1,0.9-2.1,2.8s0.7,2.8,2.1,2.8c0.9,0,1.6-0.5,1.9-1.4l2,1
										c-0.9,1.6-2.3,2.4-4.1,2.4c-1.4,0-2.5-0.4-3.4-1.3c-0.8-0.9-1.3-2-1.3-3.6c0-1.5,0.4-2.7,1.3-3.5c0.9-0.9,1.9-1.3,3.3-1.3
										c1.9,0,3.3,0.8,4.1,2.3L-430.5,10.9L-430.5,10.9z"/>
								</g>
							</g>
							<g id="g126" transform="translate(40.745013, 3.974678)">
								<ellipse id="circle128" class="st15" cx="-441.1" cy="8.8" rx="10.7" ry="10.7"/>
								<g id="g130" transform="translate(7.950246, 3.974678)">
									<path id="path132" class="st40" d="M-446,1.7c0-0.4-0.3-0.7-0.7-0.7h-4.8c-0.4,0-0.7,0.3-0.7,0.7v4.7h1.3V12h3.6V6.4h1.3
										V1.7L-446,1.7L-446,1.7z"/>
									<ellipse id="circle134" class="st40" cx="-449.1" cy="-1.3" rx="1.6" ry="1.6"/>
								</g>
								<path id="path136" class="st40" d="M-441.2-3.1c-3.2,0-5.9,1.1-8.2,3.4c-2.2,2.3-3.3,5-3.3,8.2s1.1,5.9,3.4,8.2
									c2.3,2.3,5,3.4,8.2,3.4c3.2,0,6-1.1,8.3-3.4c2.2-2.2,3.3-4.9,3.3-8.1s-1.1-6-3.4-8.2C-435.2-1.8-437.9-3.1-441.2-3.1
									L-441.2-3.1z M-441.1-1c2.6,0,4.9,0.9,6.7,2.8c1.9,1.8,2.8,4.1,2.8,6.7c0,2.7-0.9,4.9-2.7,6.6c-1.9,1.9-4.2,2.8-6.8,2.8
									c-2.6,0-4.8-0.9-6.7-2.8s-2.8-4.1-2.8-6.7s0.9-4.8,2.8-6.7C-446-0.1-443.8-1-441.1-1L-441.1-1z"/>
							</g>
							<g id="g138" transform="translate(45.713917, 32.791097)">
								<path id="path140" class="st15" d="M-449.5-2.5c0.3,0,0.6,0,0.9,0.1c0.3,0,0.5,0.1,0.7,0.2c0.2,0.1,0.3,0.3,0.4,0.5
									c0.1,0.2,0.2,0.5,0.2,0.8s-0.1,0.6-0.2,0.8c-0.2,0.3-0.4,0.4-0.7,0.6c0.4,0.1,0.7,0.3,0.9,0.6c0.2,0.3,0.3,0.6,0.3,1.1
									c0,0.3-0.1,0.6-0.2,0.9c-0.1,0.2-0.3,0.4-0.5,0.5c-0.3,0.2-0.5,0.3-0.8,0.4c-0.3,0-0.6,0.1-0.9,0.1h-3.2v-6.6H-449.5
									L-449.5-2.5L-449.5-2.5z M-449.6,0.1c0.3,0,0.5-0.1,0.6-0.2c0.2-0.1,0.2-0.3,0.2-0.5s0-0.3-0.1-0.4c0-0.1-0.1-0.2-0.2-0.3
									c-0.1,0-0.2-0.1-0.3-0.1c-0.1,0-0.2,0-0.4,0h-1.3v1.5H-449.6L-449.6,0.1z M-449.6,3c0.1,0,0.3,0,0.4,0s0.2-0.1,0.3-0.1
									c0.2-0.2,0.3-0.3,0.3-0.4c0.1-0.1,0.1-0.3,0.1-0.4c0-0.3-0.1-0.6-0.3-0.7c-0.2-0.2-0.4-0.3-0.7-0.3h-1.6v1.8L-449.6,3
									L-449.6,3z"/>
								<polygon id="path142" class="st15" points="-446.8,-2.5 -445.1,-2.5 -443.6,0.1 -442,-2.5 -440.4,-2.5 -442.9,1.5 
									-442.9,4.1 -444.3,4.1 -444.3,1.5 								"/>
							</g>
							<g id="g144" transform="translate(97.390518, 32.791097)">
								<path id="path146" class="st15" d="M-451.1,2.4c0.1,0.2,0.2,0.3,0.3,0.4s0.3,0.2,0.5,0.2c0.2,0,0.4,0.1,0.6,0.1
									c0.1,0,0.3,0,0.4,0S-449,3-448.9,3c0.1-0.1,0.2-0.1,0.3-0.3c0.1-0.1,0.1-0.3,0.1-0.4c0-0.2-0.1-0.3-0.2-0.4
									c-0.1-0.2-0.2-0.3-0.4-0.3c-0.2-0.1-0.4-0.2-0.6-0.2c-0.3-0.1-0.5-0.1-0.7-0.2c-0.3-0.1-0.5-0.2-0.8-0.2
									c-0.2-0.1-0.4-0.2-0.6-0.4c-0.2-0.1-0.3-0.3-0.4-0.5s-0.2-0.5-0.2-0.8s0.1-0.6,0.2-0.9c0.2-0.2,0.3-0.4,0.6-0.6
									c0.2-0.2,0.5-0.3,0.8-0.4c0.3-0.1,0.6-0.1,0.9-0.1c0.3,0,0.7,0,1,0.1c0.3,0.1,0.6,0.2,0.8,0.4c0.2,0.2,0.4,0.4,0.6,0.7
									c0.1,0.3,0.2,0.6,0.2,1h-1.4c0-0.2-0.1-0.4-0.1-0.5c-0.1-0.2-0.2-0.3-0.3-0.4c-0.1,0-0.3-0.1-0.4-0.1c-0.2,0-0.3,0-0.5,0
									c-0.1,0-0.2,0-0.4,0c-0.1,0-0.2,0-0.3,0.1c-0.1,0.1-0.1,0.1-0.2,0.2C-451-1.1-451-1-451-0.8c0,0.1,0,0.2,0.1,0.3
									c0,0.1,0.1,0.2,0.3,0.2c0.1,0.1,0.3,0.2,0.6,0.2c0.3,0.1,0.6,0.2,1,0.3c0.1,0,0.3,0.1,0.5,0.1c0.2,0.1,0.4,0.2,0.6,0.3
									c0.2,0.1,0.4,0.3,0.6,0.6c0.2,0.2,0.2,0.5,0.2,0.9c0,0.3-0.1,0.6-0.2,0.8c0,0.3-0.2,0.5-0.5,0.7c-0.2,0.2-0.5,0.4-0.8,0.5
									c-0.4,0.1-0.8,0.1-1.2,0.1s-0.7,0-1.1-0.1c-0.3-0.1-0.6-0.2-0.9-0.4c-0.2-0.2-0.5-0.5-0.6-0.8c-0.2-0.3-0.2-0.6-0.2-1h1.4
									C-451.2,2.1-451.2,2.3-451.1,2.4L-451.1,2.4z"/>
								<path id="path148" class="st15" d="M-442.9-2.5l2.5,6.6h-1.5l-0.5-1.5h-2.5l-0.5,1.5h-1.5l2.5-6.6H-442.9L-442.9-2.5z
									 M-442.8,1.5l-0.8-2.4l0,0l-0.9,2.4H-442.8L-442.8,1.5z"/>
							</g>
							<g id="g150" transform="translate(71.552218, 32.791097)">
								<polygon id="path152" class="st15" points="-451.2,-2.5 -448.4,1.9 -448.4,1.9 -448.4,-2.5 -447,-2.5 -447,4.1 -448.5,4.1 
									-451.2,-0.4 -451.3,-0.4 -451.3,4.1 -452.6,4.1 -452.6,-2.5 								"/>
								<path id="path154" class="st15" d="M-441.5-0.8c-0.1-0.1-0.2-0.3-0.3-0.4c-0.2,0-0.3-0.1-0.5-0.2c-0.2-0.1-0.3-0.1-0.5-0.1
									c-0.3,0-0.6,0.1-0.8,0.2c-0.2,0.1-0.4,0.3-0.6,0.5c-0.1,0.2-0.2,0.5-0.3,0.8c-0.1,0.3-0.1,0.5-0.1,0.8c0,0.3,0,0.5,0.1,0.8
									c0.1,0.3,0.2,0.5,0.3,0.7c0.2,0.2,0.4,0.4,0.6,0.5c0.2,0.1,0.5,0.2,0.8,0.2c0.4,0,0.8-0.1,1-0.4c0.3-0.3,0.4-0.6,0.5-1.1
									h1.4c0,0.4-0.1,0.8-0.3,1.1c-0.2,0.3-0.4,0.6-0.6,0.9s-0.6,0.4-0.9,0.5s-0.7,0.2-1.1,0.2c-0.5,0-1-0.1-1.4-0.3
									c-0.4-0.2-0.7-0.4-1-0.7c-0.3-0.3-0.5-0.6-0.6-1.1c-0.2-0.4-0.2-0.8-0.2-1.3s0.1-1,0.2-1.4s0.3-0.8,0.6-1.1s0.6-0.6,1-0.7
									c0.4-0.2,0.9-0.3,1.4-0.3c0.4,0,0.7,0.1,1,0.2c0.3,0.1,0.6,0.3,0.9,0.5c0.3,0.2,0.5,0.5,0.6,0.7s0.3,0.6,0.3,1h-1.4
									C-441.4-0.5-441.4-0.6-441.5-0.8L-441.5-0.8z"/>
							</g>
							<g id="g6332_1_" transform="translate(92.715436, 3.537181)">
								<path id="path6334_1_" class="st15" d="M-430.3,8.9c0,5.8-4.7,10.6-10.6,10.6c-5.8,0-10.6-4.7-10.6-10.6l0,0
									c0-5.8,4.7-10.6,10.6-10.6C-435-1.6-430.3,3.1-430.3,8.9L-430.3,8.9L-430.3,8.9z"/>
								<g id="g6336_1_" transform="translate(0.029751, 0.167916)">
									<path id="path6338_1_" class="st40" d="M-441-2.8c-3.2,0-5.9,1.1-8.2,3.4c-2.2,2.3-3.4,5-3.4,8.2s1.1,5.9,3.4,8.2
										s5,3.4,8.2,3.4c3.2,0,6-1.2,8.3-3.4c2.2-2.2,3.3-4.9,3.3-8.1s-1.1-6-3.4-8.2C-435-1.7-437.7-2.8-441-2.8L-441-2.8z
										 M-440.9-0.7c2.6,0,4.9,0.9,6.7,2.8c1.9,1.8,2.8,4.1,2.8,6.7c0,2.7-0.9,4.9-2.7,6.6c-1.9,1.9-4.2,2.8-6.8,2.8
										s-4.8-0.9-6.7-2.8c-1.9-1.9-2.8-4.1-2.8-6.7s0.9-4.8,2.8-6.7C-445.8,0.2-443.6-0.7-440.9-0.7L-440.9-0.7z"/>
									<path id="path6340_1_" class="st40" d="M-446.1,7.1c0.4-2.9,2.5-4.4,5.1-4.4c3.7,0,6,2.7,6,6.3c0,3.5-2.4,6.2-6,6.2
										c-2.5,0-4.7-1.5-5.1-4.5h2.9c0.1,1.6,1.1,2.1,2.5,2.1c1.6,0,2.7-1.5,2.7-3.9c0-2.5-0.9-3.8-2.7-3.8c-1.3,0-2.4,0.5-2.6,2.1
										h0.8l-2.3,2.3l-2.2-2.4H-446.1L-446.1,7.1z"/>
								</g>
							</g>
							<g id="g6361_1_" transform="translate(66.419849, 3.823348)">
								<path id="path6363_1_" class="st15" d="M-429.9,8.7c0,6-4.8,10.8-10.8,10.8s-10.8-4.8-10.8-10.8l0,0c0-6,4.8-10.8,10.8-10.8
									C-434.8-2.1-429.9,2.7-429.9,8.7L-429.9,8.7L-429.9,8.7z"/>
								<path id="path6365_1_" class="st40" d="M-440.7-2.9c3.3,0,6,1.1,8.2,3.4c2.2,2.2,3.4,5,3.4,8.2s-1.1,6-3.3,8.1
									c-2.3,2.3-5.1,3.4-8.3,3.4s-5.9-1.1-8.2-3.4c-2.3-2.3-3.4-5-3.4-8.2s1.1-5.9,3.4-8.2C-446.7-1.8-444-2.9-440.7-2.9
									L-440.7-2.9z M-449.7,5.5c-0.3,1-0.5,2-0.5,3.1c0,2.6,0.9,4.8,2.8,6.7c1.9,1.9,4.1,2.8,6.7,2.8s4.8-0.9,6.8-2.8
									c0.6-0.6,1.2-1.3,1.6-2l-4.4-1.9c-0.3,1.5-1.6,2.5-3.2,2.6v1.8h-1.3V14c-1.3,0-2.6-0.5-3.5-1.4l1.6-1.6c0.8,0.7,1.5,1,2.6,1
									c0.7,0,1.4-0.3,1.4-1.2c0-0.3-0.1-0.5-0.3-0.7l-1.2-0.5L-442,9c-0.7-0.3-1.3-0.6-1.8-0.8L-449.7,5.5L-449.7,5.5z
									 M-440.7-0.8c-2.6,0-4.9,0.9-6.7,2.8c-0.5,0.5-0.9,1-1.3,1.6l4.4,2c0.4-1.2,1.6-2,3-2.1V1.6h1.3v1.8c1,0.1,2,0.3,3,1.1
									l-1.5,1.6c-0.6-0.4-1.3-0.7-2-0.7c-0.6,0-1.4,0.2-1.4,0.9c0,0.1,0,0.2,0.1,0.3l1.5,0.7l1,0.4c0.6,0.3,1.3,0.6,1.9,0.8
									l5.9,2.6c0.2-0.8,0.3-1.6,0.3-2.5c0-2.6-0.9-4.9-2.8-6.7C-435.8,0.1-438.1-0.8-440.7-0.8L-440.7-0.8z"/>
							</g>
						</g>
					</g>
				</g>
			</g>
			<text transform="matrix(1 0 0 1 187.9536 2248)" class="st37 st38">This work is licensed under the Creative Commons Attribution-</text>
			<text transform="matrix(1 0 0 1 187.9536 2266)" class="st37 st38">NonCommercial-ShareAlike 4.0 International License. To view a copy of </text>
			<text transform="matrix(1 0 0 1 187.9536 2284)" class="st37 st38">this license, visit http://creativecommons.org/licenses/by-nc-sa/4.0/.</text>
		</g>
		<text transform="matrix(1 0 0 1 111.312 266.6692)" class="st41 st42 st43">スクリーンリーダー</text>
		<text transform="matrix(1 0 0 1 111 624)" class="st41 st44">すること</text>
		<text transform="matrix(1 0 0 1 854 624)" class="st41 st44">しないこと</text>
		<text transform="matrix(1 0 0 1 115 1425.6248)" class="st8"><tspan x="0" y="0" class="st9 st10">HTML5を使って</tspan><tspan x="0" y="45" class="st9 st10">コンテンツを</tspan><tspan x="0" y="90" class="st9 st10">構造化する</tspan></text>
		<text transform="matrix(1 0 0 1 115 1740.1824)" class="st8"><tspan x="0" y="0" class="st9 st10">キーボードだけで</tspan><tspan x="0" y="45" class="st9 st10">使えるように構築する</tspan></text>
		<text transform="matrix(1 0 0 1 115 2034.6177)" class="st8"><tspan x="0" y="0" class="st9 st10">リンクや見出しは</tspan><tspan x="0" y="45" class="st9 st10">説明的に書く</tspan></text>
		<text transform="matrix(1 0 0 1 861 1423.2465)" class="st8"><tspan x="0" y="0" class="st9 st10">文字サイズや</tspan><tspan x="0" y="45" class="st9 st10">配置に頼って</tspan><tspan x="0" y="90" class="st9 st10">構造化する</tspan></text>
		<text transform="matrix(1 0 0 1 861 1740.1824)" class="st8"><tspan x="0" y="0" class="st9 st10">マウスや画面の</tspan><tspan x="0" y="45" class="st9 st10">使用を強制する</tspan></text>
		<text transform="matrix(1 0 0 1 861 2034.6177)" class="st8"><tspan x="0" y="0" class="st9 st10">リンクや見出しを</tspan><tspan x="0" y="45" class="st9 st10">役立たずにする</tspan></text>
		<text transform="matrix(1 0 0 1 110 389.7091)" class="st41 st22">利用者のためのデザイン</text>
		<rect x="707.5" y="2224.2" class="st45" width="822.4" height="86.8"/>
		<text transform="matrix(1 0 0 1 707.5385 2239.1938)"><tspan x="0" y="0" class="st46 st47">英国内務省（UK Home Office）が制作した、アクセシビリティの啓発ポスターを日本語訳したものです</tspan><tspan x="786.8" y="0" class="st46 st47 st48">。</tspan><tspan x="0" y="27" class="st46 st47">原本は GitHub に公開されています</tspan><tspan x="267" y="27" class="st46 st47 st48">。</tspan><tspan x="0" y="54" class="st46 st47">https://github.com/UKHomeOffice/posters/tree/master/accessibility/dos-donts</tspan></text>
		<text transform="matrix(1 0 0 1 1402.1696 2291.2065)" class="st37 st38">thanks: A11YJ Slack Team</text>
	</g>
</g>
</svg>
