<svg xmlns="http://www.w3.org/2000/svg" xmlns:xlink="http://www.w3.org/1999/xlink" width="221" height="166" viewBox="0 0 221 166">
  <defs>
    <rect id="bunchedinteractions-a" width="98" height="43" x="3" y="33"/>
    <rect id="bunchedinteractions-b" width="218" height="43" x="3" y="123"/>
    <rect id="bunchedinteractions-c" width="98" height="43" x="123" y="33"/>
  </defs>
  <g fill="none" fill-rule="evenodd">
    <rect width="144" height="21" fill="#F47738" rx="5"/>
    <use fill="#FFF" xlink:href="#bunchedinteractions-a"/>
    <rect width="93" height="38" x="5.5" y="35.5" stroke="#979797" stroke-width="5"/>
    <rect width="113" height="21" x="1" y="90" fill="#B58840" rx="5"/>
    <use fill="#FFF" xlink:href="#bunchedinteractions-b"/>
    <rect width="213" height="38" x="5.5" y="125.5" stroke="#979797" stroke-width="5"/>
    <g>
      <use fill="#FFF" xlink:href="#bunchedinteractions-c"/>
      <rect width="93" height="38" x="125.5" y="35.5" stroke="#979797" stroke-width="5"/>
    </g>
    <path fill="#0B0C0C" d="M216.038504,90.3186384 C216.695874,90.9548023 216.84431,91.6863798 216.483817,92.5133929 C216.123324,93.3616114 215.497772,93.7857143 214.607143,93.7857143 L202.456473,93.7857143 L208.849888,108.926339 C209.061943,109.456476 209.061943,109.976002 208.849888,110.484933 C208.637834,110.993864 208.277346,111.364954 207.768415,111.598214 L202.138393,113.983817 C201.608256,114.195872 201.08873,114.195872 200.579799,113.983817 C200.070868,113.771762 199.699778,113.411275 199.466518,112.902344 L193.391183,98.5251116 L183.467076,108.449219 C183.064172,108.852123 182.587056,109.053571 182.035714,109.053571 C181.781249,109.053571 181.526787,109.000559 181.272321,108.894531 C180.424103,108.534038 180,107.908487 180,107.017857 L180,59.1785714 C180,58.287942 180.424103,57.6623902 181.272321,57.3018973 C181.526787,57.19587 181.781249,57.1428571 182.035714,57.1428571 C182.608262,57.1428571 183.085378,57.344306 183.467076,57.7472098 L216.038504,90.3186384 Z"/>
  </g>
</svg>
