<?xml version="1.0" encoding="UTF-8" standalone="no"?>
<svg width="262px" height="179px" viewBox="0 0 262 179" version="1.1" xmlns="http://www.w3.org/2000/svg" xmlns:xlink="http://www.w3.org/1999/xlink">
    <!-- Generator: Sketch 42 (36781) - http://www.bohemiancoding.com/sketch -->
    <title>physicalOrMotor/findAddressShortcut</title>
    <desc>Created with Sketch.</desc>
    <defs>
        <rect id="path-1" x="0.421875" y="46" width="261.578125" height="49"></rect>
        <mask id="mask-2" maskContentUnits="userSpaceOnUse" maskUnits="objectBoundingBox" x="0" y="0" width="261.578125" height="49" fill="white">
            <use xlink:href="#path-1"></use>
        </mask>
    </defs>
    <g id="Site-assets" stroke="none" stroke-width="1" fill="none" fill-rule="evenodd">
        <g id="Mobility-issues" transform="translate(-443.000000, -1959.000000)">
            <g id="physicalOrMotor/findAddressShortcut" transform="translate(443.000000, 1959.000000)">
                <use id="Rectangle-125" stroke="#979797" mask="url(#mask-2)" stroke-width="10" fill="#F8F8F8" xlink:href="#path-1"></use>
                <g id="Group-2" transform="translate(0.000000, 131.000000)">
                    <rect id="Rectangle-16" fill="#00823B" x="0" y="0" width="171" height="48"></rect>
                    <path d="M17.7578125,17.1953125 L29.078125,17.1953125 L29.078125,20.2773438 L21.15625,20.2773438 L21.15625,23.8515625 L28.4570312,23.8515625 L28.4570312,26.921875 L21.15625,26.921875 L21.15625,34 L17.7578125,34 L17.7578125,17.1953125 Z M34.4335938,34 L31.1992188,34 L31.1992188,21.4492188 L34.4335938,21.4492188 L34.4335938,34 Z M30.859375,18.15625 C30.859375,17.8906237 30.9101557,17.6386731 31.0117188,17.4003906 C31.1132818,17.1621082 31.2519522,16.955079 31.4277344,16.7792969 C31.6035165,16.6035147 31.8085926,16.4648443 32.0429688,16.3632812 C32.2773449,16.2617182 32.5312486,16.2109375 32.8046875,16.2109375 C33.0703138,16.2109375 33.3222644,16.2617182 33.5605469,16.3632812 C33.7988293,16.4648443 34.0058585,16.6035147 34.1816406,16.7792969 C34.3574228,16.955079 34.4960932,17.1621082 34.5976562,17.4003906 C34.6992193,17.6386731 34.75,17.8906237 34.75,18.15625 C34.75,18.4296889 34.6992193,18.6835926 34.5976562,18.9179688 C34.4960932,19.1523449 34.3574228,19.357421 34.1816406,19.5332031 C34.0058585,19.7089853 33.7988293,19.8476557 33.5605469,19.9492188 C33.3222644,20.0507818 33.0703138,20.1015625 32.8046875,20.1015625 C32.5312486,20.1015625 32.2773449,20.0507818 32.0429688,19.9492188 C31.8085926,19.8476557 31.6035165,19.7089853 31.4277344,19.5332031 C31.2519522,19.357421 31.1132818,19.1523449 31.0117188,18.9179688 C30.9101557,18.6835926 30.859375,18.4296889 30.859375,18.15625 Z M37.2226562,21.4492188 L40.4570312,21.4492188 L40.4570312,22.5273438 C40.6289071,22.3554679 40.8222646,22.1894539 41.0371094,22.0292969 C41.2519542,21.8691398 41.48828,21.7285162 41.7460938,21.6074219 C42.0039075,21.4863275 42.291014,21.3886722 42.6074219,21.3144531 C42.9238297,21.240234 43.2734356,21.203125 43.65625,21.203125 C44.3359409,21.203125 44.9453098,21.314452 45.484375,21.5371094 C46.0234402,21.7597667 46.4785138,22.0664043 46.8496094,22.4570312 C47.220705,22.8476582 47.5039053,23.3046849 47.6992188,23.828125 C47.8945322,24.3515651 47.9921875,24.9179657 47.9921875,25.5273438 L47.9921875,34 L44.7578125,34 L44.7578125,26.6992188 C44.7578125,26.253904 44.7070318,25.8769547 44.6054688,25.5683594 C44.5039057,25.2597641 44.3652353,25.0097666 44.1894531,24.8183594 C44.013671,24.6269522 43.8066418,24.4863286 43.5683594,24.3964844 C43.3300769,24.3066402 43.0703139,24.2617188 42.7890625,24.2617188 C42.4609359,24.2617188 42.1542983,24.3203119 41.8691406,24.4375 C41.5839829,24.5546881 41.3359386,24.7324207 41.125,24.9707031 C40.9140614,25.2089856 40.7500006,25.5078107 40.6328125,25.8671875 C40.5156244,26.2265643 40.4570312,26.6484351 40.4570312,27.1328125 L40.4570312,34 L37.2226562,34 L37.2226562,21.4492188 Z M58.75,34 L58.75,32.921875 C58.5781241,33.1093759 58.3886729,33.2832023 58.1816406,33.4433594 C57.9746083,33.6035164 57.7441419,33.7421869 57.4902344,33.859375 C57.2363269,33.9765631 56.9589859,34.068359 56.6582031,34.1347656 C56.3574204,34.2011722 56.0234393,34.234375 55.65625,34.234375 C54.8281209,34.234375 54.0703159,34.0703141 53.3828125,33.7421875 C52.6953091,33.4140609 52.1054712,32.9609404 51.6132812,32.3828125 C51.1210913,31.8046846 50.7402357,31.1171915 50.4707031,30.3203125 C50.2011705,29.5234335 50.0664062,28.6601609 50.0664062,27.7304688 C50.0664062,26.8007766 50.1992174,25.937504 50.4648438,25.140625 C50.7304701,24.343746 51.1035132,23.6542998 51.5839844,23.0722656 C52.0644555,22.4902315 52.6445279,22.0332048 53.3242188,21.7011719 C54.0039096,21.369139 54.7578084,21.203125 55.5859375,21.203125 C56.3203162,21.203125 56.9433568,21.3300769 57.4550781,21.5839844 C57.9667994,21.8378919 58.3984357,22.1523419 58.75,22.5273438 L58.75,17.1953125 L61.984375,17.1953125 L61.984375,34 L58.75,34 Z M58.84375,26.5585938 C58.84375,26.2226546 58.7832037,25.9101577 58.6621094,25.6210938 C58.541015,25.3320298 58.3671886,25.0820323 58.140625,24.8710938 C57.9140614,24.6601552 57.6425797,24.4960943 57.3261719,24.3789062 C57.009764,24.2617182 56.6523457,24.203125 56.2539062,24.203125 C55.7929664,24.203125 55.3847674,24.2890616 55.0292969,24.4609375 C54.6738263,24.6328134 54.3750012,24.8730453 54.1328125,25.1816406 C53.8906238,25.4902359 53.7070319,25.8554666 53.5820312,26.2773438 C53.4570306,26.6992209 53.3945312,27.1601537 53.3945312,27.6601562 L53.3945312,27.8125 C53.3945312,28.3125025 53.4570306,28.7714823 53.5820312,29.1894531 C53.7070319,29.607424 53.8906238,29.9687485 54.1328125,30.2734375 C54.3750012,30.5781265 54.6738263,30.8144523 55.0292969,30.9824219 C55.3847674,31.1503915 55.7929664,31.234375 56.2539062,31.234375 C56.6523457,31.234375 57.009764,31.1757818 57.3261719,31.0585938 C57.6425797,30.9414057 57.9140614,30.7773448 58.140625,30.5664062 C58.3671886,30.3554677 58.541015,30.1074233 58.6621094,29.8222656 C58.7832037,29.5371079 58.84375,29.2265642 58.84375,28.890625 L58.84375,26.5585938 Z M73.1523438,28.9023438 C72.7539043,28.9648441 72.433595,29.1035146 72.1914062,29.3183594 C71.9492175,29.5332042 71.828125,29.8242169 71.828125,30.1914062 C71.828125,30.5976583 71.976561,30.9472642 72.2734375,31.2402344 C72.570314,31.5332046 73.0078096,31.6796875 73.5859375,31.6796875 C74.1953155,31.6796875 74.6757795,31.503908 75.0273438,31.1523438 C75.378908,30.8007795 75.5546875,30.3359404 75.5546875,29.7578125 L75.5546875,28.4921875 L73.1523438,28.9023438 Z M76.0820312,32.8164062 C75.9492181,32.9648445 75.7871103,33.123046 75.5957031,33.2910156 C75.4042959,33.4589852 75.1777357,33.6113274 74.9160156,33.7480469 C74.6542956,33.8847663 74.347658,33.9999995 73.9960938,34.09375 C73.6445295,34.1875005 73.2500022,34.234375 72.8125,34.234375 C72.1874969,34.234375 71.6113308,34.1347666 71.0839844,33.9355469 C70.556638,33.7363271 70.093752,33.457033 69.6953125,33.0976562 C69.296873,32.7382795 68.9843761,32.322268 68.7578125,31.8496094 C68.5312489,31.3769508 68.4179688,30.863284 68.4179688,30.3085938 C68.4179688,29.3007762 68.7304656,28.4765657 69.3554688,27.8359375 C69.9804719,27.1953093 70.8437445,26.7929696 71.9453125,26.6289062 L75.5546875,26.1015625 L75.5546875,25.8671875 C75.5546875,25.3046847 75.3828142,24.8593766 75.0390625,24.53125 C74.6953108,24.2031234 74.1367226,24.0390625 73.3632812,24.0390625 C73.0429671,24.0390625 72.7187516,24.0761715 72.390625,24.1503906 C72.0624984,24.2246097 71.7480484,24.3085933 71.4472656,24.4023438 C71.1464829,24.4960942 70.8671888,24.603515 70.609375,24.7246094 C70.3515612,24.8457037 70.125001,24.9531245 69.9296875,25.046875 L68.6640625,22.5742188 C69.3828161,22.1757793 70.1816362,21.8476575 71.0605469,21.5898438 C71.9394575,21.33203 72.8515578,21.203125 73.796875,21.203125 C74.3750029,21.203125 74.9589814,21.2636713 75.5488281,21.3847656 C76.1386748,21.50586 76.6738257,21.7265609 77.1542969,22.046875 C77.634768,22.3671891 78.0273422,22.8027316 78.3320312,23.3535156 C78.6367203,23.9042996 78.7890625,24.6054645 78.7890625,25.4570312 L78.7890625,30.6132812 C78.7890625,30.9804706 78.8847647,31.2519522 79.0761719,31.4277344 C79.2675791,31.6035165 79.5312483,31.7656243 79.8671875,31.9140625 L78.4023438,34.234375 C77.8085908,34.1718747 77.332033,34.0175794 76.9726562,33.7714844 C76.6132795,33.5253894 76.3164074,33.2070332 76.0820312,32.8164062 Z M89.546875,34 L89.546875,32.921875 C89.3749991,33.1093759 89.1855479,33.2832023 88.9785156,33.4433594 C88.7714833,33.6035164 88.5410169,33.7421869 88.2871094,33.859375 C88.0332019,33.9765631 87.7558609,34.068359 87.4550781,34.1347656 C87.1542954,34.2011722 86.8203143,34.234375 86.453125,34.234375 C85.6249959,34.234375 84.8671909,34.0703141 84.1796875,33.7421875 C83.4921841,33.4140609 82.9023462,32.9609404 82.4101562,32.3828125 C81.9179663,31.8046846 81.5371107,31.1171915 81.2675781,30.3203125 C80.9980455,29.5234335 80.8632812,28.6601609 80.8632812,27.7304688 C80.8632812,26.8007766 80.9960924,25.937504 81.2617188,25.140625 C81.5273451,24.343746 81.9003882,23.6542998 82.3808594,23.0722656 C82.8613305,22.4902315 83.4414029,22.0332048 84.1210938,21.7011719 C84.8007846,21.369139 85.5546834,21.203125 86.3828125,21.203125 C87.1171912,21.203125 87.7402318,21.3300769 88.2519531,21.5839844 C88.7636744,21.8378919 89.1953107,22.1523419 89.546875,22.5273438 L89.546875,17.1953125 L92.78125,17.1953125 L92.78125,34 L89.546875,34 Z M89.640625,26.5585938 C89.640625,26.2226546 89.5800787,25.9101577 89.4589844,25.6210938 C89.33789,25.3320298 89.1640636,25.0820323 88.9375,24.8710938 C88.7109364,24.6601552 88.4394547,24.4960943 88.1230469,24.3789062 C87.806639,24.2617182 87.4492207,24.203125 87.0507812,24.203125 C86.5898414,24.203125 86.1816424,24.2890616 85.8261719,24.4609375 C85.4707013,24.6328134 85.1718762,24.8730453 84.9296875,25.1816406 C84.6874988,25.4902359 84.5039069,25.8554666 84.3789062,26.2773438 C84.2539056,26.6992209 84.1914062,27.1601537 84.1914062,27.6601562 L84.1914062,27.8125 C84.1914062,28.3125025 84.2539056,28.7714823 84.3789062,29.1894531 C84.5039069,29.607424 84.6874988,29.9687485 84.9296875,30.2734375 C85.1718762,30.5781265 85.4707013,30.8144523 85.8261719,30.9824219 C86.1816424,31.1503915 86.5898414,31.234375 87.0507812,31.234375 C87.4492207,31.234375 87.806639,31.1757818 88.1230469,31.0585938 C88.4394547,30.9414057 88.7109364,30.7773448 88.9375,30.5664062 C89.1640636,30.3554677 89.33789,30.1074233 89.4589844,29.8222656 C89.5800787,29.5371079 89.640625,29.2265642 89.640625,28.890625 L89.640625,26.5585938 Z M103.632812,34 L103.632812,32.921875 C103.460937,33.1093759 103.271485,33.2832023 103.064453,33.4433594 C102.857421,33.6035164 102.626954,33.7421869 102.373047,33.859375 C102.119139,33.9765631 101.841798,34.068359 101.541016,34.1347656 C101.240233,34.2011722 100.906252,34.234375 100.539062,34.234375 C99.7109334,34.234375 98.9531284,34.0703141 98.265625,33.7421875 C97.5781216,33.4140609 96.9882837,32.9609404 96.4960938,32.3828125 C96.0039038,31.8046846 95.6230482,31.1171915 95.3535156,30.3203125 C95.083983,29.5234335 94.9492188,28.6601609 94.9492188,27.7304688 C94.9492188,26.8007766 95.0820299,25.937504 95.3476562,25.140625 C95.6132826,24.343746 95.9863257,23.6542998 96.4667969,23.0722656 C96.947268,22.4902315 97.5273404,22.0332048 98.2070312,21.7011719 C98.8867221,21.369139 99.6406209,21.203125 100.46875,21.203125 C101.203129,21.203125 101.826169,21.3300769 102.337891,21.5839844 C102.849612,21.8378919 103.281248,22.1523419 103.632812,22.5273438 L103.632812,17.1953125 L106.867188,17.1953125 L106.867188,34 L103.632812,34 Z M103.726562,26.5585938 C103.726562,26.2226546 103.666016,25.9101577 103.544922,25.6210938 C103.423828,25.3320298 103.250001,25.0820323 103.023438,24.8710938 C102.796874,24.6601552 102.525392,24.4960943 102.208984,24.3789062 C101.892577,24.2617182 101.535158,24.203125 101.136719,24.203125 C100.675779,24.203125 100.26758,24.2890616 99.9121094,24.4609375 C99.5566388,24.6328134 99.2578137,24.8730453 99.015625,25.1816406 C98.7734363,25.4902359 98.5898444,25.8554666 98.4648438,26.2773438 C98.3398431,26.6992209 98.2773438,27.1601537 98.2773438,27.6601562 L98.2773438,27.8125 C98.2773438,28.3125025 98.3398431,28.7714823 98.4648438,29.1894531 C98.5898444,29.607424 98.7734363,29.9687485 99.015625,30.2734375 C99.2578137,30.5781265 99.5566388,30.8144523 99.9121094,30.9824219 C100.26758,31.1503915 100.675779,31.234375 101.136719,31.234375 C101.535158,31.234375 101.892577,31.1757818 102.208984,31.0585938 C102.525392,30.9414057 102.796874,30.7773448 103.023438,30.5664062 C103.250001,30.3554677 103.423828,30.1074233 103.544922,29.8222656 C103.666016,29.5371079 103.726562,29.2265642 103.726562,28.890625 L103.726562,26.5585938 Z M116.710938,24.5898438 L116.371094,24.5898438 C115.910154,24.5898438 115.470705,24.6367183 115.052734,24.7304688 C114.634764,24.8242192 114.265627,24.9941394 113.945312,25.2402344 C113.624998,25.4863294 113.369142,25.8242166 113.177734,26.2539062 C112.986327,26.6835959 112.890625,27.2343716 112.890625,27.90625 L112.890625,34 L109.65625,34 L109.65625,21.4492188 L112.890625,21.4492188 L112.890625,22.8671875 C113.023438,22.6562489 113.195311,22.453126 113.40625,22.2578125 C113.617189,22.062499 113.86328,21.8886726 114.144531,21.7363281 C114.425783,21.5839836 114.742186,21.460938 115.09375,21.3671875 C115.445314,21.273437 115.824217,21.2265625 116.230469,21.2265625 L116.710938,21.2265625 L116.710938,24.5898438 Z M121.433594,28.84375 C121.488282,29.2187519 121.607421,29.5624984 121.791016,29.875 C121.97461,30.1875016 122.20703,30.455077 122.488281,30.6777344 C122.769533,30.9003917 123.093748,31.0742181 123.460938,31.1992188 C123.828127,31.3242194 124.218748,31.3867188 124.632812,31.3867188 C125.109377,31.3867188 125.624997,31.2949228 126.179688,31.1113281 C126.734378,30.9277335 127.242185,30.660158 127.703125,30.3085938 L129.261719,32.5820312 C128.675778,33.0742212 127.957036,33.4726547 127.105469,33.7773438 C126.253902,34.0820328 125.347661,34.234375 124.386719,34.234375 C123.519527,34.234375 122.703129,34.085939 121.9375,33.7890625 C121.171871,33.492186 120.501956,33.0625028 119.927734,32.5 C119.353513,31.9374972 118.900392,31.2539103 118.568359,30.4492188 C118.236326,29.6445272 118.070312,28.7382863 118.070312,27.7304688 C118.070312,26.8085891 118.216795,25.9492227 118.509766,25.1523438 C118.802736,24.3554648 119.212888,23.6640654 119.740234,23.078125 C120.267581,22.4921846 120.898434,22.0332048 121.632812,21.7011719 C122.367191,21.369139 123.179683,21.203125 124.070312,21.203125 C124.898442,21.203125 125.667965,21.3535141 126.378906,21.6542969 C127.089847,21.9550796 127.707029,22.3769504 128.230469,22.9199219 C128.753909,23.4628933 129.164061,24.1132775 129.460938,24.8710938 C129.757814,25.62891 129.90625,26.4648392 129.90625,27.3789062 L129.90625,28.84375 L121.433594,28.84375 Z M124.058594,24.015625 C123.363278,24.015625 122.775393,24.2480446 122.294922,24.7128906 C121.814451,25.1777367 121.535157,25.738278 121.457031,26.3945312 L126.519531,26.3945312 C126.503906,25.7304654 126.261721,25.1679711 125.792969,24.7070312 C125.324216,24.2460914 124.746097,24.015625 124.058594,24.015625 Z M132.859375,29.9921875 C133.320315,30.4062521 133.871091,30.7617173 134.511719,31.0585938 C135.152347,31.3554702 135.800778,31.5039062 136.457031,31.5039062 C136.933596,31.5039062 137.308592,31.4121103 137.582031,31.2285156 C137.85547,31.044921 137.992188,30.8085952 137.992188,30.5195312 C137.992188,30.0273413 137.464849,29.6445326 136.410156,29.3710938 L135.496094,29.125 C135.042966,29.0156245 134.58594,28.8652353 134.125,28.6738281 C133.66406,28.4824209 133.240236,28.2304703 132.853516,27.9179688 C132.466795,27.6054672 132.154298,27.2246116 131.916016,26.7753906 C131.677733,26.3261696 131.558594,25.7734408 131.558594,25.1171875 C131.558594,24.5937474 131.673827,24.0957055 131.904297,23.6230469 C132.134767,23.1503883 132.462888,22.7343768 132.888672,22.375 C133.314455,22.0156232 133.832028,21.7304698 134.441406,21.5195312 C135.050784,21.3085927 135.730465,21.203125 136.480469,21.203125 C137.550787,21.203125 138.505855,21.3710921 139.345703,21.7070312 C140.185551,22.0429704 140.847654,22.4218729 141.332031,22.84375 L139.644531,25 C139.246092,24.7109361 138.775393,24.4628917 138.232422,24.2558594 C137.68945,24.0488271 137.144534,23.9453125 136.597656,23.9453125 C136.089841,23.9453125 135.695314,24.0371085 135.414062,24.2207031 C135.132811,24.4042978 134.992188,24.6249987 134.992188,24.8828125 C134.992188,25.1562514 135.115233,25.3769523 135.361328,25.5449219 C135.607423,25.7128915 135.964841,25.8593744 136.433594,25.984375 L137.792969,26.3710938 C139.08985,26.7382831 140.019528,27.2343719 140.582031,27.859375 C141.144534,28.4843781 141.425781,29.2734327 141.425781,30.2265625 C141.425781,30.7578152 141.316407,31.2636695 141.097656,31.7441406 C140.878905,32.2246118 140.558596,32.6523419 140.136719,33.0273438 C139.714842,33.4023456 139.191409,33.6972646 138.566406,33.9121094 C137.941403,34.1269542 137.230473,34.234375 136.433594,34.234375 C135.824216,34.234375 135.251956,34.179688 134.716797,34.0703125 C134.181638,33.960937 133.685549,33.8105478 133.228516,33.6191406 C132.771482,33.4277334 132.359377,33.2109387 131.992188,32.96875 C131.624998,32.7265613 131.312501,32.4843762 131.054688,32.2421875 L132.859375,29.9921875 Z M144.402344,29.9921875 C144.863284,30.4062521 145.414059,30.7617173 146.054688,31.0585938 C146.695316,31.3554702 147.343747,31.5039062 148,31.5039062 C148.476565,31.5039062 148.851561,31.4121103 149.125,31.2285156 C149.398439,31.044921 149.535156,30.8085952 149.535156,30.5195312 C149.535156,30.0273413 149.007818,29.6445326 147.953125,29.3710938 L147.039062,29.125 C146.585935,29.0156245 146.128909,28.8652353 145.667969,28.6738281 C145.207029,28.4824209 144.783205,28.2304703 144.396484,27.9179688 C144.009764,27.6054672 143.697267,27.2246116 143.458984,26.7753906 C143.220702,26.3261696 143.101562,25.7734408 143.101562,25.1171875 C143.101562,24.5937474 143.216796,24.0957055 143.447266,23.6230469 C143.677736,23.1503883 144.005857,22.7343768 144.431641,22.375 C144.857424,22.0156232 145.374997,21.7304698 145.984375,21.5195312 C146.593753,21.3085927 147.273434,21.203125 148.023438,21.203125 C149.093755,21.203125 150.048824,21.3710921 150.888672,21.7070312 C151.72852,22.0429704 152.390623,22.4218729 152.875,22.84375 L151.1875,25 C150.789061,24.7109361 150.318362,24.4628917 149.775391,24.2558594 C149.232419,24.0488271 148.687503,23.9453125 148.140625,23.9453125 C147.63281,23.9453125 147.238283,24.0371085 146.957031,24.2207031 C146.67578,24.4042978 146.535156,24.6249987 146.535156,24.8828125 C146.535156,25.1562514 146.658202,25.3769523 146.904297,25.5449219 C147.150392,25.7128915 147.50781,25.8593744 147.976562,25.984375 L149.335938,26.3710938 C150.632819,26.7382831 151.562497,27.2343719 152.125,27.859375 C152.687503,28.4843781 152.96875,29.2734327 152.96875,30.2265625 C152.96875,30.7578152 152.859376,31.2636695 152.640625,31.7441406 C152.421874,32.2246118 152.101565,32.6523419 151.679688,33.0273438 C151.25781,33.4023456 150.734378,33.6972646 150.109375,33.9121094 C149.484372,34.1269542 148.773441,34.234375 147.976562,34.234375 C147.367184,34.234375 146.794925,34.179688 146.259766,34.0703125 C145.724607,33.960937 145.228518,33.8105478 144.771484,33.6191406 C144.314451,33.4277334 143.902346,33.2109387 143.535156,32.96875 C143.167967,32.7265613 142.85547,32.4843762 142.597656,32.2421875 L144.402344,29.9921875 Z" id="Find-address" fill="#FFFFFF"></path>
                </g>
                <path d="M0.462890625,0.79296875 L9.3046875,0.79296875 C10.4882872,0.79296875 11.5605421,0.98925585 12.5214844,1.38183594 C13.4824267,1.77441603 14.3056606,2.31933245 14.9912109,3.01660156 C15.6767612,3.71387067 16.2040997,4.54882326 16.5732422,5.52148438 C16.9423847,6.49414549 17.1269531,7.56054107 17.1269531,8.72070312 C17.1269531,9.89258398 16.9248067,10.9619092 16.5205078,11.9287109 C16.1162089,12.8955126 15.5507849,13.7246059 14.8242188,14.4160156 C14.0976526,15.1074253 13.2334034,15.6435528 12.2314453,16.0244141 C11.2294872,16.4052753 10.1367247,16.5957031 8.953125,16.5957031 L3.55664062,16.5957031 L3.55664062,26 L0.462890625,26 L0.462890625,0.79296875 Z M13.8398438,8.65039062 C13.8398438,7.91210568 13.7226574,7.22656566 13.4882812,6.59375 C13.2539051,5.96093434 12.9140647,5.41308825 12.46875,4.95019531 C12.0234353,4.48730237 11.4814485,4.12402476 10.8427734,3.86035156 C10.2040984,3.59667837 9.48047279,3.46484375 8.671875,3.46484375 L3.55664063,3.46484375 L3.55664063,13.9414062 L8.671875,13.9414062 C9.48047279,13.9414062 10.2040984,13.8125013 10.8427734,13.5546875 C11.4814485,13.2968737 12.0234353,12.9423851 12.46875,12.4912109 C12.9140647,12.0400368 13.2539051,11.5009797 13.4882812,10.8740234 C13.7226574,10.2470672 13.8398438,9.56445682 13.8398438,8.82617188 L13.8398438,8.65039062 Z M28.2011719,7.68359375 C29.4433656,7.68359375 30.5742137,7.91503675 31.59375,8.37792969 C32.6132863,8.84082263 33.4833948,9.48534743 34.2041016,10.3115234 C34.9248083,11.1376994 35.484373,12.1220646 35.8828125,13.2646484 C36.281252,14.4072323 36.4804688,15.6640556 36.4804688,17.0351562 C36.4804688,18.3828192 36.281252,19.627924 35.8828125,20.7705078 C35.484373,21.9130917 34.9248083,22.8974568 34.2041016,23.7236328 C33.4833948,24.5498088 32.6132863,25.1943336 31.59375,25.6572266 C30.5742137,26.1201195 29.4433656,26.3515625 28.2011719,26.3515625 C26.9589782,26.3515625 25.8310598,26.1201195 24.8173828,25.6572266 C23.8037059,25.1943336 22.9335974,24.5498088 22.2070312,23.7236328 C21.4804651,22.8974568 20.9179707,21.9130917 20.5195312,20.7705078 C20.1210918,19.627924 19.921875,18.3828192 19.921875,17.0351562 C19.921875,15.6640556 20.1210918,14.4072323 20.5195312,13.2646484 C20.9179707,12.1220646 21.4804651,11.1376994 22.2070312,10.3115234 C22.9335974,9.48534743 23.8037059,8.84082263 24.8173828,8.37792969 C25.8310598,7.91503675 26.9589782,7.68359375 28.2011719,7.68359375 Z M28.2011719,23.7675781 C29.0566449,23.7675781 29.8095671,23.588869 30.4599609,23.2314453 C31.1103548,22.8740217 31.6552712,22.390628 32.0947266,21.78125 C32.5341819,21.171872 32.8652333,20.4658243 33.0878906,19.6630859 C33.310548,18.8603475 33.421875,18.0195356 33.421875,17.140625 L33.421875,16.9296875 C33.421875,16.0273392 33.310548,15.171879 33.0878906,14.3632812 C32.8652333,13.5546835 32.5341819,12.8486358 32.0947266,12.2451172 C31.6552712,11.6415985 31.1103548,11.1611346 30.4599609,10.8037109 C29.8095671,10.4462873 29.0566449,10.2675781 28.2011719,10.2675781 C27.3456988,10.2675781 26.5927767,10.4462873 25.9423828,10.8037109 C25.2919889,11.1611346 24.7470725,11.6415985 24.3076172,12.2451172 C23.8681619,12.8486358 23.5371105,13.5546835 23.3144531,14.3632812 C23.0917958,15.171879 22.9804688,16.0273392 22.9804688,16.9296875 L22.9804688,17.140625 C22.9804688,18.0195356 23.0917958,18.8603475 23.3144531,19.6630859 C23.5371105,20.4658243 23.8681619,21.171872 24.3076172,21.78125 C24.7470725,22.390628 25.2919889,22.8740217 25.9423828,23.2314453 C26.5927767,23.588869 27.3456988,23.7675781 28.2011719,23.7675781 Z M52.828125,21.0253906 C52.828125,21.8691448 52.6435565,22.622067 52.2744141,23.2841797 C51.9052716,23.9462924 51.4160187,24.5058571 50.8066406,24.9628906 C50.1972626,25.4199242 49.4970743,25.7656238 48.7060547,26 C47.9150351,26.2343762 47.1035198,26.3515625 46.2714844,26.3515625 C44.9589778,26.3515625 43.6962951,26.1259788 42.4833984,25.6748047 C41.2705017,25.2236306 40.1953172,24.5761761 39.2578125,23.7324219 L40.875,21.640625 C41.1562514,21.88672 41.4814435,22.1445299 41.8505859,22.4140625 C42.2197284,22.6835951 42.6328102,22.932616 43.0898438,23.1611328 C43.5468773,23.3896496 44.0390599,23.5771477 44.5664062,23.7236328 C45.0937526,23.8701179 45.6503877,23.9433594 46.2363281,23.9433594 C46.7167993,23.9433594 47.1767556,23.8818366 47.6162109,23.7587891 C48.0556663,23.6357416 48.4394515,23.4541028 48.7675781,23.2138672 C49.0957048,22.9736316 49.3564443,22.6865251 49.5498047,22.3525391 C49.743165,22.018553 49.8398438,21.6406271 49.8398438,21.21875 C49.8398438,20.7499977 49.7373057,20.3574235 49.5322266,20.0410156 C49.3271474,19.7246078 49.0488299,19.4550792 48.6972656,19.2324219 C48.3457014,19.0097645 47.9355492,18.8164071 47.4667969,18.6523438 C46.9980445,18.4882804 46.505862,18.3242196 45.9902344,18.1601562 L44.8652344,17.7910156 C44.2324187,17.5800771 43.6230498,17.3398451 43.0371094,17.0703125 C42.4511689,16.8007799 41.9326194,16.4697285 41.4814453,16.0771484 C41.0302712,15.6845683 40.6728529,15.2187527 40.4091797,14.6796875 C40.1455065,14.1406223 40.0136719,13.4960975 40.0136719,12.7460938 C40.0136719,12.1367157 40.1425768,11.5302765 40.4003906,10.9267578 C40.6582044,10.3232392 41.0537083,9.7812524 41.5869141,9.30078125 C42.1201199,8.8203101 42.7968709,8.43066556 43.6171875,8.13183594 C44.4375041,7.83300632 45.4042913,7.68359375 46.5175781,7.68359375 C47.748053,7.68359375 48.8876901,7.88866982 49.9365234,8.29882812 C50.9853568,8.70898643 51.8730432,9.21874695 52.5996094,9.828125 L51.0527344,11.9550781 C50.7949206,11.7089831 50.4902361,11.4746105 50.1386719,11.2519531 C49.7871076,11.0292958 49.4121114,10.8330087 49.0136719,10.6630859 C48.6152324,10.4931632 48.1992209,10.3554693 47.765625,10.25 C47.3320291,10.1445307 46.904299,10.0917969 46.4824219,10.0917969 C45.8378874,10.0917969 45.292971,10.1650383 44.8476562,10.3115234 C44.4023415,10.4580085 44.0449232,10.6484363 43.7753906,10.8828125 C43.505858,11.1171887 43.3095709,11.3808579 43.1865234,11.6738281 C43.0634759,11.9667983 43.0019531,12.2539048 43.0019531,12.5351562 C43.0019531,12.9453146 43.0898429,13.2880846 43.265625,13.5634766 C43.4414071,13.8388686 43.6728501,14.0761709 43.9599609,14.2753906 C44.2470717,14.4746104 44.5751935,14.6445305 44.9443359,14.7851562 C45.3134784,14.925782 45.6972636,15.0664055 46.0957031,15.2070312 L47.5722656,15.6992188 C48.2753941,15.9335949 48.9199189,16.1826159 49.5058594,16.4462891 C50.0917998,16.7099623 50.6074196,17.0117171 51.0527344,17.3515625 C51.6152372,17.7968772 52.0517563,18.3124971 52.3623047,18.8984375 C52.6728531,19.4843779 52.828125,20.1933552 52.828125,21.0253906 Z M62.0039062,21.5351562 C62.0039062,21.8398453 62.0244139,22.1240221 62.0654297,22.3876953 C62.1064455,22.6513685 62.2060539,22.8828115 62.3642578,23.0820312 C62.5224617,23.281251 62.7539047,23.4394525 63.0585938,23.5566406 C63.3632828,23.6738287 63.7792942,23.7324219 64.3066406,23.7324219 C64.4472663,23.7324219 64.6142568,23.7265626 64.8076172,23.7148438 C65.0009775,23.7031249 65.2031239,23.6884767 65.4140625,23.6708984 C65.6250011,23.6533202 65.8300771,23.629883 66.0292969,23.6005859 C66.2285166,23.5712889 66.3984368,23.544922 66.5390625,23.5214844 L66.8554688,26.1054688 C66.5156233,26.152344 66.1640643,26.1933592 65.8007812,26.2285156 C65.4960922,26.2636721 65.1562519,26.2929686 64.78125,26.3164062 C64.4062481,26.3398439 64.0312519,26.3515625 63.65625,26.3515625 C62.9414027,26.3515625 62.2998075,26.278321 61.7314453,26.1318359 C61.1630831,25.9853508 60.6796895,25.7480485 60.28125,25.4199219 C59.8828105,25.0917952 59.5781261,24.6611355 59.3671875,24.1279297 C59.1562489,23.5947239 59.0507812,22.9472694 59.0507812,22.1855469 L59.0507812,10.6367188 L55.6582031,10.6367188 L55.6582031,8.03515625 L59.0507812,8.03515625 L59.0507812,2.1640625 L62.0039062,1.12695312 L62.0039062,8.03515625 L66.9960938,8.03515625 L66.9960938,10.6367188 L62.0039062,10.6367188 L62.0039062,21.5351562 Z M72.6210938,17.1054688 C72.6210938,18.007817 72.7324208,18.8632772 72.9550781,19.671875 C73.1777355,20.4804728 73.5058572,21.1865204 73.9394531,21.7900391 C74.373049,22.3935577 74.9150358,22.8740217 75.5654297,23.2314453 C76.2158236,23.588869 76.974605,23.7675781 77.8417969,23.7675781 C78.4042997,23.7675781 78.9228492,23.6884774 79.3974609,23.5302734 C79.8720727,23.3720695 80.2998028,23.1582045 80.6806641,22.8886719 C81.0615253,22.6191393 81.4013657,22.2998065 81.7001953,21.9306641 C81.9990249,21.5615216 82.2597645,21.1660177 82.4824219,20.7441406 L84.9433594,22.1503906 C84.6386704,22.7832063 84.2490258,23.360349 83.7744141,23.8818359 C83.2998023,24.4033229 82.7578155,24.8457013 82.1484375,25.2089844 C81.5390595,25.5722674 80.8710974,25.8535146 80.1445312,26.0527344 C79.4179651,26.2519541 78.6503947,26.3515625 77.8417969,26.3515625 C76.5996032,26.3515625 75.4716848,26.1201195 74.4580078,25.6572266 C73.4443309,25.1943336 72.5742224,24.5498088 71.8476562,23.7236328 C71.1210901,22.8974568 70.5585957,21.9160213 70.1601562,20.7792969 C69.7617168,19.6425724 69.5625,18.394538 69.5625,17.0351562 C69.5625,15.6640556 69.7617168,14.4072323 70.1601562,13.2646484 C70.5585957,12.1220646 71.1210901,11.1376994 71.8476562,10.3115234 C72.5742224,9.48534743 73.4443309,8.84082263 74.4580078,8.37792969 C75.4716848,7.91503675 76.5996032,7.68359375 77.8417969,7.68359375 C78.6503947,7.68359375 79.4179651,7.78320213 80.1445312,7.98242188 C80.8710974,8.18164162 81.5390595,8.46288881 82.1484375,8.82617188 C82.7578155,9.18945494 83.2998023,9.63183333 83.7744141,10.1533203 C84.2490258,10.6748073 84.6386704,11.25195 84.9433594,11.8847656 L82.4824219,13.2910156 C82.2597645,12.8691385 81.9990249,12.4736347 81.7001953,12.1044922 C81.4013657,11.7353497 81.0615253,11.416017 80.6806641,11.1464844 C80.2998028,10.8769518 79.8720727,10.6630867 79.3974609,10.5048828 C78.9228492,10.3466789 78.4042997,10.2675781 77.8417969,10.2675781 C76.974605,10.2675781 76.2158236,10.4462873 75.5654297,10.8037109 C74.9150358,11.1611346 74.373049,11.6415985 73.9394531,12.2451172 C73.5058572,12.8486358 73.1777355,13.5546835 72.9550781,14.3632812 C72.7324208,15.171879 72.6210938,16.0273392 72.6210938,16.9296875 L72.6210938,17.1054688 Z M96.2460938,7.68359375 C97.4882875,7.68359375 98.6191355,7.91503675 99.6386719,8.37792969 C100.658208,8.84082263 101.528317,9.48534743 102.249023,10.3115234 C102.96973,11.1376994 103.529295,12.1220646 103.927734,13.2646484 C104.326174,14.4072323 104.525391,15.6640556 104.525391,17.0351562 C104.525391,18.3828192 104.326174,19.627924 103.927734,20.7705078 C103.529295,21.9130917 102.96973,22.8974568 102.249023,23.7236328 C101.528317,24.5498088 100.658208,25.1943336 99.6386719,25.6572266 C98.6191355,26.1201195 97.4882875,26.3515625 96.2460938,26.3515625 C95.0039,26.3515625 93.8759816,26.1201195 92.8623047,25.6572266 C91.8486277,25.1943336 90.9785193,24.5498088 90.2519531,23.7236328 C89.525387,22.8974568 88.9628926,21.9130917 88.5644531,20.7705078 C88.1660136,19.627924 87.9667969,18.3828192 87.9667969,17.0351562 C87.9667969,15.6640556 88.1660136,14.4072323 88.5644531,13.2646484 C88.9628926,12.1220646 89.525387,11.1376994 90.2519531,10.3115234 C90.9785193,9.48534743 91.8486277,8.84082263 92.8623047,8.37792969 C93.8759816,7.91503675 95.0039,7.68359375 96.2460938,7.68359375 Z M96.2460938,23.7675781 C97.1015668,23.7675781 97.8544889,23.588869 98.5048828,23.2314453 C99.1552767,22.8740217 99.7001931,22.390628 100.139648,21.78125 C100.579104,21.171872 100.910155,20.4658243 101.132812,19.6630859 C101.35547,18.8603475 101.466797,18.0195356 101.466797,17.140625 L101.466797,16.9296875 C101.466797,16.0273392 101.35547,15.171879 101.132812,14.3632812 C100.910155,13.5546835 100.579104,12.8486358 100.139648,12.2451172 C99.7001931,11.6415985 99.1552767,11.1611346 98.5048828,10.8037109 C97.8544889,10.4462873 97.1015668,10.2675781 96.2460938,10.2675781 C95.3906207,10.2675781 94.6376986,10.4462873 93.9873047,10.8037109 C93.3369108,11.1611346 92.7919944,11.6415985 92.3525391,12.2451172 C91.9130837,12.8486358 91.5820324,13.5546835 91.359375,14.3632812 C91.1367176,15.171879 91.0253906,16.0273392 91.0253906,16.9296875 L91.0253906,17.140625 C91.0253906,18.0195356 91.1367176,18.8603475 91.359375,19.6630859 C91.5820324,20.4658243 91.9130837,21.171872 92.3525391,21.78125 C92.7919944,22.390628 93.3369108,22.8740217 93.9873047,23.2314453 C94.6376986,23.588869 95.3906207,23.7675781 96.2460938,23.7675781 Z M120.679688,23.9433594 C120.152341,24.6816443 119.434575,25.267576 118.526367,25.7011719 C117.61816,26.1347678 116.58399,26.3515625 115.423828,26.3515625 C114.263666,26.3515625 113.214848,26.1201195 112.277344,25.6572266 C111.339839,25.1943336 110.537113,24.5498088 109.869141,23.7236328 C109.201169,22.8974568 108.688478,21.9160213 108.331055,20.7792969 C107.973631,19.6425724 107.794922,18.394538 107.794922,17.0351562 C107.794922,15.6757745 107.973631,14.4248104 108.331055,13.2822266 C108.688478,12.1396427 109.201169,11.1523479 109.869141,10.3203125 C110.537113,9.48827709 111.339839,8.84082263 112.277344,8.37792969 C113.214848,7.91503675 114.263666,7.68359375 115.423828,7.68359375 C116.58399,7.68359375 117.61816,7.90038846 118.526367,8.33398438 C119.434575,8.76758029 120.152341,9.35351193 120.679688,10.0917969 L120.679688,0.79296875 L123.632812,0.79296875 L123.632812,26 L120.679688,26 L120.679688,23.9433594 Z M110.853516,17.1054688 C110.853516,18.0429734 110.964843,18.9160116 111.1875,19.7246094 C111.410157,20.5332072 111.738279,21.2333955 112.171875,21.8251953 C112.605471,22.4169951 113.138669,22.8828108 113.771484,23.2226562 C114.4043,23.5625017 115.136715,23.7324219 115.96875,23.7324219 C116.75391,23.7324219 117.44238,23.5976576 118.03418,23.328125 C118.62598,23.0585924 119.121092,22.6894555 119.519531,22.2207031 C119.917971,21.7519508 120.216796,21.1982454 120.416016,20.5595703 C120.615235,19.9208952 120.714844,19.2265662 120.714844,18.4765625 L120.714844,15.5585938 C120.714844,14.80859 120.615235,14.114261 120.416016,13.4755859 C120.216796,12.8369109 119.917971,12.2832055 119.519531,11.8144531 C119.121092,11.3457008 118.62598,10.9765638 118.03418,10.7070312 C117.44238,10.4374987 116.75391,10.3027344 115.96875,10.3027344 C115.136715,10.3027344 114.4043,10.4726546 113.771484,10.8125 C113.138669,11.1523454 112.605471,11.6181611 112.171875,12.2099609 C111.738279,12.8017608 111.410157,13.5019491 111.1875,14.3105469 C110.964843,15.1191447 110.853516,15.9921828 110.853516,16.9296875 L110.853516,17.1054688 Z M131.050781,17.9316406 C131.109375,18.7753948 131.279295,19.5546839 131.560547,20.2695312 C131.841798,20.9843786 132.225584,21.6025365 132.711914,22.1240234 C133.198245,22.6455104 133.772458,23.0498033 134.43457,23.3369141 C135.096683,23.6240249 135.832027,23.7675781 136.640625,23.7675781 C137.636724,23.7675781 138.512692,23.6005876 139.268555,23.2666016 C140.024418,22.9326155 140.718747,22.5136744 141.351562,22.0097656 L142.863281,24.1367188 C142.054683,24.7812532 141.120122,25.3115214 140.05957,25.7275391 C138.999018,26.1435568 137.812507,26.3515625 136.5,26.3515625 C135.199212,26.3515625 134.02149,26.1201195 132.966797,25.6572266 C131.912104,25.1943336 131.012699,24.5498088 130.268555,23.7236328 C129.52441,22.8974568 128.953127,21.9130917 128.554687,20.7705078 C128.156248,19.627924 127.957031,18.3828192 127.957031,17.0351562 C127.957031,15.6640556 128.153318,14.4072323 128.545898,13.2646484 C128.938479,12.1220646 129.492184,11.1376994 130.207031,10.3115234 C130.921879,9.48534743 131.777339,8.84082263 132.773437,8.37792969 C133.769536,7.91503675 134.876947,7.68359375 136.095703,7.68359375 C137.279303,7.68359375 138.345698,7.91503675 139.294922,8.37792969 C140.244145,8.84082263 141.052731,9.48534743 141.720703,10.3115234 C142.388675,11.1376994 142.901365,12.1220646 143.258789,13.2646484 C143.616213,14.4072323 143.794922,15.652337 143.794922,17 L143.794922,17.9316406 L131.050781,17.9316406 Z M135.990234,10.2675781 C135.240231,10.2675781 134.572269,10.414061 133.986328,10.7070312 C133.400388,11.0000015 132.899416,11.3925757 132.483398,11.8847656 C132.067381,12.3769556 131.739259,12.9423796 131.499023,13.5810547 C131.258788,14.2197298 131.121094,14.8789029 131.085938,15.5585938 L140.595703,15.5585938 C140.572266,14.867184 140.45215,14.2021516 140.235352,13.5634766 C140.018554,12.9248015 139.713869,12.3623071 139.321289,11.8759766 C138.928709,11.389646 138.454104,11.0000015 137.897461,10.7070312 C137.340818,10.414061 136.705082,10.2675781 135.990234,10.2675781 Z" id="Postcode" fill="#0B0C0C"></path>
            </g>
        </g>
    </g>
</svg>