<?xml version="1.0" encoding="UTF-8" standalone="no"?>
<svg width="198px" height="199px" viewBox="0 0 198 199" version="1.1" xmlns="http://www.w3.org/2000/svg" xmlns:xlink="http://www.w3.org/1999/xlink">
    <!-- Generator: Sketch 42 (36781) - http://www.bohemiancoding.com/sketch -->
    <title>physicalOrMotor/neatFormFields</title>
    <desc>Created with Sketch.</desc>
    <defs>
        <rect id="path-1" x="2" y="33" width="196" height="43"></rect>
        <mask id="mask-2" maskContentUnits="userSpaceOnUse" maskUnits="objectBoundingBox" x="0" y="0" width="196" height="43" fill="white">
            <use xlink:href="#path-1"></use>
        </mask>
        <rect id="path-3" x="2" y="156" width="196" height="43"></rect>
        <mask id="mask-4" maskContentUnits="userSpaceOnUse" maskUnits="objectBoundingBox" x="0" y="0" width="196" height="43" fill="white">
            <use xlink:href="#path-3"></use>
        </mask>
    </defs>
    <g id="Site-assets" stroke="none" stroke-width="1" fill="none" fill-rule="evenodd">
        <g id="Mobility-issues" transform="translate(-440.000000, -1062.000000)">
            <g id="physicalOrMotor/neatFormFields" transform="translate(440.000000, 1062.000000)">
                <use id="Rectangle-126" stroke="#979797" mask="url(#mask-2)" stroke-width="10" fill="#FFFFFF" xlink:href="#path-1"></use>
                <use id="Rectangle-126" stroke="#979797" mask="url(#mask-4)" stroke-width="10" fill="#FFFFFF" xlink:href="#path-3"></use>
                <rect id="Rectangle-95" fill="#F47738" x="0" y="0" width="144" height="21" rx="5"></rect>
                <path d="M0,127.003343 C0,124.240073 2.23181675,122 5.00127338,122 L107.998727,122 C110.760854,122 113,124.247368 113,127.003343 L113,137.996657 C113,140.759927 110.753746,143 107.995669,143 L75.750217,143 L4.99947816,143 C2.23834261,143 0,140.752632 0,137.996657 L0,127.003343 Z" id="Rectangle-95" fill="#B58840"></path>
            </g>
        </g>
    </g>
</svg>