<svg xmlns="http://www.w3.org/2000/svg" width="249" height="145" viewBox="0 0 249 145">
  <g fill="none" fill-rule="evenodd">
    <rect width="249" height="145" fill="#F47738" rx="8"/>
    <path stroke="#0B0C0C" stroke-linecap="square" stroke-width="9" d="M102.5,81.5 L102.5,123.547592"/>
    <path fill="#0B0C0C" d="M31.528 30.752L17.832 30.752 17.832 22.304 55.272 22.304 55.272 30.752 41.576 30.752 41.576 68 31.528 68 31.528 30.752zM52.072 45.088C52.2000006 42.954656 52.7333286 41.184007 53.672 39.776 54.6106714 38.367993 55.8053261 37.2373376 57.256 36.384 58.7066739 35.5306624 60.3386576 34.9226685 62.152 34.56 63.9653424 34.1973315 65.7893242 34.016 67.624 34.016 69.2880083 34.016 70.9733248 34.1333322 72.68 34.368 74.3866752 34.6026678 75.943993 35.0613299 77.352 35.744 78.760007 36.4266701 79.9119955 37.3759939 80.808 38.592 81.7040045 39.8080061 82.152 41.4186566 82.152 43.424L82.152 60.64C82.152 62.1333408 82.2373325 63.5626598 82.408 64.928 82.5786675 66.2933402 82.8773312 67.3173299 83.304 68L74.088 68C73.9173325 67.4879974 73.7786672 66.965336 73.672 66.432 73.5653328 65.898664 73.4906669 65.3546694 73.448 64.8 71.9973261 66.2933408 70.2906765 67.3386637 68.328 67.936 66.3653235 68.5333363 64.3600102 68.832 62.312 68.832 60.7333254 68.832 59.2613402 68.6400019 57.896 68.256 56.5306598 67.8719981 55.3360051 67.2746707 54.312 66.464 53.2879949 65.6533293 52.4880029 64.6293395 51.912 63.392 51.3359971 62.1546605 51.048 60.6826752 51.048 58.976 51.048 57.0986573 51.3786634 55.5520061 52.04 54.336 52.7013366 53.1199939 53.5546614 52.149337 54.6 51.424 55.6453386 50.698663 56.8399933 50.1546685 58.184 49.792 59.5280067 49.4293315 60.8826598 49.1413344 62.248 48.928 63.6133402 48.7146656 64.9573267 48.5440006 66.28 48.416 67.6026733 48.2879994 68.7759949 48.0960013 69.8 47.84 70.8240051 47.5839987 71.6346637 47.2106691 72.232 46.72 72.8293363 46.2293309 73.1066669 45.5146714 73.064 44.576 73.064 43.5946618 72.9040016 42.8160029 72.584 42.24 72.2639984 41.6639971 71.837336 41.2160016 71.304 40.896 70.770664 40.5759984 70.1520035 40.3626672 69.448 40.256 68.7439965 40.1493328 67.9866707 40.096 67.176 40.096 65.383991 40.096 63.9760051 40.4799962 62.952 41.248 61.9279949 42.0160038 61.3306675 43.295991 61.16 45.088L52.072 45.088zM73.064 51.808C72.6799981 52.149335 72.2000029 52.415999 71.624 52.608 71.0479971 52.800001 70.4293366 52.9599994 69.768 53.088 69.1066634 53.2160006 68.413337 53.3226662 67.688 53.408 66.962663 53.4933338 66.237337 53.5999994 65.512 53.728 64.8293299 53.8560006 64.1573366 54.0266656 63.496 54.24 62.8346634 54.4533344 62.2586691 54.7413315 61.768 55.104 61.2773309 55.4666685 60.8826682 55.9253306 60.584 56.48 60.2853318 57.0346694 60.136 57.7386624 60.136 58.592 60.136 59.4026707 60.2853318 60.0853306 60.584 60.64 60.8826682 61.1946694 61.2879974 61.6319984 61.8 61.952 62.3120026 62.2720016 62.9093299 62.4959994 63.592 62.624 64.2746701 62.7520006 64.978663 62.816 65.704 62.816 67.496009 62.816 68.8826618 62.5173363 69.864 61.92 70.8453382 61.3226637 71.5706643 60.6080042 72.04 59.776 72.5093357 58.9439958 72.7973328 58.1013376 72.904 57.248 73.0106672 56.3946624 73.064 55.7120026 73.064 55.2L73.064 51.808zM113.448 51.488C113.448 50.079993 113.298668 48.7360064 113 47.456 112.701332 46.1759936 112.232003 45.0453382 111.592 44.064 110.951997 43.0826618 110.152005 42.3040029 109.192 41.728 108.231995 41.1519971 107.06934 40.864 105.704 40.864 104.381327 40.864 103.229338 41.1519971 102.248 41.728 101.266662 42.3040029 100.456003 43.0826618 99.816 44.064 99.1759968 45.0453382 98.7066682 46.1759936 98.408 47.456 98.1093318 48.7360064 97.96 50.079993 97.96 51.488 97.96 52.8533402 98.1093318 54.1759936 98.408 55.456 98.7066682 56.7360064 99.1759968 57.8666618 99.816 58.848 100.456003 59.8293382 101.266662 60.6079971 102.248 61.184 103.229338 61.7600029 104.381327 62.048 105.704 62.048 107.06934 62.048 108.231995 61.7600029 109.192 61.184 110.152005 60.6079971 110.951997 59.8293382 111.592 58.848 112.232003 57.8666618 112.701332 56.7360064 113 55.456 113.298668 54.1759936 113.448 52.8533402 113.448 51.488zM89.192 22.304L98.28 22.304 98.28 38.944 98.408 38.944C99.5173389 37.2373248 101.021324 35.9893373 102.92 35.2 104.818676 34.4106627 106.79199 34.016 108.84 34.016 110.504008 34.016 112.146659 34.3573299 113.768 35.04 115.389341 35.7226701 116.85066 36.767993 118.152 38.176 119.45334 39.584007 120.509329 41.3866557 121.32 43.584 122.130671 45.7813443 122.536 48.3946515 122.536 51.424 122.536 54.4533485 122.130671 57.0666557 121.32 59.264 120.509329 61.4613443 119.45334 63.263993 118.152 64.672 116.85066 66.080007 115.389341 67.1253299 113.768 67.808 112.146659 68.4906701 110.504008 68.832 108.84 68.832 106.407988 68.832 104.23201 68.4480038 102.312 67.68 100.39199 66.9119962 98.9413382 65.6106758 97.96 63.776L97.832 63.776 97.832 68 89.192 68 89.192 22.304zM98.0714286 102.577009C98.0714286 103.004094 97.9189003 103.370162 97.6138393 103.675223L80.0424107 119.873884C79.554313 120.300969 79.0204642 120.392486 78.4408482 120.148437 77.8612322 119.873883 77.5714286 119.431551 77.5714286 118.821429L77.5714286 108.571429 20.4642857 108.571429C20.0372002 108.571429 19.6863853 108.434153 19.4118304 108.159598 19.1372754 107.885043 19 107.534228 19 107.107143L19 98.3214286C19 97.8943431 19.1372754 97.5435282 19.4118304 97.2689732 19.6863853 96.9944183 20.0372002 96.8571429 20.4642857 96.8571429L77.5714286 96.8571429 77.5714286 86.6071429C77.5714286 85.9665147 77.8612322 85.5241828 78.4408482 85.2801339 79.0204642 85.0360851 79.554313 85.1123492 80.0424107 85.5089286L97.6138393 101.524554C97.9189003 101.829615 98.0714286 102.18043 98.0714286 102.577009z"/>
  </g>
</svg>
