<?xml version="1.0" encoding="UTF-8" standalone="no"?>
<svg width="268px" height="277px" viewBox="0 0 268 277" version="1.1" xmlns="http://www.w3.org/2000/svg" xmlns:xlink="http://www.w3.org/1999/xlink">
    <!-- Generator: Sketch 45.1 (43504) - http://www.bohemiancoding.com/sketch -->
    <title>Group Copy 2</title>
    <desc>Created with Sketch.</desc>
    <defs></defs>
    <g id="Page-1" stroke="none" stroke-width="1" fill="none" fill-rule="evenodd" opacity="0.355760261">
        <g id="Artboard" transform="translate(-243.000000, -222.000000)">
            <g id="Group-Copy-2" transform="translate(243.000000, 222.000000)">
                <ellipse id="Oval-23" fill="#DF3034" cx="69.8773006" cy="102.443346" rx="69.8773006" ry="69.2380551"></ellipse>
                <ellipse id="Oval-23" fill="#F47738" cx="134" cy="69.2380551" rx="69.8773006" ry="69.2380551"></ellipse>
                <ellipse id="Oval-23" fill="#FFBF47" cx="198.122699" cy="102.443346" rx="69.8773006" ry="69.2380551"></ellipse>
                <path d="M198.122699,244.992282 C236.714867,244.992282 268,213.993349 268,175.754227 C268,137.515105 236.714867,106.516172 198.122699,106.516172 C159.530532,106.516172 128.245399,137.515105 128.245399,175.754227 C128.245399,213.993349 159.530532,244.992282 198.122699,244.992282 Z" id="Oval-23" fill="#85994B"></path>
                <path d="M134,277 C172.592167,277 203.877301,246.001067 203.877301,207.761945 C203.877301,169.522823 172.592167,138.52389 134,138.52389 C95.4078325,138.52389 64.1226994,169.522823 64.1226994,207.761945 C64.1226994,246.001067 95.4078325,277 134,277 Z" id="Oval-23" fill="#2E8ACA"></path>
                <path d="M69.8773006,244.992282 C108.469468,244.992282 139.754601,213.993349 139.754601,175.754227 C139.754601,137.515105 108.469468,106.516172 69.8773006,106.516172 C31.2851331,106.516172 0,137.515105 0,175.754227 C0,213.993349 31.2851331,244.992282 69.8773006,244.992282 Z" id="Oval-23" fill="#6F71AF"></path>
            </g>
        </g>
    </g>
</svg>