<svg xmlns="http://www.w3.org/2000/svg" width="417" height="417" viewBox="0 0 417 417">
  <g fill="none" fill-rule="evenodd">
    <rect width="417" height="417" fill="#00823B" opacity=".15"/>
    <circle cx="211" cy="206" r="140" fill="#F8F8F8" opacity=".677"/>
    <path fill="#FFBF47" d="M242.107143,187.928571 C242.107143,178.587007 238.792444,170.626707 232.162946,164.047433 C225.533449,157.468159 217.59826,154.178571 208.357143,154.178571 C199.116025,154.178571 191.180837,157.468159 184.551339,164.047433 C177.921842,170.626707 174.607143,178.587007 174.607143,187.928571 C174.607143,190.540192 173.652911,192.800214 171.74442,194.708705 C169.835928,196.617197 167.575906,197.571429 164.964286,197.571429 C162.352666,197.571429 160.092643,196.617197 158.184152,194.708705 C156.27566,192.800214 155.321429,190.540192 155.321429,187.928571 C155.321429,173.26332 160.494368,160.757864 170.840402,150.41183 C181.186436,140.065796 193.691891,134.892857 208.357143,134.892857 C223.022395,134.892857 235.52785,140.065796 245.873884,150.41183 C256.219918,160.757864 261.392857,173.26332 261.392857,187.928571 C261.392857,190.540192 260.438626,192.800214 258.530134,194.708705 C256.621642,196.617197 254.36162,197.571429 251.75,197.571429 C249.13838,197.571429 246.878358,196.617197 244.969866,194.708705 C243.061374,192.800214 242.107143,190.540192 242.107143,187.928571 Z M208.809152,101.142857 C220.561443,101.142857 231.786219,103.427991 242.483817,107.998326 C253.181415,112.568661 262.422394,118.746055 270.207031,126.530692 C277.991668,134.315329 284.169062,143.556308 288.739397,154.253906 C293.309733,164.951504 295.594866,176.176281 295.594866,187.928571 C295.594866,193.85494 295.017305,199.304105 293.862165,204.276228 C292.707025,209.248351 290.823674,213.944174 288.212054,218.363839 C285.600433,222.783504 283.390634,226.173537 281.582589,228.53404 C279.774545,230.894543 277.112741,234.133908 273.597098,238.252232 C270.483243,241.767875 268.19811,244.479901 266.741629,246.388393 C265.285149,248.296885 263.602688,250.80802 261.694196,253.921875 C259.785705,257.03573 258.454803,260.249983 257.701451,263.564732 C256.948099,266.879481 256.571429,270.595962 256.571429,274.714286 C256.571429,290.685348 250.921373,304.320814 239.621094,315.621094 C228.320814,326.921373 214.685348,332.571429 198.714286,332.571429 C196.102666,332.571429 193.842643,331.617197 191.934152,329.708705 C190.02566,327.800214 189.071429,325.540192 189.071429,322.928571 C189.071429,320.316951 190.02566,318.056929 191.934152,316.148438 C193.842643,314.239946 196.102666,313.285714 198.714286,313.285714 C209.36166,313.285714 218.451971,309.519011 225.985491,301.985491 C233.519011,294.451971 237.285714,285.36166 237.285714,274.714286 C237.285714,268.988811 237.863275,263.690315 239.018415,258.818638 C240.173555,253.946962 242.031795,249.376695 244.593192,245.107701 C247.154589,240.838706 249.339277,237.498896 251.147321,235.08817 C252.955366,232.677443 255.566947,229.513412 258.982143,225.595982 C263.00002,220.975423 265.988271,217.359388 267.946987,214.747768 C269.905702,212.136148 271.789053,208.394556 273.597098,203.522879 C275.405143,198.651203 276.309152,193.453153 276.309152,187.928571 C276.309152,169.345889 269.704865,153.450401 256.496094,140.241629 C243.287322,127.032858 227.391834,120.428571 208.809152,120.428571 C190.22647,120.428571 174.330981,127.032858 161.12221,140.241629 C147.913438,153.450401 141.309152,169.345889 141.309152,187.928571 C141.309152,190.540192 140.35492,192.800214 138.446429,194.708705 C136.537937,196.617197 134.277915,197.571429 131.666295,197.571429 C129.054674,197.571429 126.794652,196.617197 124.886161,194.708705 C122.977669,192.800214 122.023438,190.540192 122.023438,187.928571 C122.023438,176.176281 124.308571,164.951504 128.878906,154.253906 C133.449242,143.556308 139.626635,134.315329 147.411272,126.530692 C155.195909,118.746055 164.436888,112.568661 175.134487,107.998326 C185.832085,103.427991 197.056861,101.142857 208.809152,101.142857 Z M172.045759,209.47433 L206.097098,243.52567 L118.859375,330.763393 C117.654012,331.968756 116.197553,332.571429 114.489955,332.571429 C112.782358,332.571429 111.325899,331.968756 110.120536,330.763393 L84.8080357,305.450893 C83.6026725,304.24553 83,302.789071 83,301.081473 C83,299.373875 83.6026725,297.917417 84.8080357,296.712054 L172.045759,209.47433 Z M325.879464,64.3794643 L351.191964,89.6919643 C352.397327,90.8973275 353,92.3537861 353,94.0613839 C353,95.7689818 352.397327,97.2756631 351.191964,98.5814732 L316.085938,133.6875 L312.168527,137.454241 L301.470982,148.151786 C294.841485,132.783405 285.048056,119.825946 272.090402,109.279018 L316.989955,64.3794643 C318.295765,63.1741011 319.802447,62.5714286 321.510045,62.5714286 C323.217642,62.5714286 324.674101,63.1741011 325.879464,64.3794643 Z" opacity=".99"/>
  </g>
</svg>
