<svg xmlns="http://www.w3.org/2000/svg" width="173" height="220" viewBox="0 0 173 220">
  <g fill="none" fill-rule="evenodd">
    <circle cx="47.254" cy="102.746" r="47.254" fill="#F4157C" opacity=".94"/>
    <circle cx="125.289" cy="102.746" r="47.254" fill="#BD10E0" opacity=".91"/>
    <circle cx="89.74" cy="47.254" r="47.254" fill="#F8E71C" opacity=".879"/>
    <g transform="translate(64 175)">
      <circle cx="22.5" cy="22.5" r="22.5" fill="#FF6072"/>
      <path fill="#FFF" d="M31.1183036,27.8950893 C31.1183036,28.281996 30.9828883,28.6108617 30.7120536,28.8816964 L28.7388393,30.8549107 C28.4680046,31.1257454 28.1391388,31.2611607 27.7522321,31.2611607 C27.3653254,31.2611607 27.0364597,31.1257454 26.765625,30.8549107 L22.5,26.5892857 L18.234375,30.8549107 C17.9635403,31.1257454 17.6346746,31.2611607 17.2477679,31.2611607 C16.8608612,31.2611607 16.5319954,31.1257454 16.2611607,30.8549107 L14.2879464,28.8816964 C14.0171117,28.6108617 13.8816964,28.281996 13.8816964,27.8950893 C13.8816964,27.5081826 14.0171117,27.1793168 14.2879464,26.9084821 L18.5535714,22.6428571 L14.2879464,18.3772321 C14.0171117,18.1063975 13.8816964,17.7775317 13.8816964,17.390625 C13.8816964,17.0037183 14.0171117,16.6748525 14.2879464,16.4040179 L16.2611607,14.4308036 C16.5319954,14.1599689 16.8608612,14.0245536 17.2477679,14.0245536 C17.6346746,14.0245536 17.9635403,14.1599689 18.234375,14.4308036 L22.5,18.6964286 L26.765625,14.4308036 C27.0364597,14.1599689 27.3653254,14.0245536 27.7522321,14.0245536 C28.1391388,14.0245536 28.4680046,14.1599689 28.7388393,14.4308036 L30.7120536,16.4040179 C30.9828883,16.6748525 31.1183036,17.0037183 31.1183036,17.390625 C31.1183036,17.7775317 30.9828883,18.1063975 30.7120536,18.3772321 L26.4464286,22.6428571 L30.7120536,26.9084821 C30.9828883,27.1793168 31.1183036,27.5081826 31.1183036,27.8950893 Z"/>
    </g>
  </g>
</svg>
