<?xml version="1.0" encoding="UTF-8" standalone="no"?>
<svg width="241px" height="149px" viewBox="0 0 241 149" version="1.1" xmlns="http://www.w3.org/2000/svg" xmlns:xlink="http://www.w3.org/1999/xlink">
    <!-- Generator: Sketch 42 (36781) - http://www.bohemiancoding.com/sketch -->
    <title>bulletPoints</title>
    <desc>Created with Sketch.</desc>
    <defs></defs>
    <g id="Page-2" stroke="none" stroke-width="1" fill="none" fill-rule="evenodd">
        <g id="Autistic-spectrum" transform="translate(-471.000000, -1378.000000)" fill="#F47738">
            <g id="bulletPoints" transform="translate(471.000000, 1377.000000)">
                <path d="M27.2275084,16.2458195 C27.2275084,23.7648068 21.1335788,29.8590654 13.6149973,29.8590654 C6.0939296,29.8590654 0,23.7648068 0,16.2458195 C0,8.72683211 6.0939296,2.63257352 13.6149973,2.63257352 C21.1335788,2.63257352 27.2275084,8.72683211 27.2275084,16.2458195 L27.2275084,16.2458195 Z" id="Fill-1"></path>
                <path d="M27.2275084,55.3046731 C27.2275084,62.8236604 21.1335788,68.917919 13.6149973,68.917919 C6.0939296,68.917919 0,62.8236604 0,55.3046731 C0,47.7856857 6.0939296,41.6914271 13.6149973,41.6914271 C21.1335788,41.6914271 27.2275084,47.7856857 27.2275084,55.3046731" id="Fill-3"></path>
                <path d="M27.2275084,93.4625678 C27.2275084,100.981555 21.1335788,107.075814 13.6149973,107.075814 C6.0939296,107.075814 0,100.981555 0,93.4625678 C0,85.9435805 6.0939296,79.8493219 13.6149973,79.8493219 C21.1335788,79.8493219 27.2275084,85.9435805 27.2275084,93.4625678" id="Fill-3"></path>
                <path d="M27.2275084,133.836962 C27.2275084,141.35595 21.1335788,147.450208 13.6149973,147.450208 C6.0939296,147.450208 0,141.35595 0,133.836962 C0,126.317975 6.0939296,120.223716 13.6149973,120.223716 C21.1335788,120.223716 27.2275084,126.317975 27.2275084,133.836962" id="Fill-9"></path>
                <path d="M240.789474,129.699248 L240.789474,143.233083 C240.789474,145.065799 240.119838,146.651779 238.780545,147.991071 C237.441253,149.330364 235.855272,150 234.022556,150 L58.0827068,150 C56.2499908,150 54.6640105,149.330364 53.324718,147.991071 C51.9854256,146.651779 51.3157895,145.065799 51.3157895,143.233083 L51.3157895,129.699248 C51.3157895,127.866532 51.9854256,126.280552 53.324718,124.941259 C54.6640105,123.601967 56.2499908,122.932331 58.0827068,122.932331 L234.022556,122.932331 C235.855272,122.932331 237.441253,123.601967 238.780545,124.941259 C240.119838,126.280552 240.789474,127.866532 240.789474,129.699248 Z M200.18797,89.0977444 L200.18797,102.631579 C200.18797,104.464295 199.518334,106.050275 198.179041,107.389568 C196.839749,108.72886 195.253769,109.398496 193.421053,109.398496 L58.0827068,109.398496 C56.2499908,109.398496 54.6640105,108.72886 53.324718,107.389568 C51.9854256,106.050275 51.3157895,104.464295 51.3157895,102.631579 L51.3157895,89.0977444 C51.3157895,87.2650284 51.9854256,85.679048 53.324718,84.3397556 C54.6640105,83.0004632 56.2499908,82.3308271 58.0827068,82.3308271 L193.421053,82.3308271 C195.253769,82.3308271 196.839749,83.0004632 198.179041,84.3397556 C199.518334,85.679048 200.18797,87.2650284 200.18797,89.0977444 Z M227.255639,48.4962406 L227.255639,62.0300752 C227.255639,63.8627911 226.586003,65.4487715 225.246711,66.7880639 C223.907418,68.1273563 222.321438,68.7969925 220.488722,68.7969925 L58.0827068,68.7969925 C56.2499908,68.7969925 54.6640105,68.1273563 53.324718,66.7880639 C51.9854256,65.4487715 51.3157895,63.8627911 51.3157895,62.0300752 L51.3157895,48.4962406 C51.3157895,46.6635247 51.9854256,45.0775443 53.324718,43.7382519 C54.6640105,42.3989595 56.2499908,41.7293233 58.0827068,41.7293233 L220.488722,41.7293233 C222.321438,41.7293233 223.907418,42.3989595 225.246711,43.7382519 C226.586003,45.0775443 227.255639,46.6635247 227.255639,48.4962406 Z M186.654135,7.89473684 L186.654135,21.4285714 C186.654135,23.2612874 185.984499,24.8472677 184.645207,26.1865602 C183.305914,27.5258526 181.719934,28.1954887 179.887218,28.1954887 L58.0827068,28.1954887 C56.2499908,28.1954887 54.6640105,27.5258526 53.324718,26.1865602 C51.9854256,24.8472677 51.3157895,23.2612874 51.3157895,21.4285714 L51.3157895,7.89473684 C51.3157895,6.06202091 51.9854256,4.47604053 53.324718,3.13674812 C54.6640105,1.79745571 56.2499908,1.12781955 58.0827068,1.12781955 L179.887218,1.12781955 C181.719934,1.12781955 183.305914,1.79745571 184.645207,3.13674812 C185.984499,4.47604053 186.654135,6.06202091 186.654135,7.89473684 Z" id=""></path>
            </g>
        </g>
    </g>
</svg>