<?xml version="1.0" encoding="UTF-8" standalone="no"?>
<svg width="301px" height="63px" viewBox="0 0 301 63" version="1.1" xmlns="http://www.w3.org/2000/svg" xmlns:xlink="http://www.w3.org/1999/xlink">
    <!-- Generator: Sketch 42 (36781) - http://www.bohemiancoding.com/sketch -->
    <title>Do this.</title>
    <desc>Created with Sketch.</desc>
    <defs></defs>
    <g id="Page-2" stroke="none" stroke-width="1" fill="none" fill-rule="evenodd">
        <g id="Autistic-spectrum" transform="translate(-445.000000, -1135.000000)" fill="#0B0C0C">
            <path d="M459.184289,1184.65447 L471.12289,1184.65447 C473.055816,1184.65447 474.931864,1184.3418 476.751088,1183.71644 C478.570313,1183.09108 480.190535,1182.05357 481.611804,1180.60387 C483.033074,1179.15418 484.170072,1177.26392 485.022833,1174.93304 C485.875595,1172.60216 486.301969,1169.75966 486.301969,1166.40547 C486.301969,1163.33553 486.003507,1160.56409 485.406574,1158.09108 C484.809641,1155.61808 483.82898,1153.50042 482.464562,1151.73804 C481.100143,1149.97567 479.295158,1148.62548 477.049553,1147.68745 C474.803948,1146.74941 472.032514,1146.2804 468.73517,1146.2804 L459.184289,1146.2804 L459.184289,1184.65447 Z M445.796,1135.024 L472.060923,1135.024 C475.983626,1135.024 479.636233,1135.64935 483.018854,1136.90007 C486.401475,1138.15078 489.329245,1140.02683 491.802254,1142.52826 C494.275262,1145.0297 496.208159,1148.15644 497.601003,1151.90859 C498.993847,1155.66074 499.690258,1160.06661 499.690258,1165.12633 C499.690258,1169.56069 499.121759,1173.65388 497.984744,1177.40604 C496.847728,1181.15819 495.128018,1184.39863 492.825562,1187.12747 C490.523106,1189.8563 487.652185,1192.00239 484.212714,1193.56579 C480.773243,1195.12918 476.722686,1195.91087 472.060923,1195.91087 L445.796,1195.91087 L445.796,1135.024 Z M518.450918,1173.90973 C518.450918,1175.6721 518.621467,1177.39181 518.962572,1179.06891 C519.303677,1180.74601 519.886388,1182.25253 520.710724,1183.58853 C521.53506,1184.92452 522.629421,1185.99045 523.99384,1186.78636 C525.358258,1187.58228 527.063756,1187.98023 529.110383,1187.98023 C531.157011,1187.98023 532.876721,1187.58228 534.269565,1186.78636 C535.662408,1185.99045 536.770982,1184.92452 537.595318,1183.58853 C538.419654,1182.25253 539.002366,1180.74601 539.34347,1179.06891 C539.684575,1177.39181 539.855125,1175.6721 539.855125,1173.90973 C539.855125,1172.14736 539.684575,1170.41343 539.34347,1168.70791 C539.002366,1167.00239 538.419654,1165.49587 537.595318,1164.1883 C536.770982,1162.88073 535.662408,1161.81479 534.269565,1160.99046 C532.876721,1160.16612 531.157011,1159.75396 529.110383,1159.75396 C527.063756,1159.75396 525.358258,1160.16612 523.99384,1160.99046 C522.629421,1161.81479 521.53506,1162.88073 520.710724,1164.1883 C519.886388,1165.49587 519.303677,1167.00239 518.962572,1168.70791 C518.621467,1170.41343 518.450918,1172.14736 518.450918,1173.90973 Z M506.341765,1173.90973 C506.341765,1170.38498 506.881839,1167.18718 507.962003,1164.31621 C509.042168,1161.44525 510.577116,1159.0007 512.566893,1156.9825 C514.556669,1154.9643 516.944366,1153.40092 519.730053,1152.29233 C522.515741,1151.18374 525.642486,1150.62946 529.110383,1150.62946 C532.57828,1150.62946 535.719238,1151.18374 538.533351,1152.29233 C541.347464,1153.40092 543.749373,1154.9643 545.73915,1156.9825 C547.728926,1159.0007 549.263874,1161.44525 550.344039,1164.31621 C551.424203,1167.18718 551.964277,1170.38498 551.964277,1173.90973 C551.964277,1177.43448 551.424203,1180.61807 550.344039,1183.46061 C549.263874,1186.30315 547.728926,1188.73348 545.73915,1190.75169 C543.749373,1192.76989 541.347464,1194.31905 538.533351,1195.39921 C535.719238,1196.47938 532.57828,1197.01945 529.110383,1197.01945 C525.642486,1197.01945 522.515741,1196.47938 519.730053,1195.39921 C516.944366,1194.31905 514.556669,1192.76989 512.566893,1190.75169 C510.577116,1188.73348 509.042168,1186.30315 507.962003,1183.46061 C506.881839,1180.61807 506.341765,1177.43448 506.341765,1173.90973 Z M598.865926,1151.82332 L598.865926,1138.60558 L586.756773,1138.60558 L586.756773,1151.82332 L579.423061,1151.82332 L579.423061,1159.92451 L586.756773,1159.92451 L586.756773,1185.93361 C586.756773,1188.15079 587.126298,1189.94156 587.865358,1191.30598 C588.604418,1192.6704 589.613504,1193.72212 590.892646,1194.46118 C592.171788,1195.20024 593.649886,1195.69768 595.326984,1195.95351 C597.004081,1196.20933 598.780641,1196.33725 600.656716,1196.33725 C601.850582,1196.33725 603.072856,1196.30882 604.323572,1196.25197 C605.574289,1196.19512 606.711288,1196.08142 607.734601,1195.91087 L607.734601,1186.53054 C607.166094,1186.64424 606.56917,1186.72951 605.943811,1186.78636 C605.318453,1186.84322 604.664679,1186.87164 603.98247,1186.87164 C601.935842,1186.87164 600.571444,1186.53054 599.889235,1185.84833 C599.207026,1185.16612 598.865926,1183.80172 598.865926,1181.7551 L598.865926,1159.92451 L607.734601,1159.92451 L607.734601,1151.82332 L598.865926,1151.82332 Z M613.533351,1135.024 L613.533351,1195.91087 L625.642504,1195.91087 L625.642504,1172.80115 C625.642504,1168.30994 626.381553,1165.0837 627.859673,1163.12235 C629.337792,1161.161 631.725489,1160.18034 635.022833,1160.18034 C637.922223,1160.18034 639.940395,1161.07572 641.07741,1162.86652 C642.214425,1164.65732 642.782924,1167.37191 642.782924,1171.01036 L642.782924,1195.91087 L654.892077,1195.91087 L654.892077,1168.79319 C654.892077,1166.06435 654.650465,1163.57717 654.167234,1161.33156 C653.684002,1159.08596 652.845466,1157.18148 651.6516,1155.61809 C650.457734,1154.05469 648.823299,1152.83242 646.748246,1151.95123 C644.673193,1151.07004 642.015459,1150.62946 638.774965,1150.62946 C636.500935,1150.62946 634.170088,1151.21217 631.782356,1152.37761 C629.394624,1153.54305 627.433302,1155.40489 625.898331,1157.96317 L625.642504,1157.96317 L625.642504,1135.024 L613.533351,1135.024 Z M676.552111,1145.00126 L676.552111,1135.024 L664.442958,1135.024 L664.442958,1145.00126 L676.552111,1145.00126 Z M664.442958,1151.82332 L664.442958,1195.91087 L676.552111,1195.91087 L676.552111,1151.82332 L664.442958,1151.82332 Z M695.483322,1181.58455 L683.971099,1181.58455 C684.084801,1184.54079 684.752788,1186.99954 685.975079,1188.9609 C687.197371,1190.92225 688.760743,1192.49983 690.665244,1193.6937 C692.569745,1194.88756 694.744254,1195.74031 697.188837,1196.25197 C699.63342,1196.76363 702.134816,1197.01945 704.693101,1197.01945 C707.194534,1197.01945 709.653293,1196.77784 712.069451,1196.29461 C714.485608,1195.81138 716.631693,1194.97284 718.507768,1193.77897 C720.383843,1192.58511 721.904579,1191.00752 723.070019,1189.04617 C724.23546,1187.08482 724.818172,1184.65449 724.818172,1181.7551 C724.818172,1179.70847 724.420222,1177.98876 723.624312,1176.59592 C722.828401,1175.20307 721.776677,1174.03765 720.46911,1173.09961 C719.161542,1172.16157 717.669232,1171.40831 715.992134,1170.8398 C714.315037,1170.2713 712.595327,1169.78807 710.832953,1169.39012 C709.12743,1168.99216 707.450357,1168.62264 705.801685,1168.28153 C704.153013,1167.94043 702.689127,1167.55669 701.409985,1167.13031 C700.130843,1166.70393 699.093332,1166.14964 698.297421,1165.46743 C697.501511,1164.78522 697.103561,1163.90405 697.103561,1162.82389 C697.103561,1161.91427 697.330961,1161.18944 697.785767,1160.64936 C698.240573,1160.10927 698.79486,1159.69711 699.448644,1159.41286 C700.102427,1159.1286 700.827264,1158.94384 701.623175,1158.85857 C702.419085,1158.77329 703.158134,1158.73065 703.840343,1158.73065 C706.000673,1158.73065 707.87672,1159.14281 709.468541,1159.96715 C711.060363,1160.79149 711.941536,1162.36907 712.112089,1164.69995 L723.624312,1164.69995 C723.396908,1161.97112 722.700497,1159.71133 721.535056,1157.92053 C720.369616,1156.12973 718.90573,1154.69427 717.143356,1153.61411 C715.380983,1152.53394 713.377023,1151.76647 711.131418,1151.31166 C708.885813,1150.85686 706.569179,1150.62946 704.181446,1150.62946 C701.793714,1150.62946 699.462868,1150.84264 697.188837,1151.26903 C694.914806,1151.69541 692.868209,1152.43446 691.048985,1153.48619 C689.22976,1154.53793 687.765875,1155.97339 686.657285,1157.79262 C685.548695,1159.61184 684.994408,1161.94269 684.994408,1164.78523 C684.994408,1166.71815 685.392358,1168.35259 686.188268,1169.68858 C686.984179,1171.02458 688.035903,1172.13315 689.34347,1173.01434 C690.651038,1173.89552 692.143348,1174.60615 693.820446,1175.14623 C695.497543,1175.68631 697.217253,1176.15532 698.979627,1176.55328 C703.300285,1177.46289 706.668643,1178.37249 709.0848,1179.2821 C711.500958,1180.19171 712.709019,1181.55611 712.709019,1183.37534 C712.709019,1184.4555 712.453194,1185.35089 711.941537,1186.06152 C711.42988,1186.77216 710.790319,1187.34066 710.022833,1187.76704 C709.255348,1188.19342 708.402599,1188.50609 707.464562,1188.70507 C706.526524,1188.90405 705.631138,1189.00353 704.778376,1189.00353 C703.58451,1189.00353 702.433299,1188.86141 701.324709,1188.57716 C700.21612,1188.2929 699.235458,1187.85231 698.382697,1187.25538 C697.529935,1186.65845 696.833524,1185.89097 696.293442,1184.95294 C695.753359,1184.0149 695.483322,1182.89211 695.483322,1181.58455 Z M732.407711,1182.77841 L732.407711,1195.91087 L745.796,1195.91087 L745.796,1182.77841 L732.407711,1182.77841 Z" id="Do-this."></path>
        </g>
    </g>
</svg>