<svg xmlns="http://www.w3.org/2000/svg" width="167" height="220" viewBox="0 0 167 220">
  <g fill="none" fill-rule="evenodd">
    <circle cx="47.143" cy="102.857" r="47.143" fill="#F47738" opacity=".8"/>
    <circle cx="80.571" cy="47.143" r="47.143" fill="#FFBF47" opacity=".798"/>
    <circle cx="119.143" cy="102.857" r="47.143" fill="#28A197" opacity=".8"/>
    <g transform="translate(60 175)">
      <circle cx="22.5" cy="22.5" r="22.5" fill="#3FBE7C"/>
      <path fill="#FFF" d="M34.5728059,17.84375 C34.5728059,18.2604187 34.4331796,18.6145819 34.1539229,18.90625 L21.2882314,32.34375 C21.0089747,32.6354181 20.6698823,32.78125 20.2709441,32.78125 C19.872006,32.78125 19.5329136,32.6354181 19.2536569,32.34375 L11.8035239,24.5625 C11.5242672,24.2708319 11.384641,23.9166687 11.384641,23.5 C11.384641,23.0833313 11.5242672,22.7291681 11.8035239,22.4375 L13.8380984,20.3125 C14.1173551,20.0208319 14.4564475,19.875 14.8553856,19.875 C15.2543238,19.875 15.5934162,20.0208319 15.8726729,20.3125 L20.2709441,24.921875 L30.0847739,14.65625 C30.3640307,14.3645819 30.703123,14.21875 31.1020612,14.21875 C31.5009993,14.21875 31.8400917,14.3645819 32.1193484,14.65625 L34.1539229,16.78125 C34.4331796,17.0729181 34.5728059,17.4270813 34.5728059,17.84375 Z"/>
    </g>
  </g>
</svg>
