<svg xmlns="http://www.w3.org/2000/svg" width="239" height="203" viewBox="0 0 239 203">
  <g fill="none" fill-rule="evenodd">
    <rect width="235" height="132" y="10" fill="#FFF"/>
    <path fill="#333" d="M223,120.821429 L223,19.6071429 C223,18.5528221 222.614773,17.6404428 221.844308,16.8699777 C221.073843,16.0995125 220.161464,15.7142857 219.107143,15.7142857 L24.4642857,15.7142857 C23.409965,15.7142857 22.4975857,16.0995125 21.7271205,16.8699777 C20.9566554,17.6404428 20.5714286,18.5528221 20.5714286,19.6071429 L20.5714286,120.821429 C20.5714286,121.875749 20.9566554,122.788129 21.7271205,123.558594 C22.4975857,124.329059 23.409965,124.714286 24.4642857,124.714286 L219.107143,124.714286 C220.161464,124.714286 221.073843,124.329059 221.844308,123.558594 C222.614773,122.788129 223,121.875749 223,120.821429 Z M238.571429,19.6071429 L238.571429,151.964286 C238.571429,157.316991 236.66557,161.899162 232.853795,165.710938 C229.04202,169.522713 224.459848,171.428571 219.107143,171.428571 L152.928571,171.428571 C152.928571,174.42933 153.577374,177.57197 154.875,180.856585 C156.172626,184.141199 157.470232,187.020263 158.767857,189.493862 C160.065483,191.96746 160.714286,193.731394 160.714286,194.785714 C160.714286,196.894356 159.943832,198.719114 158.402902,200.260045 C156.861971,201.800975 155.037213,202.571429 152.928571,202.571429 L90.6428571,202.571429 C88.5342156,202.571429 86.7094571,201.800975 85.1685268,200.260045 C83.6275965,198.719114 82.8571429,196.894356 82.8571429,194.785714 C82.8571429,193.650292 83.5059459,191.866084 84.8035714,189.433036 C86.101197,186.999988 87.398803,184.161475 88.6964286,180.917411 C89.9940541,177.673347 90.6428571,174.510432 90.6428571,171.428571 L24.4642857,171.428571 C19.1115804,171.428571 14.5294089,169.522713 10.7176339,165.710938 C6.90585892,161.899162 5,157.316991 5,151.964286 L5,19.6071429 C5,14.2544375 6.90585892,9.67226608 10.7176339,5.86049107 C14.5294089,2.04871606 19.1115804,0.142857143 24.4642857,0.142857143 L219.107143,0.142857143 C224.459848,0.142857143 229.04202,2.04871606 232.853795,5.86049107 C236.66557,9.67226608 238.571429,14.2544375 238.571429,19.6071429 Z"/>
    <rect width="65.165" height="20.339" x="152.608" y="47.499" fill="#28A197"/>
    <rect width="65.165" height="20.339" x="152.608" y="71.906" fill="#B58840"/>
    <rect width="65.165" height="20.339" x="152.608" y="96.313" fill="#28A197"/>
    <rect width="56.628" height="18.888" x="27" y="22" fill="#F47738"/>
    <rect width="56.628" height="18.888" x="92.656" y="22" fill="#F47738"/>
    <rect width="56.628" height="18.888" x="158.312" y="22" fill="#F47738"/>
    <rect width="116.061" height="12.477" x="27.103" y="47.499" fill="#85994B"/>
    <rect width="116.061" height="12.477" x="27.103" y="66.388" fill="#FFBF47"/>
    <rect width="116.061" height="12.477" x="27.103" y="85.276" fill="#85994B"/>
    <rect width="116.061" height="12.477" x="27.103" y="104.165" fill="#FFBF47"/>
  </g>
</svg>
