<?xml version="1.0" encoding="UTF-8" standalone="no"?>
<svg width="259px" height="111px" viewBox="0 0 259 111" version="1.1" xmlns="http://www.w3.org/2000/svg" xmlns:xlink="http://www.w3.org/1999/xlink">
    <!-- Generator: Sketch 42 (36781) - http://www.bohemiancoding.com/sketch -->
    <title>dyslexia/dontDoThisText</title>
    <desc>Created with Sketch.</desc>
    <defs></defs>
    <g id="Site-assets" stroke="none" stroke-width="1" fill="none" fill-rule="evenodd">
        <g id="Dyslexia" transform="translate(-1214.000000, -1099.000000)" fill="#0B0C0C">
            <g id="dyslexia/dontDoThisText" transform="translate(1214.000000, 1099.000000)">
                <path d="M29.375,42.375 C30.7708403,42.1874991 31.7604137,41.8958353 32.34375,41.5 C33.3229216,40.8541634 34.0624975,39.6145925 34.5625,37.78125 L42.40625,9.0625 C42.6354178,8.24999594 42.8072911,7.56771109 42.921875,7.015625 C43.0364589,6.46353891 43.09375,5.97916875 43.09375,5.5625 C43.09375,4.47916125 42.7916697,3.79687641 42.1875,3.515625 C41.5833303,3.23437359 40.3229263,3.0104175 38.40625,2.84375 L38.40625,1.1875 L57,1.1875 C63.2916981,1.1875 68.0781086,2.79685891 71.359375,6.015625 C74.6406414,9.23439109 76.28125,13.5520562 76.28125,18.96875 C76.28125,25.4896159 73.8541909,31.1562259 69,35.96875 C63.6041397,41.3229434 56.5208772,44 47.75,44 L29.375,44 L29.375,42.375 Z M65.28125,7.5 C63.614575,4.62498562 60.7291872,3.1875 56.625,3.1875 C55.2499931,3.1875 54.3177108,3.41145609 53.828125,3.859375 C53.3385392,4.30729391 52.9895844,4.90624625 52.78125,5.65625 L43.96875,38 C43.8854162,38.3125016 43.8281252,38.5937488 43.796875,38.84375 C43.7656248,39.0937512 43.75,39.3124991 43.75,39.5 C43.75,40.3333375 44.0052058,40.9374981 44.515625,41.3125 C45.0260442,41.6875019 45.94791,41.875 47.28125,41.875 C54.8854547,41.875 60.3853997,37.9583725 63.78125,30.125 C65.8437603,25.3749762 66.875,20.3541931 66.875,15.0625 C66.875,11.8958175 66.3437553,9.37500938 65.28125,7.5 Z M87.375,9.96875 C92.9583612,3.42705063 99.2082988,0.15625 106.125,0.15625 C110.72919,0.15625 114.510402,1.54165281 117.46875,4.3125 C120.427098,7.08334719 121.90625,10.8333097 121.90625,15.5625 C121.90625,22.4583678 119.291693,29.0103856 114.0625,35.21875 C108.479139,41.8646166 102.062536,45.1875 94.8125,45.1875 C90.2499772,45.1875 86.5364727,43.7968889 83.671875,41.015625 C80.8072773,38.2343611 79.375,34.5208566 79.375,29.875 C79.375,22.874965 82.04164,16.2396147 87.375,9.96875 Z M89.34375,39.125 C90.3645884,41.6875128 92.2187366,42.96875 94.90625,42.96875 C97.4270959,42.96875 99.7187397,42.0364677 101.78125,40.171875 C103.84376,38.3072823 105.979156,34.7500263 108.1875,29.5 C109.58334,26.1874834 110.677079,22.697935 111.46875,19.03125 C112.260421,15.364565 112.65625,12.3958447 112.65625,10.125 C112.65625,7.97915594 112.125005,6.14063266 111.0625,4.609375 C109.999995,3.07811734 108.343761,2.3125 106.09375,2.3125 C100.781223,2.3125 96.3125181,7.03120281 92.6875,16.46875 C89.9374863,23.6354525 88.5625,29.6041428 88.5625,34.375 C88.5625,36.2291759 88.8229141,37.8124934 89.34375,39.125 Z M122.125,42.375 C123.791675,42.1458322 124.98958,41.5000053 125.71875,40.4375 C126.44792,39.3749947 127.416661,36.7604375 128.625,32.59375 L136.25,6.3125 L135.96875,5.65625 C135.489581,4.51041094 134.833337,3.75000188 134,3.375 C133.458331,3.12499875 132.458341,2.94791719 131,2.84375 L131,1.1875 L143.4375,1.1875 L157.3125,30.90625 L162.34375,12.6875 C162.656252,11.5624944 162.906249,10.5625044 163.09375,9.6875 C163.385418,8.35416 163.53125,7.38541969 163.53125,6.78125 C163.53125,5.21874219 162.989589,4.14583625 161.90625,3.5625 C161.23958,3.20833156 160.072925,2.96875062 158.40625,2.84375 L158.40625,1.1875 L171.75,1.1875 L171.75,2.84375 L170.84375,2.96875 C169.531243,3.15625094 168.520837,3.89061859 167.8125,5.171875 C167.104163,6.45313141 166.239588,8.927065 165.21875,12.59375 L156.125,45.0625 L154.25,45.0625 L137.90625,9.65625 L131.53125,32.59375 C131.010414,34.4895928 130.666667,35.9062453 130.5,36.84375 C130.395833,37.4270863 130.34375,37.9999972 130.34375,38.5625 C130.34375,40.0625075 130.906244,41.1041637 132.03125,41.6875 C132.677087,42.020835 133.812492,42.2499994 135.4375,42.375 L135.4375,44 L122.125,44 L122.125,42.375 Z M173.59375,19.125 C175.781261,18.0624947 177.520827,17.0833378 178.8125,16.1875 C181.166678,14.5624919 182.489582,13.0208406 182.78125,11.5625 C182.927084,10.89583 182.359381,10.026047 181.078125,8.953125 C179.796869,7.88020297 179.312498,6.60417406 179.625,5.125 C179.958335,3.6249925 180.661453,2.4583375 181.734375,1.625 C182.807297,0.7916625 183.97916,0.375 185.25,0.375 C186.791674,0.375 187.963538,0.9583275 188.765625,2.125 C189.567712,3.2916725 189.760419,4.84374031 189.34375,6.78125 C188.635413,10.0937666 186.437518,13.0781117 182.75,15.734375 C179.062482,18.3906383 176.166677,20.0416634 174.0625,20.6875 L173.59375,19.125 Z M193.9375,42.375 C195.895843,42.375 197.23958,42.1875019 197.96875,41.8125 C199.135423,41.2083303 200.010414,39.8645937 200.59375,37.78125 L210.09375,3.4375 C206.906234,3.41666656 204.177095,4.18228391 201.90625,5.734375 C199.635405,7.28646609 197.750007,9.57290156 196.25,12.59375 L194.59375,12.15625 L197.0625,1.1875 L232.3125,1.1875 L230,13.5 L228.3125,13.34375 C228.208333,9.1770625 227.041678,6.33334094 224.8125,4.8125 C223.604161,3.9791625 221.812512,3.52083375 219.4375,3.4375 L210.46875,36.15625 L209.9375,38.375 C209.875,38.6666681 209.833333,38.9062491 209.8125,39.09375 C209.791667,39.2812509 209.78125,39.4687491 209.78125,39.65625 C209.78125,40.7604222 210.124997,41.4531236 210.8125,41.734375 C211.500003,42.0156264 212.937489,42.2291659 215.125,42.375 L215.125,44 L193.9375,44 L193.9375,42.375 Z M0,107.375 C1.39584031,107.187499 2.38541375,106.895835 2.96875,106.5 C3.94792156,105.854163 4.6874975,104.614593 5.1875,102.78125 L13.03125,74.0625 C13.2604178,73.2499959 13.4322911,72.5677111 13.546875,72.015625 C13.6614589,71.4635389 13.71875,70.9791687 13.71875,70.5625 C13.71875,69.4791613 13.4166697,68.7968764 12.8125,68.515625 C12.2083303,68.2343736 10.9479263,68.0104175 9.03125,67.84375 L9.03125,66.1875 L27.625,66.1875 C33.9166981,66.1875 38.7031086,67.7968589 41.984375,71.015625 C45.2656414,74.2343911 46.90625,78.5520562 46.90625,83.96875 C46.90625,90.4896159 44.4791909,96.1562259 39.625,100.96875 C34.2291397,106.322943 27.1458772,109 18.375,109 L0,109 L0,107.375 Z M35.90625,72.5 C34.239575,69.6249856 31.3541872,68.1875 27.25,68.1875 C25.8749931,68.1875 24.9427108,68.4114561 24.453125,68.859375 C23.9635392,69.3072939 23.6145844,69.9062463 23.40625,70.65625 L14.59375,103 C14.5104163,103.312502 14.4531252,103.593749 14.421875,103.84375 C14.3906248,104.093751 14.375,104.312499 14.375,104.5 C14.375,105.333337 14.6302058,105.937498 15.140625,106.3125 C15.6510442,106.687502 16.57291,106.875 17.90625,106.875 C25.5104547,106.875 31.0103997,102.958372 34.40625,95.125 C36.4687603,90.3749763 37.5,85.3541931 37.5,80.0625 C37.5,76.8958175 36.9687553,74.3750094 35.90625,72.5 Z M58,74.96875 C63.5833612,68.4270506 69.8332987,65.15625 76.75,65.15625 C81.3541897,65.15625 85.1354019,66.5416528 88.09375,69.3125 C91.0520981,72.0833472 92.53125,75.8333097 92.53125,80.5625 C92.53125,87.4583678 89.9166928,94.0103856 84.6875,100.21875 C79.1041388,106.864617 72.6875362,110.1875 65.4375,110.1875 C60.8749772,110.1875 57.1614727,108.796889 54.296875,106.015625 C51.4322773,103.234361 50,99.5208566 50,94.875 C50,87.874965 52.66664,81.2396147 58,74.96875 Z M59.96875,104.125 C60.9895884,106.687513 62.8437366,107.96875 65.53125,107.96875 C68.0520959,107.96875 70.3437397,107.036468 72.40625,105.171875 C74.4687603,103.307282 76.6041556,99.7500262 78.8125,94.5 C80.2083403,91.1874834 81.3020794,87.697935 82.09375,84.03125 C82.8854206,80.364565 83.28125,77.3958447 83.28125,75.125 C83.28125,72.9791559 82.7500053,71.1406327 81.6875,69.609375 C80.6249947,68.0781173 78.9687613,67.3125 76.71875,67.3125 C71.4062234,67.3125 66.9375181,72.0312028 63.3125,81.46875 C60.5624863,88.6354525 59.1875,94.6041428 59.1875,99.375 C59.1875,101.229176 59.4479141,102.812493 59.96875,104.125 Z M113.03125,107.375 C114.989593,107.375 116.33333,107.187502 117.0625,106.8125 C118.229173,106.20833 119.104164,104.864594 119.6875,102.78125 L129.1875,68.4375 C125.999984,68.4166666 123.270845,69.1822839 121,70.734375 C118.729155,72.2864661 116.843758,74.5729016 115.34375,77.59375 L113.6875,77.15625 L116.15625,66.1875 L151.40625,66.1875 L149.09375,78.5 L147.40625,78.34375 C147.302083,74.1770625 146.135428,71.3333409 143.90625,69.8125 C142.697911,68.9791625 140.906262,68.5208338 138.53125,68.4375 L129.5625,101.15625 L129.03125,103.375 C128.96875,103.666668 128.927083,103.906249 128.90625,104.09375 C128.885417,104.281251 128.875,104.468749 128.875,104.65625 C128.875,105.760422 129.218747,106.453124 129.90625,106.734375 C130.593753,107.015626 132.031239,107.229166 134.21875,107.375 L134.21875,109 L113.03125,109 L113.03125,107.375 Z M147.96875,107.375 C149.593758,107.187499 150.744788,106.802086 151.421875,106.21875 C152.098962,105.635414 152.677081,104.489592 153.15625,102.78125 L161.03125,74.0625 C161.197918,73.39583 161.348958,72.7500031 161.484375,72.125 C161.619792,71.4999969 161.6875,70.9791687 161.6875,70.5625 C161.6875,69.4791613 161.395836,68.7968764 160.8125,68.515625 C160.229164,68.2343736 158.96876,68.0104175 157.03125,67.84375 L157.03125,66.1875 L177.3125,66.1875 L177.3125,67.84375 C175.083322,68.0729178 173.583337,68.4218727 172.8125,68.890625 C172.041663,69.3593773 171.395836,70.5416572 170.875,72.4375 L167.375,85.15625 L182.65625,85.15625 L185.6875,74.0625 C185.875001,73.3333297 186.031249,72.671878 186.15625,72.078125 C186.281251,71.484372 186.34375,70.9791687 186.34375,70.5625 C186.34375,69.4374944 185.927087,68.6979184 185.09375,68.34375 C184.552081,68.1145822 183.416675,67.9479172 181.6875,67.84375 L181.6875,66.1875 L200.71875,66.1875 L200.71875,67.84375 C199.239576,68.0312509 198.208336,68.3229147 197.625,68.71875 C196.729162,69.3645866 196.031252,70.6041575 195.53125,72.4375 L187.6875,101.15625 L187.15625,103.375 C187.052083,103.854169 186.989583,104.151041 186.96875,104.265625 C186.947917,104.380209 186.9375,104.520832 186.9375,104.6875 C186.9375,105.791672 187.406245,106.531248 188.34375,106.90625 C188.906253,107.135418 190.020825,107.291666 191.6875,107.375 L191.6875,109 L171.375,109 L171.375,107.375 C173.604178,107.145832 175.109371,106.796877 175.890625,106.328125 C176.671879,105.859373 177.322914,104.677093 177.84375,102.78125 L181.90625,87.96875 L166.65625,87.96875 L163.03125,101.15625 C162.781249,102.135422 162.614584,102.833331 162.53125,103.25 C162.447916,103.666669 162.40625,104.17708 162.40625,104.78125 C162.40625,105.802088 162.687497,106.447915 163.25,106.71875 C163.812503,106.989585 165.072907,107.208332 167.03125,107.375 L167.03125,109 L147.96875,109 L147.96875,107.375 Z M197.90625,107.375 C199.427091,107.187499 200.55208,106.812503 201.28125,106.25 C202.01042,105.687497 202.614581,104.531259 203.09375,102.78125 L210.9375,74.0625 C211.166668,73.2499959 211.338541,72.5677111 211.453125,72.015625 C211.567709,71.4635389 211.625,70.9791687 211.625,70.5625 C211.625,69.4791613 211.32292,68.7968764 210.71875,68.515625 C210.11458,68.2343736 208.854176,68.0104175 206.9375,67.84375 L206.9375,66.1875 L225.96875,66.1875 L225.96875,67.84375 C224.406242,68.0520844 223.276045,68.4270806 222.578125,68.96875 C221.880205,69.5104194 221.291669,70.6666578 220.8125,72.4375 L212.9375,101.15625 L212.4375,103.375 C212.395833,103.583334 212.359375,103.796874 212.328125,104.015625 C212.296875,104.234376 212.28125,104.437499 212.28125,104.625 C212.28125,105.708339 212.572914,106.395832 213.15625,106.6875 C213.739586,106.979168 214.99999,107.208332 216.9375,107.375 L216.9375,109 L197.90625,109 L197.90625,107.375 Z M224.65625,110.1875 L226.96875,95.84375 L228.8125,95.96875 C228.937501,98.0104269 229.114582,99.4999953 229.34375,100.4375 C229.739585,102.000008 230.458328,103.385411 231.5,104.59375 C232.458338,105.697922 233.546869,106.536455 234.765625,107.109375 C235.984381,107.682295 237.312493,107.96875 238.75,107.96875 C241.312513,107.96875 243.296868,107.15105 244.703125,105.515625 C246.109382,103.8802 246.8125,101.979177 246.8125,99.8125 C246.8125,97.1249866 244.197943,93.7291872 238.96875,89.625 C233.739557,85.3333119 231.125,81.3646016 231.125,77.71875 C231.125,74.2812328 232.27603,71.3541788 234.578125,68.9375 C236.88022,66.5208213 240.093729,65.3125 244.21875,65.3125 C245.364589,65.3125 246.541661,65.4270822 247.75,65.65625 C248.541671,65.8020841 249.23958,65.9791656 249.84375,66.1875 L251.46875,66.71875 C251.822918,66.8229172 252.187498,66.911458 252.5625,66.984375 C252.937502,67.057292 253.270832,67.09375 253.5625,67.09375 C254.312504,67.09375 254.885415,66.9375016 255.28125,66.625 C255.677085,66.3124984 256.020832,65.9270856 256.3125,65.46875 L258.21875,65.46875 L255.625,78.28125 L253.9375,78.0625 L253.71875,75.96875 C253.447915,73.9895734 252.833338,72.2916738 251.875,70.875 C250.374993,68.6458222 248.187514,67.53125 245.3125,67.53125 C242.854154,67.53125 241.062506,68.4270744 239.9375,70.21875 C239.187496,71.4062559 238.8125,72.6874931 238.8125,74.0625 C238.8125,75.5208406 239.197913,76.8124944 239.96875,77.9375 C240.406252,78.5625031 241.062496,79.2395797 241.9375,79.96875 L247.46875,84.5 C249.427093,86.1041747 251.093743,87.9322814 252.46875,89.984375 C253.843757,92.0364686 254.53125,94.3749869 254.53125,97 C254.53125,100.375017 253.203138,103.421861 250.546875,106.140625 C247.890612,108.859389 244.239607,110.21875 239.59375,110.21875 C238.427077,110.21875 237.255214,110.109376 236.078125,109.890625 C234.901036,109.671874 233.739589,109.354169 232.59375,108.9375 L230.96875,108.34375 C230.427081,108.135416 230.052084,108.005209 229.84375,107.953125 C229.635416,107.901041 229.395835,107.875 229.125,107.875 C228.416663,107.875 227.91146,108.046873 227.609375,108.390625 C227.30729,108.734377 226.968752,109.333329 226.59375,110.1875 L224.65625,110.1875 Z" id="DON’T-DO-THIS"></path>
            </g>
        </g>
    </g>
</svg>