<svg xmlns="http://www.w3.org/2000/svg" xmlns:xlink="http://www.w3.org/1999/xlink" width="236" height="151" viewBox="0 0 236 151">
  <defs>
    <rect id="dyslexiaautocorrect-a" width="236" height="86" y="65"/>
  </defs>
  <g fill="none" fill-rule="evenodd">
    <rect width="236" height="65" fill="#FFF1D6"/>
    <path fill="#6F777B" d="M208.767857,43.2678571 C208.767857,43.9821464 208.51786,44.5892832 208.017857,45.0892857 L204.375,48.7321429 C203.874997,49.2321454 203.267861,49.4821429 202.553571,49.4821429 C201.839282,49.4821429 201.232145,49.2321454 200.732143,48.7321429 L192.857143,40.8571429 L184.982143,48.7321429 C184.48214,49.2321454 183.875004,49.4821429 183.160714,49.4821429 C182.446425,49.4821429 181.839288,49.2321454 181.339286,48.7321429 L177.696429,45.0892857 C177.196426,44.5892832 176.946429,43.9821464 176.946429,43.2678571 C176.946429,42.5535679 177.196426,41.9464311 177.696429,41.4464286 L185.571429,33.5714286 L177.696429,25.6964286 C177.196426,25.1964261 176.946429,24.5892893 176.946429,23.875 C176.946429,23.1607107 177.196426,22.5535739 177.696429,22.0535714 L181.339286,18.4107143 C181.839288,17.9107118 182.446425,17.6607143 183.160714,17.6607143 C183.875004,17.6607143 184.48214,17.9107118 184.982143,18.4107143 L192.857143,26.2857143 L200.732143,18.4107143 C201.232145,17.9107118 201.839282,17.6607143 202.553571,17.6607143 C203.267861,17.6607143 203.874997,17.9107118 204.375,18.4107143 L208.017857,22.0535714 C208.51786,22.5535739 208.767857,23.1607107 208.767857,23.875 C208.767857,24.5892893 208.51786,25.1964261 208.017857,25.6964286 L200.142857,33.5714286 L208.017857,41.4464286 C208.51786,41.9464311 208.767857,42.5535679 208.767857,43.2678571 Z"/>
    <path fill="#2E8ACA" d="M37.156,35.64 C37.156,34.8719962 37.0840007,34.1340035 36.94,33.426 C36.7959993,32.7179965 36.5500017,32.0940027 36.202,31.554 C35.8539983,31.0139973 35.4040028,30.5760017 34.852,30.24 C34.2999972,29.9039983 33.6040042,29.736 32.764,29.736 C31.9239958,29.736 31.2160029,29.9039983 30.64,30.24 C30.0639971,30.5760017 29.6020017,31.0199972 29.254,31.572 C28.9059983,32.1240028 28.6540008,32.7539965 28.498,33.462 C28.3419992,34.1700035 28.264,34.9079962 28.264,35.676 C28.264,36.3960036 28.3479992,37.1159964 28.516,37.836 C28.6840008,38.5560036 28.9539981,39.1979972 29.326,39.762 C29.6980019,40.3260028 30.1659972,40.7819983 30.73,41.13 C31.2940028,41.4780017 31.971996,41.652 32.764,41.652 C33.6040042,41.652 34.3059972,41.4840017 34.87,41.148 C35.4340028,40.8119983 35.8839983,40.3620028 36.22,39.798 C36.5560017,39.2339972 36.7959993,38.5920036 36.94,37.872 C37.0840007,37.1519964 37.156,36.4080038 37.156,35.64 Z M37.228,42.624 L37.156,42.624 C36.555997,43.632005 35.7700049,44.3579978 34.798,44.802 C33.8259951,45.2460022 32.7280061,45.468 31.504,45.468 C30.111993,45.468 28.8880053,45.1980027 27.832,44.658 C26.7759947,44.1179973 25.9060034,43.3860046 25.222,42.462 C24.5379966,41.5379954 24.0220017,40.476006 23.674,39.276 C23.3259983,38.075994 23.152,36.8280065 23.152,35.532 C23.152,34.2839938 23.3259983,33.0780058 23.674,31.914 C24.0220017,30.7499942 24.5379966,29.7240044 25.222,28.836 C25.9060034,27.9479956 26.7639948,27.2340027 27.796,26.694 C28.8280052,26.1539973 30.0279932,25.884 31.396,25.884 C32.5000055,25.884 33.549995,26.1179977 34.546,26.586 C35.542005,27.0540023 36.3279971,27.7439954 36.904,28.656 L36.976,28.656 L36.976,19.296 L42.088,19.296 L42.088,45 L37.228,45 L37.228,42.624 Z M55.12,47.304 L62.896,26.388 L57.604,26.388 L53.536,39.132 L53.464,39.132 L49.252,26.388 L43.816,26.388 L50.332,43.848 C50.4760007,44.2080018 50.548,44.591998 50.548,45 C50.548,45.5520028 50.3860016,46.0559977 50.062,46.512 C49.7379984,46.9680023 49.2400034,47.2319996 48.568,47.304 C48.0639975,47.3280001 47.5600025,47.3160002 47.056,47.268 C46.5519975,47.2199998 46.0600024,47.1720002 45.58,47.124 L45.58,51.336 C46.1080026,51.3840002 46.6299974,51.4259998 47.146,51.462 C47.6620026,51.4980002 48.1839974,51.516 48.712,51.516 C50.4640088,51.516 51.8319951,51.1920032 52.816,50.544 C53.8000049,49.8959968 54.5679972,48.8160076 55.12,47.304 Z M68.584,38.952 L63.724,38.952 C63.7720002,40.2000062 64.0539974,41.2379959 64.57,42.066 C65.0860026,42.8940041 65.745996,43.5599975 66.55,44.064 C67.354004,44.5680025 68.2719948,44.9279989 69.304,45.144 C70.3360052,45.3600011 71.3919946,45.468 72.472,45.468 C73.5280053,45.468 74.5659949,45.366001 75.586,45.162 C76.6060051,44.957999 77.511996,44.6040025 78.304,44.1 C79.096004,43.5959975 79.7379975,42.9300041 80.23,42.102 C80.7220025,41.2739959 80.968,40.2480061 80.968,39.024 C80.968,38.1599957 80.8000017,37.4340029 80.464,36.846 C80.1279983,36.2579971 79.6840028,35.766002 79.132,35.37 C78.5799972,34.973998 77.9500035,34.6560012 77.242,34.416 C76.5339965,34.1759988 75.8080037,33.9720008 75.064,33.804 C74.3439964,33.6359992 73.6360035,33.4800007 72.94,33.336 C72.2439965,33.1919993 71.6260027,33.0300009 71.086,32.85 C70.5459973,32.6699991 70.1080017,32.4360014 69.772,32.148 C69.4359983,31.8599986 69.268,31.4880023 69.268,31.032 C69.268,30.6479981 69.363999,30.3420011 69.556,30.114 C69.748001,29.8859989 69.9819986,29.7120006 70.258,29.592 C70.5340014,29.4719994 70.8399983,29.3940002 71.176,29.358 C71.5120017,29.3219998 71.8239986,29.304 72.112,29.304 C73.0240046,29.304 73.8159966,29.4779983 74.488,29.826 C75.1600034,30.1740017 75.5319996,30.8399951 75.604,31.824 L80.464,31.824 C80.3679995,30.6719942 80.0740025,29.7180038 79.582,28.962 C79.0899975,28.2059962 78.4720037,27.6000023 77.728,27.144 C76.9839963,26.6879977 76.1380047,26.364001 75.19,26.172 C74.2419953,25.979999 73.264005,25.884 72.256,25.884 C71.247995,25.884 70.2640048,25.9739991 69.304,26.154 C68.3439952,26.3340009 67.4800038,26.6459978 66.712,27.09 C65.9439962,27.5340022 65.3260023,28.1399962 64.858,28.908 C64.3899977,29.6760038 64.156,30.659994 64.156,31.86 C64.156,32.6760041 64.3239983,33.3659972 64.66,33.93 C64.9960017,34.4940028 65.4399972,34.9619981 65.992,35.334 C66.5440028,35.7060019 67.1739965,36.0059989 67.882,36.234 C68.5900035,36.4620011 69.3159963,36.6599992 70.06,36.828 C71.8840091,37.2120019 73.3059949,37.5959981 74.326,37.98 C75.3460051,38.3640019 75.856,38.9399962 75.856,39.708 C75.856,40.1640023 75.7480011,40.5419985 75.532,40.842 C75.3159989,41.1420015 75.0460016,41.3819991 74.722,41.562 C74.3979984,41.7420009 74.038002,41.8739996 73.642,41.958 C73.245998,42.0420004 72.8680018,42.084 72.508,42.084 C72.0039975,42.084 71.5180023,42.0240006 71.05,41.904 C70.5819977,41.7839994 70.1680018,41.5980013 69.808,41.346 C69.4479982,41.0939987 69.1540011,40.770002 68.926,40.374 C68.6979989,39.977998 68.584,39.5040028 68.584,38.952 Z M84.1,19.296 L84.1,45 L89.212,45 L89.212,19.296 L84.1,19.296 Z M105.772,33.696 C105.531999,32.3999935 105.106003,31.4160034 104.494,30.744 C103.881997,30.0719966 102.952006,29.736 101.704,29.736 C100.887996,29.736 100.210003,29.8739986 99.67,30.15 C99.1299973,30.4260014 98.6980016,30.767998 98.374,31.176 C98.0499984,31.584002 97.8220007,32.0159977 97.69,32.472 C97.5579993,32.9280023 97.4800001,33.3359982 97.456,33.696 L105.772,33.696 Z M97.456,36.936 C97.5280004,38.5920083 97.9479962,39.7919963 98.716,40.536 C99.4840038,41.2800037 100.587993,41.652 102.028,41.652 C103.060005,41.652 103.947996,41.3940026 104.692,40.878 C105.436004,40.3619974 105.891999,39.8160029 106.06,39.24 L110.56,39.24 C109.839996,41.4720112 108.736007,43.0679952 107.248,44.028 C105.759993,44.9880048 103.960011,45.468 101.848,45.468 C100.383993,45.468 99.0640059,45.2340023 97.888,44.766 C96.7119941,44.2979977 95.7160041,43.6320043 94.9,42.768 C94.0839959,41.9039957 93.4540022,40.872006 93.01,39.672 C92.5659978,38.471994 92.344,37.1520072 92.344,35.712 C92.344,34.319993 92.5719977,33.024006 93.028,31.824 C93.4840023,30.623994 94.1319958,29.5860044 94.972,28.71 C95.8120042,27.8339956 96.8139942,27.1440025 97.978,26.64 C99.1420058,26.1359975 100.431993,25.884 101.848,25.884 C103.432008,25.884 104.811994,26.1899969 105.988,26.802 C107.164006,27.4140031 108.129996,28.2359948 108.886,29.268 C109.642004,30.3000052 110.187998,31.4759934 110.524,32.796 C110.860002,34.1160066 110.98,35.4959928 110.884,36.936 L97.456,36.936 Z M118.66,35.208 L111.964,45 L117.688,45 L121.576,39.132 L125.464,45 L131.296,45 L124.42,35.1 L130.54,26.388 L124.888,26.388 L121.648,31.248 L118.372,26.388 L112.54,26.388 L118.66,35.208 Z M138.496,23.508 L138.496,19.296 L133.384,19.296 L133.384,23.508 L138.496,23.508 Z M133.384,26.388 L133.384,45 L138.496,45 L138.496,26.388 L133.384,26.388 Z M142.312,32.112 C142.384,30.911994 142.683997,29.916004 143.212,29.124 C143.740003,28.331996 144.411996,27.6960024 145.228,27.216 C146.044004,26.7359976 146.961995,26.394001 147.982,26.19 C149.002005,25.985999 150.027995,25.884 151.06,25.884 C151.996005,25.884 152.943995,25.9499993 153.904,26.082 C154.864005,26.2140007 155.739996,26.4719981 156.532,26.856 C157.324004,27.2400019 157.971997,27.7739966 158.476,28.458 C158.980003,29.1420034 159.232,30.0479944 159.232,31.176 L159.232,40.86 C159.232,41.7000042 159.28,42.5039962 159.376,43.272 C159.472,44.0400038 159.639999,44.6159981 159.88,45 L154.696,45 C154.6,44.7119986 154.522,44.4180015 154.462,44.118 C154.402,43.8179985 154.36,43.5120016 154.336,43.2 C153.519996,44.0400042 152.560006,44.6279983 151.456,44.964 C150.351994,45.3000017 149.224006,45.468 148.072,45.468 C147.183996,45.468 146.356004,45.3600011 145.588,45.144 C144.819996,44.9279989 144.148003,44.5920023 143.572,44.136 C142.995997,43.6799977 142.546002,43.1040035 142.222,42.408 C141.897998,41.7119965 141.736,40.8840048 141.736,39.924 C141.736,38.8679947 141.921998,37.9980034 142.294,37.314 C142.666002,36.6299966 143.145997,36.084002 143.734,35.676 C144.322003,35.267998 144.993996,34.962001 145.75,34.758 C146.506004,34.553999 147.267996,34.3920006 148.036,34.272 C148.804004,34.1519994 149.559996,34.0560004 150.304,33.984 C151.048004,33.9119996 151.707997,33.8040007 152.284,33.66 C152.860003,33.5159993 153.315998,33.3060014 153.652,33.03 C153.988002,32.7539986 154.144,32.3520026 154.12,31.824 C154.12,31.2719972 154.030001,30.8340016 153.85,30.51 C153.669999,30.1859984 153.430001,29.9340009 153.13,29.754 C152.829998,29.5739991 152.482002,29.4540003 152.086,29.394 C151.689998,29.3339997 151.264002,29.304 150.808,29.304 C149.799995,29.304 149.008003,29.5199978 148.432,29.952 C147.855997,30.3840022 147.52,31.103995 147.424,32.112 L142.312,32.112 Z M154.12,35.892 C153.903999,36.084001 153.634002,36.2339995 153.31,36.342 C152.985998,36.4500005 152.638002,36.5399996 152.266,36.612 C151.893998,36.6840004 151.504002,36.7439998 151.096,36.792 C150.687998,36.8400002 150.280002,36.8999996 149.872,36.972 C149.487998,37.0440004 149.110002,37.1399994 148.738,37.26 C148.365998,37.3800006 148.042001,37.541999 147.766,37.746 C147.489999,37.950001 147.268001,38.2079984 147.1,38.52 C146.931999,38.8320016 146.848,39.2279976 146.848,39.708 C146.848,40.1640023 146.931999,40.5479984 147.1,40.86 C147.268001,41.1720016 147.495999,41.4179991 147.784,41.598 C148.072001,41.7780009 148.407998,41.9039996 148.792,41.976 C149.176002,42.0480004 149.571998,42.084 149.98,42.084 C150.988005,42.084 151.767997,41.9160017 152.32,41.58 C152.872003,41.2439983 153.279999,40.8420023 153.544,40.374 C153.808001,39.9059977 153.97,39.4320024 154.03,38.952 C154.09,38.4719976 154.12,38.0880014 154.12,37.8 L154.12,35.892 Z"/>
    <use fill="#F8F8F8" xlink:href="#dyslexiaautocorrect-a"/>
    <rect width="231" height="81" x="2.5" y="67.5" stroke="#979797" stroke-width="5"/>
    <path fill="#0B0C0C" d="M38.734,112.96 C38.734,111.807994 38.6260011,110.701005 38.41,109.639 C38.1939989,108.576995 37.8250026,107.641004 37.303,106.831 C36.7809974,106.020996 36.1060041,105.364003 35.278,104.86 C34.4499959,104.355997 33.4060063,104.104 32.146,104.104 C30.8859937,104.104 29.8240043,104.355997 28.96,104.86 C28.0959957,105.364003 27.4030026,106.029996 26.881,106.858 C26.3589974,107.686004 25.9810012,108.630995 25.747,109.693 C25.5129988,110.755005 25.396,111.861994 25.396,113.014 C25.396,114.094005 25.5219987,115.173995 25.774,116.254 C26.0260013,117.334005 26.4309972,118.296996 26.989,119.143 C27.5470028,119.989004 28.2489958,120.672997 29.095,121.195 C29.9410042,121.717003 30.9579941,121.978 32.146,121.978 C33.4060063,121.978 34.4589958,121.726003 35.305,121.222 C36.1510042,120.717997 36.8259975,120.043004 37.33,119.197 C37.8340025,118.350996 38.1939989,117.388005 38.41,116.308 C38.6260011,115.227995 38.734,114.112006 38.734,112.96 Z M38.842,123.436 L38.734,123.436 C37.8339955,124.948008 36.6550073,126.036997 35.197,126.703 C33.7389927,127.369003 32.0920092,127.702 30.256,127.702 C28.1679896,127.702 26.3320079,127.297004 24.748,126.487 C23.1639921,125.676996 21.8590051,124.579007 20.833,123.193 C19.8069949,121.806993 19.0330026,120.214009 18.511,118.414 C17.9889974,116.613991 17.728,114.74201 17.728,112.798 C17.728,110.925991 17.9889974,109.117009 18.511,107.371 C19.0330026,105.624991 19.8069949,104.086007 20.833,102.754 C21.8590051,101.421993 23.1459923,100.351004 24.694,99.541 C26.2420077,98.730996 28.0419897,98.326 30.094,98.326 C31.7500083,98.326 33.3249925,98.6769965 34.819,99.379 C36.3130075,100.081004 37.4919957,101.115993 38.356,102.484 L38.464,102.484 L38.464,88.444 L46.132,88.444 L46.132,127 L38.842,127 L38.842,123.436 Z M57.85,117.928 L50.56,117.928 C50.6320004,119.800009 51.0549961,121.356994 51.829,122.599 C52.6030039,123.841006 53.592994,124.839996 54.799,125.596 C56.005006,126.352004 57.3819923,126.891998 58.93,127.216 C60.4780077,127.540002 62.0619919,127.702 63.682,127.702 C65.2660079,127.702 66.8229924,127.549002 68.353,127.243 C69.8830077,126.936998 71.2419941,126.406004 72.43,125.65 C73.6180059,124.893996 74.5809963,123.895006 75.319,122.653 C76.0570037,121.410994 76.426,119.872009 76.426,118.036 C76.426,116.739994 76.1740025,115.651004 75.67,114.769 C75.1659975,113.886996 74.5000041,113.149003 73.672,112.555 C72.8439959,111.960997 71.8990053,111.484002 70.837,111.124 C69.7749947,110.763998 68.6860056,110.458001 67.57,110.206 C66.4899946,109.953999 65.4280052,109.720001 64.384,109.504 C63.3399948,109.287999 62.413004,109.045001 61.603,108.775 C60.7929959,108.504999 60.1360025,108.154002 59.632,107.722 C59.1279975,107.289998 58.876,106.732003 58.876,106.048 C58.876,105.471997 59.0199986,105.013002 59.308,104.671 C59.5960014,104.328998 59.9469979,104.068001 60.361,103.888 C60.7750021,103.707999 61.2339975,103.591 61.738,103.537 C62.2420025,103.483 62.7099978,103.456 63.142,103.456 C64.5100068,103.456 65.697995,103.716997 66.706,104.239 C67.714005,104.761003 68.2719995,105.759993 68.38,107.236 L75.67,107.236 C75.5259993,105.507991 75.0850037,104.077006 74.347,102.943 C73.6089963,101.808994 72.6820056,100.900003 71.566,100.216 C70.4499944,99.5319966 69.1810071,99.0460014 67.759,98.758 C66.3369929,98.4699986 64.8700076,98.326 63.358,98.326 C61.8459924,98.326 60.3700072,98.4609986 58.93,98.731 C57.4899928,99.0010014 56.1940058,99.4689967 55.042,100.135 C53.8899942,100.801003 52.9630035,101.709994 52.261,102.862 C51.5589965,104.014006 51.208,105.489991 51.208,107.29 C51.208,108.514006 51.4599975,109.548996 51.964,110.395 C52.4680025,111.241004 53.1339959,111.942997 53.962,112.501 C54.7900041,113.059003 55.7349947,113.508998 56.797,113.851 C57.8590053,114.193002 58.9479944,114.489999 60.064,114.742 C62.8000137,115.318003 64.9329923,115.893997 66.463,116.47 C67.9930076,117.046003 68.758,117.909994 68.758,119.062 C68.758,119.746003 68.5960016,120.312998 68.272,120.763 C67.9479984,121.213002 67.5430024,121.572999 67.057,121.843 C66.5709976,122.113001 66.031003,122.310999 65.437,122.437 C64.842997,122.563001 64.2760027,122.626 63.736,122.626 C62.9799962,122.626 62.2510035,122.536001 61.549,122.356 C60.8469965,122.175999 60.2260027,121.897002 59.686,121.519 C59.1459973,121.140998 58.7050017,120.655003 58.363,120.061 C58.0209983,119.466997 57.85,118.756004 57.85,117.928 Z M94.678,130.456 L106.342,99.082 L98.404,99.082 L92.302,118.198 L92.194,118.198 L85.876,99.082 L77.722,99.082 L87.496,125.272 C87.7120011,125.812003 87.82,126.387997 87.82,127 C87.82,127.828004 87.5770024,128.583997 87.091,129.268 C86.6049976,129.952003 85.858005,130.347999 84.85,130.456 C84.0939962,130.492 83.3380038,130.474 82.582,130.402 C81.8259962,130.33 81.0880036,130.258 80.368,130.186 L80.368,136.504 C81.160004,136.576 81.9429961,136.639 82.717,136.693 C83.4910039,136.747 84.273996,136.774 85.066,136.774 C87.6940131,136.774 89.7459926,136.288005 91.222,135.316 C92.6980074,134.343995 93.8499959,132.724011 94.678,130.456 Z M109.15,88.444 L109.15,127 L116.818,127 L116.818,88.444 L109.15,88.444 Z M141.658,110.044 C141.297998,108.09999 140.659005,106.624005 139.741,105.616 C138.822995,104.607995 137.428009,104.104 135.556,104.104 C134.331994,104.104 133.315004,104.310998 132.505,104.725 C131.694996,105.139002 131.047002,105.651997 130.561,106.264 C130.074998,106.876003 129.733001,107.523997 129.535,108.208 C129.336999,108.892003 129.22,109.503997 129.184,110.044 L141.658,110.044 Z M129.184,114.904 C129.292001,117.388012 129.921994,119.187994 131.074,120.304 C132.226006,121.420006 133.881989,121.978 136.042,121.978 C137.590008,121.978 138.921994,121.591004 140.038,120.817 C141.154006,120.042996 141.837999,119.224004 142.09,118.36 L148.84,118.36 C147.759995,121.708017 146.104011,124.101993 143.872,125.542 C141.639989,126.982007 138.940016,127.702 135.772,127.702 C133.575989,127.702 131.596009,127.351004 129.832,126.649 C128.067991,125.946996 126.574006,124.948006 125.35,123.652 C124.125994,122.355994 123.181003,120.808009 122.515,119.008 C121.848997,117.207991 121.516,115.228011 121.516,113.068 C121.516,110.97999 121.857997,109.036009 122.542,107.236 C123.226003,105.435991 124.197994,103.879007 125.458,102.565 C126.718006,101.250993 128.220991,100.216004 129.967,99.46 C131.713009,98.7039962 133.647989,98.326 135.772,98.326 C138.148012,98.326 140.217991,98.7849954 141.982,99.703 C143.746009,100.621005 145.194994,101.853992 146.329,103.402 C147.463006,104.950008 148.281997,106.71399 148.786,108.694 C149.290003,110.67401 149.470001,112.743989 149.326,114.904 L129.184,114.904 Z"/>
    <path stroke="#2E8ACA" stroke-linecap="square" stroke-width="8" d="M156,85.5 L156,133.5"/>
  </g>
</svg>
