<svg xmlns="http://www.w3.org/2000/svg" width="304" height="113" viewBox="0 0 304 113">
  <g fill="#F47738" fill-rule="evenodd">
    <path d="M144 97.5714286L144 107.857143C144 109.250007 143.491077 110.455352 142.473214 111.473214 141.455352 112.491077 140.250007 113 138.857143 113L5.14285714 113C3.74999304 113 2.54464795 112.491077 1.52678571 111.473214.508923482 110.455352 0 109.250007 0 107.857143L0 97.5714286C0 96.1785645.508923482 94.9732194 1.52678571 93.9553571 2.54464795 92.9374949 3.74999304 92.4285714 5.14285714 92.4285714L138.857143 92.4285714C140.250007 92.4285714 141.455352 92.9374949 142.473214 93.9553571 143.491077 94.9732194 144 96.1785645 144 97.5714286zM144 66.7142857L144 77C144 78.3928641 143.491077 79.5982092 142.473214 80.6160714 141.455352 81.6339337 140.250007 82.1428571 138.857143 82.1428571L5.14285714 82.1428571C3.74999304 82.1428571 2.54464795 81.6339337 1.52678571 80.6160714.508923482 79.5982092 0 78.3928641 0 77L0 66.7142857C0 65.3214216.508923482 64.1160765 1.52678571 63.0982143 2.54464795 62.0803521 3.74999304 61.5714286 5.14285714 61.5714286L138.857143 61.5714286C140.250007 61.5714286 141.455352 62.0803521 142.473214 63.0982143 143.491077 64.1160765 144 65.3214216 144 66.7142857zM144 35.8571429L144 46.1428571C144 47.5357212 143.491077 48.7410663 142.473214 49.7589286 141.455352 50.7767908 140.250007 51.2857143 138.857143 51.2857143L5.14285714 51.2857143C3.74999304 51.2857143 2.54464795 50.7767908 1.52678571 49.7589286.508923482 48.7410663 0 47.5357212 0 46.1428571L0 35.8571429C0 34.4642787.508923482 33.2589337 1.52678571 32.2410714 2.54464795 31.2232092 3.74999304 30.7142857 5.14285714 30.7142857L138.857143 30.7142857C140.250007 30.7142857 141.455352 31.2232092 142.473214 32.2410714 143.491077 33.2589337 144 34.4642787 144 35.8571429zM144 5L144 15.2857143C144 16.6785784 143.491077 17.8839235 142.473214 18.9017857 141.455352 19.9196479 140.250007 20.4285714 138.857143 20.4285714L5.14285714 20.4285714C3.74999304 20.4285714 2.54464795 19.9196479 1.52678571 18.9017857.508923482 17.8839235 0 16.6785784 0 15.2857143L0 5C0 3.60713589.508923482 2.4017908 1.52678571 1.38392857 2.54464795.366066339 3.74999304-.142857143 5.14285714-.142857143L138.857143-.142857143C140.250007-.142857143 141.455352.366066339 142.473214 1.38392857 143.491077 2.4017908 144 3.60713589 144 5zM304 97.5714286L304 107.857143C304 109.250007 303.491077 110.455352 302.473214 111.473214 301.455352 112.491077 300.250007 113 298.857143 113L165.142857 113C163.749993 113 162.544648 112.491077 161.526786 111.473214 160.508923 110.455352 160 109.250007 160 107.857143L160 97.5714286C160 96.1785645 160.508923 94.9732194 161.526786 93.9553571 162.544648 92.9374949 163.749993 92.4285714 165.142857 92.4285714L298.857143 92.4285714C300.250007 92.4285714 301.455352 92.9374949 302.473214 93.9553571 303.491077 94.9732194 304 96.1785645 304 97.5714286zM304 66.7142857L304 77C304 78.3928641 303.491077 79.5982092 302.473214 80.6160714 301.455352 81.6339337 300.250007 82.1428571 298.857143 82.1428571L165.142857 82.1428571C163.749993 82.1428571 162.544648 81.6339337 161.526786 80.6160714 160.508923 79.5982092 160 78.3928641 160 77L160 66.7142857C160 65.3214216 160.508923 64.1160765 161.526786 63.0982143 162.544648 62.0803521 163.749993 61.5714286 165.142857 61.5714286L298.857143 61.5714286C300.250007 61.5714286 301.455352 62.0803521 302.473214 63.0982143 303.491077 64.1160765 304 65.3214216 304 66.7142857zM304 35.8571429L304 46.1428571C304 47.5357212 303.491077 48.7410663 302.473214 49.7589286 301.455352 50.7767908 300.250007 51.2857143 298.857143 51.2857143L165.142857 51.2857143C163.749993 51.2857143 162.544648 50.7767908 161.526786 49.7589286 160.508923 48.7410663 160 47.5357212 160 46.1428571L160 35.8571429C160 34.4642787 160.508923 33.2589337 161.526786 32.2410714 162.544648 31.2232092 163.749993 30.7142857 165.142857 30.7142857L298.857143 30.7142857C300.250007 30.7142857 301.455352 31.2232092 302.473214 32.2410714 303.491077 33.2589337 304 34.4642787 304 35.8571429zM304 5L304 15.2857143C304 16.6785784 303.491077 17.8839235 302.473214 18.9017857 301.455352 19.9196479 300.250007 20.4285714 298.857143 20.4285714L165.142857 20.4285714C163.749993 20.4285714 162.544648 19.9196479 161.526786 18.9017857 160.508923 17.8839235 160 16.6785784 160 15.2857143L160 5C160 3.60713589 160.508923 2.4017908 161.526786 1.38392857 162.544648.366066339 163.749993-.142857143 165.142857-.142857143L298.857143-.142857143C300.250007-.142857143 301.455352.366066339 302.473214 1.38392857 303.491077 2.4017908 304 3.60713589 304 5z"/>
  </g>
</svg>
