<svg xmlns="http://www.w3.org/2000/svg" width="193" height="186" viewBox="0 0 193 186">
  <path fill="#28A197" fill-rule="evenodd" d="M85.7142857,98.9017857 L146.651786,159.839286 C138.764842,167.87504 129.557344,174.124978 119.029018,178.589286 C108.500691,183.053594 97.3958917,185.285714 85.7142857,185.285714 C70.1636127,185.285714 55.8222383,181.453907 42.6897321,173.790179 C29.557226,166.12645 19.1592645,155.728488 11.4955357,142.595982 C3.83180692,129.463476 0,115.122102 0,99.5714286 C0,84.0207556 3.83180692,69.6793811 11.4955357,56.546875 C19.1592645,43.4143689 29.557226,33.0164074 42.6897321,25.3526786 C55.8222383,17.6889498 70.1636127,13.8571429 85.7142857,13.8571429 L85.7142857,98.9017857 Z M106.584821,99.5714286 L192.857143,99.5714286 C192.857143,111.253035 190.625022,122.357834 186.160714,132.886161 C181.696406,143.414487 175.446469,152.621984 167.410714,160.508929 L106.584821,99.5714286 Z M185.714286,85.2857143 L100,85.2857143 L100,-0.428571429 C115.550673,-0.428571429 129.892047,3.40323549 143.024554,11.0669643 C156.15706,18.7306931 166.555021,29.1286546 174.21875,42.2611607 C181.882479,55.3936669 185.714286,69.7350413 185.714286,85.2857143 Z"/>
</svg>
