<?xml version="1.0" encoding="UTF-8" standalone="no"?>
<svg width="187px" height="193px" viewBox="0 0 187 193" version="1.1" xmlns="http://www.w3.org/2000/svg" xmlns:xlink="http://www.w3.org/1999/xlink">
    <!-- Generator: Sketch 42 (36781) - http://www.bohemiancoding.com/sketch -->
    <title>dyslexia/structuredContent</title>
    <desc>Created with Sketch.</desc>
    <defs></defs>
    <g id="Site-assets" stroke="none" stroke-width="1" fill="none" fill-rule="evenodd">
        <g id="Dyslexia" transform="translate(-509.000000, -1662.000000)">
            <g id="dyslexia/structuredContent" transform="translate(509.000000, 1662.000000)">
                <rect id="Rectangle-95" fill="#F47738" x="0" y="0" width="144" height="21" rx="5"></rect>
                <path d="M0,35.0033431 C0,32.240073 2.23037012,30 5.00179827,30 L181.998202,30 C184.760619,30 187,32.2473679 187,35.0033431 L187,45.9966569 C187,48.759927 184.76966,51 182.007674,51 L125.356554,51 L4.99148252,51 C2.23476285,51 0,48.7526321 0,45.9966569 L0,35.0033431 Z" id="Rectangle-95" fill="#F47738"></path>
                <path d="M0,77.0033431 C0,74.240073 2.23181675,72 5.00127338,72 L107.998727,72 C110.760854,72 113,74.2473679 113,77.0033431 L113,87.9966569 C113,90.759927 110.753746,93 107.995669,93 L75.750217,93 L4.99947816,93 C2.23834261,93 0,90.7526321 0,87.9966569 L0,77.0033431 Z" id="Rectangle-95" fill="#B58840"></path>
                <path d="M0,107.003343 C0,104.240073 2.2344402,102 4.99339079,102 L173.006609,102 C175.764383,102 178,104.247368 178,107.003343 L178,117.996657 C178,120.759927 175.75364,123 172.997262,123 L119.323351,123 L4.9941369,123 C2.23595125,123 0,120.752632 0,117.996657 L0,107.003343 Z" id="Rectangle-95" fill="#B58840"></path>
                <path d="M30,147.003343 C30,144.240073 32.2318167,142 35.0012734,142 L137.998727,142 C140.760854,142 143,144.247368 143,147.003343 L143,157.996657 C143,160.759927 140.753746,163 137.995669,163 L105.750217,163 L34.9994782,163 C32.2383426,163 30,160.752632 30,157.996657 L30,147.003343 Z" id="Rectangle-95" fill="#28A197"></path>
                <path d="M30,177.003343 C30,174.240073 32.234459,172 35.00184,172 L181.99816,172 C184.7606,172 187,174.247368 187,177.003343 L187,187.996657 C187,190.759927 184.759578,193 181.990572,193 L135.245877,193 L35.0054242,193 C32.2410047,193 30,190.752632 30,187.996657 L30,177.003343 Z" id="Rectangle-95" fill="#28A197"></path>
                <circle id="Oval-84" fill="#28A197" cx="11.25" cy="151.25" r="10.25"></circle>
                <circle id="Oval-84" fill="#28A197" cx="11.25" cy="181.25" r="10.25"></circle>
            </g>
        </g>
    </g>
</svg>