<?xml version="1.0" encoding="UTF-8"?>
<svg width="1504px" height="2245px" viewBox="0 0 1504 2245" version="1.1" xmlns="http://www.w3.org/2000/svg" xmlns:xlink="http://www.w3.org/1999/xlink">
    <!-- Generator: Sketch 56.3 (81716) - https://sketch.com -->
    <title>anxiety</title>
    <desc>Created with Sketch.</desc>
    <g id="Page-1" stroke="none" stroke-width="1" fill="none" fill-rule="evenodd">
        <g id="Anxiety" transform="translate(-42.000000, -51.000000)">
            <g id="anxiety" transform="translate(43.000000, 51.000000)">
                <rect id="background" fill="#C2CAE6" fill-rule="nonzero" x="1" y="0" width="1502" height="2146"></rect>
                <rect id="Rectangle-2" fill="#FFFFFF" fill-rule="nonzero" opacity="0.5" x="1" y="674" width="1502" height="294.440002"></rect>
                <rect id="Rectangle-2" fill="#FFFFFF" fill-rule="nonzero" opacity="0.5" x="1" y="1262" width="1502" height="294.440002"></rect>
                <rect id="Rectangle-2" fill="#FFFFFF" fill-rule="nonzero" opacity="0.5" x="0" y="1860" width="1502" height="294.440002"></rect>
                <path d="M77.980942,423 L1432.00037,423" id="Line" stroke="#035EA5" stroke-width="8" stroke-linecap="square"></path>
                <path d="M-16.757995,1271 L1511.758,1271" id="Line" stroke="#035EA5" stroke-width="8" stroke-linecap="square" transform="translate(747.500000, 1275.000000) rotate(90.000000) translate(-747.500000, -1275.000000) "></path>
                <text id="Co-dělat…" fill="#000000" font-family="HelveticaNeue-Bold, Helvetica Neue" font-size="100" font-weight="bold">
                    <tspan x="68" y="574">Co dělat…</tspan>
                </text>
                <text id="Co-nedělat…" fill="#000000" font-family="HelveticaNeue-Bold, Helvetica Neue" font-size="100" font-weight="bold">
                    <tspan x="811" y="574">Co nedělat…</tspan>
                </text>
                <g id="Footer" transform="translate(0.000000, 2165.000000)">
                    <g id="Group-3">
                        <text id="justice.cz-|-gov.cz" fill="#0B0C0C" font-family="HelveticaNeue-Bold, Helvetica Neue" font-size="18" font-weight="bold">
                            <tspan x="0" y="18">justice.cz | gov.cz</tspan>
                        </text>
                        <text id="Tyto-plakáty-jsou-př" fill="#000000" font-family="HelveticaNeue, Helvetica Neue" font-size="12" font-weight="normal">
                            <tspan x="0" y="41">Tyto plakáty jsou překladem anglické verze</tspan>
                        </text>
                        <text id="vytvořené-britskou-H" fill="#000000" font-family="HelveticaNeue, Helvetica Neue" font-size="12" font-weight="normal">
                            <tspan x="0" y="59">vytvořené britskou Home Office (GOV.UK)</tspan>
                        </text>
                        <text id="odkaz-na-repo:-https" fill="#000000" font-family="HelveticaNeue, Helvetica Neue" font-size="12" font-weight="normal">
                            <tspan x="0" y="77">odkaz na repo: https://github.com/UKHomeOffice/posters</tspan>
                        </text>
                    </g>
                    <text id="Pro-více-informací," fill="#000000" font-family="HelveticaNeue, Helvetica Neue" font-size="32" font-weight="normal">
                        <tspan x="1057" y="37">Pro více informací, kontaktujte:</tspan>
                    </text>
                    <text id="oi@msp.justice.cz" fill="#000000" font-family="HelveticaNeue, Helvetica Neue" font-size="32" font-weight="normal">
                        <tspan x="1243" y="73">oi@msp.justice.cz</tspan>
                    </text>
                    <g id="by-nc-sa" transform="translate(453.000000, 29.000000)" fill-rule="nonzero">
                        <g id="svg2759">
                            <g id="layer1">
                                <g id="g117" transform="translate(0.146431, 0.094636)">
                                    <path d="M4.26189853,1.35804824 L117.615995,1.55940545 C119.199833,1.55940545 120.614808,1.32457151 120.614808,4.7199306 L120.476027,42.0490072 L1.40090298,42.0490072 L1.40090298,4.58116464 C1.40090298,2.90677174 1.56296875,1.35804824 4.26189853,1.35804824 L4.26189853,1.35804824 Z" id="path3817_5_" fill="#AAB2AB"></path>
                                    <path d="M118.606864,0.905362183 L3.1012023,0.905362183 C1.86188808,0.905362183 0.853548391,1.91358904 0.853548391,3.15227769 L0.853548391,42.3983416 C0.853548391,42.6782981 1.08064718,42.9053622 1.361112,42.9053622 L120.34598,42.9053622 C120.626455,42.9053622 120.853548,42.6782882 120.853548,42.3983416 L120.853548,3.15227769 C120.853548,1.91358904 119.845204,0.905362183 118.606864,0.905362183 L118.606864,0.905362183 Z M3.1012023,1.92038574 L118.606874,1.92038574 C119.286213,1.92038574 119.838427,2.47301509 119.838427,3.15228763 L119.838427,30.3729124 L37.2818358,30.3729124 C34.2558527,35.8439181 28.425152,39.5585333 21.7346022,39.5585333 C15.0421047,39.5585333 9.21335173,35.8473165 6.18930657,30.3729124 L1.86868554,30.3729124 L1.86868554,3.15228763 C1.86868554,2.47301509 2.42185375,1.92038574 3.1012023,1.92038574 L3.1012023,1.92038574 Z" id="path120" fill="#000000"></path>
                                    <g id="g5908_5_" transform="translate(5.650292, 4.589011)">
                                        <path d="M29.7254794,15.8676048 C29.7302912,23.3972792 23.6288374,29.5043563 16.0987975,29.5091992 C8.56880966,29.5140711 2.46051998,23.4132653 2.45570248,15.884068 L2.45570248,15.8676048 C2.45083009,8.33793044 8.55229261,2.23085336 16.0823325,2.22598496 C23.6133266,2.2216503 29.7215643,8.3218923 29.7254794,15.8510896 L29.7254794,15.8676048 L29.7254794,15.8676048 Z" id="path5906_5_" fill="#FFFFFF"></path>
                                        <g id="g5706_5_" transform="translate(0.333377, 0.056641)" fill="#000000">
                                            <path d="M26.8416379,4.70639886 C29.8647265,7.72962628 31.3766959,11.431625 31.3766959,15.8109552 C31.3766959,20.1907625 29.8908814,23.8534683 26.9192524,26.7990638 C23.7651724,29.9008859 20.038513,31.4515454 15.7372701,31.4515454 C11.4884412,31.4515454 7.8258547,29.9139662 4.75140187,26.837394 C1.67493645,23.762253 0.137662326,20.086944 0.137662326,15.8109552 C0.137662326,11.5359206 1.67493645,7.8344076 4.75140187,4.70639886 C7.7482315,1.68221731 11.4108267,0.170365064 15.7372701,0.170365064 C20.1170904,0.170365064 23.817595,1.68221731 26.8416379,4.70639886 L26.8416379,4.70639886 Z M6.78649503,6.74031017 C4.23018657,9.32200748 2.95203234,12.346189 2.95203234,15.8148151 C2.95203234,19.2834413 4.21758191,22.2819479 6.74667714,24.8107601 C9.27767218,27.3405178 12.2891191,28.6054054 15.7838632,28.6054054 C19.2786072,28.6054054 22.316209,27.3278972 24.8986724,24.77243 C27.3501444,22.3988467 28.5758761,19.4139495 28.5758761,15.8148151 C28.5758761,12.2433247 27.3298104,9.21140594 24.8385205,6.72088052 C22.3482889,4.23092758 19.3300756,2.98542634 15.7838632,2.98542634 C12.2376507,2.98542634 9.23690872,4.23723355 6.78649503,6.74031017 L6.78649503,6.74031017 Z M13.5129509,14.2894142 C13.122831,13.4379011 12.5386098,13.01188 11.7582659,13.01188 C10.3801506,13.01188 9.6910929,13.9400535 9.6910929,15.7954462 C9.6910929,17.651264 10.3801506,18.5784833 11.7582659,18.5784833 C12.6686469,18.5784833 13.3188409,18.1267873 13.7089608,17.2213743 L15.6198377,18.2388547 C14.7086067,19.8569629 13.3421417,20.6667022 11.5205384,20.6667022 C10.1152011,20.6667022 8.98943924,20.2358671 8.14418094,19.3746652 C7.29797706,18.5129863 6.8748144,17.3247157 6.8748144,15.8109552 C6.8748144,14.3233467 7.31152729,13.1423796 8.18304458,12.2676291 C9.05445778,11.3928264 10.1414688,10.9556333 11.4429152,10.9556333 C13.3692509,10.9556333 14.7473662,11.7144999 15.5820324,13.2306891 L13.5129509,14.2894142 L13.5129509,14.2894142 Z M22.5035439,14.2894142 C22.1124698,13.4379011 21.5388406,13.01188 20.7838102,13.01188 C19.3776315,13.01188 18.6739566,13.9400535 18.6739566,15.7954462 C18.6739566,17.651264 19.3776315,18.5784833 20.7838102,18.5784833 C21.6960996,18.5784833 22.3346432,18.1267873 22.6986082,17.2213743 L24.6521571,18.2388547 C23.7428345,19.8569629 22.3783822,20.6667022 20.5596329,20.6667022 C19.1563082,20.6667022 18.0335045,20.2358671 17.1881507,19.3746652 C16.3448009,18.5129863 15.9216469,17.3247157 15.9216469,15.8109552 C15.9216469,14.3233467 16.3506305,13.1423796 17.2085889,12.2676291 C18.0654889,11.3928264 19.1563169,10.9556333 20.4820184,10.9556333 C22.4045457,10.9556333 23.7817068,11.7144999 24.612452,13.2306891 L22.5035439,14.2894142 L22.5035439,14.2894142 Z" id="path5708_5_"></path>
                                        </g>
                                    </g>
                                    <g id="g126" transform="translate(40.745013, 3.974678)">
                                        <ellipse id="circle128" fill="#FFFFFF" cx="11.8719936" cy="12.154501" rx="10.7389444" ry="10.7377427"></ellipse>
                                        <g id="g130" transform="translate(7.950246, 3.974678)" fill="#000000">
                                            <path d="M7.02973706,5.07266343 C7.02973706,4.65880005 6.69394846,4.32352599 6.28051578,4.32352599 L1.53773666,4.32352599 C1.12430397,4.32352599 0.788515376,4.65879011 0.788515376,5.07266343 L0.788515376,9.81539875 L2.11128731,9.81539875 L2.11128731,15.4314802 L5.70598128,15.4314802 L5.70598128,9.81539875 L7.02973706,9.81539875 L7.02973706,5.07266343 L7.02973706,5.07266343 L7.02973706,5.07266343 Z" id="path132"></path>
                                            <ellipse id="circle134" cx="3.90912622" cy="2.07709936" rx="1.62216828" ry="1.62198676"></ellipse>
                                        </g>
                                        <path d="M11.8443367,0.323141354 C8.63298375,0.323141354 5.91368147,1.44393111 3.68834787,3.68551061 C1.40478866,6.00423862 0.263491041,8.74895279 0.263491041,11.9177353 C0.263491041,15.0865179 1.40478866,17.8118257 3.68834787,20.0927048 C5.97190709,22.3721332 8.6912193,23.5128063 11.8443367,23.5128063 C15.0372451,23.5128063 17.8050836,22.3633889 20.1468685,20.0631034 C22.3527935,17.879743 23.4552641,15.1646203 23.4552641,11.9177254 C23.4552641,8.67083049 22.333375,5.92708018 20.0886329,3.68550067 C17.8438908,1.44392117 15.0964446,0.323141354 11.8443367,0.323141354 L11.8443367,0.323141354 Z M11.8744185,2.40945005 C14.5063873,2.40945005 16.7404463,3.33761695 18.5785532,5.19298689 C20.4370425,7.02846356 21.3658002,9.27052996 21.3658002,11.9177254 C21.3658002,14.5843272 20.4564511,16.7972791 18.6367887,18.5560941 C16.7210477,20.4497899 14.4665963,21.3963993 11.8744185,21.3963993 C9.28030275,21.3963993 7.04525991,20.4594981 5.16833593,18.5847218 C3.29141195,16.7104324 2.35294499,14.4882592 2.35294499,11.9177254 C2.35294499,9.34719157 3.30111125,7.10608903 5.19744377,5.19298689 C7.01712598,3.33762688 9.24244964,2.40945005 11.8744185,2.40945005 L11.8744185,2.40945005 Z" id="path136" fill="#000000"></path>
                                    </g>
                                    <g id="g138" transform="translate(45.713917, 32.791097)" fill="#FFFFFF">
                                        <path d="M3.54083105,0.861690404 C3.8562372,0.861690404 4.14447339,0.889841063 4.4045657,0.945148713 C4.66465801,1.00045636 4.88787111,1.09167523 5.07420501,1.21879538 C5.25956501,1.34494174 5.40319615,1.51379602 5.50607234,1.72339074 C5.60797462,1.93395927 5.65941271,2.19305862 5.65941271,2.50260657 C5.65941271,2.83641994 5.58371643,3.11394192 5.43134996,3.33616619 C5.27995739,3.55935432 5.05479647,3.74081826 4.7578349,3.88345953 C5.1673819,4.00087153 5.47308875,4.20660088 5.67494551,4.50061778 C5.87680226,4.79463468 5.97774058,5.14882821 5.97774058,5.56318843 C5.97774058,5.8970018 5.9127175,6.18616959 5.78267135,6.43071168 C5.65262519,6.67427997 5.4769645,6.87417648 5.25666317,7.02846356 C5.03733575,7.18372444 4.78597877,7.29822498 4.50453011,7.37197514 C4.22211748,7.4466991 3.93290739,7.48356424 3.63497191,7.48356424 L0.418769291,7.48356424 L0.418769291,0.861690404 L3.54083105,0.861690404 L3.54083105,0.861690404 L3.54083105,0.861690404 Z M3.35449715,3.53994795 C3.61458946,3.53994795 3.82809333,3.4778436 3.99501869,3.3546087 C4.16291796,3.23137379 4.24637567,3.03146734 4.24637567,2.75394536 C4.24637567,2.59965828 4.2182318,2.47253813 4.16291796,2.37452256 C4.10663021,2.27554313 4.0328718,2.19888152 3.93970485,2.14260008 C3.8465379,2.08729243 3.73978597,2.04846975 3.61943911,2.02712573 C3.49812829,2.00578171 3.37293179,1.99509976 3.24288563,1.99509976 L1.8783749,1.99509976 L1.8783749,3.53994795 L3.35449715,3.53994795 L3.35449715,3.53994795 Z M3.43990267,6.35016482 C3.58255991,6.35016482 3.71842962,6.33658136 3.84847577,6.30844063 C3.97852193,6.28029991 4.09303529,6.23371668 4.1929997,6.16967467 C4.29199021,6.10465887 4.37059827,6.01635145 4.42979779,5.90476236 C4.48802341,5.79413712 4.51811509,5.65149585 4.51811509,5.47876626 C4.51811509,5.13912999 4.42203636,4.8965355 4.22987891,4.75098278 C4.03772145,4.60639391 3.7834527,4.53361755 3.46804655,4.53361755 L1.87838484,4.53361755 L1.87838484,6.35016482 L3.43990267,6.35016482 L3.43990267,6.35016482 Z" id="path140"></path>
                                        <polygon id="path142" points="6.23491117 0.86170034 7.86727564 0.86170034 9.41812027 3.47687974 10.9602296 0.86170034 12.5838587 0.86170034 10.1246388 4.94215487 10.1246388 7.48358411 8.66502324 7.48358411 8.66502324 4.90527979"></polygon>
                                    </g>
                                    <g id="g144" transform="translate(97.390518, 32.791097)" fill="#FFFFFF">
                                        <path d="M1.90361694,5.84654326 C1.98416287,6.00083033 2.08995084,6.12601283 2.22290877,6.22208081 C2.3558667,6.31814878 2.51114495,6.38898749 2.69068139,6.43556078 C2.86925386,6.48214402 3.05363995,6.50542569 3.24579741,6.50542569 C3.37486966,6.50542569 3.51365115,6.49475368 3.66214187,6.47243586 C3.8096587,6.45109184 3.94844019,6.40935772 4.07848634,6.34725337 C4.20755859,6.28612281 4.31528443,6.20072685 4.40262782,6.09203927 C4.48803335,5.98432548 4.53170007,5.84653332 4.53170007,5.67962664 C4.53170007,5.50011029 4.47443843,5.35552142 4.35992506,5.24392239 C4.24637567,5.13233329 4.09595701,5.04014063 3.91156098,4.96542661 C3.72620099,4.89167645 3.51559896,4.82666065 3.28171265,4.77037921 C3.04685243,4.71507156 2.80908044,4.65296721 2.5684066,4.58503995 C2.32093531,4.5229356 2.08025154,4.44724779 1.84539132,4.35796657 C1.61150501,4.2686953 1.40090298,4.15224716 1.21554299,4.00959595 C1.03114696,3.86791854 0.880728296,3.69033984 0.767178902,3.47685987 C0.65266554,3.26337989 0.595403891,3.00525434 0.595403891,2.70249315 C0.595403891,2.36189302 0.668188396,2.06689239 0.812793441,1.81653733 C0.958362452,1.56618228 1.14858204,1.35755141 1.38246835,1.18967093 C1.61732856,1.02276425 1.88324443,0.899529342 2.18020601,0.818982484 C2.47620362,0.738445563 2.77317514,0.698659032 3.06917275,0.698659032 C3.41563455,0.698659032 3.7475474,0.737471767 4.06586532,0.815107173 C4.38321929,0.891768783 4.66659588,1.01791514 4.91310321,1.19064472 C5.1605745,1.36433817 5.35661764,1.58558864 5.50218665,1.85438621 C5.6467917,2.12414763 5.7195762,2.45020044 5.7195762,2.83349855 L4.30653916,2.83349855 C4.29391814,2.63553969 4.25316319,2.47154446 4.18231656,2.34248665 C4.11146993,2.21245505 4.01732907,2.11056417 3.89990393,2.03585015 C3.78344276,1.96209999 3.64952086,1.90873 3.49909226,1.87865162 C3.34866366,1.84759944 3.18368611,1.83206839 3.00511364,1.83206839 C2.88865246,1.83206839 2.77122733,1.84468799 2.65476615,1.86894347 C2.53734101,1.89417274 2.43155305,1.93687072 2.33644823,1.99897507 C2.2403695,2.06107942 2.16273534,2.13774103 2.10062404,2.23089756 C2.03948665,2.32405408 2.008431,2.44146608 2.008431,2.58314349 C2.008431,2.7131751 2.03268919,2.81894129 2.08218941,2.89851435 C2.13167969,2.97905127 2.22873232,3.05377522 2.37431127,3.12170248 C2.51989022,3.18962973 2.71980911,3.25755699 2.97601573,3.32548424 C3.23222236,3.39341149 3.56801096,3.48074512 3.98144365,3.58554745 C4.10469234,3.60980292 4.27647729,3.65541236 4.49483081,3.72042816 C4.71415823,3.78544396 4.93252168,3.88830864 5.14797336,4.03094991 C5.36438901,4.17359118 5.55072291,4.36378948 5.70891293,4.60153487 C5.86612906,4.83928026 5.94473712,5.1439791 5.94473712,5.51563141 C5.94473712,5.8183926 5.8855376,6.09979983 5.76811246,6.35986303 C5.65068732,6.61992624 5.47599059,6.84407823 5.24405209,7.03233887 C5.01210365,7.22156337 4.72484137,7.36808989 4.38129135,7.47289223 C4.0387053,7.57866836 3.64177931,7.63106455 3.18952954,7.63106455 C2.82462317,7.63106455 2.47136391,7.58545512 2.12781388,7.49618384 C1.78426386,7.40593877 1.48146879,7.26523515 1.21943861,7.0730992 C0.956434518,6.88096325 0.747780301,6.6354573 0.592502051,6.33851901 C0.438197706,6.04158072 0.36346539,5.68933479 0.37026285,5.28080741 L1.78329989,5.28080741 C1.78327008,5.50303168 1.82306106,5.69225618 1.90361694,5.84654326 L1.90361694,5.84654326 Z" id="path146"></path>
                                        <path d="M10.1090961,0.86170034 L12.5857866,7.48357418 L11.073769,7.48357418 L10.5729929,6.00859089 L8.09630236,6.00859089 L7.57611774,7.48357418 L6.11067864,7.48357418 L8.61551308,0.86170034 L10.1090961,0.86170034 L10.1090961,0.86170034 Z M10.1925637,4.92176477 L9.35794684,2.49387222 L9.3385383,2.49387222 L8.47674153,4.92176477 L10.1925637,4.92176477 L10.1925637,4.92176477 Z" id="path148"></path>
                                    </g>
                                    <g id="g150" transform="translate(71.552218, 32.791097)" fill="#FFFFFF">
                                        <polygon id="path152" points="1.81918532 0.86170034 4.58604995 5.30409902 4.6015728 5.30409902 4.6015728 0.86170034 5.9680214 0.86170034 5.9680214 7.48357418 4.51131763 7.48357418 1.75512621 3.04990985 1.73669157 3.04990985 1.73669157 7.48357418 0.370242975 7.48357418 0.370242975 0.86170034"></polygon>
                                        <path d="M11.496901,2.62585141 C11.4105315,2.48612159 11.3018318,2.36385055 11.1717856,2.25904822 C11.0417395,2.15424588 10.8951965,2.07176137 10.731183,2.01354227 C10.5671694,1.95434937 10.3953944,1.92523485 10.2168219,1.92523485 C9.88879473,1.92523485 9.61026779,1.988313 9.38123113,2.11543315 C9.15219446,2.2415795 8.96683447,2.41139764 8.8251412,2.62488755 C8.68248397,2.83836753 8.57863388,3.08096203 8.5136108,3.35267104 C8.44858772,3.62438006 8.41655816,3.90578729 8.41655816,4.19592887 C8.41655816,4.47442465 8.44858772,4.74515987 8.5136108,5.00717067 C8.57863388,5.27014533 8.68247403,5.50691692 8.8251412,5.71652159 C8.96683447,5.92709011 9.15219446,6.09497059 9.38123113,6.22209074 C9.61026779,6.3492109 9.88879473,6.41228904 10.2168219,6.41228904 C10.6613102,6.41228904 11.0097099,6.27643453 11.260093,6.00376166 C11.5104761,5.73205264 11.6638164,5.37301001 11.7191303,4.92760755 L13.1292555,4.92760755 C13.0923763,5.34195783 12.9962976,5.71653153 12.8419933,6.05033495 C12.6876889,6.38511218 12.4829104,6.6694408 12.2296156,6.90523859 C11.9763207,7.14103639 11.6793492,7.32056268 11.338711,7.44477138 C10.9990367,7.56898008 10.624431,7.63108443 10.2168219,7.63108443 C9.70925829,7.63108443 9.25312284,7.54277701 8.84746152,7.36617211 C8.44276416,7.19053107 8.10018805,6.94696278 7.82165116,6.63838862 C7.54312422,6.32884067 7.32864645,5.96494893 7.18015572,5.54767725 C7.03167493,5.12944172 6.95694261,4.68015401 6.95694261,4.19690267 C6.95694261,3.70200553 7.03167493,3.2430196 7.18015572,2.81896116 C7.32863651,2.39490272 7.54311428,2.02518808 7.82165116,1.70981722 C8.10018805,1.39444636 8.44276416,1.14699282 8.84746152,0.967476469 C9.25312284,0.787960119 9.70925829,0.698678906 10.2168219,0.698678906 C10.5817283,0.698678906 10.9262522,0.751075104 11.2503937,0.856851233 C11.5755091,0.961653565 11.866657,1.11497678 12.1228637,1.31681095 C12.3800442,1.51768126 12.5916102,1.76706252 12.7585355,2.06400081 C12.9254609,2.3609391 13.030275,2.70153923 13.0739417,3.08483734 L11.6638164,3.08483734 C11.6385943,2.91793065 11.5832705,2.76461737 11.496901,2.62585141 L11.496901,2.62585141 Z" id="path154"></path>
                                    </g>
                                    <g id="g6332_1_" transform="translate(92.715436, 3.537181)">
                                        <path d="M22.7179119,12.3489227 C22.7227591,18.1940131 17.9867358,22.9362572 12.1405689,22.9406186 C6.29432742,22.9440263 1.55254027,18.2100111 1.54761251,12.3634798 L1.54761251,12.3489227 C1.54374538,6.50383223 6.27977486,1.76158822 12.1250288,1.75722552 C17.9712702,1.75286883 22.7130574,6.4883249 22.7179119,12.3329247 L22.7179119,12.3489227 L22.7179119,12.3489227 Z" id="path6334_1_" fill="#FFFFFF"></path>
                                        <g id="g6336_1_" transform="translate(0.029751, 0.167916)" fill="#000000">
                                            <path d="M12.0272974,0.585918803 C8.8150012,0.585918803 6.09568465,1.70719145 3.87131046,3.94780532 C1.58780057,6.26703645 0.44551458,9.01174729 0.44551458,12.1810001 C0.44551458,15.3502529 1.58780057,18.0746123 3.87131046,20.3554819 C6.15391353,22.6358981 8.87323008,23.7760814 12.0272974,23.7760814 C15.2202585,23.7760814 17.9871147,22.6256944 20.3288534,20.3268582 C22.5348056,18.1425353 23.6382723,15.4273858 23.6382723,12.1809939 C23.6382723,8.93456463 22.5163835,6.18985378 20.2706246,3.94779911 C18.0259339,1.70719145 15.2784812,0.585918803 12.0272974,0.585918803 L12.0272974,0.585918803 Z M12.0564087,2.67320447 C14.6883851,2.67320447 16.922461,3.60040257 18.7615246,5.45627686 C20.6190848,7.29171898 21.5477904,9.53233284 21.5477904,12.1810001 C21.5477904,14.8475905 20.6384944,17.0600775 18.8187659,18.8198647 C16.9040389,20.7130758 14.6485783,21.6596814 12.0564087,21.6596814 C9.46325165,21.6596814 7.22826272,20.7222858 5.35129289,18.8479916 C3.47439758,16.9732377 2.53590956,14.7515407 2.53590956,12.1810001 C2.53590956,9.61045949 3.48311173,7.36890165 5.38040422,5.45627686 C7.19915139,3.60040257 9.4244324,2.67320447 12.0564087,2.67320447 L12.0564087,2.67320447 Z" id="path6338_1_"></path>
                                            <path d="M6.88760981,10.5449362 C7.34957133,7.62699284 9.40312839,6.06761477 11.9778572,6.06761477 C15.6792573,6.06761477 17.9356248,8.75361263 17.9356248,12.3352723 C17.9356248,15.8305827 15.5346696,18.5447509 11.9195476,18.5447509 C9.43223352,18.5447509 7.20497738,17.0149342 6.80025718,14.0106479 L9.72140278,14.0106479 C9.80874299,15.5700694 10.8210062,16.1192725 12.2670203,16.1192725 C13.9149441,16.1192725 14.9853555,14.5885118 14.9853555,12.2489231 C14.9853555,9.79289577 14.0605194,8.49403715 12.3242678,8.49403715 C11.0519528,8.49403715 9.95333694,8.95640655 9.72140899,10.5449362 L10.5705817,10.5390984 L8.27152546,12.8389221 L5.97239471,10.5390984 L6.88760981,10.5449362 L6.88760981,10.5449362 Z" id="path6340_1_"></path>
                                        </g>
                                    </g>
                                    <g id="g6361_1_" transform="translate(66.419849, 3.823348)">
                                        <path d="M23.0635505,12.0627441 C23.0684133,18.0208878 18.2412235,22.8519248 12.2843504,22.857249 C6.32650861,22.8611439 1.49249202,18.0354286 1.48860211,12.0782877 L1.48860211,12.0627441 C1.48380759,6.10556892 6.31099744,1.27356327 12.2678705,1.26823916 C18.2257123,1.26434421 23.0597289,6.09054949 23.0635505,12.0472346 L23.0635505,12.0627441 L23.0635505,12.0627441 Z" id="path6363_1_" fill="#FFFFFF"></path>
                                        <path d="M12.2610552,0.46767631 C15.5122023,0.46767631 18.2596636,1.5889485 20.5043965,3.82956701 C22.7501094,6.07162136 23.8719857,8.81633659 23.8719857,12.0627327 C23.8719857,15.3091287 22.7685382,18.0242495 20.5635919,20.2086079 C18.2208458,22.5083924 15.4539756,23.657789 12.2610552,23.657789 C9.10694116,23.657789 6.38766436,22.5176001 4.10508247,20.2372223 C1.82153183,17.9577903 0.679266449,15.2319918 0.679266449,12.0627213 C0.679266449,8.89345076 1.82153183,6.14873554 4.10508247,3.82955561 C6.33040635,1.5889485 9.04872581,0.46767631 12.2610552,0.46767631 L12.2610552,0.46767631 Z M3.28891649,8.94783067 C2.94242803,9.92596245 2.76970806,10.9642859 2.76970806,12.0627441 C2.76970806,14.6333 3.70816274,16.8549676 5.5850607,18.7297411 C7.46195865,20.6040245 9.69702689,21.5414398 12.290197,21.5414398 C14.8832988,21.5414398 17.1377759,20.5948169 19.0534917,18.7006367 C19.6940087,18.0810567 20.2229501,17.405171 20.6373299,16.6725351 L16.2662438,14.7259806 C15.9702664,16.1970642 14.6591674,17.189771 13.0743605,17.30669 L13.0743605,19.0946289 L11.7428269,19.0946289 L11.7428269,17.30669 C10.4423839,17.2916706 9.1846452,16.7594039 8.22289527,15.918088 L9.82029572,14.3082057 C10.5898484,15.031634 11.3585007,15.3567169 12.4085994,15.3567169 C13.0898831,15.3567169 13.8439246,15.0908114 13.8439246,14.2039016 C13.8439246,13.890465 13.7216359,13.6716463 13.5304871,13.5076405 L12.4250907,13.0151673 L11.0479922,12.4023678 C10.3667085,12.0991531 9.79018512,11.8429453 9.21178121,11.5848345 L3.28891649,8.94783067 L3.28891649,8.94783067 Z M12.290197,2.55497813 C9.65820906,2.55497813 7.43385391,3.48216009 5.61420256,5.33801683 C5.11920114,5.83727041 4.68834146,6.35933802 4.32245548,6.90421966 L8.75565461,8.8774855 C9.15646067,7.64802328 10.3249503,6.9017924 11.7428155,6.81880948 L11.7428155,5.03090483 L13.0743491,5.03090483 L13.0743491,6.81880948 C13.991446,6.86345753 14.9968802,7.11479936 15.9886838,7.88235145 L14.4650213,9.44806427 C13.9021285,9.04973032 13.1927515,8.76880545 12.4823145,8.76880545 C11.9058595,8.76880545 11.0925541,8.9454034 11.0925541,9.66882025 C11.0925541,9.77992756 11.1294915,9.8774399 11.196414,9.96334009 L12.6793213,10.6236822 L13.6828066,11.0710173 C14.3252725,11.3572981 14.9376848,11.6289697 15.5451622,11.8997069 L21.4874928,14.5449953 C21.6835194,13.7667314 21.7815327,12.9390104 21.7815327,12.0627441 C21.7815327,9.41408253 20.8528224,7.17348681 18.9962337,5.33801683 C17.1571848,3.48214869 14.9221166,2.55497813 12.290197,2.55497813 L12.290197,2.55497813 Z" id="path6365_1_" fill="#000000"></path>
                                    </g>
                                </g>
                            </g>
                        </g>
                    </g>
                    <text id="This-work-is-licensed-under-the-Creative-Commons-Attribution-" fill="#000000" font-family="HelveticaNeue, Helvetica Neue" font-size="12" font-weight="normal">
                        <tspan x="598" y="33">This work is licensed under the Creative Commons Attribution-</tspan>
                    </text>
                    <text id="NonCommercial-ShareAlike-4.0-International-License.-To-view-a-copy-of" fill="#000000" font-family="HelveticaNeue, Helvetica Neue" font-size="12" font-weight="normal">
                        <tspan x="598" y="51">NonCommercial-ShareAlike 4.0 International License. To view a copy of</tspan>
                    </text>
                    <text id="this-license,-visit-http://creativecommons.org/licenses/by-nc-sa/4.0/." fill="#000000" font-family="HelveticaNeue, Helvetica Neue" font-size="12" font-weight="normal">
                        <tspan x="598" y="69">this license, visit http://creativecommons.org/licenses/by-nc-sa/4.0/.</tspan>
                    </text>
                </g>
                <g id="Header" transform="translate(67.000000, 21.000000)">
                    <g id="Icon" transform="translate(1031.000000, 40.000000)" fill-rule="nonzero">
                        <path d="M203.065089,184 C207.621302,184 212.047337,183.349112 216.343195,182.307692 L216.994083,174.627219 C218.16568,159.39645 231.573964,147.940828 246.804734,149.242604 C249.147929,149.372781 251.491124,149.893491 253.573964,150.674556 C256.43787,144.035503 258,136.745562 258,129.065089 C258,98.7337278 233.39645,74 202.934911,74 C172.60355,74 148,98.6035503 148,129.065089 C148,159.526627 172.733728,184 203.065089,184" id="Shape" fill="#1A2B68"></path>
                        <path d="M298.79251,69.9566126 C290.487978,69.3082426 267.024378,70.6049826 269.133466,83.9614043 C270.978918,95.50239 294.178881,93.8166281 301.692506,90.7044521 C312.237943,86.4252102 317.378844,75.2732465 311.578854,65.1586747 C303.933411,51.802253 287.324346,52.191275 274.669821,57.2485609 C270.583464,58.9343228 272.297097,65.6773707 276.515273,63.9916087 C284.028897,61.0091068 293.783427,58.5453008 301.033416,63.7322607 C308.54704,68.9192206 308.942494,79.0337924 300.637962,83.5723823 C297.342512,85.3878182 293.387973,85.7768402 289.69707,85.7768402 C286.665257,85.7768402 280.60163,86.0361882 277.96527,84.2207523 C273.088005,80.9789023 282.710717,77.9964004 285.478895,77.3480304 C289.828888,76.4403124 294.178881,76.4403124 298.660692,76.6996604 C303.274321,77.2183564 303.274321,70.3456346 298.79251,69.9566126" id="Shape" fill="#000000"></path>
                        <path d="M119.293252,335 L146.049397,267.035886 L224.621101,327.404781 C229.580776,331.202391 235.454076,333.166671 241.588412,333.166671 C245.373428,333.166671 249.288961,332.380959 252.943459,330.809534 C262.210221,326.619069 268.605593,317.714329 269.388699,307.50007 L278.916497,188.0718 C280.091157,172.75041 268.73611,159.262349 253.46553,158.083781 C238.19495,156.905212 224.751618,168.29804 223.576958,183.61943 L218.095212,251.9764 L136.391081,189.119416 C131.822958,185.321807 126.732765,182.048006 120.859465,179.690869 C92.2760709,168.428992 60.0381791,182.440862 48.6831322,211.119361 L0,335 L119.293252,335 Z" id="Shape" fill="#1A2B68"></path>
                        <path d="M3.31323407,79.3914503 C2.07306803,88.528473 4.41560389,98.6494828 12.1321926,104.272266 C18.8842077,109.192201 28.5299436,109.61391 34.5929776,103.288279 C39.5536418,98.0872045 40.931604,88.9501818 35.5575512,83.4679681 C30.4590908,78.2668937 21.7779285,77.9857545 16.9550605,83.4679681 C13.9235435,86.8416381 18.8842077,91.7615734 21.7779285,88.3879035 C24.8094455,85.0142335 30.8724795,86.1387902 31.9748493,90.7775863 C33.2150153,95.6975216 28.6677398,100.336318 24.2582606,100.898596 C12.6833775,102.163722 9.1006756,88.3879035 10.2030454,79.2508807 C10.7542303,74.8932237 3.86441898,74.8932237 3.31323407,79.3914503" id="Shape" fill="#000000"></path>
                        <path d="M79.4408638,127.03335 C88.9906875,124.932852 94.6159261,116.005735 98.4096917,107.603743 C102.072638,99.464313 105.604764,90.5371962 97.4939551,84.1044209 C81.2723369,71.5014325 60.995314,81.4787983 51.9687684,97.6263772 C42.2881252,114.955486 42.5497642,143.968616 66.6205526,148.432174 C89.383146,152.764451 113.715573,131.496908 122.742119,112.198582 C127.84408,101.302249 130.32965,87.255168 125.09687,75.9649909 C119.733271,64.2809705 107.828696,60.3425366 96.0549406,58.1107574 C88.9906875,56.7979461 85.981839,67.5629987 93.0460921,68.87581 C100.764443,70.3199024 110.183447,71.8952759 114.369671,79.5095814 C119.471632,88.6992604 115.808685,101.564811 111.099183,110.098084 C103.904111,123.094916 80.0949614,146.200395 63.7425236,135.435342 C48.0441833,125.195414 59.687119,97.3638149 73.5539862,91.0623207 C79.1792248,88.4366981 92.5228141,88.4366981 90.5605215,97.2325338 C89.121507,103.927871 83.6270879,114.561643 76.4320153,116.137016 C69.4985817,117.71239 72.3766107,128.477442 79.4408638,127.03335" id="Shape" fill="#000000"></path>
                        <path d="M167.304775,6.36694663 C174.007299,12.8235159 179.54977,24.6825207 171.30051,32.5885238 C167.691459,36.0144585 161.504515,36.5415254 158.024358,32.5885238 C153.770834,27.8449219 158.153253,20.9930525 163.953514,21.7836528 C168.593722,22.3107197 168.593722,14.8000167 163.953514,14.2729498 C155.962043,13.3505828 148.872836,20.3342189 149.001731,28.5037555 C149.001731,36.8050589 156.864306,42.866328 164.597987,42.9980947 C173.105036,43.1298614 180.065349,36.4097587 182.256558,28.2402221 C184.963346,17.962418 179.936454,7.94814727 172.718352,1.09627785 C169.109301,-2.32965686 163.824619,3.07277864 167.304775,6.36694663" id="Shape" fill="#000000"></path>
                    </g>
                    <g id="Title" fill="#000000" font-family="HelveticaNeue-Bold, Helvetica Neue" font-weight="bold">
                        <text id="uživatele,-kteří-maj" font-size="80">
                            <tspan x="0" y="175">uživatele, kteří mají</tspan>
                        </text>
                        <text id="Tvoření-nového-pro" font-size="80">
                            <tspan x="1" y="78">Tvoření nového pro</tspan>
                        </text>
                        <text id="úzkost" font-size="123">
                            <tspan x="1.312" y="311">úzkost</tspan>
                        </text>
                    </g>
                </g>
                <g id="Dont-5" transform="translate(821.000000, 1891.000000)">
                    <path d="M606,53.5 C606,73.089939 590.089939,89 570.5,89 C550.910061,89 535,73.089939 535,53.5 C535,33.910061 550.910061,18 570.5,18 C590.089939,18 606,33.910061 606,53.5" id="Shape" fill="#035EA5" fill-rule="nonzero"></path>
                    <polyline id="Shape" stroke="#3C3C3B" stroke-width="16.51" stroke-linecap="round" stroke-linejoin="round" points="404 125 434.053667 204 524 204"></polyline>
                    <path d="M558.20435,166.332928 L560.237061,161.934422 L565.800271,213 L624,213 L613.72946,118.70033 C612.017703,102.822797 600.035406,92.0947347 581.84799,93.0602604 C570.828556,93.5966635 561.306909,102.179114 559.809122,105.397532 L538.412163,151.420921 L482.13816,170.945995 C475.826057,173.091607 472.509528,180.064848 474.649224,186.394405 C476.360981,191.436594 481.068312,194.547732 486.096597,194.547732 C487.380415,194.547732 488.771217,194.333171 490.055035,193.904049 L551.250338,172.662485 C554.352897,171.589678 556.813548,169.229505 558.20435,166.332928" id="Shape" fill="#035EA5" fill-rule="nonzero"></path>
                    <text id="?" fill="#3C3C3B" font-family="Helvetica" font-size="44.2900009" font-weight="normal">
                        <tspan x="459" y="125">?</tspan>
                    </text>
                    <text id="?" fill="#3C3C3B" font-family="Helvetica" font-size="27" font-weight="normal">
                        <tspan x="426" y="117">?</tspan>
                    </text>
                    <text id="?" fill="#3C3C3B" font-family="Helvetica" font-size="27" font-weight="normal">
                        <tspan x="446" y="156">?</tspan>
                    </text>
                    <text id="?" fill="#3C3C3B" font-family="Helvetica" font-size="18.1200008" font-weight="normal">
                        <tspan x="429" y="151">?</tspan>
                    </text>
                    <text id="?" fill="#3C3C3B" font-family="Helvetica" font-size="44.2900009" font-weight="normal">
                        <tspan x="436" y="77">?</tspan>
                    </text>
                    <text id="?" fill="#3C3C3B" font-family="Helvetica" font-size="80.0199966" font-weight="normal">
                        <tspan x="474" y="78">?</tspan>
                    </text>
                    <text id="uživatelé-si-nejsou" fill="#000000" font-family="HelveticaNeue-Bold, Helvetica Neue" font-size="34" font-weight="bold">
                        <tspan x="0" y="86">uživatelé si nejsou </tspan>
                        <tspan x="0" y="126.986237">jisti, jaké odpovědi </tspan>
                        <tspan x="0" y="167.972473">nám dali</tspan>
                    </text>
                </g>
                <g id="Dont-4" transform="translate(821.000000, 1594.000000)">
                    <path d="M406,57 L406,171 C406,197.752874 406,228 448.672726,228 L505.497122,228 C537.610526,228 545.448374,210.856322 547.407835,190.873563 L601.837333,122.954023 C606.409411,117.275862 605.973975,109.086207 600.857602,103.954023 C599.115858,102.206897 589.645126,93.4712644 576.037751,93.4712644 C569.941648,93.4712644 561.01521,95.3275862 552.30649,103.954023 L533.90932,122.408046 L533.90932,28.5 C533.90932,20.637931 527.486639,14.1954023 519.648792,14.1954023 L505.497122,14.1954023 C505.497122,6.33333333 499.074441,0 491.345453,0 L477.084924,0 C469.247077,0 462.933255,6.44252874 462.933255,14.1954023 L448.781585,14.1954023 C440.943738,14.1954023 434.521057,20.637931 434.521057,28.5 L434.521057,42.6954023 L420.369387,42.6954023 C412.313822,42.6954023 406,49.137931 406,57" id="Shape" fill="#860A3D" fill-rule="nonzero"></path>
                    <path d="M420.109195,56.6739606 L434.413793,56.6739606 L434.413793,70.9349015 L434.413793,113.5 L448.609195,113.5 L448.609195,42.4130197 L448.609195,28.2609409 L462.804598,28.2609409 L462.804598,42.4130197 L462.804598,113.5 L477,113.5 L477,28.2609409 L477,14 L491.304598,14 L491.304598,28.2609409 L491.304598,113.5 L505.609195,113.5 L505.609195,56.6739606 L505.609195,42.4130197 L505.609195,28.2609409 L519.804598,28.2609409 L519.804598,42.4130197 L519.804598,56.6739606 L519.804598,141.91302 L534,141.91302 L534,142.021882 C534,142.021882 548.195402,127.869803 562.5,113.608862 C567.304598,108.92779 572,107.294858 576.258621,107.294858 C584.666667,107.294858 591,113.608862 591,113.608862 L534,184.369256 L534,184.58698 L533.781609,184.58698 C533.017241,203.420131 528.758621,213 505.5,213 L448.5,213 C420,213 420,198.847921 420,170.326039 L420,70.9349015 L420,56.6739606 L420.109195,56.6739606 Z" id="Shape" fill="#BE8190" fill-rule="nonzero"></path>
                    <polygon id="Shape" fill="#FFFFFF" fill-rule="nonzero" points="455.887661 191 475.554328 171.369485 495.220994 191 505 181.130515 485.333333 161.5 505 141.869485 495.220994 132 475.554328 151.738971 455.887661 132 446 141.869485 465.666667 161.5 446 181.130515"></polygon>
                    <text id="pomoc-a-podpora-jsou" fill="#000000" font-family="HelveticaNeue-Bold, Helvetica Neue" font-size="34" font-weight="bold">
                        <tspan x="0" y="81">pomoc a podpora </tspan>
                        <tspan x="0" y="121.986237">jsou těžko </tspan>
                        <tspan x="0" y="162.972473">dostupné</tspan>
                    </text>
                </g>
                <g id="Dont-3" transform="translate(821.000000, 1299.000000)">
                    <path d="M467.791615,0 L400.208385,0 C393.993835,0 389,4.01565558 389,8.81213307 L389,48.1878669 C389,53.0958904 394.104809,57 400.208385,57 L467.791615,57 C474.006165,57 479,52.9843444 479,48.1878669 L479,8.81213307 C479,4.01565558 473.895191,0 467.791615,0" id="Shape" fill="#FFFFFF" fill-rule="nonzero"></path>
                    <path d="M467.791615,0 L400.208385,0 C393.993835,0 389,4.01565558 389,8.81213307 L389,48.1878669 C389,53.0958904 394.104809,57 400.208385,57 L467.791615,57 C474.006165,57 479,52.9843444 479,48.1878669 L479,8.81213307 C479,4.01565558 473.895191,0 467.791615,0 Z" id="Shape" stroke="#9A9C00" stroke-width="9.269"></path>
                    <path d="M575.790061,0 L508.208164,0 C501.993736,0 497,4.01565558 497,8.81213307 L497,48.1878669 C497,53.0958904 502.104708,57 508.208164,57 L575.790061,57 C582.004488,57 586.998224,52.9843444 586.998224,48.1878669 L586.998224,8.81213307 C587.109196,4.01565558 582.004488,0 575.790061,0" id="Shape" fill="#FFFFFF" fill-rule="nonzero"></path>
                    <path d="M575.790061,0 L508.208164,0 C501.993736,0 497,4.01565558 497,8.81213307 L497,48.1878669 C497,53.0958904 502.104708,57 508.208164,57 L575.790061,57 C582.004488,57 586.998224,52.9843444 586.998224,48.1878669 L586.998224,8.81213307 C587.109196,4.01565558 582.004488,0 575.790061,0 Z" id="Shape" stroke="#9A9C00" stroke-width="9.269"></path>
                    <path d="M467.791615,76 L400.208385,76 C393.993835,76 389,80.0156556 389,84.8121331 L389,124.187867 C389,129.09589 394.104809,133 400.208385,133 L467.791615,133 C474.006165,133 479,128.984344 479,124.187867 L479,84.8121331 C479,79.9041096 473.895191,76 467.791615,76" id="Shape" fill="#FFFFFF" fill-rule="nonzero"></path>
                    <path d="M467.791615,76 L400.208385,76 C393.993835,76 389,80.0156556 389,84.8121331 L389,124.187867 C389,129.09589 394.104809,133 400.208385,133 L467.791615,133 C474.006165,133 479,128.984344 479,124.187867 L479,84.8121331 C479,79.9041096 473.895191,76 467.791615,76 Z" id="Shape" stroke="#9A9C00" stroke-width="9.269"></path>
                    <path d="M575.790061,76 L508.208164,76 C501.993736,76 497,80.0156556 497,84.8121331 L497,124.187867 C497,129.09589 502.104708,133 508.208164,133 L575.790061,133 C582.004488,133 586.998224,128.984344 586.998224,124.187867 L586.998224,84.8121331 C587.109196,79.9041096 582.004488,76 575.790061,76" id="Shape" fill="#9A9C00" fill-rule="nonzero"></path>
                    <path d="M575.790061,76 L508.208164,76 C501.993736,76 497,80.0156556 497,84.8121331 L497,124.187867 C497,129.09589 502.104708,133 508.208164,133 L575.790061,133 C582.004488,133 586.998224,128.984344 586.998224,124.187867 L586.998224,84.8121331 C587.109196,79.9041096 582.004488,76 575.790061,76 Z" id="Shape" stroke="#9A9C00" stroke-width="9.269"></path>
                    <text id="1" fill="#000000" font-family="Helvetica-Bold, Helvetica" font-size="39.8300018" font-weight="bold">
                        <tspan x="423" y="43">1</tspan>
                    </text>
                    <text id="3" fill="#000000" font-family="Helvetica-Bold, Helvetica" font-size="39.8300018" font-weight="bold">
                        <tspan x="423" y="119">3</tspan>
                    </text>
                    <text id="2" fill="#000000" font-family="Helvetica-Bold, Helvetica" font-size="39.8300018" font-weight="bold">
                        <tspan x="531" y="43">2</tspan>
                    </text>
                    <text id="4" fill="#FFFFFF" font-family="Helvetica-Bold, Helvetica" font-size="39.8300018" font-weight="bold">
                        <tspan x="531" y="116">4</tspan>
                    </text>
                    <path d="M629.911355,200.231391 L577.512332,227 C577.512332,227 527.319583,203.4392 523.348288,201.669374 C520.480131,200.452619 521.803896,182.090681 531.070249,184.413577 L553.132996,188.83814 C553.132996,188.83814 525.995818,131.9825 523.348288,127.004866 C520.700758,122.027233 539.012838,108.311086 543.646015,116.607142 C549.823584,127.557937 559.972448,148.795841 559.972448,148.795841 L599.354451,140.278557 C599.354451,140.278557 608.289864,141.495312 612.261158,149.459526 C616.342766,157.42374 635.757983,187.289543 629.911355,200.231391" id="Shape" fill="#F9F9F8" fill-rule="nonzero"></path>
                    <path d="M630.901368,200.994501 L578.021619,228 C578.021619,228 527.368386,204.230697 523.360658,202.44521 C520.466187,201.217687 521.802097,182.693254 531.153463,185.036706 L553.41862,189.500425 C553.41862,189.500425 526.032477,132.141637 523.360658,127.119954 C520.688839,122.09827 539.168919,108.260742 543.844603,116.630214 C550.078847,127.677919 560.320819,149.103769 560.320819,149.103769 L600.064125,140.51111 C600.064125,140.51111 609.081514,141.738633 613.089242,149.773327 C617.208296,157.808021 636.801635,187.938123 630.901368,200.994501 Z" id="Shape" stroke="#000000" stroke-width="10.05"></path>
                    <text id="nenechte-uživatelé-j" fill="#000000" font-family="HelveticaNeue-Bold, Helvetica Neue" font-size="34" font-weight="bold">
                        <tspan x="0" y="39">nenechte uživatelé </tspan>
                        <tspan x="0" y="79.9862366">jsou v nejistotě </tspan>
                        <tspan x="0" y="120.972473">ohledně toho, jaké </tspan>
                        <tspan x="0" y="161.95871">dopady mají jejich </tspan>
                        <tspan x="0" y="202.944946">akce</tspan>
                    </text>
                </g>
                <g id="Dont-2" transform="translate(821.000000, 1016.000000)">
                    <polygon id="Rectangle-path" fill="#EDEDED" fill-rule="nonzero" points="386 8 597 8 597 145 386 145"></polygon>
                    <path d="M605,164.536821 L605,5.94972067 C605,2.59624175 602.289586,0 599.03709,0 L382.96291,0 C379.601997,0 377,2.70441849 377,5.94972067 L377,164.536821 C377,167.8903 379.710414,170.486541 382.96291,170.486541 L456.46933,170.486541 C459.830243,170.486541 462.43224,173.19096 462.43224,176.436262 L462.43224,192.879126 C462.43224,196.232605 459.721826,198.828847 456.46933,198.828847 L411.476462,198.828847 C408.115549,198.828847 405.513552,201.533266 405.513552,204.778568 L405.513552,207.050279 C405.513552,210.403758 408.223966,213 411.476462,213 L570.415121,213 C573.776034,213 576.378031,210.295582 576.378031,207.050279 L576.378031,204.778568 C576.378031,201.425089 573.667618,198.828847 570.415121,198.828847 L525.422254,198.828847 C522.061341,198.828847 519.459344,196.124429 519.459344,192.879126 L519.459344,176.436262 C519.459344,173.082783 522.169757,170.486541 525.422254,170.486541 L598.928673,170.486541 C602.289586,170.594718 605,167.8903 605,164.536821 M391.202568,125.485018 L391.202568,20.2290503 C391.202568,16.8755714 393.912981,14.2793296 397.165478,14.2793296 L584.617689,14.2793296 C587.978602,14.2793296 590.580599,16.9837481 590.580599,20.2290503 L590.580599,125.485018 C590.580599,128.838497 587.870185,131.434738 584.617689,131.434738 L397.273894,131.434738 C393.912981,131.434738 391.202568,128.73032 391.202568,125.485018" id="Shape" fill="#000000" fill-rule="nonzero"></path>
                    <polygon id="Rectangle-path" fill="#BA7100" fill-rule="nonzero" points="405 24 577 24 577 122 405 122"></polygon>
                    <polygon id="Shape" fill="#FFFFFF" fill-rule="nonzero" points="498.854545 66 498.854545 50.953271 509 50.953271 494.054545 31 479 50.953271 488.818182 50.953271 488.818182 66"></polygon>
                    <polygon id="Shape" fill="#FFFFFF" fill-rule="nonzero" points="503 78.9636364 517.984375 78.9636364 517.984375 89 538 74.0545455 517.984375 59 517.984375 69.0363636 503 69.0363636"></polygon>
                    <polygon id="Shape" fill="#FFFFFF" fill-rule="nonzero" points="488.818182 83 488.818182 98.046729 479 98.046729 494.054545 118 509 98.046729 498.854545 98.046729 498.854545 83"></polygon>
                    <polygon id="Shape" fill="#FFFFFF" fill-rule="nonzero" points="483 78.9636364 468.015625 78.9636364 468.015625 89 448 74.0545455 468.015625 59 468.015625 69.0363636 483 69.0363636"></polygon>
                    <text id="nenechte-uživatelé-z" fill="#000000" font-family="HelveticaNeue-Bold, Helvetica Neue" font-size="34" font-weight="bold">
                        <tspan x="0" y="49">nenechte uživatelé </tspan>
                        <tspan x="0" y="89.9862366">zmatené ve </tspan>
                        <tspan x="0" y="130.972473">smyslu, co mají </tspan>
                        <tspan x="0" y="171.95871">dělat dál</tspan>
                    </text>
                </g>
                <g id="Dont-1" transform="translate(821.000000, 710.000000)">
                    <g id="Group" transform="translate(409.000000, 0.000000)" fill-rule="nonzero">
                        <path d="M151.216867,22.1953578 L163,22.1953578 L163,0 L0,0 L0,22.1953578 L14.0742972,22.1953578 C15.8199465,64.6276596 31.4216867,92.3718569 58.4792503,101.402321 L58.4792503,125.012089 C31.748996,133.933752 16.2563588,161.133946 14.1834003,202.804642 L0,202.804642 L0,225 L162.890897,225 L162.890897,202.804642 L150.998661,202.804642 C148.925703,161.133946 133.433066,133.933752 106.702811,125.012089 L106.702811,101.402321 C133.869478,92.4806576 149.362115,64.6276596 151.216867,22.1953578 L151.216867,22.1953578 Z M99.8293173,134.586557 C129.723561,142.09381 138.451807,173.972437 139.97925,202.804642 L25.4210174,202.804642 C26.8393574,173.972437 35.5676037,142.09381 65.4618474,134.586557 L69.7168675,133.498549 L69.7168675,92.9158607 L65.4618474,91.827853 C35.0220884,84.2117988 26.6211513,51.462766 25.3119143,22.1953578 L140.088353,22.1953578 C138.779116,51.462766 130.378179,84.2117988 99.9384203,91.827853 L95.6834003,92.9158607 L95.6834003,133.498549 L99.8293173,134.586557 Z" id="Shape" fill="#3C3C3B"></path>
                        <polygon id="Shape" fill="#860A3D" points="107 68 61 68 72.4729412 81.5 83.9458824 95 95.5270588 81.5"></polygon>
                        <polygon id="Shape" fill="#860A3D" points="82.6740947 149 44 202 122 202"></polygon>
                    </g>
                    <text id="netlačte-na-uživatel" fill="#000000" font-family="HelveticaNeue-Bold, Helvetica Neue" font-size="34" font-weight="bold">
                        <tspan x="0" y="43">netlačte na </tspan>
                        <tspan x="0" y="83.9862366">uživatele nebo jim </tspan>
                        <tspan x="0" y="124.972473">nedávejte </tspan>
                        <tspan x="0" y="165.95871">nepraktické </tspan>
                        <tspan x="0" y="206.944946">časové limity</tspan>
                    </text>
                </g>
                <g id="Do-5" transform="translate(72.000000, 1912.000000)">
                    <path d="M425.513995,13 L392.486005,13 C389.463104,13 387,15.3596215 387,18.2555205 L387,41.7444795 C387,44.6403785 389.463104,47 392.486005,47 L425.513995,47 C428.536896,47 431,44.6403785 431,41.7444795 L431,18.2555205 C431,15.3596215 428.536896,13 425.513995,13 Z" id="Shape" stroke="#82368C" stroke-width="5.08"></path>
                    <path d="M614.462755,13 L457.4265,13 C454.436388,13 452,15.3596215 452,18.2555205 L452,41.7444795 C452,44.6403785 454.436388,47 457.4265,47 L614.5735,47 C617.563612,47 620,44.6403785 620,41.7444795 L620,18.2555205 C620,15.3596215 617.563612,13 614.462755,13" id="Shape" fill="#82368C" fill-rule="nonzero"></path>
                    <path d="M425.513995,76 L392.486005,76 C389.463104,76 387,78.3596215 387,81.2555205 L387,104.744479 C387,107.640379 389.463104,110 392.486005,110 L425.513995,110 C428.536896,110 431,107.640379 431,104.744479 L431,81.2555205 C431,78.3596215 428.536896,76 425.513995,76 Z" id="Shape" stroke="#82368C" stroke-width="5.08"></path>
                    <path d="M614.462755,76 L457.4265,76 C454.436388,76 452,78.3596215 452,81.2555205 L452,104.744479 C452,107.640379 454.436388,110 457.4265,110 L614.5735,110 C617.563612,110 620,107.640379 620,104.744479 L620,81.2555205 C620,78.3596215 617.563612,76 614.462755,76" id="Shape" fill="#82368C" fill-rule="nonzero"></path>
                    <path d="M425.513995,133 L392.486005,133 C389.463104,133 387,135.359621 387,138.255521 L387,161.744479 C387,164.640379 389.463104,167 392.486005,167 L425.513995,167 C428.536896,167 431,164.640379 431,161.744479 L431,138.255521 C431,135.359621 428.536896,133 425.513995,133 Z" id="Shape" stroke="#82368C" stroke-width="5.08"></path>
                    <path d="M614.462755,134 L457.4265,134 C454.436388,134 452,136.359621 452,139.255521 L452,162.744479 C452,165.640379 454.436388,168 457.4265,168 L614.5735,168 C617.563612,168 620,165.640379 620,162.744479 L620,139.255521 C620,136.359621 617.563612,134 614.462755,134" id="Shape" fill="#82368C" fill-rule="nonzero"></path>
                    <path d="M441.0859,0.750105767 C438.990044,-0.539967339 436.122029,-0.109942971 434.577714,1.6101545 L411.08206,29.5617385 L403.250176,20.9612511 C401.705861,19.2411536 398.727538,18.9186353 396.74199,20.3162145 C394.756442,21.7137937 394.425517,24.1864339 395.969832,26.0140374 L411.412985,43 L442.078674,6.44792865 C443.622989,4.62032509 443.181756,2.04017887 441.0859,0.750105767" id="Shape" fill="#575756" fill-rule="nonzero"></path>
                    <path d="M441.0859,63.7501058 C438.990044,62.4600327 436.122029,62.890057 434.577714,64.6101545 L411.08206,92.5617385 L403.250176,83.9612511 C401.705861,82.2411536 398.727538,81.9186353 396.74199,83.3162145 C394.756442,84.7137937 394.425517,87.1864339 395.969832,89.0140374 L411.412985,106 L442.078674,69.4479287 C443.622989,67.6203251 443.181756,65.0401789 441.0859,63.7501058" id="Shape" fill="#575756" fill-rule="nonzero"></path>
                    <path d="M441.0859,120.750106 C438.990044,119.460033 436.122029,119.890057 434.577714,121.610155 L411.08206,149.561738 L403.250176,140.961251 C401.705861,139.241154 398.727538,138.918635 396.74199,140.316215 C394.756442,141.713794 394.425517,144.186434 395.969832,146.014037 L411.412985,163 L442.078674,126.447929 C443.622989,124.620325 443.181756,122.040179 441.0859,120.750106" id="Shape" fill="#575756" fill-rule="nonzero"></path>
                    <text id="uživatelé-si-mohou-z" fill="#000000" font-family="HelveticaNeue-Bold, Helvetica Neue" font-size="34" font-weight="bold">
                        <tspan x="0" y="41">uživatelé si mohou </tspan>
                        <tspan x="0" y="81.9862366">zkontrolovat své </tspan>
                        <tspan x="0" y="122.972473">odpovědi, než je </tspan>
                        <tspan x="0" y="163.95871">pošlou</tspan>
                    </text>
                </g>
                <g id="Do-4" transform="translate(72.000000, 1600.000000)">
                    <path d="M519.671189,28.3439481 C519.671189,37.978098 511.857454,45.7971182 502.229816,45.7971182 C492.602178,45.7971182 484.788442,37.978098 484.788442,28.3439481 C484.788442,18.7097983 492.602178,10.8907781 502.229816,10.8907781 C511.857454,11.0304035 519.671189,18.8494236 519.671189,28.3439481" id="Shape" fill="#BA7100" fill-rule="nonzero"></path>
                    <path d="M503.067002,54.4538905 L503.067002,54.4538905 C470.695812,54.4538905 470.695812,72.3259366 470.695812,93.9678674 L470.695812,101.786888 C470.695812,104.439769 472.788777,106.53415 475.439866,106.53415 L530.694137,106.53415 C533.345226,106.53415 535.438191,104.439769 535.438191,101.786888 L535.438191,93.9678674 C535.438191,72.1863112 538.368342,54.4538905 503.067002,54.4538905" id="Shape" fill="#BA7100" fill-rule="nonzero"></path>
                    <path d="M468.88191,17.45317 C468.88191,27.0873199 461.068174,34.9063401 451.440536,34.9063401 C441.812898,34.9063401 433.999162,27.0873199 433.999162,17.45317 C433.999162,7.81902017 441.812898,0 451.440536,0 C461.068174,0 468.88191,7.81902017 468.88191,17.45317" id="Shape" fill="#BA7100" fill-rule="nonzero"></path>
                    <path d="M474.742211,47.0537464 C469.858626,44.2612392 462.742546,42.7253602 452.277722,42.7253602 L452.277722,42.7253602 C419.906533,42.7253602 419.906533,60.5974063 419.906533,82.2393372 L419.906533,90.0583573 C419.906533,92.7112392 421.999497,94.8056196 424.650586,94.8056196 L464.975042,94.8056196 L464.975042,89.2206052 C464.975042,74.5599424 464.975042,61.8540346 474.742211,55.0123919 C477.532831,53.0576369 477.672362,48.8688761 474.742211,47.0537464" id="Shape" fill="#BA7100" fill-rule="nonzero"></path>
                    <path d="M538.507873,17.45317 C538.507873,27.0873199 546.321608,34.9063401 555.949246,34.9063401 C565.576884,34.9063401 573.39062,27.0873199 573.39062,17.45317 C573.39062,7.81902017 565.576884,0 555.949246,0 C546.321608,0 538.507873,7.81902017 538.507873,17.45317" id="Shape" fill="#BA7100" fill-rule="nonzero"></path>
                    <path d="M555.11206,42.7253602 L555.11206,42.7253602 C544.647236,42.7253602 537.531156,44.2612392 532.647571,47.0537464 C529.71742,48.7292507 529.856951,53.0576369 532.647571,55.0123919 C542.41474,61.8540346 542.41474,74.6995677 542.41474,89.2206052 L542.41474,94.8056196 L582.739196,94.8056196 C585.390285,94.8056196 587.48325,92.7112392 587.48325,90.0583573 L587.48325,82.2393372 C587.622781,60.457781 587.622781,42.7253602 555.11206,42.7253602" id="Shape" fill="#BA7100" fill-rule="nonzero"></path>
                    <path d="M421.162312,191.565994 L411.534673,191.565994 C407.348744,191.565994 404,188.214986 404,184.026225 L404,124.964697 C404,120.775937 407.348744,117.424928 411.534673,117.424928 L421.162312,117.424928 C425.348241,117.424928 428.696985,120.775937 428.696985,124.964697 L428.696985,184.026225 C428.696985,188.214986 425.348241,191.565994 421.162312,191.565994 Z" id="Shape" stroke="#000000" stroke-width="7.68"></path>
                    <path d="M542.41474,152.750144 C542.41474,152.750144 579.809045,143.674496 585.948409,141.859366 C596.552764,138.647983 600.320101,153.587896 598.366667,157.776657 C594.738861,165.456052 512.973702,195.056628 512.973702,195.056628 C512.973702,195.056628 506.694807,197.151009 501.532161,195.056628 C493.160302,190.169741 429.673702,181.233718 427.301675,182.629971 L427.441206,127.059078 C427.441206,127.059078 448.370854,133.90072 458.696147,129.71196 C467.4866,126.360951 477.114238,118.26268 490.09062,127.198703 C503.067002,136.134726 530.275544,146.048127 534.880067,147.304755 C545.20536,150.376513 541.298492,166.433429 529.856951,166.293804 L491.764992,155.821902" id="Shape" stroke="#000000" stroke-width="7.68"></path>
                    <text id="dejte-uživatelům-pod" fill="#000000" font-family="HelveticaNeue-Bold, Helvetica Neue" font-size="34" font-weight="bold">
                        <tspan x="0" y="41">dejte uživatelům </tspan>
                        <tspan x="0" y="81.9862366">podporu, kterou </tspan>
                        <tspan x="0" y="122.972473">potřebují, aby </tspan>
                        <tspan x="0" y="163.95871">službou prošli</tspan>
                    </text>
                </g>
                <g id="Do-3" transform="translate(72.000000, 1321.000000)">
                    <path d="M558.616361,0 L400.923836,0 C397.606488,0 395,2.82272727 395,6.13636364 L395,20.8636364 C395,24.3 397.724965,27 400.923836,27 L558.616361,27 C560.985896,27 563,24.9136364 563,22.4590909 L563,4.41818182 C563,2.08636364 561.104372,0 558.616361,0" id="Shape" fill="#006F7A" fill-rule="nonzero"></path>
                    <path d="M604.423289,35 L402.593819,35 C398.440949,35 395,37.8227273 395,41.1363636 L395,55.8636364 C395,59.3 398.440949,62 402.593819,62 L604.423289,62 C607.508278,62 610,59.9136364 610,57.4590909 L610,39.4181818 C610,36.9636364 607.508278,35 604.423289,35" id="Shape" fill="#006F7A" fill-rule="nonzero"></path>
                    <path d="M559.624007,76 L435.913504,76 C432.601942,76 430,78.8227273 430,82.1363636 L430,96.8636364 C430,100.3 432.720212,103 435.913504,103 L559.624007,103 C561.989409,103 564,100.913636 564,98.4590909 L564,80.4181818 C564,78.0863636 561.989409,76 559.624007,76" id="Shape" fill="#1A2B68" fill-rule="nonzero"></path>
                    <path d="M605.428946,111 L437.586117,111 C433.437459,111 430,113.822727 430,117.136364 L430,131.863636 C430,135.3 433.437459,138 437.586117,138 L605.428946,138 C608.510806,138 611,135.913636 611,133.459091 L611,115.418182 C611,112.963636 608.392272,111 605.428946,111" id="Shape" fill="#1A2B68" fill-rule="nonzero"></path>
                    <path d="M419,90 C419,96.1505376 414.085106,101 408,101 C401.914894,101 397,96.0322581 397,90 C397,83.8494624 401.914894,79 408,79 C414.085106,79 419,83.9677419 419,90" id="Shape" fill="#1A2B68" fill-rule="nonzero"></path>
                    <path d="M419,125.058824 C419,131.176471 414.085106,136 408,136 C401.914894,136 397,131.058824 397,125.058824 C397,118.941176 401.914894,114 408,114 C414.085106,114 419,118.941176 419,125.058824" id="Shape" fill="#1A2B68" fill-rule="nonzero"></path>
                    <path d="M605.428946,147 L437.586117,147 C433.437459,147 430,149.822727 430,153.136364 L430,167.863636 C430,171.3 433.437459,174 437.586117,174 L605.428946,174 C608.510806,174 611,171.913636 611,169.459091 L611,151.418182 C611,149.086364 608.392272,147 605.428946,147" id="Shape" fill="#1A2B68" fill-rule="nonzero"></path>
                    <path d="M419,161.058824 C419,167.176471 414.085106,172 408,172 C401.914894,172 397,167.058824 397,161.058824 C397,154.941176 401.914894,150 408,150 C414.085106,150.117647 419,154.941176 419,161.058824" id="Shape" fill="#1A2B68" fill-rule="nonzero"></path>
                    <text id="důležité-informace-j" fill="#000000" font-family="HelveticaNeue-Bold, Helvetica Neue" font-size="34" font-weight="bold">
                        <tspan x="0" y="54">důležité informace </tspan>
                        <tspan x="0" y="94.9862366">jsou jasně </tspan>
                        <tspan x="0" y="135.972473">viditelné</tspan>
                    </text>
                </g>
                <g id="Do-2" transform="translate(72.000000, 1017.000000)">
                    <rect id="Rectangle-path" fill="#EDEDED" fill-rule="nonzero" x="400" y="5" width="210" height="137"></rect>
                    <path d="M615,162.991874 L615,5.89385475 C615,2.57186389 612.323977,0 609.11275,0 L395.88725,0 C392.568982,0 390,2.67902489 390,5.89385475 L390,162.991874 C390,166.313865 392.676023,168.885729 395.88725,168.885729 L468.353949,168.885729 C471.672217,168.885729 474.241199,171.564754 474.241199,174.779584 L474.241199,191.068055 C474.241199,194.390046 471.565176,196.96191 468.353949,196.96191 L423.93197,196.96191 C420.613701,196.96191 418.044719,199.640934 418.044719,202.855764 L418.044719,205.106145 C418.044719,208.428136 420.720742,211 423.93197,211 L580.853949,211 C584.172217,211 586.741199,208.320975 586.741199,205.106145 L586.741199,202.855764 C586.741199,199.533773 584.065176,196.96191 580.853949,196.96191 L536.43197,196.96191 C533.113701,196.96191 530.544719,194.282885 530.544719,191.068055 L530.544719,174.779584 C530.544719,171.457593 533.220742,168.885729 536.43197,168.885729 L609.005709,168.885729 C612.323977,168.99289 615,166.313865 615,162.991874 M404.02236,124.306755 L404.02236,20.0391061 C404.02236,16.7171153 406.698382,14.1452514 409.90961,14.1452514 L594.983349,14.1452514 C598.301618,14.1452514 600.870599,16.8242763 600.870599,20.0391061 L600.870599,124.306755 C600.870599,127.628746 598.194577,130.200609 594.983349,130.200609 L409.90961,130.200609 C406.591342,130.200609 404.02236,127.521585 404.02236,124.306755" id="Shape" fill="#000000" fill-rule="nonzero"></path>
                    <polygon id="Rectangle-path" fill="#035EA5" fill-rule="nonzero" points="418.525467 32.2445732 588.236034 32.2445732 588.236034 101.200357 418.525467 101.200357"></polygon>
                    <text id="Poslali-jsme-vám-e-m" font-family="HelveticaNeue-Bold, Helvetica Neue" font-size="17" font-weight="bold" fill="#FFFFFF">
                        <tspan x="449" y="63">Poslali jsme</tspan>
                        <tspan x="449" y="84">vám e-mail</tspan>
                    </text>
                    <text id="vysvětlete,-co-se-st" fill="#000000" font-family="HelveticaNeue-Bold, Helvetica Neue" font-size="34" font-weight="bold">
                        <tspan x="0" y="60">vysvětlete, co se </tspan>
                        <tspan x="0" y="100.986237">stane, až uživatelé </tspan>
                        <tspan x="0" y="141.972473">projdou službou</tspan>
                    </text>
                </g>
                <g id="Do-1" transform="translate(72.000000, 709.000000)">
                    <path d="M504.34949,0 C442.355617,0 392,50.3958188 392,112.182473 C392,174.084187 442.470848,224.364947 504.34949,224.364947 C566.343362,224.364947 616.69898,173.969128 616.69898,112.182473 C616.69898,50.3958188 566.343362,0 504.34949,0 M504.34949,200.777863 C455.376635,200.777863 415.6222,161.082526 415.6222,112.182473 C415.6222,63.2824209 455.376635,23.5870842 504.34949,23.5870842 C553.322344,23.5870842 593.076779,63.2824209 593.076779,112.182473 C593.076779,161.082526 553.207114,200.777863 504.34949,200.777863" id="Shape" fill="#9A9C00" fill-rule="nonzero"></path>
                    <path d="M545.430189,107.174679 L514.85283,107.174679 C513.735849,105.359402 512.2,103.823397 510.384906,102.706303 L510.384906,65.9818376 C510.384906,62.0720085 507.313208,59 503.403774,59 C499.49434,59 496.422642,62.0720085 496.422642,65.9818376 L496.422642,102.706303 C492.513208,105.080128 490,109.269231 490,114.156517 C490,121.557265 496.003774,127.561645 503.403774,127.561645 C508.290566,127.561645 512.479245,125.048184 514.85283,121.138355 L545.430189,121.138355 C549.339623,121.138355 552.411321,118.066346 552.411321,114.156517 C552.411321,110.386325 549.2,107.174679 545.430189,107.174679" id="Shape" fill="#9A9C00" fill-rule="nonzero"></path>
                    <text id="dejte-uživatelům-dos" fill="#000000" font-family="HelveticaNeue-Bold, Helvetica Neue" font-size="34" font-weight="bold">
                        <tspan x="0" y="63">dejte uživatelům </tspan>
                        <tspan x="0" y="103.986237">dostatek času na </tspan>
                        <tspan x="0" y="144.972473">dokončení jejich </tspan>
                        <tspan x="0" y="185.95871">úkonu</tspan>
                    </text>
                </g>
            </g>
        </g>
    </g>
</svg>