<?xml version="1.0" encoding="UTF-8"?>
<svg width="1590px" height="2328px" viewBox="0 0 1590 2328" version="1.1" xmlns="http://www.w3.org/2000/svg" xmlns:xlink="http://www.w3.org/1999/xlink">
    <!-- Generator: Sketch 56.3 (81716) - https://sketch.com -->
    <title>Visually impaired - screenreader</title>
    <desc>Created with Sketch.</desc>
    <g id="Visually-impaired---screenreader" stroke="none" stroke-width="1" fill="none" fill-rule="evenodd">
        <rect id="background" fill="#E1E6D2" x="44" y="50" width="1502" height="2146"></rect>
        <g id="Header" transform="translate(112.000000, 71.000000)">
            <g id="Icon" transform="translate(1072.000000, 82.000000)">
                <rect id="Rectangle-112" fill="#85994B" x="9" y="25" width="267" height="163"></rect>
                <text id="" font-family="FontAwesome5Free-Solid, Font Awesome 5 Free" font-size="268" font-weight="700" fill="#0B0C0C">
                    <tspan x="0" y="235"></tspan>
                </text>
                <text id="" font-family="FontAwesome5Free-Solid, Font Awesome 5 Free" font-size="90" font-weight="700" fill="#FFFFFF">
                    <tspan x="100" y="141"></tspan>
                </text>
            </g>
            <g id="Title" fill="#000000" font-family="HelveticaNeue-Bold, Helvetica Neue" font-weight="bold">
                <text id="uživatele,-kteří-pou" font-size="80">
                    <tspan x="0" y="175">uživatele, kteří používají</tspan>
                </text>
                <text id="Tvoření-nového-pro" font-size="80">
                    <tspan x="0" y="78">Tvoření nového pro</tspan>
                </text>
                <text id="odečítačku-obrazovek" font-size="100" line-spacing="152">
                    <tspan x="0" y="298">odečítačku obrazovek</tspan>
                </text>
            </g>
        </g>
        <rect id="Rectangle-2" fill="#FFFFFF" opacity="0.5" x="44" y="724.15" width="1502" height="294.435431"></rect>
        <rect id="Rectangle-2" fill="#FFFFFF" opacity="0.5" x="44" y="1900.92636" width="1502" height="294.435431"></rect>
        <rect id="Rectangle-2" fill="#FFFFFF" opacity="0.5" x="44" y="1312.0555" width="1502" height="294.435431"></rect>
        <path d="M26.74,1320.76 L1555.26,1320.76" id="Line" stroke="#85994B" stroke-width="8" stroke-linecap="square" transform="translate(791.000000, 1320.760000) rotate(90.000000) translate(-791.000000, -1320.760000) "></path>
        <path d="M120.980942,473 L1475.00037,473" id="Line" stroke="#85994B" stroke-width="8" stroke-linecap="square"></path>
        <text id="Co-dělat…" font-family="HelveticaNeue-Bold, Helvetica Neue" font-size="100" font-weight="bold" fill="#000000">
            <tspan x="112" y="624">Co dělat…</tspan>
        </text>
        <text id="Co-nedělat…" font-family="HelveticaNeue-Bold, Helvetica Neue" font-size="100" font-weight="bold" fill="#000000">
            <tspan x="860" y="624">Co nedělat…</tspan>
        </text>
        <g id="Do-5" transform="translate(115.000000, 1990.000000)" font-family="HelveticaNeue-Bold, Helvetica Neue" font-weight="bold">
            <text id="pište-popisné-odkazy" font-size="34" fill="#000000">
                <tspan x="0" y="50">pište popisné</tspan>
                <tspan x="0" y="90">odkazy a nadpisy</tspan>
            </text>
            <text id="Kontaktujte-nás" font-size="48" fill="#005EA5" text-decoration="underline">
                <tspan x="354" y="47">Kontaktujte</tspan>
                <tspan x="354" y="104">nás</tspan>
            </text>
        </g>
        <g id="Dont-5" transform="translate(867.000000, 1987.000000)" font-family="HelveticaNeue-Bold, Helvetica Neue" font-weight="bold">
            <text id="nepište-nic-neříkají" font-size="34" fill="#000000">
                <tspan x="0" y="33">nepište nic </tspan>
                <tspan x="0" y="73">neříkající odkazy</tspan>
                <tspan x="0" y="113">a nadpisy</tspan>
            </text>
            <text id="Klikněte-zde" font-size="48" fill="#0059A5" text-decoration="underline">
                <tspan x="379" y="82">Klikněte zde</tspan>
            </text>
        </g>
        <g id="Do-4" transform="translate(115.000000, 1658.000000)">
            <text id="navrhujte-pouze-pro" font-family="HelveticaNeue-Bold, Helvetica Neue" font-size="34" font-weight="bold" fill="#000000">
                <tspan x="0" y="79">navrhujte pouze</tspan>
                <tspan x="0" y="119">pro možnost použít</tspan>
                <tspan x="0" y="159">klávesnici k ovládání</tspan>
            </text>
            <rect id="Rectangle-81" fill="#FFFFFF" x="401" y="39" width="198" height="127"></rect>
            <text id="" font-family="FontAwesome5Free-Regular, Font Awesome 5 Free" font-size="200" font-weight="normal" fill="#28A197">
                <tspan x="387" y="175"></tspan>
            </text>
        </g>
        <g id="Dont-4" transform="translate(867.000000, 1653.000000)">
            <text id="nenuťte-uživatelé-po" font-family="HelveticaNeue-Bold, Helvetica Neue" font-size="34" font-weight="bold" fill="#000000">
                <tspan x="0" y="72">nenuťte uživatelé</tspan>
                <tspan x="0" y="112">používat pouze myš</tspan>
                <tspan x="0" y="152">nebo obrazovku</tspan>
            </text>
            <circle id="Oval-78" fill="#FFFFFF" opacity="0.466592817" cx="433" cy="100" r="100"></circle>
            <text id="" font-family="FontAwesome5Free-Solid, Font Awesome 5 Free" font-size="135" font-weight="700" fill="#F47738">
                <tspan x="452" y="182"></tspan>
            </text>
        </g>
        <g id="Do-3" transform="translate(115.000000, 1344.000000)" font-family="HelveticaNeue-Bold, Helvetica Neue" font-weight="bold">
            <text id="obsah-strukturujte-p" font-size="34" fill="#000000">
                <tspan x="0" y="109">obsah strukturujte </tspan>
                <tspan x="0" y="149">pomocí HTML5</tspan>
            </text>
            <text id="&lt;h1&gt;" font-size="80" fill="#B58840">
                <tspan x="328" y="78">&lt;h1&gt;</tspan>
            </text>
            <text id="&lt;nav&gt;" font-size="64" fill="#28A197">
                <tspan x="458" y="143">&lt;nav&gt;</tspan>
            </text>
            <text id="&lt;label&gt;" font-size="60" fill="#F47738">
                <tspan x="345" y="218">&lt;label&gt;</tspan>
            </text>
        </g>
        <g id="Dont-3" transform="translate(865.000000, 1380.000000)">
            <text id="netvořte-strukturu-z" font-family="HelveticaNeue-Bold, Helvetica Neue" font-size="34" font-weight="bold" fill="#000000">
                <tspan x="0" y="33">netvořte strukturu</tspan>
                <tspan x="0" y="73">změnou velikosti</tspan>
                <tspan x="0" y="113">textu a jeho</tspan>
                <tspan x="0" y="153">umístěním</tspan>
            </text>
            <g id="Group" transform="translate(328.000000, 1.000000)">
                <text id="Nadpis" font-family="HelveticaNeue-Bold, Helvetica Neue" font-size="82" font-weight="bold" fill="#333333">
                    <tspan x="44" y="135">Nadpis</tspan>
                </text>
                <text id="36pt,-tučně" font-family="HelveticaNeue-Bold, Helvetica Neue" font-size="48" font-weight="bold" fill="#28A197">
                    <tspan x="0" y="47">36pt, tučně</tspan>
                </text>
                <path d="M40.6784237,78 L8.49507923,78" id="Line" stroke="#28A197" stroke-width="4" stroke-linecap="square"></path>
                <path id="Line" d="M37.3257176,103.867264 L24.1701339,96.4672486 L11.0145503,103.867264 L37.3257176,103.867264 Z M37.3257176,107.867264 L11.0145503,107.867264 L24.1701339,115.26728 L37.3257176,107.867264 Z M24.1701339,91.9433124 L24.1981023,91.8935908 L49.0401886,105.867264 L24.1981023,119.840938 L24.1701339,119.791216 L24.1421656,119.840938 L-0.699920736,105.867264 L24.1421656,91.8935908 L24.1701339,91.9433124 Z" fill="#28A197" fill-rule="nonzero"></path>
                <path d="M40.6784237,133 L8.49507923,133" id="Line" stroke="#28A197" stroke-width="4" stroke-linecap="square"></path>
            </g>
        </g>
        <g id="Do-2" transform="translate(115.000000, 1053.000000)">
            <text id="použijte-jednosměrné" font-family="HelveticaNeue-Bold, Helvetica Neue" font-size="34" font-weight="bold" fill="#000000">
                <tspan x="0" y="58">použijte </tspan>
                <tspan x="0" y="98">jednosměrné, </tspan>
                <tspan x="0" y="138">logické rozložení</tspan>
                <tspan x="0" y="178">textu</tspan>
            </text>
            <text id="" font-family="FontAwesome5Free-Solid, Font Awesome 5 Free" font-size="235" font-weight="700" fill="#333333">
                <tspan x="359" y="206"></tspan>
            </text>
            <rect id="Rectangle-64" fill="#FFFFFF" x="376" y="20" width="232" height="152"></rect>
            <rect id="Rectangle-66" fill="#F47738" x="386" y="35" width="199" height="20"></rect>
            <rect id="Rectangle-66" fill="#85994B" x="406" y="70" width="100" height="13.211"></rect>
            <circle id="Oval-80" fill="#85994B" cx="392" cy="76" r="6"></circle>
            <rect id="Rectangle-66" fill="#85994B" x="406" y="90" width="100" height="13.211"></rect>
            <circle id="Oval-80" fill="#85994B" cx="392" cy="96" r="6"></circle>
            <rect id="Rectangle-66" fill="#85994B" x="406" y="110" width="100" height="13.211"></rect>
            <circle id="Oval-80" fill="#85994B" cx="392" cy="116" r="6"></circle>
            <rect id="Rectangle-70" fill="#28A197" x="516" y="69" width="69" height="58"></rect>
        </g>
        <g id="Dont-2" transform="translate(866.000000, 1053.000000)">
            <text id="nerozhazujte-obsah-p" font-family="HelveticaNeue-Bold, Helvetica Neue" font-size="34" font-weight="bold" fill="#000000">
                <tspan x="0" y="97">nerozhazujte obsah</tspan>
                <tspan x="0" y="137">po celé stránce</tspan>
            </text>
            <text id="" font-family="FontAwesome5Free-Solid, Font Awesome 5 Free" font-size="235" font-weight="700" fill="#333333">
                <tspan x="368" y="206"></tspan>
            </text>
            <rect id="Rectangle-64" fill="#FFFFFF" x="382" y="20" width="235" height="153"></rect>
            <polygon id="Rectangle-70" fill="#28A197" points="525 62 594 62 594 83.5360754 525 83.5360754"></polygon>
            <polygon id="Rectangle-70" fill="#B58840" points="525 87.8432904 594 87.8432904 594 109.379366 525 109.379366"></polygon>
            <polygon id="Rectangle-70" fill="#28A197" points="525 113.686581 594 113.686581 594 135.222656 525 135.222656"></polygon>
            <rect id="Rectangle-66" fill="#F47738" x="392" y="35" width="51.9599991" height="20"></rect>
            <rect id="Rectangle-66" fill="#F47738" x="458.519651" y="35" width="51.9599991" height="20"></rect>
            <rect id="Rectangle-66" fill="#F47738" x="525" y="35" width="69" height="21.9400005"></rect>
            <rect id="Rectangle-66" fill="#85994B" x="392.109375" y="62" width="122.890625" height="13.211"></rect>
            <rect id="Rectangle-66" fill="#FFBF47" x="392.109375" y="82" width="122.890625" height="13.211"></rect>
            <rect id="Rectangle-66" fill="#85994B" x="392.109375" y="102" width="122.890625" height="13.211"></rect>
            <rect id="Rectangle-66" fill="#FFBF47" x="392.109375" y="122" width="122.890625" height="13.211"></rect>
        </g>
        <g id="Do-1" transform="translate(115.000000, 788.000000)" font-family="HelveticaNeue-Bold, Helvetica Neue" font-weight="bold">
            <text id="popište-obrázky-a-po" font-size="34" fill="#000000">
                <tspan x="0" y="33">popište obrázky a </tspan>
                <tspan x="0" y="73">poskytněte přepis </tspan>
                <tspan x="0" y="113">pro videa</tspan>
            </text>
            <text id="&lt;alt&gt;" font-size="124" fill="#85994B">
                <tspan x="328" y="135">&lt;alt&gt;</tspan>
            </text>
        </g>
        <g id="Dont-1" transform="translate(866.000000, 792.000000)">
            <text id="informace-nezobrazuj" font-family="HelveticaNeue-Bold, Helvetica Neue" font-size="34" font-weight="bold" fill="#000000">
                <tspan x="0" y="46">informace </tspan>
                <tspan x="0" y="86">nezobrazujte pouze </tspan>
                <tspan x="0" y="126">jako obrázek nebo </tspan>
                <tspan x="0" y="166">video</tspan>
            </text>
            <path d="M495.5,169 C542.168061,169 580,131.168061 580,84.5 C580,37.8319386 542.168061,0 495.5,0 C448.831939,0 411,37.8319386 411,84.5 C411,131.168061 448.831939,169 495.5,169 Z" id="Oval-83" fill="#DF3034"></path>
            <polygon id="Triangle-1" fill="#FFFFFF" transform="translate(507.000000, 86.000000) rotate(90.000000) translate(-507.000000, -86.000000) " points="507 46 547 126 467 126"></polygon>
        </g>
        <g id="Footer" transform="translate(43.000000, 2216.000000)">
            <g id="Group-3">
                <text id="justice.cz-|-gov.cz" fill="#0B0C0C" font-family="HelveticaNeue-Bold, Helvetica Neue" font-size="18" font-weight="bold">
                    <tspan x="0" y="18">justice.cz | gov.cz</tspan>
                </text>
                <text id="Tyto-plakáty-jsou-př" fill="#000000" font-family="HelveticaNeue, Helvetica Neue" font-size="12" font-weight="normal">
                    <tspan x="0" y="41">Tyto plakáty jsou překladem anglické verze</tspan>
                </text>
                <text id="vytvořené-britskou-H" fill="#000000" font-family="HelveticaNeue, Helvetica Neue" font-size="12" font-weight="normal">
                    <tspan x="0" y="59">vytvořené britskou Home Office (GOV.UK)</tspan>
                </text>
                <text id="odkaz-na-repo:-https" fill="#000000" font-family="HelveticaNeue, Helvetica Neue" font-size="12" font-weight="normal">
                    <tspan x="0" y="77">odkaz na repo: https://github.com/UKHomeOffice/posters</tspan>
                </text>
            </g>
            <text id="Pro-více-informací," fill="#000000" font-family="HelveticaNeue, Helvetica Neue" font-size="32" font-weight="normal">
                <tspan x="1057" y="37">Pro více informací, kontaktujte:</tspan>
            </text>
            <text id="oi@msp.justice.cz" fill="#000000" font-family="HelveticaNeue, Helvetica Neue" font-size="32" font-weight="normal">
                <tspan x="1243" y="73">oi@msp.justice.cz</tspan>
            </text>
            <g id="by-nc-sa" transform="translate(453.000000, 29.000000)" fill-rule="nonzero">
                <g id="svg2759">
                    <g id="layer1">
                        <g id="g117" transform="translate(0.146431, 0.094636)">
                            <path d="M4.26189853,1.35804824 L117.615995,1.55940545 C119.199833,1.55940545 120.614808,1.32457151 120.614808,4.7199306 L120.476027,42.0490072 L1.40090298,42.0490072 L1.40090298,4.58116464 C1.40090298,2.90677174 1.56296875,1.35804824 4.26189853,1.35804824 L4.26189853,1.35804824 Z" id="path3817_5_" fill="#AAB2AB"></path>
                            <path d="M118.606864,0.905362183 L3.1012023,0.905362183 C1.86188808,0.905362183 0.853548391,1.91358904 0.853548391,3.15227769 L0.853548391,42.3983416 C0.853548391,42.6782981 1.08064718,42.9053622 1.361112,42.9053622 L120.34598,42.9053622 C120.626455,42.9053622 120.853548,42.6782882 120.853548,42.3983416 L120.853548,3.15227769 C120.853548,1.91358904 119.845204,0.905362183 118.606864,0.905362183 L118.606864,0.905362183 Z M3.1012023,1.92038574 L118.606874,1.92038574 C119.286213,1.92038574 119.838427,2.47301509 119.838427,3.15228763 L119.838427,30.3729124 L37.2818358,30.3729124 C34.2558527,35.8439181 28.425152,39.5585333 21.7346022,39.5585333 C15.0421047,39.5585333 9.21335173,35.8473165 6.18930657,30.3729124 L1.86868554,30.3729124 L1.86868554,3.15228763 C1.86868554,2.47301509 2.42185375,1.92038574 3.1012023,1.92038574 L3.1012023,1.92038574 Z" id="path120" fill="#000000"></path>
                            <g id="g5908_5_" transform="translate(5.650292, 4.589011)">
                                <path d="M29.7254794,15.8676048 C29.7302912,23.3972792 23.6288374,29.5043563 16.0987975,29.5091992 C8.56880966,29.5140711 2.46051998,23.4132653 2.45570248,15.884068 L2.45570248,15.8676048 C2.45083009,8.33793044 8.55229261,2.23085336 16.0823325,2.22598496 C23.6133266,2.2216503 29.7215643,8.3218923 29.7254794,15.8510896 L29.7254794,15.8676048 L29.7254794,15.8676048 Z" id="path5906_5_" fill="#FFFFFF"></path>
                                <g id="g5706_5_" transform="translate(0.333377, 0.056641)" fill="#000000">
                                    <path d="M26.8416379,4.70639886 C29.8647265,7.72962628 31.3766959,11.431625 31.3766959,15.8109552 C31.3766959,20.1907625 29.8908814,23.8534683 26.9192524,26.7990638 C23.7651724,29.9008859 20.038513,31.4515454 15.7372701,31.4515454 C11.4884412,31.4515454 7.8258547,29.9139662 4.75140187,26.837394 C1.67493645,23.762253 0.137662326,20.086944 0.137662326,15.8109552 C0.137662326,11.5359206 1.67493645,7.8344076 4.75140187,4.70639886 C7.7482315,1.68221731 11.4108267,0.170365064 15.7372701,0.170365064 C20.1170904,0.170365064 23.817595,1.68221731 26.8416379,4.70639886 L26.8416379,4.70639886 Z M6.78649503,6.74031017 C4.23018657,9.32200748 2.95203234,12.346189 2.95203234,15.8148151 C2.95203234,19.2834413 4.21758191,22.2819479 6.74667714,24.8107601 C9.27767218,27.3405178 12.2891191,28.6054054 15.7838632,28.6054054 C19.2786072,28.6054054 22.316209,27.3278972 24.8986724,24.77243 C27.3501444,22.3988467 28.5758761,19.4139495 28.5758761,15.8148151 C28.5758761,12.2433247 27.3298104,9.21140594 24.8385205,6.72088052 C22.3482889,4.23092758 19.3300756,2.98542634 15.7838632,2.98542634 C12.2376507,2.98542634 9.23690872,4.23723355 6.78649503,6.74031017 L6.78649503,6.74031017 Z M13.5129509,14.2894142 C13.122831,13.4379011 12.5386098,13.01188 11.7582659,13.01188 C10.3801506,13.01188 9.6910929,13.9400535 9.6910929,15.7954462 C9.6910929,17.651264 10.3801506,18.5784833 11.7582659,18.5784833 C12.6686469,18.5784833 13.3188409,18.1267873 13.7089608,17.2213743 L15.6198377,18.2388547 C14.7086067,19.8569629 13.3421417,20.6667022 11.5205384,20.6667022 C10.1152011,20.6667022 8.98943924,20.2358671 8.14418094,19.3746652 C7.29797706,18.5129863 6.8748144,17.3247157 6.8748144,15.8109552 C6.8748144,14.3233467 7.31152729,13.1423796 8.18304458,12.2676291 C9.05445778,11.3928264 10.1414688,10.9556333 11.4429152,10.9556333 C13.3692509,10.9556333 14.7473662,11.7144999 15.5820324,13.2306891 L13.5129509,14.2894142 L13.5129509,14.2894142 Z M22.5035439,14.2894142 C22.1124698,13.4379011 21.5388406,13.01188 20.7838102,13.01188 C19.3776315,13.01188 18.6739566,13.9400535 18.6739566,15.7954462 C18.6739566,17.651264 19.3776315,18.5784833 20.7838102,18.5784833 C21.6960996,18.5784833 22.3346432,18.1267873 22.6986082,17.2213743 L24.6521571,18.2388547 C23.7428345,19.8569629 22.3783822,20.6667022 20.5596329,20.6667022 C19.1563082,20.6667022 18.0335045,20.2358671 17.1881507,19.3746652 C16.3448009,18.5129863 15.9216469,17.3247157 15.9216469,15.8109552 C15.9216469,14.3233467 16.3506305,13.1423796 17.2085889,12.2676291 C18.0654889,11.3928264 19.1563169,10.9556333 20.4820184,10.9556333 C22.4045457,10.9556333 23.7817068,11.7144999 24.612452,13.2306891 L22.5035439,14.2894142 L22.5035439,14.2894142 Z" id="path5708_5_"></path>
                                </g>
                            </g>
                            <g id="g126" transform="translate(40.745013, 3.974678)">
                                <ellipse id="circle128" fill="#FFFFFF" cx="11.8719936" cy="12.154501" rx="10.7389444" ry="10.7377427"></ellipse>
                                <g id="g130" transform="translate(7.950246, 3.974678)" fill="#000000">
                                    <path d="M7.02973706,5.07266343 C7.02973706,4.65880005 6.69394846,4.32352599 6.28051578,4.32352599 L1.53773666,4.32352599 C1.12430397,4.32352599 0.788515376,4.65879011 0.788515376,5.07266343 L0.788515376,9.81539875 L2.11128731,9.81539875 L2.11128731,15.4314802 L5.70598128,15.4314802 L5.70598128,9.81539875 L7.02973706,9.81539875 L7.02973706,5.07266343 L7.02973706,5.07266343 L7.02973706,5.07266343 Z" id="path132"></path>
                                    <ellipse id="circle134" cx="3.90912622" cy="2.07709936" rx="1.62216828" ry="1.62198676"></ellipse>
                                </g>
                                <path d="M11.8443367,0.323141354 C8.63298375,0.323141354 5.91368147,1.44393111 3.68834787,3.68551061 C1.40478866,6.00423862 0.263491041,8.74895279 0.263491041,11.9177353 C0.263491041,15.0865179 1.40478866,17.8118257 3.68834787,20.0927048 C5.97190709,22.3721332 8.6912193,23.5128063 11.8443367,23.5128063 C15.0372451,23.5128063 17.8050836,22.3633889 20.1468685,20.0631034 C22.3527935,17.879743 23.4552641,15.1646203 23.4552641,11.9177254 C23.4552641,8.67083049 22.333375,5.92708018 20.0886329,3.68550067 C17.8438908,1.44392117 15.0964446,0.323141354 11.8443367,0.323141354 L11.8443367,0.323141354 Z M11.8744185,2.40945005 C14.5063873,2.40945005 16.7404463,3.33761695 18.5785532,5.19298689 C20.4370425,7.02846356 21.3658002,9.27052996 21.3658002,11.9177254 C21.3658002,14.5843272 20.4564511,16.7972791 18.6367887,18.5560941 C16.7210477,20.4497899 14.4665963,21.3963993 11.8744185,21.3963993 C9.28030275,21.3963993 7.04525991,20.4594981 5.16833593,18.5847218 C3.29141195,16.7104324 2.35294499,14.4882592 2.35294499,11.9177254 C2.35294499,9.34719157 3.30111125,7.10608903 5.19744377,5.19298689 C7.01712598,3.33762688 9.24244964,2.40945005 11.8744185,2.40945005 L11.8744185,2.40945005 Z" id="path136" fill="#000000"></path>
                            </g>
                            <g id="g138" transform="translate(45.713917, 32.791097)" fill="#FFFFFF">
                                <path d="M3.54083105,0.861690404 C3.8562372,0.861690404 4.14447339,0.889841063 4.4045657,0.945148713 C4.66465801,1.00045636 4.88787111,1.09167523 5.07420501,1.21879538 C5.25956501,1.34494174 5.40319615,1.51379602 5.50607234,1.72339074 C5.60797462,1.93395927 5.65941271,2.19305862 5.65941271,2.50260657 C5.65941271,2.83641994 5.58371643,3.11394192 5.43134996,3.33616619 C5.27995739,3.55935432 5.05479647,3.74081826 4.7578349,3.88345953 C5.1673819,4.00087153 5.47308875,4.20660088 5.67494551,4.50061778 C5.87680226,4.79463468 5.97774058,5.14882821 5.97774058,5.56318843 C5.97774058,5.8970018 5.9127175,6.18616959 5.78267135,6.43071168 C5.65262519,6.67427997 5.4769645,6.87417648 5.25666317,7.02846356 C5.03733575,7.18372444 4.78597877,7.29822498 4.50453011,7.37197514 C4.22211748,7.4466991 3.93290739,7.48356424 3.63497191,7.48356424 L0.418769291,7.48356424 L0.418769291,0.861690404 L3.54083105,0.861690404 L3.54083105,0.861690404 L3.54083105,0.861690404 Z M3.35449715,3.53994795 C3.61458946,3.53994795 3.82809333,3.4778436 3.99501869,3.3546087 C4.16291796,3.23137379 4.24637567,3.03146734 4.24637567,2.75394536 C4.24637567,2.59965828 4.2182318,2.47253813 4.16291796,2.37452256 C4.10663021,2.27554313 4.0328718,2.19888152 3.93970485,2.14260008 C3.8465379,2.08729243 3.73978597,2.04846975 3.61943911,2.02712573 C3.49812829,2.00578171 3.37293179,1.99509976 3.24288563,1.99509976 L1.8783749,1.99509976 L1.8783749,3.53994795 L3.35449715,3.53994795 L3.35449715,3.53994795 Z M3.43990267,6.35016482 C3.58255991,6.35016482 3.71842962,6.33658136 3.84847577,6.30844063 C3.97852193,6.28029991 4.09303529,6.23371668 4.1929997,6.16967467 C4.29199021,6.10465887 4.37059827,6.01635145 4.42979779,5.90476236 C4.48802341,5.79413712 4.51811509,5.65149585 4.51811509,5.47876626 C4.51811509,5.13912999 4.42203636,4.8965355 4.22987891,4.75098278 C4.03772145,4.60639391 3.7834527,4.53361755 3.46804655,4.53361755 L1.87838484,4.53361755 L1.87838484,6.35016482 L3.43990267,6.35016482 L3.43990267,6.35016482 Z" id="path140"></path>
                                <polygon id="path142" points="6.23491117 0.86170034 7.86727564 0.86170034 9.41812027 3.47687974 10.9602296 0.86170034 12.5838587 0.86170034 10.1246388 4.94215487 10.1246388 7.48358411 8.66502324 7.48358411 8.66502324 4.90527979"></polygon>
                            </g>
                            <g id="g144" transform="translate(97.390518, 32.791097)" fill="#FFFFFF">
                                <path d="M1.90361694,5.84654326 C1.98416287,6.00083033 2.08995084,6.12601283 2.22290877,6.22208081 C2.3558667,6.31814878 2.51114495,6.38898749 2.69068139,6.43556078 C2.86925386,6.48214402 3.05363995,6.50542569 3.24579741,6.50542569 C3.37486966,6.50542569 3.51365115,6.49475368 3.66214187,6.47243586 C3.8096587,6.45109184 3.94844019,6.40935772 4.07848634,6.34725337 C4.20755859,6.28612281 4.31528443,6.20072685 4.40262782,6.09203927 C4.48803335,5.98432548 4.53170007,5.84653332 4.53170007,5.67962664 C4.53170007,5.50011029 4.47443843,5.35552142 4.35992506,5.24392239 C4.24637567,5.13233329 4.09595701,5.04014063 3.91156098,4.96542661 C3.72620099,4.89167645 3.51559896,4.82666065 3.28171265,4.77037921 C3.04685243,4.71507156 2.80908044,4.65296721 2.5684066,4.58503995 C2.32093531,4.5229356 2.08025154,4.44724779 1.84539132,4.35796657 C1.61150501,4.2686953 1.40090298,4.15224716 1.21554299,4.00959595 C1.03114696,3.86791854 0.880728296,3.69033984 0.767178902,3.47685987 C0.65266554,3.26337989 0.595403891,3.00525434 0.595403891,2.70249315 C0.595403891,2.36189302 0.668188396,2.06689239 0.812793441,1.81653733 C0.958362452,1.56618228 1.14858204,1.35755141 1.38246835,1.18967093 C1.61732856,1.02276425 1.88324443,0.899529342 2.18020601,0.818982484 C2.47620362,0.738445563 2.77317514,0.698659032 3.06917275,0.698659032 C3.41563455,0.698659032 3.7475474,0.737471767 4.06586532,0.815107173 C4.38321929,0.891768783 4.66659588,1.01791514 4.91310321,1.19064472 C5.1605745,1.36433817 5.35661764,1.58558864 5.50218665,1.85438621 C5.6467917,2.12414763 5.7195762,2.45020044 5.7195762,2.83349855 L4.30653916,2.83349855 C4.29391814,2.63553969 4.25316319,2.47154446 4.18231656,2.34248665 C4.11146993,2.21245505 4.01732907,2.11056417 3.89990393,2.03585015 C3.78344276,1.96209999 3.64952086,1.90873 3.49909226,1.87865162 C3.34866366,1.84759944 3.18368611,1.83206839 3.00511364,1.83206839 C2.88865246,1.83206839 2.77122733,1.84468799 2.65476615,1.86894347 C2.53734101,1.89417274 2.43155305,1.93687072 2.33644823,1.99897507 C2.2403695,2.06107942 2.16273534,2.13774103 2.10062404,2.23089756 C2.03948665,2.32405408 2.008431,2.44146608 2.008431,2.58314349 C2.008431,2.7131751 2.03268919,2.81894129 2.08218941,2.89851435 C2.13167969,2.97905127 2.22873232,3.05377522 2.37431127,3.12170248 C2.51989022,3.18962973 2.71980911,3.25755699 2.97601573,3.32548424 C3.23222236,3.39341149 3.56801096,3.48074512 3.98144365,3.58554745 C4.10469234,3.60980292 4.27647729,3.65541236 4.49483081,3.72042816 C4.71415823,3.78544396 4.93252168,3.88830864 5.14797336,4.03094991 C5.36438901,4.17359118 5.55072291,4.36378948 5.70891293,4.60153487 C5.86612906,4.83928026 5.94473712,5.1439791 5.94473712,5.51563141 C5.94473712,5.8183926 5.8855376,6.09979983 5.76811246,6.35986303 C5.65068732,6.61992624 5.47599059,6.84407823 5.24405209,7.03233887 C5.01210365,7.22156337 4.72484137,7.36808989 4.38129135,7.47289223 C4.0387053,7.57866836 3.64177931,7.63106455 3.18952954,7.63106455 C2.82462317,7.63106455 2.47136391,7.58545512 2.12781388,7.49618384 C1.78426386,7.40593877 1.48146879,7.26523515 1.21943861,7.0730992 C0.956434518,6.88096325 0.747780301,6.6354573 0.592502051,6.33851901 C0.438197706,6.04158072 0.36346539,5.68933479 0.37026285,5.28080741 L1.78329989,5.28080741 C1.78327008,5.50303168 1.82306106,5.69225618 1.90361694,5.84654326 L1.90361694,5.84654326 Z" id="path146"></path>
                                <path d="M10.1090961,0.86170034 L12.5857866,7.48357418 L11.073769,7.48357418 L10.5729929,6.00859089 L8.09630236,6.00859089 L7.57611774,7.48357418 L6.11067864,7.48357418 L8.61551308,0.86170034 L10.1090961,0.86170034 L10.1090961,0.86170034 Z M10.1925637,4.92176477 L9.35794684,2.49387222 L9.3385383,2.49387222 L8.47674153,4.92176477 L10.1925637,4.92176477 L10.1925637,4.92176477 Z" id="path148"></path>
                            </g>
                            <g id="g150" transform="translate(71.552218, 32.791097)" fill="#FFFFFF">
                                <polygon id="path152" points="1.81918532 0.86170034 4.58604995 5.30409902 4.6015728 5.30409902 4.6015728 0.86170034 5.9680214 0.86170034 5.9680214 7.48357418 4.51131763 7.48357418 1.75512621 3.04990985 1.73669157 3.04990985 1.73669157 7.48357418 0.370242975 7.48357418 0.370242975 0.86170034"></polygon>
                                <path d="M11.496901,2.62585141 C11.4105315,2.48612159 11.3018318,2.36385055 11.1717856,2.25904822 C11.0417395,2.15424588 10.8951965,2.07176137 10.731183,2.01354227 C10.5671694,1.95434937 10.3953944,1.92523485 10.2168219,1.92523485 C9.88879473,1.92523485 9.61026779,1.988313 9.38123113,2.11543315 C9.15219446,2.2415795 8.96683447,2.41139764 8.8251412,2.62488755 C8.68248397,2.83836753 8.57863388,3.08096203 8.5136108,3.35267104 C8.44858772,3.62438006 8.41655816,3.90578729 8.41655816,4.19592887 C8.41655816,4.47442465 8.44858772,4.74515987 8.5136108,5.00717067 C8.57863388,5.27014533 8.68247403,5.50691692 8.8251412,5.71652159 C8.96683447,5.92709011 9.15219446,6.09497059 9.38123113,6.22209074 C9.61026779,6.3492109 9.88879473,6.41228904 10.2168219,6.41228904 C10.6613102,6.41228904 11.0097099,6.27643453 11.260093,6.00376166 C11.5104761,5.73205264 11.6638164,5.37301001 11.7191303,4.92760755 L13.1292555,4.92760755 C13.0923763,5.34195783 12.9962976,5.71653153 12.8419933,6.05033495 C12.6876889,6.38511218 12.4829104,6.6694408 12.2296156,6.90523859 C11.9763207,7.14103639 11.6793492,7.32056268 11.338711,7.44477138 C10.9990367,7.56898008 10.624431,7.63108443 10.2168219,7.63108443 C9.70925829,7.63108443 9.25312284,7.54277701 8.84746152,7.36617211 C8.44276416,7.19053107 8.10018805,6.94696278 7.82165116,6.63838862 C7.54312422,6.32884067 7.32864645,5.96494893 7.18015572,5.54767725 C7.03167493,5.12944172 6.95694261,4.68015401 6.95694261,4.19690267 C6.95694261,3.70200553 7.03167493,3.2430196 7.18015572,2.81896116 C7.32863651,2.39490272 7.54311428,2.02518808 7.82165116,1.70981722 C8.10018805,1.39444636 8.44276416,1.14699282 8.84746152,0.967476469 C9.25312284,0.787960119 9.70925829,0.698678906 10.2168219,0.698678906 C10.5817283,0.698678906 10.9262522,0.751075104 11.2503937,0.856851233 C11.5755091,0.961653565 11.866657,1.11497678 12.1228637,1.31681095 C12.3800442,1.51768126 12.5916102,1.76706252 12.7585355,2.06400081 C12.9254609,2.3609391 13.030275,2.70153923 13.0739417,3.08483734 L11.6638164,3.08483734 C11.6385943,2.91793065 11.5832705,2.76461737 11.496901,2.62585141 L11.496901,2.62585141 Z" id="path154"></path>
                            </g>
                            <g id="g6332_1_" transform="translate(92.715436, 3.537181)">
                                <path d="M22.7179119,12.3489227 C22.7227591,18.1940131 17.9867358,22.9362572 12.1405689,22.9406186 C6.29432742,22.9440263 1.55254027,18.2100111 1.54761251,12.3634798 L1.54761251,12.3489227 C1.54374538,6.50383223 6.27977486,1.76158822 12.1250288,1.75722552 C17.9712702,1.75286883 22.7130574,6.4883249 22.7179119,12.3329247 L22.7179119,12.3489227 L22.7179119,12.3489227 Z" id="path6334_1_" fill="#FFFFFF"></path>
                                <g id="g6336_1_" transform="translate(0.029751, 0.167916)" fill="#000000">
                                    <path d="M12.0272974,0.585918803 C8.8150012,0.585918803 6.09568465,1.70719145 3.87131046,3.94780532 C1.58780057,6.26703645 0.44551458,9.01174729 0.44551458,12.1810001 C0.44551458,15.3502529 1.58780057,18.0746123 3.87131046,20.3554819 C6.15391353,22.6358981 8.87323008,23.7760814 12.0272974,23.7760814 C15.2202585,23.7760814 17.9871147,22.6256944 20.3288534,20.3268582 C22.5348056,18.1425353 23.6382723,15.4273858 23.6382723,12.1809939 C23.6382723,8.93456463 22.5163835,6.18985378 20.2706246,3.94779911 C18.0259339,1.70719145 15.2784812,0.585918803 12.0272974,0.585918803 L12.0272974,0.585918803 Z M12.0564087,2.67320447 C14.6883851,2.67320447 16.922461,3.60040257 18.7615246,5.45627686 C20.6190848,7.29171898 21.5477904,9.53233284 21.5477904,12.1810001 C21.5477904,14.8475905 20.6384944,17.0600775 18.8187659,18.8198647 C16.9040389,20.7130758 14.6485783,21.6596814 12.0564087,21.6596814 C9.46325165,21.6596814 7.22826272,20.7222858 5.35129289,18.8479916 C3.47439758,16.9732377 2.53590956,14.7515407 2.53590956,12.1810001 C2.53590956,9.61045949 3.48311173,7.36890165 5.38040422,5.45627686 C7.19915139,3.60040257 9.4244324,2.67320447 12.0564087,2.67320447 L12.0564087,2.67320447 Z" id="path6338_1_"></path>
                                    <path d="M6.88760981,10.5449362 C7.34957133,7.62699284 9.40312839,6.06761477 11.9778572,6.06761477 C15.6792573,6.06761477 17.9356248,8.75361263 17.9356248,12.3352723 C17.9356248,15.8305827 15.5346696,18.5447509 11.9195476,18.5447509 C9.43223352,18.5447509 7.20497738,17.0149342 6.80025718,14.0106479 L9.72140278,14.0106479 C9.80874299,15.5700694 10.8210062,16.1192725 12.2670203,16.1192725 C13.9149441,16.1192725 14.9853555,14.5885118 14.9853555,12.2489231 C14.9853555,9.79289577 14.0605194,8.49403715 12.3242678,8.49403715 C11.0519528,8.49403715 9.95333694,8.95640655 9.72140899,10.5449362 L10.5705817,10.5390984 L8.27152546,12.8389221 L5.97239471,10.5390984 L6.88760981,10.5449362 L6.88760981,10.5449362 Z" id="path6340_1_"></path>
                                </g>
                            </g>
                            <g id="g6361_1_" transform="translate(66.419849, 3.823348)">
                                <path d="M23.0635505,12.0627441 C23.0684133,18.0208878 18.2412235,22.8519248 12.2843504,22.857249 C6.32650861,22.8611439 1.49249202,18.0354286 1.48860211,12.0782877 L1.48860211,12.0627441 C1.48380759,6.10556892 6.31099744,1.27356327 12.2678705,1.26823916 C18.2257123,1.26434421 23.0597289,6.09054949 23.0635505,12.0472346 L23.0635505,12.0627441 L23.0635505,12.0627441 Z" id="path6363_1_" fill="#FFFFFF"></path>
                                <path d="M12.2610552,0.46767631 C15.5122023,0.46767631 18.2596636,1.5889485 20.5043965,3.82956701 C22.7501094,6.07162136 23.8719857,8.81633659 23.8719857,12.0627327 C23.8719857,15.3091287 22.7685382,18.0242495 20.5635919,20.2086079 C18.2208458,22.5083924 15.4539756,23.657789 12.2610552,23.657789 C9.10694116,23.657789 6.38766436,22.5176001 4.10508247,20.2372223 C1.82153183,17.9577903 0.679266449,15.2319918 0.679266449,12.0627213 C0.679266449,8.89345076 1.82153183,6.14873554 4.10508247,3.82955561 C6.33040635,1.5889485 9.04872581,0.46767631 12.2610552,0.46767631 L12.2610552,0.46767631 Z M3.28891649,8.94783067 C2.94242803,9.92596245 2.76970806,10.9642859 2.76970806,12.0627441 C2.76970806,14.6333 3.70816274,16.8549676 5.5850607,18.7297411 C7.46195865,20.6040245 9.69702689,21.5414398 12.290197,21.5414398 C14.8832988,21.5414398 17.1377759,20.5948169 19.0534917,18.7006367 C19.6940087,18.0810567 20.2229501,17.405171 20.6373299,16.6725351 L16.2662438,14.7259806 C15.9702664,16.1970642 14.6591674,17.189771 13.0743605,17.30669 L13.0743605,19.0946289 L11.7428269,19.0946289 L11.7428269,17.30669 C10.4423839,17.2916706 9.1846452,16.7594039 8.22289527,15.918088 L9.82029572,14.3082057 C10.5898484,15.031634 11.3585007,15.3567169 12.4085994,15.3567169 C13.0898831,15.3567169 13.8439246,15.0908114 13.8439246,14.2039016 C13.8439246,13.890465 13.7216359,13.6716463 13.5304871,13.5076405 L12.4250907,13.0151673 L11.0479922,12.4023678 C10.3667085,12.0991531 9.79018512,11.8429453 9.21178121,11.5848345 L3.28891649,8.94783067 L3.28891649,8.94783067 Z M12.290197,2.55497813 C9.65820906,2.55497813 7.43385391,3.48216009 5.61420256,5.33801683 C5.11920114,5.83727041 4.68834146,6.35933802 4.32245548,6.90421966 L8.75565461,8.8774855 C9.15646067,7.64802328 10.3249503,6.9017924 11.7428155,6.81880948 L11.7428155,5.03090483 L13.0743491,5.03090483 L13.0743491,6.81880948 C13.991446,6.86345753 14.9968802,7.11479936 15.9886838,7.88235145 L14.4650213,9.44806427 C13.9021285,9.04973032 13.1927515,8.76880545 12.4823145,8.76880545 C11.9058595,8.76880545 11.0925541,8.9454034 11.0925541,9.66882025 C11.0925541,9.77992756 11.1294915,9.8774399 11.196414,9.96334009 L12.6793213,10.6236822 L13.6828066,11.0710173 C14.3252725,11.3572981 14.9376848,11.6289697 15.5451622,11.8997069 L21.4874928,14.5449953 C21.6835194,13.7667314 21.7815327,12.9390104 21.7815327,12.0627441 C21.7815327,9.41408253 20.8528224,7.17348681 18.9962337,5.33801683 C17.1571848,3.48214869 14.9221166,2.55497813 12.290197,2.55497813 L12.290197,2.55497813 Z" id="path6365_1_" fill="#000000"></path>
                            </g>
                        </g>
                    </g>
                </g>
            </g>
            <text id="This-work-is-licensed-under-the-Creative-Commons-Attribution-" fill="#000000" font-family="HelveticaNeue, Helvetica Neue" font-size="12" font-weight="normal">
                <tspan x="598" y="33">This work is licensed under the Creative Commons Attribution-</tspan>
            </text>
            <text id="NonCommercial-ShareAlike-4.0-International-License.-To-view-a-copy-of" fill="#000000" font-family="HelveticaNeue, Helvetica Neue" font-size="12" font-weight="normal">
                <tspan x="598" y="51">NonCommercial-ShareAlike 4.0 International License. To view a copy of</tspan>
            </text>
            <text id="this-license,-visit-http://creativecommons.org/licenses/by-nc-sa/4.0/." fill="#000000" font-family="HelveticaNeue, Helvetica Neue" font-size="12" font-weight="normal">
                <tspan x="598" y="69">this license, visit http://creativecommons.org/licenses/by-nc-sa/4.0/.</tspan>
            </text>
        </g>
    </g>
</svg>