<svg xmlns="http://www.w3.org/2000/svg" xmlns:xlink="http://www.w3.org/1999/xlink" width="319" height="58" viewBox="0 0 319 58">
  <defs>
    <rect id="buttonseparatedfromcontext-a" width="68" height="58"/>
  </defs>
  <g fill="none" fill-rule="evenodd">
    <use fill="#FFF" xlink:href="#buttonseparatedfromcontext-a"/>
    <rect width="63" height="53" x="2.5" y="2.5" stroke="#979797" stroke-width="5"/>
    <rect width="118" height="48" x="201" y="5" fill="#00823B"/>
    <path fill="#FFF" d="M219.882812,34.2773438 C220.101564,34.527345 220.367186,34.7734363 220.679688,35.015625 C220.992189,35.2578137 221.337889,35.4746084 221.716797,35.6660156 C222.095705,35.8574228 222.50781,36.0097651 222.953125,36.1230469 C223.39844,36.2363287 223.878904,36.2929688 224.394531,36.2929688 C225.355474,36.2929688 226.091794,36.0917989 226.603516,35.6894531 C227.115237,35.2871074 227.371094,34.7968779 227.371094,34.21875 C227.371094,33.6171845 227.146487,33.1601578 226.697266,32.8476562 C226.248045,32.5351547 225.535161,32.2890634 224.558594,32.109375 L224.03125,32.015625 C223.328121,31.8906244 222.62891,31.7265635 221.933594,31.5234375 C221.238278,31.3203115 220.609378,31.0273457 220.046875,30.6445312 C219.484372,30.2617168 219.027346,29.7714874 218.675781,29.1738281 C218.324217,28.5761689 218.148438,27.8203171 218.148438,26.90625 C218.148438,26.3749973 218.265624,25.8183623 218.5,25.2363281 C218.734376,24.654294 219.107419,24.1191431 219.619141,23.6308594 C220.130862,23.1425757 220.791012,22.7421891 221.599609,22.4296875 C222.408207,22.1171859 223.386713,21.9609375 224.535156,21.9609375 C225.894538,21.9609375 227.107417,22.1855446 228.173828,22.6347656 C229.24024,23.0839866 230.101559,23.6757776 230.757812,24.4101562 L228.496094,26.5195312 C228.035154,26.0117162 227.443363,25.6132827 226.720703,25.3242188 C225.998043,25.0351548 225.25391,24.890625 224.488281,24.890625 C223.605464,24.890625 222.916018,25.0585921 222.419922,25.3945312 C221.923826,25.7304704 221.675781,26.1679661 221.675781,26.7070312 C221.675781,27.0585955 221.755859,27.3515613 221.916016,27.5859375 C222.076173,27.8203137 222.30078,28.0136711 222.589844,28.1660156 C222.878908,28.3183601 223.22656,28.445312 223.632812,28.546875 C224.039065,28.648438 224.492185,28.7499995 224.992188,28.8515625 L225.261719,28.8984375 C225.933597,29.0234381 226.601559,29.1816397 227.265625,29.3730469 C227.929691,29.5644541 228.5332,29.8457013 229.076172,30.2167969 C229.619143,30.5878925 230.058592,31.0722626 230.394531,31.6699219 C230.73047,32.2675811 230.898438,33.0312454 230.898438,33.9609375 C230.898438,34.8046917 230.722658,35.550778 230.371094,36.1992188 C230.019529,36.8476595 229.55469,37.4003883 228.976562,37.8574219 C228.398435,38.3144554 227.730473,38.658202 226.972656,38.8886719 C226.21484,39.1191418 225.425785,39.234375 224.605469,39.234375 C223.77734,39.234375 223.009769,39.1640632 222.302734,39.0234375 C221.5957,38.8828118 220.955081,38.683595 220.380859,38.4257812 C219.806638,38.1679675 219.294924,37.8789079 218.845703,37.5585938 C218.396482,37.2382796 218.003908,36.8945331 217.667969,36.5273438 L219.882812,34.2773438 Z M244.09375,39 L240.859375,39 L240.859375,37.921875 C240.679687,38.0937509 240.484376,38.2597648 240.273438,38.4199219 C240.062499,38.5800789 239.828126,38.7207025 239.570312,38.8417969 C239.312499,38.9628912 239.025392,39.0585934 238.708984,39.1289062 C238.392577,39.1992191 238.042971,39.234375 237.660156,39.234375 C236.980465,39.234375 236.371096,39.123048 235.832031,38.9003906 C235.292966,38.6777333 234.837892,38.3730488 234.466797,37.9863281 C234.095701,37.5996074 233.812501,37.1445339 233.617188,36.6210938 C233.421874,36.0976536 233.324219,35.531253 233.324219,34.921875 L233.324219,26.4492188 L236.558594,26.4492188 L236.558594,33.7382812 C236.558594,34.183596 236.607421,34.5624984 236.705078,34.875 C236.802735,35.1875016 236.939452,35.4394522 237.115234,35.6308594 C237.291017,35.8222666 237.499999,35.9628902 237.742188,36.0527344 C237.984376,36.1425786 238.246092,36.1875 238.527344,36.1875 C238.85547,36.1875 239.162108,36.1289068 239.447266,36.0117188 C239.732423,35.8945307 239.980468,35.7167981 240.191406,35.4785156 C240.402345,35.2402332 240.566406,34.941408 240.683594,34.5820312 C240.800782,34.2226545 240.859375,33.8007837 240.859375,33.3164062 L240.859375,26.4492188 L244.09375,26.4492188 L244.09375,39 Z M258.8125,32.7304688 C258.8125,33.6601609 258.675783,34.5234335 258.402344,35.3203125 C258.128905,36.1171915 257.746096,36.8046846 257.253906,37.3828125 C256.761716,37.9609404 256.171878,38.4140609 255.484375,38.7421875 C254.796872,39.0703141 254.039067,39.234375 253.210938,39.234375 C252.843748,39.234375 252.509767,39.2011722 252.208984,39.1347656 C251.908202,39.068359 251.632814,38.9765631 251.382812,38.859375 C251.132811,38.7421869 250.902345,38.6035164 250.691406,38.4433594 C250.480468,38.2832023 250.289063,38.1093759 250.117188,37.921875 L250.117188,39 L246.882812,39 L246.882812,22.1953125 L250.117188,22.1953125 L250.117188,27.5273438 C250.468752,27.1601544 250.902341,26.8476575 251.417969,26.5898438 C251.933596,26.33203 252.55859,26.203125 253.292969,26.203125 C254.121098,26.203125 254.873043,26.369139 255.548828,26.7011719 C256.224613,27.0332048 256.804685,27.4902315 257.289062,28.0722656 C257.77344,28.6542998 258.148436,29.343746 258.414062,30.140625 C258.679689,30.937504 258.8125,31.8007766 258.8125,32.7304688 Z M250.023438,33.890625 C250.023438,34.2265642 250.083984,34.5371079 250.205078,34.8222656 C250.326172,35.1074233 250.499999,35.3554677 250.726562,35.5664062 C250.953126,35.7773448 251.224608,35.9414057 251.541016,36.0585938 C251.857423,36.1757818 252.214842,36.234375 252.613281,36.234375 C253.074221,36.234375 253.48242,36.1503915 253.837891,35.9824219 C254.193361,35.8144523 254.492186,35.5781265 254.734375,35.2734375 C254.976564,34.9687485 255.160156,34.607424 255.285156,34.1894531 C255.410157,33.7714823 255.472656,33.3125025 255.472656,32.8125 L255.472656,32.6601562 C255.472656,32.1601537 255.410157,31.6992209 255.285156,31.2773438 C255.160156,30.8554666 254.976564,30.4902359 254.734375,30.1816406 C254.492186,29.8730453 254.193361,29.6328134 253.837891,29.4609375 C253.48242,29.2890616 253.074221,29.203125 252.613281,29.203125 C252.214842,29.203125 251.857423,29.2617182 251.541016,29.3789062 C251.224608,29.4960943 250.953126,29.6601552 250.726562,29.8710938 C250.499999,30.0820323 250.326172,30.3320298 250.205078,30.6210938 C250.083984,30.9101577 250.023438,31.2226546 250.023438,31.5585938 L250.023438,33.890625 Z M271.550781,39 L268.304688,39 L268.304688,31.6992188 C268.304688,31.253904 268.25586,30.8769547 268.158203,30.5683594 C268.060546,30.2597641 267.925782,30.0097666 267.753906,29.8183594 C267.58203,29.6269522 267.382814,29.4902348 267.15625,29.4082031 C266.929686,29.3261715 266.683595,29.2851562 266.417969,29.2851562 C266.105467,29.2851562 265.814454,29.3398432 265.544922,29.4492188 C265.275389,29.5585943 265.041017,29.7304676 264.841797,29.9648438 C264.642577,30.1992199 264.486329,30.4980451 264.373047,30.8613281 C264.259765,31.2246112 264.203125,31.6562475 264.203125,32.15625 L264.203125,39 L260.96875,39 L260.96875,26.4492188 L264.203125,26.4492188 L264.203125,27.5507812 C264.61719,27.0898414 265.099607,26.7500011 265.650391,26.53125 C266.201175,26.3124989 266.792966,26.203125 267.425781,26.203125 C268.074222,26.203125 268.681638,26.3359362 269.248047,26.6015625 C269.814456,26.8671888 270.285154,27.3046845 270.660156,27.9140625 C270.878907,27.6015609 271.130858,27.3359386 271.416016,27.1171875 C271.701173,26.8984364 272.007811,26.7226569 272.335938,26.5898438 C272.664064,26.4570306 273.005858,26.3593753 273.361328,26.296875 C273.716799,26.2343747 274.082029,26.203125 274.457031,26.203125 C275.16016,26.203125 275.787107,26.3183582 276.337891,26.5488281 C276.888675,26.779298 277.355467,27.0898418 277.738281,27.4804688 C278.121096,27.8710957 278.414061,28.32031 278.617188,28.828125 C278.820314,29.33594 278.921875,29.8710909 278.921875,30.4335938 L278.921875,39 L275.652344,39 L275.652344,31.6992188 C275.652344,31.253904 275.603516,30.8769547 275.505859,30.5683594 C275.408203,30.2597641 275.273438,30.0097666 275.101562,29.8183594 C274.929687,29.6269522 274.728517,29.4902348 274.498047,29.4082031 C274.267577,29.3261715 274.019533,29.2851562 273.753906,29.2851562 C273.441405,29.2851562 273.152345,29.3398432 272.886719,29.4492188 C272.621092,29.5585943 272.388673,29.7304676 272.189453,29.9648438 C271.990233,30.1992199 271.833985,30.4980451 271.720703,30.8613281 C271.607421,31.2246112 271.550781,31.6562475 271.550781,32.15625 L271.550781,39 Z M284.839844,39 L281.605469,39 L281.605469,26.4492188 L284.839844,26.4492188 L284.839844,39 Z M281.265625,23.15625 C281.265625,22.8906237 281.316406,22.6386731 281.417969,22.4003906 C281.519532,22.1621082 281.658202,21.955079 281.833984,21.7792969 C282.009767,21.6035147 282.214843,21.4648443 282.449219,21.3632812 C282.683595,21.2617182 282.937499,21.2109375 283.210938,21.2109375 C283.476564,21.2109375 283.728514,21.2617182 283.966797,21.3632812 C284.205079,21.4648443 284.412108,21.6035147 284.587891,21.7792969 C284.763673,21.955079 284.902343,22.1621082 285.003906,22.4003906 C285.105469,22.6386731 285.15625,22.8906237 285.15625,23.15625 C285.15625,23.4296889 285.105469,23.6835926 285.003906,23.9179688 C284.902343,24.1523449 284.763673,24.357421 284.587891,24.5332031 C284.412108,24.7089853 284.205079,24.8476557 283.966797,24.9492188 C283.728514,25.0507818 283.476564,25.1015625 283.210938,25.1015625 C282.937499,25.1015625 282.683595,25.0507818 282.449219,24.9492188 C282.214843,24.8476557 282.009767,24.7089853 281.833984,24.5332031 C281.658202,24.357421 281.519532,24.1523449 281.417969,23.9179688 C281.316406,23.6835926 281.265625,23.4296889 281.265625,23.15625 Z M292.257812,35.2617188 C292.257812,35.410157 292.277344,35.5507806 292.316406,35.6835938 C292.355469,35.8164069 292.423828,35.9316401 292.521484,36.0292969 C292.619141,36.1269536 292.757812,36.2031247 292.9375,36.2578125 C293.117188,36.3125003 293.347655,36.3398438 293.628906,36.3398438 C293.746094,36.3398438 293.878906,36.3339844 294.027344,36.3222656 C294.175782,36.3105468 294.324218,36.2968751 294.472656,36.28125 C294.621094,36.2656249 294.759765,36.2460939 294.888672,36.2226562 L295.210938,36.1640625 L295.503906,39.0234375 C295.199217,39.0625002 294.882814,39.0976561 294.554688,39.1289062 C294.273436,39.1601564 293.960939,39.1855468 293.617188,39.2050781 C293.273436,39.2246095 292.925783,39.234375 292.574219,39.234375 C291.457026,39.234375 290.585941,38.9804713 289.960938,38.4726562 C289.335934,37.9648412 289.023438,37.1562555 289.023438,36.046875 L289.023438,29.2617188 L286.761719,29.2617188 L286.761719,26.4492188 L289.023438,26.4492188 L289.023438,22.8984375 L292.257812,22.03125 L292.257812,26.4492188 L295.550781,26.4492188 L295.550781,29.2617188 L292.257812,29.2617188 L292.257812,35.2617188 Z"/>
  </g>
</svg>
