<svg xmlns="http://www.w3.org/2000/svg" width="200" height="200" viewBox="0 0 200 200">
  <g fill="none" fill-rule="evenodd">
    <circle cx="100" cy="100" r="100" fill="#E2F2F1"/>
    <path fill="#F47738" d="M145.428571,157.785714 C145.428571,156.141361 144.827759,154.718384 143.626116,153.516741 C142.424473,152.315098 141.001496,151.714286 139.357143,151.714286 C137.712789,151.714286 136.289813,152.315098 135.08817,153.516741 C133.886527,154.718384 133.285714,156.141361 133.285714,157.785714 C133.285714,159.430068 133.886527,160.853045 135.08817,162.054687 C136.289813,163.25633 137.712789,163.857143 139.357143,163.857143 C141.001496,163.857143 142.424473,163.25633 143.626116,162.054687 C144.827759,160.853045 145.428571,159.430068 145.428571,157.785714 Z M169.714286,157.785714 C169.714286,156.141361 169.113473,154.718384 167.91183,153.516741 C166.710187,152.315098 165.287211,151.714286 163.642857,151.714286 C161.998504,151.714286 160.575527,152.315098 159.373884,153.516741 C158.172241,154.718384 157.571429,156.141361 157.571429,157.785714 C157.571429,159.430068 158.172241,160.853045 159.373884,162.054687 C160.575527,163.25633 161.998504,163.857143 163.642857,163.857143 C165.287211,163.857143 166.710187,163.25633 167.91183,162.054687 C169.113473,160.853045 169.714286,159.430068 169.714286,157.785714 Z M181.857143,136.535714 L181.857143,166.892857 C181.857143,169.422632 180.971735,171.572908 179.200893,173.34375 C177.430051,175.114592 175.279775,176 172.75,176 L33.1071429,176 C30.5773683,176 28.4270922,175.114592 26.65625,173.34375 C24.8854078,171.572908 24,169.422632 24,166.892857 L24,136.535714 C24,134.00594 24.8854078,131.855664 26.65625,130.084821 C28.4270922,128.313979 30.5773683,127.428571 33.1071429,127.428571 L77.2198661,127.428571 L90.0267857,140.330357 C93.6949588,143.872042 97.995511,145.642857 102.928571,145.642857 C107.861632,145.642857 112.162184,143.872042 115.830357,140.330357 L128.732143,127.428571 L172.75,127.428571 C175.279775,127.428571 177.430051,128.313979 179.200893,130.084821 C180.971735,131.855664 181.857143,134.00594 181.857143,136.535714 Z M151.02567,82.5569196 C152.100824,85.1499386 151.65812,87.3634581 149.697545,89.1975446 L107.197545,131.697545 C106.059146,132.899188 104.636169,133.5 102.928571,133.5 C101.220974,133.5 99.7979968,132.899188 98.6595982,131.697545 L56.1595982,89.1975446 C54.1990229,87.3634581 53.756319,85.1499386 54.8314732,82.5569196 C55.9066274,80.0903895 57.7723081,78.8571429 60.4285714,78.8571429 L84.7142857,78.8571429 L84.7142857,36.3571429 C84.7142857,34.7127894 85.3150982,33.2898126 86.5167411,32.0881696 C87.718384,30.8865267 89.1413608,30.2857143 90.7857143,30.2857143 L115.071429,30.2857143 C116.715782,30.2857143 118.138759,30.8865267 119.340402,32.0881696 C120.542045,33.2898126 121.142857,34.7127894 121.142857,36.3571429 L121.142857,78.8571429 L145.428571,78.8571429 C148.084835,78.8571429 149.950515,80.0903895 151.02567,82.5569196 Z"/>
  </g>
</svg>
