<svg xmlns="http://www.w3.org/2000/svg" width="236" height="96" viewBox="0 0 236 96">
  <g fill="none" fill-rule="evenodd">
    <rect width="236" height="96" fill="#00823B"/>
    <path fill="#FFF" d="M35.0058594 56.1611328C35.4615908 56.6819687 36.0149707 57.1946589 36.6660156 57.6992188 37.3170605 58.2037786 38.0372682 58.6554342 38.8266602 59.0541992 39.6160521 59.4529642 40.4746047 59.7703439 41.4023438 60.0063477 42.3300828 60.2423514 43.3310493 60.3603516 44.4052734 60.3603516 46.4072366 60.3603516 47.9412382 59.9412477 49.0073242 59.1030273 50.0734103 58.264807 50.6064453 57.2434956 50.6064453 56.0390625 50.6064453 54.785801 50.1385138 53.8336621 49.2026367 53.1826172 48.2667596 52.5315723 46.7815857 52.0188821 44.7470703 51.6445312L43.6484375 51.4492188C42.1835864 51.1888008 40.7268953 50.8470073 39.2783203 50.4238281 37.8297454 50.0006489 36.5195371 49.3903035 35.3476562 48.5927734 34.1757754 47.7952434 33.2236365 46.773932 32.4912109 45.5288086 31.7587854 44.2836852 31.3925781 42.7089939 31.3925781 40.8046875 31.3925781 39.6979111 31.6367163 38.5382548 32.125 37.3256836 32.6132837 36.1131124 33.3904569 34.9982147 34.456543 33.980957 35.522629 32.9636993 36.8979408 32.1295605 38.5825195 31.4785156 40.2670983 30.8274707 42.3056521 30.5019531 44.6982422 30.5019531 47.5302876 30.5019531 50.0571178 30.9698846 52.2788086 31.9057617 54.5004994 32.8416388 56.294915 34.0745366 57.6621094 35.6044922L52.9501953 39.9990234C51.9899041 38.9410754 50.7570062 38.1110056 49.2514648 37.5087891 47.7459235 36.9065725 46.195646 36.6054688 44.6005859 36.6054688 42.761384 36.6054688 41.3250377 36.9554001 40.2915039 37.6552734 39.2579701 38.3551467 38.7412109 39.2665959 38.7412109 40.3896484 38.7412109 41.122074 38.9080387 41.7324194 39.2416992 42.2207031 39.5753597 42.7089868 40.0432913 43.1118148 40.6455078 43.4291992 41.2477244 43.7465836 41.972001 44.0110667 42.8183594 44.2226562 43.6647178 44.4342458 44.6087188 44.6458323 45.6503906 44.8574219L46.2119141 44.9550781C47.6116606 45.2154961 49.0032483 45.5450826 50.3867188 45.9438477 51.7701892 46.3426127 53.0275009 46.9285443 54.1586914 47.7016602 55.289882 48.474776 56.2054001 49.4838805 56.9052734 50.7290039 57.6051467 51.9741273 57.9550781 53.5650945 57.9550781 55.5019531 57.9550781 57.2597744 57.5888708 58.8141208 56.8564453 60.1650391 56.1240198 61.5159573 55.155605 62.6674757 53.9511719 63.6196289 52.7467388 64.5717821 51.3551511 65.2879208 49.7763672 65.7680664 48.1975833 66.248212 46.5537195 66.4882812 44.8447266 66.4882812 43.1194575 66.4882812 41.5203524 66.3417983 40.0473633 66.0488281 38.5743741 65.7558579 37.2397521 65.340823 36.043457 64.8037109 34.847162 64.2665989 33.7810919 63.6643914 32.8452148 62.9970703 31.9093378 62.3297493 31.0914749 61.6136106 30.3916016 60.8486328L35.0058594 56.1611328zM72.8476562 58.2119141C72.8476562 58.5211604 72.8883459 58.8141262 72.9697266 59.0908203 73.0511072 59.3675144 73.1935211 59.6075836 73.3969727 59.8110352 73.6004242 60.0144867 73.889321 60.1731765 74.2636719 60.2871094 74.6380227 60.4010422 75.1181611 60.4580078 75.7041016 60.4580078 75.9482434 60.4580078 76.2249333 60.4458009 76.5341797 60.4213867 76.843426 60.3969725 77.1526677 60.3684897 77.4619141 60.3359375 77.7711604 60.3033853 78.0600573 60.2626956 78.3286133 60.2138672L79 60.0917969 79.6103516 66.0488281C78.9755828 66.1302087 78.3164097 66.2034502 77.6328125 66.2685547 77.0468721 66.3336592 76.3958369 66.3865558 75.6796875 66.4272461 74.9635381 66.4679364 74.2392615 66.4882812 73.5068359 66.4882812 71.1793503 66.4882812 69.3645898 65.9593152 68.0625 64.9013672 66.7604102 63.8434192 66.109375 62.1588657 66.109375 59.8476562L66.109375 45.7119141 61.3974609 45.7119141 61.3974609 39.8525391 66.109375 39.8525391 66.109375 32.4550781 72.8476562 30.6484375 72.8476562 39.8525391 79.7080078 39.8525391 79.7080078 45.7119141 72.8476562 45.7119141 72.8476562 58.2119141zM92.4033203 55.3798828C91.573238 55.5100918 90.905927 55.7989886 90.4013672 56.246582 89.8968074 56.6941754 89.6445312 57.3004519 89.6445312 58.0654297 89.6445312 58.9117881 89.9537729 59.6401337 90.5722656 60.2504883 91.1907583 60.8608429 92.1022075 61.1660156 93.3066406 61.1660156 94.5761782 61.1660156 95.5771448 60.7998083 96.3095703 60.0673828 97.0419958 59.3349573 97.4082031 58.3665425 97.4082031 57.1621094L97.4082031 54.5253906 92.4033203 55.3798828zM98.5068359 63.5341797C98.2301418 63.843426 97.8924174 64.1730126 97.4936523 64.5229492 97.0948873 64.8728859 96.6228868 65.1902655 96.0776367 65.4750977 95.5323866 65.7599298 94.8935583 65.999999 94.1611328 66.1953125 93.4287073 66.390626 92.6067754 66.4882812 91.6953125 66.4882812 90.3932227 66.4882812 89.1928766 66.2807638 88.0942383 65.8657227 86.9956 65.4506815 86.0312542 64.8688188 85.2011719 64.1201172 84.3710896 63.3714155 83.7200544 62.504725 83.2480469 61.5200195 82.7760393 60.5353141 82.5400391 59.465175 82.5400391 58.3095703 82.5400391 56.2099504 83.1910742 54.4928452 84.4931641 53.1582031 85.7952539 51.823561 87.5937385 50.9853533 89.8886719 50.6435547L97.4082031 49.5449219 97.4082031 49.0566406C97.4082031 47.8847598 97.0501338 46.9570347 96.3339844 46.2734375 95.617835 45.5898403 94.4541096 45.2480469 92.8427734 45.2480469 92.1754524 45.2480469 91.5000034 45.3253573 90.8164062 45.4799805 90.1328091 45.6346036 89.477705 45.8095693 88.8510742 46.0048828 88.2244435 46.2001963 87.6425808 46.4239896 87.1054688 46.6762695 86.5683567 46.9285494 86.0963562 47.1523428 85.6894531 47.3476562L83.0527344 42.1962891C84.5501377 41.3662068 86.2143463 40.6826199 88.0454102 40.1455078 89.876474 39.6083958 91.7766829 39.3398438 93.7460938 39.3398438 94.9505269 39.3398438 96.1671488 39.4659818 97.3959961 39.7182617 98.6248434 39.9705416 99.7397411 40.4303352 100.740723 41.0976562 101.741704 41.7649773 102.559567 42.6723575 103.194336 43.8198242 103.829105 44.9672909 104.146484 46.428051 104.146484 48.2021484L104.146484 58.9443359C104.146484 59.7093137 104.345864 60.2749005 104.744629 60.6411133 105.143394 61.007326 105.692705 61.3450505 106.392578 61.6542969L103.34082 66.4882812C102.103835 66.3580723 101.111006 66.0366237 100.362305 65.5239258 99.613603 65.0112279 98.9951196 64.3479858 98.5068359 63.5341797zM124.458984 46.3955078L123.750977 46.3955078C122.790685 46.3955078 121.875167 46.4931631 121.004395 46.6884766 120.133622 46.88379 119.364587 47.2377904 118.697266 47.7504883 118.029945 48.2631862 117.49691 48.9671179 117.098145 49.8623047 116.69938 50.7574915 116.5 51.9049409 116.5 53.3046875L116.5 66 109.761719 66 109.761719 39.8525391 116.5 39.8525391 116.5 42.8066406C116.776694 42.3671853 117.134763 41.9440125 117.574219 41.5371094 118.013674 41.1302063 118.526364 40.768068 119.112305 40.4506836 119.698245 40.1332992 120.357418 39.8769541 121.089844 39.6816406 121.822269 39.4863271 122.611649 39.3886719 123.458008 39.3886719L124.458984 39.3886719 124.458984 46.3955078zM138.301758 58.2119141C138.301758 58.5211604 138.342448 58.8141262 138.423828 59.0908203 138.505209 59.3675144 138.647623 59.6075836 138.851074 59.8110352 139.054526 60.0144867 139.343423 60.1731765 139.717773 60.2871094 140.092124 60.4010422 140.572263 60.4580078 141.158203 60.4580078 141.402345 60.4580078 141.679035 60.4458009 141.988281 60.4213867 142.297528 60.3969725 142.606769 60.3684897 142.916016 60.3359375 143.225262 60.3033853 143.514159 60.2626956 143.782715 60.2138672L144.454102 60.0917969 145.064453 66.0488281C144.429684 66.1302087 143.770511 66.2034502 143.086914 66.2685547 142.500974 66.3336592 141.849938 66.3865558 141.133789 66.4272461 140.41764 66.4679364 139.693363 66.4882812 138.960938 66.4882812 136.633452 66.4882812 134.818691 65.9593152 133.516602 64.9013672 132.214512 63.8434192 131.563477 62.1588657 131.563477 59.8476562L131.563477 45.7119141 126.851562 45.7119141 126.851562 39.8525391 131.563477 39.8525391 131.563477 32.4550781 138.301758 30.6484375 138.301758 39.8525391 145.162109 39.8525391 145.162109 45.7119141 138.301758 45.7119141 138.301758 58.2119141zM198.130255 51.2573052L178.255255 71.1323052C177.915967 71.4715926 177.514186 71.6412338 177.049897 71.6412338 176.585609 71.6412338 176.183828 71.4715926 175.84454 71.1323052L171.398112 66.6858766C171.058824 66.3465892 170.889183 65.9448075 170.889183 65.4805195 170.889183 65.0162314 171.058824 64.6144497 171.398112 64.2751623L185.621326 50.0519481 171.398112 35.8287338C171.058824 35.4894464 170.889183 35.0876647 170.889183 34.6233766 170.889183 34.1590886 171.058824 33.7573069 171.398112 33.4180195L175.84454 28.9715909C176.183828 28.6323035 176.585609 28.4626623 177.049897 28.4626623 177.514186 28.4626623 177.915967 28.6323035 178.255255 28.9715909L198.130255 48.8465909C198.469542 49.1858783 198.639183 49.58766 198.639183 50.0519481 198.639183 50.5162361 198.469542 50.9180178 198.130255 51.2573052z"/>
  </g>
</svg>
