<svg xmlns="http://www.w3.org/2000/svg" width="134" height="144" viewBox="0 0 134 144">
  <path fill="#F47738" fill-rule="evenodd" d="M66.7767857,53.6517857 C68.49108,53.6517857 70.0714213,54.1339238 71.5178571,55.0982143 L89.3571429,66.9910714 C92.6250163,69.1339393 95.5714154,71.7321276 98.1964286,74.7857143 L109.928571,88.4464286 C112.071439,90.9107266 112.848217,93.7499839 112.258929,96.9642857 L106.473214,130.151786 C106.151784,131.86608 105.361613,133.299101 104.102679,134.450893 C102.843744,135.602684 101.357151,136.285713 99.6428571,136.5 L57.2946429,141 L29.0089286,143.571429 L28.2857143,143.571429 C26.1964181,143.571429 24.3884005,142.821436 22.8616071,141.321429 C21.3348138,139.821421 20.5714286,138.000011 20.5714286,135.857143 C20.5714286,133.87499 21.2946356,132.160722 22.7410714,130.714286 C24.1875072,129.26785 25.9285612,128.410716 27.9642857,128.142857 L48.8571429,125.571429 L12.8571429,125.571429 C10.6607033,125.571429 8.79911478,124.767865 7.27232143,123.160714 C5.74552808,121.553563 5.03571375,119.651797 5.14285714,117.455357 C5.25000054,115.366061 6.10713482,113.625007 7.71428571,112.232143 C9.32143661,110.839279 11.1696324,110.142857 13.2589286,110.142857 L48.7767857,110.0625 L6.91071429,104.919643 C4.71427473,104.651784 2.94643527,103.660723 1.60714286,101.946429 C0.267850446,100.232134 -0.241073036,98.2767967 0.0803571429,96.0803571 C0.401787321,94.2053478 1.32588522,92.6651846 2.85267857,91.4598214 C4.37947192,90.2544583 6.13391866,89.6517857 8.11607143,89.6517857 L8.91964286,89.6517857 L47.5714286,94.4732143 L19.3660714,86.9196429 C17.330347,86.3839259 15.6696493,85.2723299 14.3839286,83.5848214 C13.0982079,81.897313 12.6160698,80.0625099 12.9375,78.0803571 C13.2589302,76.1517761 14.1428499,74.5848275 15.5892857,73.3794643 C17.0357215,72.1741011 18.6964192,71.5714286 20.5714286,71.5714286 C20.8928588,71.5714286 21.4285677,71.6249995 22.1785714,71.7321429 L58.1785714,79.4464286 L75.6160714,82.4196429 C75.6696431,82.4196429 75.7499995,82.4330356 75.8571429,82.4598214 C75.9642862,82.4866073 76.0446426,82.5 76.0982143,82.5 C77.3303633,82.5 78.1473194,81.8839347 78.5491071,80.6517857 C78.9508949,79.4196367 78.6160768,78.4553606 77.5446429,77.7589286 L62.5982143,67.7142857 C60.7232049,66.4821367 59.5982162,64.7812608 59.2232143,62.6116071 C58.8482124,60.4419534 59.3303504,58.4732231 60.6696429,56.7053571 C62.1160787,54.6696327 64.1517726,53.6517857 66.7767857,53.6517857 Z M61.1517857,69.8839286 L76.0982143,79.9285714 L58.5803571,76.9553571 L58.1785714,76.7946429 L55.2857143,73.7410714 L36.1607143,52.6875 C36.1071426,52.6339283 36.040179,52.5401792 35.9598214,52.40625 C35.8794639,52.2723208 35.8125003,52.1785717 35.7589286,52.125 C34.4732079,50.4642774 33.9776771,48.5892962 34.2723214,46.5 C34.5669658,44.4107038 35.57142,42.6964353 37.2857143,41.3571429 C38.9464369,40.1249938 40.7678472,39.6562485 42.75,39.9508929 C44.7321528,40.2455372 46.4464213,41.1428496 47.8928571,42.6428571 L59.3035714,54.4553571 C59.196428,54.5089288 59.0625008,54.6026779 58.9017857,54.7366071 C58.7410706,54.8705364 58.6339288,54.9910709 58.5803571,55.0982143 C56.8660629,57.5089406 56.2499976,60.1606998 56.7321429,63.0535714 C57.2142881,65.946443 58.6874877,68.223206 61.1517857,69.8839286 Z M132.428571,33.4017857 L133.633929,54.7767857 C133.848215,58.6875196 133.553575,62.6249802 132.75,66.5892857 L128.892857,84.1875 C128.249997,87.3482301 126.455372,89.6785639 123.508929,91.1785714 L114.991071,95.5178571 C115.098215,92.196412 114.053582,89.2767983 111.857143,86.7589286 L100.125,73.0982143 C97.2857001,69.8303408 94.1518029,67.0714398 90.7232143,64.8214286 L72.8839286,52.9285714 C71.0624909,51.6964224 69.026797,51.0803571 66.7767857,51.0803571 C64.0446292,51.0803571 61.6875099,52.0714187 59.7053571,54.0535714 L40.8214286,28.9821429 C39.4821362,27.2142769 38.9999981,25.2455466 39.375,23.0758929 C39.7500019,20.9062392 40.8482052,19.2053633 42.6696429,17.9732143 C44.4375088,16.794637 46.3526683,16.4196407 48.4151786,16.8482143 C50.4776889,17.2767879 52.1517793,18.3482057 53.4375,20.0625 L74.8125,48.3482143 L53.7589286,11.7857143 C52.6339229,9.91070491 52.3526758,7.90179643 52.9151786,5.75892857 C53.4776814,3.61606071 54.7499901,2.03571938 56.7321429,1.01785714 C58.6071522,0.0535666071 60.5490971,-0.107146071 62.5580357,0.535714286 C64.5669743,1.17857464 66.1071375,2.41070518 67.1785714,4.23214286 L86.5446429,37.9821429 L75.6160714,10.9017857 C74.812496,9.02677634 74.6919615,7.0446533 75.2544643,4.95535714 C75.8169671,2.86606098 77.0089195,1.36607598 78.8303571,0.455357143 C80.8125099,-0.562505089 82.8482038,-0.723217768 84.9375,-0.0267857143 C87.0267962,0.669646339 88.5267812,2.03570411 89.4375,4.07142857 L104.946429,37.4196429 L113.0625,53.1696429 C113.491074,53.9732183 114.107139,54.4419636 114.910714,54.5758929 C115.71429,54.7098221 116.437497,54.5089312 117.080357,53.9732143 C117.723217,53.4374973 118.017857,52.7410757 117.964286,51.8839286 L117,33.8839286 C116.892857,31.687489 117.589278,29.7857223 119.089286,28.1785714 C120.589293,26.5714205 122.437489,25.7410717 124.633929,25.6875 C126.723225,25.6875 128.51785,26.4508852 130.017857,27.9776786 C131.517865,29.5044719 132.321428,31.3124896 132.428571,33.4017857 Z"/>
</svg>
