<?xml version="1.0" encoding="UTF-8" standalone="no"?>
<svg width="177px" height="152px" viewBox="0 0 177 152" version="1.1" xmlns="http://www.w3.org/2000/svg" xmlns:xlink="http://www.w3.org/1999/xlink">
    <!-- Generator: Sketch 42 (36781) - http://www.bohemiancoding.com/sketch -->
    <title>deafHardOfHearing/loudspeaker</title>
    <desc>Created with Sketch.</desc>
    <defs></defs>
    <g id="Site-assets" stroke="none" stroke-width="1" fill="none" fill-rule="evenodd">
        <g id="Deaf-and-hard-of-hearing" transform="translate(-1264.000000, -1087.000000)" fill="#F47738">
            <g id="deafHardOfHearing/loudspeaker" transform="translate(1264.000000, 1087.000000)">
                <path d="M81.4285714,18.4642857 L81.4285714,133.821429 C81.4285714,135.659235 80.7570752,137.249621 79.4140625,138.592634 C78.0710498,139.935647 76.480664,140.607143 74.6428571,140.607143 C72.8050503,140.607143 71.2146645,139.935647 69.8716518,138.592634 L34.5647321,103.285714 L6.78571429,103.285714 C4.94790748,103.285714 3.3575216,102.614218 2.01450893,101.271205 C0.671496261,99.9281927 0,98.3378068 0,96.5 L0,55.7857143 C0,53.9479075 0.671496261,52.3575216 2.01450893,51.0145089 C3.3575216,49.6714963 4.94790748,49 6.78571429,49 L34.5647321,49 L69.8716518,13.6930804 C71.2146645,12.3500677 72.8050503,11.6785714 74.6428571,11.6785714 C76.480664,11.6785714 78.0710498,12.3500677 79.4140625,13.6930804 C80.7570752,15.036093 81.4285714,16.6264789 81.4285714,18.4642857 Z M122.142857,76.1428571 C122.142857,81.5149078 120.640826,86.5157879 117.636719,91.1456473 C114.632611,95.7755068 110.656647,99.0799752 105.708705,101.059152 C105.001857,101.412576 104.118309,101.589286 103.058036,101.589286 C101.220229,101.589286 99.629843,100.93546 98.2868304,99.6277902 C96.9438177,98.3201199 96.2723214,96.7120631 96.2723214,94.8035714 C96.2723214,93.319189 96.6964243,92.0645513 97.5446429,91.0396205 C98.3928614,90.0146898 99.4177767,89.1311421 100.61942,88.3889509 C101.821063,87.6467597 103.022687,86.8338958 104.22433,85.9503348 C105.425973,85.0667739 106.450889,83.7944652 107.299107,82.1333705 C108.147326,80.4722759 108.571429,78.4754581 108.571429,76.1428571 C108.571429,73.8102562 108.147326,71.8134384 107.299107,70.1523438 C106.450889,68.4912491 105.425973,67.2189404 104.22433,66.3353795 C103.022687,65.4518185 101.821063,64.6389546 100.61942,63.8967634 C99.4177767,63.1545722 98.3928614,62.2710245 97.5446429,61.2460938 C96.6964243,60.221163 96.2723214,58.9665253 96.2723214,57.4821429 C96.2723214,55.5736512 96.9438177,53.9655943 98.2868304,52.6579241 C99.629843,51.3502539 101.220229,50.6964286 103.058036,50.6964286 C104.118309,50.6964286 105.001857,50.8731381 105.708705,51.2265625 C110.656647,53.1350542 114.632611,56.4218517 117.636719,61.0870536 C120.640826,65.7522555 122.142857,70.7708065 122.142857,76.1428571 Z M149.285714,76.1428571 C149.285714,86.9576434 146.281652,96.9417325 140.273438,106.095424 C134.265223,115.249116 126.313294,121.911065 116.417411,126.081473 C115.498507,126.434898 114.61496,126.611607 113.766741,126.611607 C111.858249,126.611607 110.232522,125.940111 108.889509,124.597098 C107.546496,123.254086 106.875,121.6637 106.875,119.825893 C106.875,117.069183 108.253334,114.98401 111.010045,113.570312 C114.968398,111.520451 117.654383,109.965407 119.06808,108.905134 C124.298761,105.088151 128.380752,100.299322 131.314174,94.5385045 C134.247597,88.777687 135.714286,82.6458658 135.714286,76.1428571 C135.714286,69.6398484 134.247597,63.5080273 131.314174,57.7472098 C128.380752,51.9863923 124.298761,47.1975637 119.06808,43.3805804 C117.654383,42.3203072 114.968398,40.7652632 111.010045,38.7154018 C108.253334,37.3017042 106.875,35.2165316 106.875,32.4598214 C106.875,30.6220146 107.546496,29.0316287 108.889509,27.6886161 C110.232522,26.3456034 111.822907,25.6741071 113.660714,25.6741071 C114.579618,25.6741071 115.498507,25.8508167 116.417411,26.2042411 C126.313294,30.3746488 134.265223,37.0365986 140.273438,46.1902902 C146.281652,55.3439818 149.285714,65.3280709 149.285714,76.1428571 Z M176.428571,76.1428571 C176.428571,92.4003789 171.940149,107.332335 162.96317,120.939174 C153.98619,134.546013 142.040625,144.565444 127.126116,150.997768 C126.207213,151.351192 125.288323,151.527902 124.36942,151.527902 C122.531613,151.527902 120.941227,150.856406 119.598214,149.513393 C118.255202,148.17038 117.583705,146.579994 117.583705,144.742188 C117.583705,142.197532 118.96204,140.112359 121.71875,138.486607 C122.213544,138.203868 123.008737,137.832778 124.104353,137.373326 C125.199968,136.913874 125.995161,136.542784 126.489955,136.260045 C129.74146,134.492923 132.639496,132.690485 135.184152,130.852679 C143.878392,124.420355 150.664038,116.397742 155.541295,106.784598 C160.418551,97.1714549 162.857143,86.9576434 162.857143,76.1428571 C162.857143,65.3280709 160.418551,55.1142594 155.541295,45.5011161 C150.664038,35.8879728 143.878392,27.8653595 135.184152,21.4330357 C132.639496,19.5952289 129.74146,17.7927916 126.489955,16.0256696 C125.995161,15.7429301 125.199968,15.3718401 124.104353,14.9123884 C123.008737,14.4529367 122.213544,14.0818467 121.71875,13.7991071 C118.96204,12.173355 117.583705,10.0881824 117.583705,7.54352679 C117.583705,5.70571998 118.255202,4.1153341 119.598214,2.77232143 C120.941227,1.42930876 122.531613,0.7578125 124.36942,0.7578125 C125.288323,0.7578125 126.207213,0.934522042 127.126116,1.28794643 C142.040625,7.72027026 153.98619,17.7397013 162.96317,31.3465402 C171.940149,44.953379 176.428571,59.8853354 176.428571,76.1428571 Z" id=""></path>
            </g>
        </g>
    </g>
</svg>