<?xml version="1.0" encoding="UTF-8" standalone="no"?>
<svg width="153px" height="187px" viewBox="0 0 153 187" version="1.1" xmlns="http://www.w3.org/2000/svg" xmlns:xlink="http://www.w3.org/1999/xlink">
    <!-- Generator: Sketch 42 (36781) - http://www.bohemiancoding.com/sketch -->
    <title>deafHardOfHearing/neatTablet</title>
    <desc>Created with Sketch.</desc>
    <defs></defs>
    <g id="Site-assets" stroke="none" stroke-width="1" fill="none" fill-rule="evenodd">
        <g id="Deaf-and-hard-of-hearing" transform="translate(-517.000000, -1368.000000)">
            <g id="deafHardOfHearing/neatTablet" transform="translate(517.000000, 1368.000000)">
                <rect id="Rectangle-236" fill="#FFFFFF" x="14.2282609" y="11.2937063" width="129.728261" height="142.300699"></rect>
                <path d="M84.983935,170.003213 C84.983935,167.701553 84.1429565,165.709762 82.4609744,164.02778 C80.7789923,162.345798 78.7872012,161.50482 76.4855415,161.50482 C74.1838817,161.50482 72.1920907,162.345798 70.5101086,164.02778 C68.8281264,165.709762 67.987148,167.701553 67.987148,170.003213 C67.987148,172.304873 68.8281264,174.296664 70.5101086,175.978646 C72.1920907,177.660628 74.1838817,178.501607 76.4855415,178.501607 C78.7872012,178.501607 80.7789923,177.660628 82.4609744,175.978646 C84.1429565,174.296664 84.983935,172.304873 84.983935,170.003213 Z M135.974296,148.757229 L135.974296,21.2813268 C135.974296,20.1304969 135.553807,19.1346014 134.712816,18.2936103 C133.871825,17.4526193 132.875929,17.03213 131.725099,17.03213 L21.2459837,17.03213 C20.0951539,17.03213 19.0992583,17.4526193 18.2582673,18.2936103 C17.4172762,19.1346014 16.996787,20.1304969 16.996787,21.2813268 L16.996787,148.757229 C16.996787,149.908059 17.4172762,150.903955 18.2582673,151.744946 C19.0992583,152.585937 20.0951539,153.006426 21.2459837,153.006426 L131.725099,153.006426 C132.875929,153.006426 133.871825,152.585937 134.712816,151.744946 C135.553807,150.903955 135.974296,149.908059 135.974296,148.757229 Z M152.971083,21.2813268 L152.971083,165.754016 C152.971083,171.596691 150.890768,176.5983 146.730075,180.758992 C142.569383,184.919685 137.567774,187 131.725099,187 L21.2459837,187 C15.403309,187 10.4017003,184.919685 6.24100773,180.758992 C2.08031511,176.5983 0,171.596691 0,165.754016 L0,21.2813268 C0,15.438652 2.08031511,10.4370434 6.24100773,6.27635076 C10.4017003,2.11565814 15.403309,0.0353430353 21.2459837,0.0353430353 L131.725099,0.0353430353 C137.567774,0.0353430353 142.569383,2.11565814 146.730075,6.27635076 C150.890768,10.4370434 152.971083,15.438652 152.971083,21.2813268 Z" id="" fill="#0B0C0C"></path>
                <rect id="Rectangle-51" fill="#FFBF47" x="24.972973" y="24.3913043" width="104.054054" height="24.8347826"></rect>
                <rect id="Rectangle-51" fill="#F47738" x="24.972973" y="61.6434783" width="104.054054" height="10.3478261"></rect>
                <rect id="Rectangle-51" fill="#F47738" x="24.972973" y="82.3391304" width="104.054054" height="10.3478261"></rect>
                <rect id="Rectangle-51" fill="#F47738" x="24.972973" y="103.034783" width="104.054054" height="10.3478261"></rect>
                <rect id="Rectangle-63" fill="#28A197" x="24.972973" y="124.765217" width="38.5" height="15.5217391"></rect>
            </g>
        </g>
    </g>
</svg>