<?xml version="1.0" encoding="UTF-8" standalone="no"?>
<svg width="212px" height="184px" viewBox="0 0 212 184" version="1.1" xmlns="http://www.w3.org/2000/svg" xmlns:xlink="http://www.w3.org/1999/xlink">
    <!-- Generator: Sketch 42 (36781) - http://www.bohemiancoding.com/sketch -->
    <title>deafHardOfHearing/speechBubbles</title>
    <desc>Created with Sketch.</desc>
    <defs></defs>
    <g id="Site-assets" stroke="none" stroke-width="1" fill="none" fill-rule="evenodd">
        <g id="Deaf-and-hard-of-hearing" transform="translate(-1246.000000, -1957.000000)">
            <g id="deafHardOfHearing/speechBubbles" transform="translate(1246.000000, 1957.000000)">
                <path d="M144,51.5714286 C144,60.8929037 140.785746,69.5044248 134.357143,77.40625 C127.928539,85.3080752 119.196484,91.5490842 108.160714,96.1294643 C97.1249448,100.709844 85.0714939,103 72,103 C68.2499812,103 64.3660915,102.785716 60.3482143,102.357143 C49.7410184,111.73219 37.419713,118.214268 23.3839286,121.803571 C20.7589154,122.553575 17.7053746,123.142855 14.2232143,123.571429 C13.3124954,123.678572 12.4955393,123.437503 11.7723214,122.848214 C11.0491035,122.258926 10.5803582,121.482148 10.3660714,120.517857 L10.3660714,120.4375 C10.2053563,120.223213 10.1919636,119.901788 10.3258929,119.473214 C10.4598221,119.044641 10.513393,118.776786 10.4866071,118.669643 C10.4598213,118.562499 10.5803558,118.308038 10.8482143,117.90625 L11.3303571,117.183036 C11.3839288,117.102678 11.571427,116.875002 11.8928571,116.5 C12.2142873,116.124998 12.4285709,115.883929 12.5357143,115.776786 C12.9107162,115.348212 13.741065,114.424114 15.0267857,113.004464 C16.3125064,111.584814 17.2366043,110.566967 17.7991071,109.950893 C18.36161,109.334818 19.1919588,108.276793 20.2901786,106.776786 C21.3883983,105.276778 22.2589254,103.91072 22.9017857,102.678571 C23.5446461,101.446422 24.2678531,99.8660811 25.0714286,97.9375 C25.875004,96.0089189 26.5714256,93.973225 27.1607143,91.8303571 C18.7499579,87.0624762 12.12056,81.1696779 7.27232143,74.1517857 C2.4240829,67.1338935 0,59.607183 0,51.5714286 C0,44.607108 1.9017667,37.9509246 5.70535714,31.6026786 C9.50894759,25.2544325 14.6249679,19.7768087 21.0535714,15.1696429 C27.482175,10.562477 35.1428127,6.90626353 44.0357143,4.20089286 C52.9286159,1.49552219 62.2499512,0.142857143 72,0.142857143 C85.0714939,0.142857143 97.1249448,2.43301281 108.160714,7.01339286 C119.196484,11.5937729 127.928539,17.8347819 134.357143,25.7366071 C140.785746,33.6384324 144,42.2499534 144,51.5714286 Z" id="" fill="#28A197"></path>
                <path d="M212,133.285714 C212,139.758961 209.767879,145.739184 205.303571,151.226562 C200.839263,156.713941 194.775336,161.047975 187.111607,164.228795 C179.447878,167.409614 171.077426,169 162,169 C159.39582,169 156.698675,168.851192 153.908482,168.553571 C146.542374,175.064021 137.985912,179.565464 128.238839,182.058036 C126.415914,182.578872 124.295399,182.988094 121.877232,183.285714 C121.244789,183.360119 120.677458,183.19271 120.175223,182.783482 C119.672989,182.374254 119.347471,181.834825 119.198661,181.165179 L119.198661,181.109375 C119.087053,180.960565 119.077753,180.737353 119.170759,180.439732 C119.263765,180.142112 119.300967,179.956102 119.282366,179.881696 C119.263765,179.807291 119.347469,179.630582 119.533482,179.351562 L119.868304,178.84933 C119.905506,178.793527 120.035713,178.635418 120.258929,178.375 C120.482144,178.114582 120.630952,177.947173 120.705357,177.872768 C120.965775,177.575147 121.542406,176.933413 122.435268,175.947545 C123.328129,174.961677 123.969864,174.254838 124.360491,173.827009 C124.751118,173.399179 125.327749,172.66444 126.090402,171.622768 C126.853054,170.581096 127.457587,169.632445 127.904018,168.776786 C128.350449,167.921127 128.852676,166.823667 129.410714,165.484375 C129.968753,164.145083 130.452379,162.731406 130.861607,161.243304 C125.020804,157.932275 120.417056,153.840054 117.050223,148.966518 C113.683391,144.092982 112,138.866099 112,133.285714 C112,128.449381 113.320671,123.827031 115.962054,119.418527 C118.603436,115.010023 122.156228,111.206117 126.620536,108.006696 C131.084844,104.807276 136.404731,102.268239 142.580357,100.389509 C148.755983,98.5107793 155.229133,97.5714286 162,97.5714286 C171.077426,97.5714286 179.447878,99.1618145 187.111607,102.342634 C194.775336,105.523453 200.839263,109.857487 205.303571,115.344866 C209.767879,120.832245 212,126.812468 212,133.285714 Z" id="" fill="#F47738" transform="translate(162.000000, 140.437157) scale(-1, 1) translate(-162.000000, -140.437157) "></path>
            </g>
        </g>
    </g>
</svg>