<?xml version="1.0" encoding="UTF-8" standalone="no"?>
<svg width="187px" height="193px" viewBox="0 0 187 193" version="1.1" xmlns="http://www.w3.org/2000/svg" xmlns:xlink="http://www.w3.org/1999/xlink">
    <!-- Generator: Sketch 42 (36781) - http://www.bohemiancoding.com/sketch -->
    <title>deafHardOfHearing/structuredContent</title>
    <desc>Created with Sketch.</desc>
    <defs></defs>
    <g id="Site-assets" stroke="none" stroke-width="1" fill="none" fill-rule="evenodd">
        <g id="Deaf-and-hard-of-hearing" transform="translate(-509.000000, -1662.000000)">
            <g id="deafHardOfHearing/structuredContent" transform="translate(509.000000, 1662.000000)">
                <rect id="Rectangle-95" fill="#F47738" x="0" y="0" width="144" height="21" rx="5"></rect>
                <path d="M0,35.0033431 C0,32.240073 2.23037012,30 5.00179827,30 L181.998202,30 C184.760619,30 187,32.2473679 187,35.0033431 L187,45.9966569 C187,48.759927 184.76966,51 182.007674,51 L125.356554,51 L4.99148252,51 C2.23476285,51 0,48.7526321 0,45.9966569 L0,35.0033431 Z" id="Rectangle-95" fill="#F47738"></path>
                <path d="M0,77.0033431 C0,74.240073 2.23147885,72 5.00714805,72 L89.9928519,72 C92.7582235,72 95,74.2473679 95,77.0033431 L95,87.9966569 C95,90.759927 92.7603845,93 90.0032288,93 L63.6838108,93 L4.99716182,93 C2.23730555,93 0,90.7526321 0,87.9966569 L0,77.0033431 Z" id="Rectangle-95" fill="#B58840"></path>
                <path d="M0,109.003343 C0,106.240073 2.23147885,104 5.00714805,104 L89.9928519,104 C92.7582235,104 95,106.247368 95,109.003343 L95,119.996657 C95,122.759927 92.7603845,125 90.0032288,125 L63.6838108,125 L4.99716182,125 C2.23730555,125 0,122.752632 0,119.996657 L0,109.003343 Z" id="Rectangle-95" fill="#B58840"></path>
                <rect id="Rectangle-136" fill="#FFBF47" x="108" y="65" width="78" height="61" rx="9"></rect>
                <path d="M30,147.003343 C30,144.240073 32.234459,142 35.00184,142 L181.99816,142 C184.7606,142 187,144.247368 187,147.003343 L187,157.996657 C187,160.759927 184.759578,163 181.990572,163 L135.245877,163 L35.0054242,163 C32.2410047,163 30,160.752632 30,157.996657 L30,147.003343 Z" id="Rectangle-95" fill="#28A197"></path>
                <path d="M30,177.003343 C30,174.240073 32.234459,172 35.00184,172 L181.99816,172 C184.7606,172 187,174.247368 187,177.003343 L187,187.996657 C187,190.759927 184.759578,193 181.990572,193 L135.245877,193 L35.0054242,193 C32.2410047,193 30,190.752632 30,187.996657 L30,177.003343 Z" id="Rectangle-95" fill="#28A197"></path>
                <circle id="Oval-84" fill="#28A197" cx="11.25" cy="151.25" r="10.25"></circle>
                <circle id="Oval-84" fill="#28A197" cx="11.25" cy="181.25" r="10.25"></circle>
            </g>
        </g>
    </g>
</svg>