<svg xmlns="http://www.w3.org/2000/svg" width="287" height="280" viewBox="0 0 287 280">
  <g fill="none" fill-rule="evenodd">
    <circle cx="140" cy="140" r="140" fill="#EDF2F0"/>
    <path fill="#FFBF47" d="M176.107143,128.928571 C176.107143,119.587007 172.792444,111.626707 166.162946,105.047433 C159.533449,98.4681591 151.59826,95.1785714 142.357143,95.1785714 C133.116025,95.1785714 125.180837,98.4681591 118.551339,105.047433 C111.921842,111.626707 108.607143,119.587007 108.607143,128.928571 C108.607143,131.540192 107.652911,133.800214 105.74442,135.708705 C103.835928,137.617197 101.575906,138.571429 98.9642857,138.571429 C96.3526655,138.571429 94.0926435,137.617197 92.1841518,135.708705 C90.2756601,133.800214 89.3214286,131.540192 89.3214286,128.928571 C89.3214286,114.26332 94.4943679,101.757864 104.840402,91.4118304 C115.186436,81.0657965 127.691891,75.8928571 142.357143,75.8928571 C157.022395,75.8928571 169.52785,81.0657965 179.873884,91.4118304 C190.219918,101.757864 195.392857,114.26332 195.392857,128.928571 C195.392857,131.540192 194.438626,133.800214 192.530134,135.708705 C190.621642,137.617197 188.36162,138.571429 185.75,138.571429 C183.13838,138.571429 180.878358,137.617197 178.969866,135.708705 C177.061374,133.800214 176.107143,131.540192 176.107143,128.928571 Z M142.809152,42.1428571 C154.561443,42.1428571 165.786219,44.4279905 176.483817,48.9983259 C187.181415,53.5686612 196.422394,59.7460548 204.207031,67.530692 C211.991668,75.3153291 218.169062,84.5563081 222.739397,95.2539062 C227.309733,105.951504 229.594866,117.176281 229.594866,128.928571 C229.594866,134.85494 229.017305,140.304105 227.862165,145.276228 C226.707025,150.248351 224.823674,154.944174 222.212054,159.363839 C219.600433,163.783504 217.390634,167.173537 215.582589,169.53404 C213.774545,171.894543 211.112741,175.133908 207.597098,179.252232 C204.483243,182.767875 202.19811,185.479901 200.741629,187.388393 C199.285149,189.296885 197.602688,191.80802 195.694196,194.921875 C193.785705,198.03573 192.454803,201.249983 191.701451,204.564732 C190.948099,207.879481 190.571429,211.595962 190.571429,215.714286 C190.571429,231.685348 184.921373,245.320814 173.621094,256.621094 C162.320814,267.921373 148.685348,273.571429 132.714286,273.571429 C130.102666,273.571429 127.842643,272.617197 125.934152,270.708705 C124.02566,268.800214 123.071429,266.540192 123.071429,263.928571 C123.071429,261.316951 124.02566,259.056929 125.934152,257.148437 C127.842643,255.239946 130.102666,254.285714 132.714286,254.285714 C143.36166,254.285714 152.451971,250.519011 159.985491,242.985491 C167.519011,235.451971 171.285714,226.36166 171.285714,215.714286 C171.285714,209.988811 171.863275,204.690315 173.018415,199.818638 C174.173555,194.946962 176.031795,190.376695 178.593192,186.107701 C181.154589,181.838706 183.339277,178.498896 185.147321,176.08817 C186.955366,173.677443 189.566947,170.513412 192.982143,166.595982 C197.00002,161.975423 199.988271,158.359388 201.946987,155.747768 C203.905702,153.136148 205.789053,149.394556 207.597098,144.522879 C209.405143,139.651203 210.309152,134.453153 210.309152,128.928571 C210.309152,110.345889 203.704865,94.4504009 190.496094,81.2416295 C177.287322,68.0328581 161.391834,61.4285714 142.809152,61.4285714 C124.22647,61.4285714 108.330981,68.0328581 95.1222098,81.2416295 C81.9134384,94.4504009 75.3091518,110.345889 75.3091518,128.928571 C75.3091518,131.540192 74.3549203,133.800214 72.4464286,135.708705 C70.5379369,137.617197 68.2779148,138.571429 65.6662946,138.571429 C63.0546744,138.571429 60.7946524,137.617197 58.8861607,135.708705 C56.977669,133.800214 56.0234375,131.540192 56.0234375,128.928571 C56.0234375,117.176281 58.3085709,105.951504 62.8789062,95.2539062 C67.4492416,84.5563081 73.6266352,75.3153291 81.4112723,67.530692 C89.1959095,59.7460548 98.4368885,53.5686612 109.134487,48.9983259 C119.832085,44.4279905 131.056861,42.1428571 142.809152,42.1428571 Z M106.045759,150.47433 L140.097098,184.52567 L52.859375,271.763393 C51.6540118,272.968756 50.1975532,273.571429 48.4899554,273.571429 C46.7823575,273.571429 45.3258989,272.968756 44.1205357,271.763393 L18.8080357,246.450893 C17.6026725,245.24553 17,243.789071 17,242.081473 C17,240.373875 17.6026725,238.917417 18.8080357,237.712054 L106.045759,150.47433 Z M259.879464,5.37946429 L285.191964,30.6919643 C286.397327,31.8973275 287,33.3537861 287,35.0613839 C287,36.7689818 286.397327,38.2756631 285.191964,39.5814732 L250.085938,74.6875 L246.168527,78.4542411 L235.470982,89.1517857 C228.841485,73.7834053 219.048056,60.8259456 206.090402,50.2790179 L250.989955,5.37946429 C252.295765,4.17410112 253.802447,3.57142857 255.510045,3.57142857 C257.217642,3.57142857 258.674101,4.17410112 259.879464,5.37946429 Z" opacity=".99"/>
  </g>
</svg>
