<svg xmlns="http://www.w3.org/2000/svg" width="180" height="200" viewBox="0 0 180 200">
  <g fill="none" fill-rule="evenodd">
    <g transform="translate(14 61)">
      <rect width="153" height="62" fill="#28A197"/>
      <path fill="#FFF" d="M18.9412861,33.2420908 L23.2516309,33.2420908 L21.1547064,27.1155433 L21.1081081,27.1155433 L18.9412861,33.2420908 Z M19.2907735,23 L23.0419385,23 L29.2628145,39.696011 L25.4650513,39.696011 L24.2068966,35.9779917 L17.9860205,35.9779917 L16.6812675,39.696011 L13,39.696011 L19.2907735,23 Z M34.5517241,27.6066025 L36.9748369,27.6066025 L36.9748369,29.8280605 L34.5517241,29.8280605 L34.5517241,35.8143054 C34.5517241,36.3755186 34.6449199,36.7496552 34.8313141,36.9367263 C35.0177083,37.1237974 35.3904911,37.2173315 35.9496738,37.2173315 C36.136068,37.2173315 36.3146932,37.209537 36.4855545,37.1939477 C36.6564159,37.1783585 36.8195084,37.1549749 36.9748369,37.1237964 L36.9748369,39.696011 C36.6952456,39.7427788 36.3845932,39.7739568 36.0428705,39.7895461 C35.7011477,39.8051353 35.3671964,39.8129298 35.0410065,39.8129298 C34.5284224,39.8129298 34.0430281,39.7778545 33.5848089,39.7077029 C33.1265898,39.6375512 32.7227417,39.5011473 32.3732526,39.2984869 C32.0237634,39.0958266 31.7480594,38.8074297 31.5461323,38.4332875 C31.3442053,38.0591453 31.2432432,37.5680911 31.2432432,36.96011 L31.2432432,29.8280605 L29.2395154,29.8280605 L29.2395154,27.6066025 L31.2432432,27.6066025 L31.2432432,23.9821183 L34.5517241,23.9821183 L34.5517241,27.6066025 Z M42.7530289,27.6066025 L42.7530289,23.9821183 L39.444548,23.9821183 L39.444548,27.6066025 L37.4408201,27.6066025 L37.4408201,29.8280605 L39.444548,29.8280605 L39.444548,36.96011 C39.444548,37.5680911 39.54551,38.0591453 39.7474371,38.4332875 C39.9493642,38.8074297 40.2250682,39.0958266 40.5745573,39.2984869 C40.9240465,39.5011473 41.3278946,39.6375512 41.7861137,39.7077029 C42.2443328,39.7778545 42.7297272,39.8129298 43.2423113,39.8129298 C43.5685012,39.8129298 43.9024525,39.8051353 44.2441752,39.7895461 C44.5858979,39.7739568 44.8965503,39.7427788 45.1761417,39.696011 L45.1761417,37.1237964 C45.0208131,37.1549749 44.8577206,37.1783585 44.6868593,37.1939477 C44.5159979,37.209537 44.3373728,37.2173315 44.1509786,37.2173315 C43.5917959,37.2173315 43.219013,37.1237974 43.0326188,36.9367263 C42.8462246,36.7496552 42.7530289,36.3755186 42.7530289,35.8143054 L42.7530289,29.8280605 L45.1761417,29.8280605 L45.1761417,27.6066025 L42.7530289,27.6066025 Z M46.6206897,31.3246217 C46.6672882,30.5451589 46.8614459,29.8982144 47.2031687,29.3837689 C47.5448914,28.8693234 47.9798048,28.4562143 48.5079217,28.1444292 C49.0360387,27.832644 49.6301613,27.6105004 50.2903075,27.4779917 C50.9504538,27.3454831 51.6144732,27.2792297 52.2823858,27.2792297 C52.8881671,27.2792297 53.5017055,27.3220995 54.1230196,27.4078404 C54.7443336,27.4935814 55.3112742,27.6611634 55.8238583,27.9105915 C56.3364425,28.1600196 56.7558232,28.5068754 57.082013,28.9511692 C57.4082029,29.395463 57.5712954,29.9839487 57.5712954,30.7166437 L57.5712954,37.0068776 C57.5712954,37.5525016 57.6023607,38.0747339 57.6644921,38.5735901 C57.7266235,39.0724463 57.8353518,39.4465829 57.9906803,39.696011 L54.6356011,39.696011 C54.5734697,39.5089399 54.5229887,39.3179744 54.4841566,39.1231087 C54.4453244,38.928243 54.4181424,38.7294829 54.4026095,38.5268226 C53.8744925,39.0724466 53.2531878,39.4543776 52.5386766,39.6726272 C51.8241654,39.8908768 51.0941323,40 50.3485555,40 C49.7738399,40 49.2379646,39.9298494 48.7409133,39.7895461 C48.2438621,39.6492428 47.8089487,39.4309964 47.4361603,39.1348006 C47.0633719,38.8386047 46.7721353,38.4644681 46.5624418,38.0123796 C46.3527483,37.5602912 46.2479031,37.0224699 46.2479031,36.3988996 C46.2479031,35.7129723 46.3682809,35.1478702 46.6090401,34.7035763 C46.8497993,34.2592825 47.1604517,33.9046322 47.5410065,33.6396149 C47.9215614,33.3745975 48.3564747,33.1758374 48.8457596,33.0433287 C49.3350444,32.9108201 49.828205,32.8055942 50.3252563,32.7276479 C50.8223075,32.6497016 51.311585,32.5873455 51.7931034,32.5405777 C52.2746219,32.4938099 52.7017689,32.4236593 53.0745573,32.3301238 C53.4473458,32.2365883 53.7424655,32.1001843 53.9599254,31.9209078 C54.1773854,31.7416314 54.2783474,31.4805152 54.2628145,31.1375516 C54.2628145,30.7789987 54.2045672,30.494499 54.0880708,30.284044 C53.9715744,30.073589 53.8162483,29.9099043 53.6220876,29.7929849 C53.427927,29.6760654 53.202704,29.5981203 52.9464119,29.5591472 C52.6901199,29.520174 52.4144159,29.5006878 52.1192917,29.5006878 C51.4669119,29.5006878 50.9543355,29.640989 50.5815471,29.9215956 C50.2087586,30.2022022 49.991302,30.6698729 49.9291705,31.3246217 L46.6206897,31.3246217 Z M54.2628145,33.7799175 C54.1230189,33.9046315 53.9482769,34.0020629 53.7385834,34.0722146 C53.5288899,34.1423662 53.3036669,34.2008251 53.0629077,34.2475928 C52.8221485,34.2943606 52.5697435,34.3333332 52.305685,34.3645117 C52.0416265,34.3956902 51.777572,34.4346628 51.5135135,34.4814305 C51.2649879,34.5281983 51.0203491,34.5905544 50.7795899,34.6685007 C50.5388307,34.746447 50.3291404,34.8516729 50.1505126,34.9841816 C49.9718848,35.1166903 49.8282081,35.2842723 49.7194781,35.4869326 C49.6107481,35.6895929 49.556384,35.9468118 49.556384,36.258597 C49.556384,36.5547929 49.6107481,36.8042172 49.7194781,37.0068776 C49.8282081,37.2095379 49.9757679,37.3693254 50.1621622,37.4862448 C50.3485564,37.6031643 50.566013,37.6850066 50.8145387,37.7317744 C51.0630643,37.7785422 51.3193525,37.8019257 51.583411,37.8019257 C52.2357908,37.8019257 52.7406009,37.6928026 53.0978565,37.474553 C53.4551121,37.2563034 53.7191666,36.9951872 53.890028,36.6911967 C54.0608893,36.3872062 54.1657345,36.079323 54.2045666,35.7675378 C54.2433988,35.4557527 54.2628145,35.2063283 54.2628145,35.0192572 L54.2628145,33.7799175 Z M68.3355079,31.8624484 L71.5740913,31.8624484 C71.5274928,31.0829856 71.3411014,30.4087603 71.0149115,29.8397524 C70.6887216,29.2707445 70.2654577,28.7952793 69.7451072,28.4133425 C69.2247566,28.0314057 68.6345171,27.746906 67.9743709,27.5598349 C67.3142247,27.3727639 66.6269063,27.2792297 65.9123952,27.2792297 C64.9338255,27.2792297 64.0639988,27.4429145 63.3028891,27.7702889 C62.5417794,28.0976633 61.8971757,28.5536422 61.3690587,29.1382393 C60.8409418,29.7228365 60.4409768,30.416548 60.1691519,31.2193948 C59.897327,32.0222415 59.7614166,32.8913296 59.7614166,33.826685 C59.7614166,34.7308619 59.9089765,35.5609774 60.2041007,36.3170564 C60.4992248,37.0731354 60.9108392,37.7239771 61.4389562,38.2696011 C61.9670732,38.8152251 62.6077937,39.240026 63.361137,39.5440165 C64.1144803,39.848007 64.9415923,40 65.8424977,40 C67.4423814,40 68.7548877,39.5790964 69.7800559,38.7372765 C70.8052241,37.8954566 71.4265289,36.6717183 71.6439888,35.0660248 L68.4520037,35.0660248 C68.3432738,35.8143091 68.0753361,36.4105893 67.6481827,36.8548831 C67.2210292,37.2991769 66.611374,37.5213205 65.8191985,37.5213205 C65.3066144,37.5213205 64.8717011,37.4044028 64.5144455,37.170564 C64.1571899,36.9367251 63.8737196,36.6366364 63.6640261,36.2702889 C63.4543326,35.9039413 63.3028896,35.4947294 63.2096925,35.042641 C63.1164953,34.5905525 63.0698975,34.1462654 63.0698975,33.7097662 C63.0698975,33.2576777 63.1164953,32.8016988 63.2096925,32.3418157 C63.3028896,31.8819326 63.4620989,31.461029 63.6873253,31.0790922 C63.9125516,30.6971554 64.2037882,30.3853749 64.5610438,30.1437414 C64.9182994,29.9021079 65.360979,29.781293 65.889096,29.781293 C67.3025855,29.781293 68.118048,30.4750045 68.3355079,31.8624484 Z M73.5079217,23 L73.5079217,39.696011 L76.8164026,39.696011 L76.8164026,33.3590096 C76.8164026,32.1274583 77.0183267,31.2427812 77.4221808,30.7049519 C77.8260349,30.1671225 78.4784049,29.8982118 79.3793103,29.8982118 C80.1714858,29.8982118 80.7228938,30.1437389 81.0335508,30.6348006 C81.3442078,31.1258622 81.499534,31.870238 81.499534,32.8679505 L81.499534,39.696011 L84.8080149,39.696011 L84.8080149,32.2599725 C84.8080149,31.5116881 84.7420013,30.8296684 84.609972,30.2138927 C84.4779428,29.598117 84.2488367,29.0758848 83.9226468,28.6471802 C83.5964569,28.2184756 83.1498941,27.8833116 82.582945,27.6416781 C82.0159959,27.4000446 81.289846,27.2792297 80.4044734,27.2792297 C79.7831594,27.2792297 79.146322,27.4390172 78.4939422,27.758597 C77.8415624,28.0781767 77.3056871,28.5887173 76.8863001,29.2902338 L76.8164026,29.2902338 L76.8164026,23 L73.5079217,23 Z M94.5237651,29.8280605 L94.5237651,39.696011 L97.832246,39.696011 L97.832246,29.8280605 L100.115564,29.8280605 L100.115564,27.6066025 L97.832246,27.6066025 L97.832246,26.8817056 C97.832246,26.3828494 97.9293249,26.0281991 98.1234856,25.8177442 C98.3176462,25.6072892 98.639948,25.5020633 99.0904007,25.5020633 C99.5097877,25.5020633 99.9136358,25.5254468 100.301957,25.5722146 L100.301957,23.0935351 C100.022366,23.0779458 99.7350123,23.0584595 99.4398882,23.0350757 C99.144764,23.0116918 98.8496442,23 98.55452,23 C97.2031619,23 96.1935417,23.3429585 95.5256291,24.0288858 C94.8577164,24.7148131 94.5237651,25.595593 94.5237651,26.6712517 L94.5237651,27.6066025 L92.5433364,27.6066025 L92.5433364,29.8280605 L94.5237651,29.8280605 Z M102.119292,27.6066025 L102.119292,39.696011 L105.427773,39.696011 L105.427773,27.6066025 L102.119292,27.6066025 Z M105.427773,25.735901 L105.427773,23 L102.119292,23 L102.119292,25.735901 L105.427773,25.735901 Z M108.130475,23 L108.130475,39.696011 L111.438956,39.696011 L111.438956,23 L108.130475,23 Z M122.15657,32.3535076 C122.001242,31.5116877 121.725538,30.8725377 121.32945,30.4360385 C120.933362,29.9995393 120.331473,29.781293 119.523765,29.781293 C118.995648,29.781293 118.556852,29.8709299 118.207363,30.0502063 C117.857873,30.2294828 117.578286,30.4516264 117.368593,30.7166437 C117.158899,30.9816611 117.011339,31.2622635 116.925909,31.5584594 C116.840478,31.8546553 116.789997,32.1196687 116.774464,32.3535076 L122.15657,32.3535076 Z M116.774464,34.4580468 C116.821063,35.5337055 117.092884,36.3131567 117.589935,36.7964237 C118.086986,37.2796906 118.801486,37.5213205 119.733458,37.5213205 C120.40137,37.5213205 120.976077,37.3537385 121.457596,37.0185695 C121.939114,36.6834004 122.234234,36.3287502 122.342964,35.954608 L125.255359,35.954608 C124.789373,37.4044089 124.074873,38.441079 123.111836,39.0646492 C122.148799,39.6882195 120.983853,40 119.616962,40 C118.669458,40 117.815164,39.848007 117.054054,39.5440165 C116.292944,39.240026 115.648341,38.8074306 115.120224,38.2462173 C114.592107,37.6850041 114.184375,37.0146761 113.897018,36.2352132 C113.60966,35.4557503 113.465983,34.5983541 113.465983,33.6629986 C113.465983,32.7588217 113.613543,31.9170144 113.908667,31.1375516 C114.203791,30.3580887 114.623172,29.6838635 115.166822,29.1148556 C115.710472,28.5458477 116.358959,28.0976633 117.112302,27.7702889 C117.865645,27.4429145 118.700524,27.2792297 119.616962,27.2792297 C120.64213,27.2792297 121.535256,27.4779898 122.296365,27.8755158 C123.057475,28.2730419 123.682663,28.8069659 124.171948,29.477304 C124.661233,30.147642 125.0146,30.9115042 125.23206,31.7689133 C125.44952,32.6263225 125.527183,33.5226913 125.465051,34.4580468 L116.774464,34.4580468 Z M129.985089,35.7675378 L126.839702,35.7675378 C126.870767,36.5781792 127.053276,37.2524045 127.387232,37.7902338 C127.721188,38.3280632 128.148335,38.7606586 128.668686,39.088033 C129.189036,39.4154074 129.783159,39.6492428 130.451072,39.7895461 C131.118984,39.9298494 131.80242,40 132.501398,40 C133.184843,40 133.856629,39.9337467 134.516775,39.801238 C135.176922,39.6687293 135.763278,39.4387912 136.275862,39.1114168 C136.788446,38.7840424 137.203944,38.351447 137.522367,37.8136176 C137.840791,37.2757882 138,36.6093575 138,35.8143054 C138,35.2530921 137.891272,34.7815241 137.673812,34.3995873 C137.456352,34.0176505 137.168998,33.6980756 136.811743,33.4408528 C136.454487,33.1836301 136.046756,32.9770755 135.588537,32.8211829 C135.130318,32.6652904 134.660456,32.5327837 134.178938,32.4236589 C133.712952,32.3145341 133.25474,32.2132054 132.804287,32.1196699 C132.353834,32.0261343 131.953869,31.9209084 131.60438,31.803989 C131.254891,31.6870696 130.971421,31.5350766 130.753961,31.3480055 C130.536501,31.1609344 130.427773,30.9193046 130.427773,30.6231087 C130.427773,30.3736806 130.489903,30.1749205 130.614166,30.0268226 C130.738429,29.8787246 130.889872,29.7657042 131.0685,29.6877579 C131.247127,29.6098116 131.445168,29.5591473 131.662628,29.5357634 C131.880088,29.5123795 132.082012,29.5006878 132.268406,29.5006878 C132.858655,29.5006878 133.371231,29.6137082 133.806151,29.8397524 C134.241071,30.0657966 134.481826,30.498392 134.528425,31.1375516 L137.673812,31.1375516 C137.61168,30.3892672 137.421406,29.7696036 137.102982,29.278542 C136.784559,28.7874804 136.384594,28.3938575 135.903075,28.0976616 C135.421557,27.8014657 134.874032,27.5910139 134.260485,27.4662999 C133.646937,27.3415858 133.013983,27.2792297 132.361603,27.2792297 C131.709223,27.2792297 131.072386,27.3376885 130.451072,27.454608 C129.829758,27.5715274 129.270583,27.7741847 128.773532,28.062586 C128.276481,28.3509872 127.876516,28.7446101 127.573625,29.2434663 C127.270735,29.7423225 127.119292,30.3814725 127.119292,31.1609354 C127.119292,31.6909701 127.22802,32.1391545 127.44548,32.5055021 C127.66294,32.8718496 127.950293,33.1758356 128.307549,33.4174691 C128.664805,33.6591025 129.072536,33.8539653 129.530755,34.0020633 C129.988974,34.1501612 130.458836,34.2787707 130.940354,34.3878955 C132.120851,34.6373236 133.041159,34.886748 133.701305,35.1361761 C134.361451,35.3856042 134.691519,35.7597407 134.691519,36.258597 C134.691519,36.5547929 134.621622,36.80032 134.481827,36.9951857 C134.342031,37.1900514 134.167289,37.3459416 133.957596,37.4628611 C133.747902,37.5797805 133.514913,37.6655201 133.258621,37.7200825 C133.002329,37.7746449 132.75769,37.8019257 132.524697,37.8019257 C132.198507,37.8019257 131.883972,37.7629532 131.581081,37.6850069 C131.27819,37.6070606 131.010253,37.4862457 130.77726,37.3225585 C130.544267,37.1588713 130.353993,36.9484194 130.206431,36.6911967 C130.058868,36.433974 129.985089,36.1260907 129.985089,35.7675378 Z"/>
    </g>
    <path fill="#3FBE7C" d="M30,4.49158249 C30,5.00785892 29.8193566,5.44668731 29.4580645,5.80808081 L12.8129032,22.4579125 C12.4516111,22.819306 12.0129058,23 11.4967742,23 C10.9806426,23 10.5419373,22.819306 10.1806452,22.4579125 L0.541935484,12.8164983 C0.180643355,12.4551048 0,12.0162764 0,11.5 C0,10.9837236 0.180643355,10.5448952 0.541935484,10.1835017 L3.17419355,7.55050505 C3.53548568,7.18911155 3.97419097,7.00841751 4.49032258,7.00841751 C5.00645419,7.00841751 5.44515948,7.18911155 5.80645161,7.55050505 L11.4967742,13.2617845 L24.1935484,0.542087542 C24.5548405,0.18069404 24.9935458,0 25.5096774,0 C26.025809,0 26.4645143,0.18069404 26.8258065,0.542087542 L29.4580645,3.17508418 C29.8193566,3.53647768 30,3.97530606 30,4.49158249 Z" transform="translate(75 169)"/>
  </g>
</svg>
