<svg xmlns="http://www.w3.org/2000/svg" width="180" height="200" viewBox="0 0 180 200">
  <g fill="none" fill-rule="evenodd">
    <g transform="translate(20)">
      <circle cx="38.241" cy="83.147" r="38.241" fill="#F4157C" opacity=".94"/>
      <circle cx="101.39" cy="83.147" r="38.241" fill="#BD10E0" opacity=".91"/>
      <circle cx="72.622" cy="38.241" r="38.241" fill="#F8E71C" opacity=".879"/>
    </g>
    <path fill="#FF6072" d="M25,20.1178451 C25,20.6790152 24.8035934,21.1560025 24.4107744,21.5488215 L21.5488215,24.4107744 C21.1560025,24.8035934 20.6790152,25 20.1178451,25 C19.5566751,25 19.0796877,24.8035934 18.6868687,24.4107744 L12.5,18.2239057 L6.31313131,24.4107744 C5.92031229,24.8035934 5.44332492,25 4.88215488,25 C4.32098485,25 3.84399747,24.8035934 3.45117845,24.4107744 L0.589225589,21.5488215 C0.196406566,21.1560025 0,20.6790152 0,20.1178451 C0,19.5566751 0.196406566,19.0796877 0.589225589,18.6868687 L6.77609428,12.5 L0.589225589,6.31313131 C0.196406566,5.92031229 0,5.44332492 0,4.88215488 C0,4.32098485 0.196406566,3.84399747 0.589225589,3.45117845 L3.45117845,0.589225589 C3.84399747,0.196406566 4.32098485,0 4.88215488,0 C5.44332492,0 5.92031229,0.196406566 6.31313131,0.589225589 L12.5,6.77609428 L18.6868687,0.589225589 C19.0796877,0.196406566 19.5566751,0 20.1178451,0 C20.6790152,0 21.1560025,0.196406566 21.5488215,0.589225589 L24.4107744,3.45117845 C24.8035934,3.84399747 25,4.32098485 25,4.88215488 C25,5.44332492 24.8035934,5.92031229 24.4107744,6.31313131 L18.2239057,12.5 L24.4107744,18.6868687 C24.8035934,19.0796877 25,19.5566751 25,20.1178451 Z" transform="translate(78 168)"/>
  </g>
</svg>
