<svg xmlns="http://www.w3.org/2000/svg" width="180" height="200" viewBox="0 0 180 200">
  <g fill="none" fill-rule="evenodd">
    <g fill="#F47738" transform="translate(29 47)">
      <path d="M13 6.5C13 10.090137 10.0904027 13 6.50059355 13 2.9095973 13 0 10.090137 0 6.5 0 2.90986301 2.9095973 0 6.50059355 0 10.0904027 0 13 2.90986301 13 6.5L13 6.5zM13 26.5C13 30.090137 10.0904027 33 6.50059355 33 2.9095973 33 0 30.090137 0 26.5 0 22.909863 2.9095973 20 6.50059355 20 10.0904027 20 13 22.909863 13 26.5M13 46.5C13 50.090137 10.0904027 53 6.50059355 53 2.9095973 53 0 50.090137 0 46.5 0 42.909863 2.9095973 40 6.50059355 40 10.0904027 40 13 42.909863 13 46.5M13 66.5C13 70.090137 10.0904027 73 6.50059355 73 2.9095973 73 0 70.090137 0 66.5 0 62.909863 2.9095973 60 6.50059355 60 10.0904027 60 13 62.909863 13 66.5M122 64.7727273L122 71.5909091C122 72.5142092 121.660718 73.3132069 120.982143 73.9879261 120.303568 74.6626454 119.500005 75 118.571429 75L29.4285714 75C28.4999954 75 27.696432 74.6626454 27.0178571 73.9879261 26.3392823 73.3132069 26 72.5142092 26 71.5909091L26 64.7727273C26 63.8494272 26.3392823 63.0504295 27.0178571 62.3757102 27.696432 61.7009909 28.4999954 61.3636364 29.4285714 61.3636364L118.571429 61.3636364C119.500005 61.3636364 120.303568 61.7009909 120.982143 62.3757102 121.660718 63.0504295 122 63.8494272 122 64.7727273zM101.428571 44.3181818L101.428571 51.1363636C101.428571 52.0596637 101.089289 52.8586614 100.410714 53.5333807 99.7321395 54.2081 98.9285761 54.5454545 98 54.5454545L29.4285714 54.5454545C28.4999954 54.5454545 27.696432 54.2081 27.0178571 53.5333807 26.3392823 52.8586614 26 52.0596637 26 51.1363636L26 44.3181818C26 43.3948817 26.3392823 42.5958841 27.0178571 41.9211648 27.696432 41.2464455 28.4999954 40.9090909 29.4285714 40.9090909L98 40.9090909C98.9285761 40.9090909 99.7321395 41.2464455 100.410714 41.9211648 101.089289 42.5958841 101.428571 43.3948817 101.428571 44.3181818zM115.142857 23.8636364L115.142857 30.6818182C115.142857 31.6051183 114.803575 32.4041159 114.125 33.0788352 113.446425 33.7535545 112.642862 34.0909091 111.714286 34.0909091L29.4285714 34.0909091C28.4999954 34.0909091 27.696432 33.7535545 27.0178571 33.0788352 26.3392823 32.4041159 26 31.6051183 26 30.6818182L26 23.8636364C26 22.9403363 26.3392823 22.1413386 27.0178571 21.4666193 27.696432 20.7919 28.4999954 20.4545455 29.4285714 20.4545455L111.714286 20.4545455C112.642862 20.4545455 113.446425 20.7919 114.125 21.4666193 114.803575 22.1413386 115.142857 22.9403363 115.142857 23.8636364zM94.5714286 3.40909091L94.5714286 10.2272727C94.5714286 11.1505728 94.2321463 11.9495705 93.5535714 12.6242898 92.8749966 13.2990091 92.0714332 13.6363636 91.1428571 13.6363636L29.4285714 13.6363636C28.4999954 13.6363636 27.696432 13.2990091 27.0178571 12.6242898 26.3392823 11.9495705 26 11.1505728 26 10.2272727L26 3.40909091C26 2.48579084 26.3392823 1.68679315 27.0178571 1.01207386 27.696432.337354581 28.4999954 0 29.4285714 0L91.1428571 0C92.0714332 0 92.8749966.337354581 93.5535714 1.01207386 94.2321463 1.68679315 94.5714286 2.48579084 94.5714286 3.40909091z"/>
    </g>
    <path fill="#3FBE7C" d="M30,4.49158249 C30,5.00785892 29.8193566,5.44668731 29.4580645,5.80808081 L12.8129032,22.4579125 C12.4516111,22.819306 12.0129058,23 11.4967742,23 C10.9806426,23 10.5419373,22.819306 10.1806452,22.4579125 L0.541935484,12.8164983 C0.180643355,12.4551048 0,12.0162764 0,11.5 C0,10.9837236 0.180643355,10.5448952 0.541935484,10.1835017 L3.17419355,7.55050505 C3.53548568,7.18911155 3.97419097,7.00841751 4.49032258,7.00841751 C5.00645419,7.00841751 5.44515948,7.18911155 5.80645161,7.55050505 L11.4967742,13.2617845 L24.1935484,0.542087542 C24.5548405,0.18069404 24.9935458,0 25.5096774,0 C26.025809,0 26.4645143,0.18069404 26.8258065,0.542087542 L29.4580645,3.17508418 C29.8193566,3.53647768 30,3.97530606 30,4.49158249 Z" transform="translate(75 169)"/>
  </g>
</svg>
