<svg xmlns="http://www.w3.org/2000/svg" width="180" height="200" viewBox="0 0 180 200">
  <g fill="none" fill-rule="evenodd">
    <path fill="#0B0C0C" d="M18.9619102,95.8078454 L25.1699829,95.8078454 C26.1751045,95.8078454 27.1506491,95.6452546 28.0966458,95.3200682 C29.0426426,94.9948818 29.8851583,94.4553761 30.6242183,93.701535 C31.3632783,92.9476938 31.9545174,91.9647588 32.3979534,90.7527004 C32.8413894,89.540642 33.063104,88.0625443 33.063104,86.3183627 C33.063104,84.7219932 32.9079038,83.2808478 32.5974986,81.9948835 C32.2870934,80.7089191 31.7771497,79.6077362 31.0676521,78.6913019 C30.3581545,77.7748675 29.4195624,77.0727711 28.2518476,76.5849915 C27.0841329,76.0972119 25.6429875,75.8533258 23.9283684,75.8533258 L18.9619102,75.8533258 L18.9619102,95.8078454 Z M12,70 L25.6577601,70 C27.6975656,70 29.5969213,70.3251815 31.355884,70.9755543 C33.1148468,71.6259271 34.6372875,72.6014716 35.9232518,73.9022172 C37.2092162,75.2029627 38.2143227,76.8288703 38.9386015,78.7799886 C39.6628803,80.731107 40.0250142,83.0221585 40.0250142,85.6532121 C40.0250142,87.9590792 39.7293947,90.08754 39.1381467,92.0386583 C38.5468987,93.9897767 37.6526495,95.6748081 36.4553724,97.0938033 C35.2580952,98.5127985 33.7652164,99.6287623 31.9766913,100.441728 C30.1881662,101.254694 28.0818768,101.661171 25.6577601,101.661171 L12,101.661171 L12,70 Z M49.7805571,90.2205799 C49.7805571,91.1370142 49.869243,92.0312634 50.0466174,92.9033542 C50.2239918,93.775445 50.5270018,94.5588368 50.9556566,95.2535532 C51.3843114,95.9482695 51.9533791,96.5025562 52.6628766,96.9164298 C53.3723742,97.3303034 54.2592329,97.5372371 55.3234792,97.5372371 C56.3877256,97.5372371 57.2819748,97.3303034 58.0062536,96.9164298 C58.7305323,96.5025562 59.3069905,95.9482695 59.7356453,95.2535532 C60.1643,94.5588368 60.4673101,93.775445 60.6446845,92.9033542 C60.8220589,92.0312634 60.9107447,91.1370142 60.9107447,90.2205799 C60.9107447,89.3041455 60.8220589,88.4025059 60.6446845,87.5156339 C60.4673101,86.6287619 60.1643,85.8453701 59.7356453,85.1654349 C59.3069905,84.4854997 58.7305323,83.9312131 58.0062536,83.5025583 C57.2819748,83.0739035 56.3877256,82.8595793 55.3234792,82.8595793 C54.2592329,82.8595793 53.3723742,83.0739035 52.6628766,83.5025583 C51.9533791,83.9312131 51.3843114,84.4854997 50.9556566,85.1654349 C50.5270018,85.8453701 50.2239918,86.6287619 50.0466174,87.5156339 C49.869243,88.4025059 49.7805571,89.3041455 49.7805571,90.2205799 Z M43.4837976,90.2205799 C43.4837976,88.3877111 43.7646362,86.7248511 44.3263218,85.23195 C44.8880074,83.7390488 45.6861802,82.4678847 46.7208641,81.4184196 C47.7555481,80.3689544 48.9971502,79.5560006 50.4457078,78.9795338 C51.8942653,78.403067 53.5201729,78.114838 55.3234792,78.114838 C57.1267856,78.114838 58.7600836,78.403067 60.2234224,78.9795338 C61.6867612,79.5560006 62.9357538,80.3689544 63.9704377,81.4184196 C65.0051217,82.4678847 65.8032945,83.7390488 66.3649801,85.23195 C66.9266657,86.7248511 67.2075043,88.3877111 67.2075043,90.2205799 C67.2075043,92.0534486 66.9266657,93.7089181 66.3649801,95.1870381 C65.8032945,96.665158 65.0051217,97.9289316 63.9704377,98.9783968 C62.9357538,100.027862 61.6867612,100.833425 60.2234224,101.395111 C58.7600836,101.956796 57.1267856,102.237635 55.3234792,102.237635 C53.5201729,102.237635 51.8942653,101.956796 50.4457078,101.395111 C48.9971502,100.833425 47.7555481,100.027862 46.7208641,98.9783968 C45.6861802,97.9289316 44.8880074,96.665158 44.3263218,95.1870381 C43.7646362,93.7089181 43.4837976,92.0534486 43.4837976,90.2205799 Z M91.5963616,78.7356453 L91.5963616,71.8624218 L85.299602,71.8624218 L85.299602,78.7356453 L81.4860716,78.7356453 L81.4860716,82.9482661 L85.299602,82.9482661 L85.299602,96.472996 C85.299602,97.6259296 85.4917548,98.5571312 85.8760659,99.2666288 C86.2603771,99.9761263 86.7851018,100.523023 87.4502558,100.907334 C88.1154098,101.291645 88.8840207,101.550312 89.7561114,101.683343 C90.6282022,101.816374 91.5520133,101.882888 92.5275725,101.882888 C93.1483829,101.882888 93.7839649,101.868107 94.4343377,101.838545 C95.0847105,101.808982 95.6759496,101.749858 96.2080728,101.661171 L96.2080728,96.7833997 C95.9124488,96.8425245 95.6020482,96.8868674 95.2768619,96.9164298 C94.9516755,96.9459922 94.611713,96.9607732 94.2569642,96.9607732 C93.1927178,96.9607732 92.4832309,96.7834014 92.1284821,96.4286526 C91.7737333,96.0739039 91.5963616,95.3644169 91.5963616,94.3001706 L91.5963616,82.9482661 L96.2080728,82.9482661 L96.2080728,78.7356453 L91.5963616,78.7356453 Z M99.2234224,70 L99.2234224,101.661171 L105.520182,101.661171 L105.520182,89.644116 C105.520182,87.3086864 105.904487,85.6310455 106.67311,84.6111427 C107.441732,83.5912399 108.683334,83.0812962 110.397953,83.0812962 C111.905636,83.0812962 112.955085,83.546897 113.546333,84.4781126 C114.137581,85.4093281 114.433201,86.8209115 114.433201,88.7129051 L114.433201,101.661171 L120.72996,101.661171 L120.72996,87.5599773 C120.72996,86.1409821 120.604322,84.8476465 120.353042,83.6799318 C120.101761,82.512217 119.665722,81.5218915 119.044912,80.7089255 C118.424102,79.8959596 117.574195,79.2603775 116.495168,78.8021603 C115.41614,78.3439431 114.034119,78.114838 112.349062,78.114838 C111.166566,78.114838 109.954526,78.417848 108.712905,79.0238772 C107.471284,79.6299064 106.451397,80.5980604 105.653212,81.9283684 L105.520182,81.9283684 L105.520182,70 L99.2234224,70 Z M131.993178,75.1881751 L131.993178,70 L125.696418,70 L125.696418,75.1881751 L131.993178,75.1881751 Z M125.696418,78.7356453 L125.696418,101.661171 L131.993178,101.661171 L131.993178,78.7356453 L125.696418,78.7356453 Z M141.837408,94.2114838 L135.851052,94.2114838 C135.910177,95.7487286 136.25753,97.0272831 136.893121,98.0471859 C137.528713,99.0670887 138.341666,99.8874329 139.332007,100.508243 C140.322347,101.129054 141.453092,101.572483 142.724275,101.838545 C143.995458,102.104606 145.296184,102.237635 146.626492,102.237635 C147.927238,102.237635 149.205792,102.111997 150.462194,101.860716 C151.718596,101.609436 152.83456,101.173397 153.810119,100.552587 C154.785679,99.9317763 155.576461,99.111432 156.18249,98.0915293 C156.788519,97.0716265 157.091529,95.8078529 157.091529,94.3001706 C157.091529,93.2359242 156.884596,92.341675 156.470722,91.6173962 C156.056848,90.8931175 155.509952,90.2870974 154.830017,89.7993178 C154.150082,89.3115382 153.374081,88.9198423 152.50199,88.6242183 C151.629899,88.3285943 150.73565,88.0773177 149.819215,87.8703809 C148.932343,87.6634441 148.060266,87.4712914 147.202956,87.293917 C146.345647,87.1165426 145.584426,86.9169994 144.919272,86.6952814 C144.254118,86.4735634 143.714613,86.1853343 143.300739,85.8305856 C142.886865,85.4758368 142.679932,85.0176265 142.679932,84.4559409 C142.679932,83.9829425 142.79818,83.6060276 143.034679,83.3251848 C143.271178,83.044342 143.559407,82.8300178 143.899375,82.6822058 C144.239342,82.5343938 144.616257,82.4383174 145.030131,82.3939738 C145.444004,82.3496303 145.82831,82.3274588 146.183059,82.3274588 C147.30643,82.3274588 148.281974,82.541783 149.109721,82.9704377 C149.937469,83.3990925 150.395679,84.2194368 150.484366,85.4314952 L156.470722,85.4314952 C156.352472,84.0125 155.990338,82.8374123 155.384309,81.9061967 C154.77828,80.9749811 154.01706,80.2285418 153.100625,79.6668562 C152.184191,79.1051706 151.142132,78.7060842 149.974417,78.469585 C148.806703,78.2330858 147.602053,78.114838 146.360432,78.114838 C145.118811,78.114838 143.906771,78.2256953 142.724275,78.4474133 C141.541779,78.6691313 140.477549,79.0534367 139.531552,79.6003411 C138.585555,80.1472455 137.824335,80.8936849 137.247868,81.8396816 C136.671401,82.7856784 136.383172,83.9977186 136.383172,85.4758385 C136.383172,86.4809601 136.590106,87.3308663 137.00398,88.0255827 C137.417853,88.7202991 137.964749,89.2967572 138.644684,89.7549744 C139.32462,90.2131916 140.100621,90.582716 140.972712,90.8635588 C141.844803,91.1444016 142.739052,91.3882878 143.655486,91.5952246 C145.902228,92.0682229 147.653774,92.5412142 148.910176,93.0142126 C150.166578,93.487211 150.79477,94.1966979 150.79477,95.1426947 C150.79477,95.7043803 150.661741,96.1699811 150.395679,96.5395111 C150.129618,96.9090411 149.797046,97.2046606 149.397953,97.4263786 C148.998861,97.6480966 148.555432,97.8106874 148.067652,97.9141558 C147.579872,98.0176242 147.114272,98.0693576 146.670836,98.0693576 C146.050025,98.0693576 145.451396,97.9954527 144.874929,97.8476407 C144.298462,97.6998287 143.788518,97.4707236 143.345082,97.1603184 C142.901646,96.8499132 142.539512,96.4508268 142.25867,95.9630472 C141.977827,95.4752676 141.837408,94.891419 141.837408,94.2114838 Z M161.03809,94.8322911 L161.03809,101.661171 L168,101.661171 L168,94.8322911 L161.03809,94.8322911 Z"/>
    <path fill="#3FBE7C" d="M30,4.49158249 C30,5.00785892 29.8193566,5.44668731 29.4580645,5.80808081 L12.8129032,22.4579125 C12.4516111,22.819306 12.0129058,23 11.4967742,23 C10.9806426,23 10.5419373,22.819306 10.1806452,22.4579125 L0.541935484,12.8164983 C0.180643355,12.4551048 0,12.0162764 0,11.5 C0,10.9837236 0.180643355,10.5448952 0.541935484,10.1835017 L3.17419355,7.55050505 C3.53548568,7.18911155 3.97419097,7.00841751 4.49032258,7.00841751 C5.00645419,7.00841751 5.44515948,7.18911155 5.80645161,7.55050505 L11.4967742,13.2617845 L24.1935484,0.542087542 C24.5548405,0.18069404 24.9935458,0 25.5096774,0 C26.025809,0 26.4645143,0.18069404 26.8258065,0.542087542 L29.4580645,3.17508418 C29.8193566,3.53647768 30,3.97530606 30,4.49158249 Z" transform="translate(75 169)"/>
  </g>
</svg>
