<svg xmlns="http://www.w3.org/2000/svg" width="180" height="200" viewBox="0 0 180 200">
  <g fill="none" fill-rule="evenodd">
    <g transform="translate(14 60)">
      <rect width="153" height="62.237" fill="#28A197"/>
      <path fill="#FFF" d="M31.5205932,29.1322373 L35.0681186,29.1322373 C34.9592028,28.1675545 34.694697,27.3118003 34.2745932,26.5649492 C33.8544894,25.818098 33.321588,25.1918415 32.6758729,24.686161 C32.0301578,24.1804805 31.298877,23.7953912 30.4820085,23.5308814 C29.66514,23.2663716 28.7977165,23.1341186 27.8797119,23.1341186 C26.6038411,23.1341186 25.4563526,23.3597266 24.4372119,23.8109492 C23.4180712,24.2621717 22.5584272,24.8845384 21.8582542,25.6780678 C21.1580812,26.4715972 20.62129,27.4012574 20.2478644,28.4670763 C19.8744388,29.5328952 19.6877288,30.6881633 19.6877288,31.9329153 C19.6877288,33.1465484 19.8744388,34.2784778 20.2478644,35.3287373 C20.62129,36.3789968 21.1580812,37.2930978 21.8582542,38.0710678 C22.5584272,38.8490378 23.4180712,39.4597351 24.4372119,39.903178 C25.4563526,40.3466209 26.6038411,40.568339 27.8797119,40.568339 C28.9066323,40.568339 29.8479618,40.4127473 30.7037288,40.1015593 C31.5594958,39.7903713 32.3063358,39.3391555 32.9442712,38.7478983 C33.5822066,38.1566411 34.0956591,37.4409195 34.4846441,36.6007119 C34.8736291,35.7605043 35.1147961,34.8191747 35.2081525,33.7766949 L31.6606271,33.7766949 C31.5205925,34.8969717 31.1355032,35.7994034 30.5053475,36.4840169 C29.8751918,37.1686305 28.9999887,37.5109322 27.8797119,37.5109322 C27.0550637,37.5109322 26.3549012,37.3514507 25.7792034,37.0324831 C25.2035056,36.7135154 24.7367306,36.2895281 24.3788644,35.7605085 C24.0209982,35.2314889 23.7603822,34.6363508 23.5970085,33.9750763 C23.4336348,33.3138018 23.3519492,32.6330882 23.3519492,31.9329153 C23.3519492,31.2016235 23.4336348,30.4936814 23.5970085,29.8090678 C23.7603822,29.1244542 24.0209982,28.5137569 24.3788644,27.9769576 C24.7367306,27.4401583 25.2035056,27.0122813 25.7792034,26.6933136 C26.3549012,26.3743459 27.0550637,26.2148644 27.8797119,26.2148644 C28.3309345,26.2148644 28.7627013,26.2887704 29.1750254,26.4365847 C29.5873495,26.584399 29.9568797,26.790558 30.2836271,27.0550678 C30.6103745,27.3195776 30.8826599,27.6268711 31.1004915,27.9769576 C31.3183231,28.3270441 31.4583556,28.7121335 31.5205932,29.1322373 Z M37.4486949,23.5308814 L37.4486949,40.1949153 L40.7628305,40.1949153 L40.7628305,23.5308814 L37.4486949,23.5308814 Z M46.7842881,26.2615424 L46.7842881,23.5308814 L43.4701525,23.5308814 L43.4701525,26.2615424 L46.7842881,26.2615424 Z M43.4701525,28.128661 L43.4701525,40.1949153 L46.7842881,40.1949153 L46.7842881,28.128661 L43.4701525,28.128661 Z M57.6135763,32.3763559 L60.8576949,32.3763559 C60.8110167,31.5983859 60.6243067,30.925452 60.2975593,30.3575339 C59.9708119,29.7896158 59.5468246,29.3150612 59.0255847,28.9338559 C58.5043449,28.5526506 57.9130965,28.2686958 57.251822,28.0819831 C56.5905475,27.8952703 55.9020544,27.8019153 55.186322,27.8019153 C54.2060798,27.8019153 53.3347665,27.9652865 52.5723559,28.2920339 C51.8099453,28.6187813 51.1642399,29.0738869 50.6352203,29.6573644 C50.1062007,30.2408419 49.7055522,30.9332248 49.4332627,31.7345339 C49.1609732,32.535843 49.0248305,33.4032665 49.0248305,34.3368305 C49.0248305,35.2392757 49.1726426,36.0678013 49.4682712,36.8224322 C49.7638998,37.5770631 50.1762177,38.2266583 50.7052373,38.7712373 C51.2342569,39.3158163 51.8760725,39.7398036 52.6307034,40.0432119 C53.3853343,40.3466202 54.2138599,40.498322 55.1163051,40.498322 C56.7189233,40.498322 58.0336728,40.0782245 59.0605932,39.2380169 C60.0875136,38.3978094 60.7098803,37.1764148 60.9277119,35.5737966 L57.7302712,35.5737966 C57.6213554,36.3206478 57.3529598,36.9157859 56.9250763,37.3592288 C56.4971928,37.8026717 55.8864955,38.0243898 55.0929661,38.0243898 C54.5795059,38.0243898 54.1438492,37.9076961 53.7859831,37.6743051 C53.4281169,37.4409141 53.1441621,37.1414001 52.9341102,36.7757542 C52.7240583,36.4101083 52.5723564,36.0016802 52.479,35.5504576 C52.3856436,35.099235 52.3389661,34.6557988 52.3389661,34.2201356 C52.3389661,33.768913 52.3856436,33.3138074 52.479,32.8548051 C52.5723564,32.3958028 52.7318379,31.9757053 52.9574492,31.5945 C53.1830605,31.2132947 53.4747948,30.9021114 53.832661,30.6609407 C54.1905272,30.41977 54.6339635,30.2991864 55.1629831,30.2991864 C56.5788884,30.2991864 57.3957447,30.9915693 57.6135763,32.3763559 Z M63.0982373,23.5308814 L63.0982373,40.1949153 L66.4123729,40.1949153 L66.4123729,36.0405763 L67.6960169,34.8036102 L71.0101525,40.1949153 L75.0244576,40.1949153 L69.9598983,32.5630678 L74.511,28.128661 L70.5900508,28.128661 L66.4123729,32.4697119 L66.4123729,23.5308814 L63.0982373,23.5308814 Z M82.6796441,23.5308814 L82.6796441,40.1949153 L85.9937797,40.1949153 L85.9937797,33.8700508 C85.9937797,32.6408583 86.1960488,31.7578756 86.6005932,31.2210763 C87.0051376,30.684277 87.6586226,30.4158814 88.5610678,30.4158814 C89.3545972,30.4158814 89.9069476,30.6609382 90.2181356,31.1510593 C90.5293236,31.6411804 90.6849153,32.3841306 90.6849153,33.3799322 L90.6849153,40.1949153 L93.9990508,40.1949153 L93.9990508,32.7731186 C93.9990508,32.0262675 93.9329244,31.3455539 93.8006695,30.7309576 C93.6684146,30.1163613 93.4389169,29.5951293 93.1121695,29.1672458 C92.7854221,28.7393623 92.3380961,28.4048402 91.770178,28.1636695 C91.2022599,27.9224988 90.4748688,27.8019153 89.5879831,27.8019153 C88.9656071,27.8019153 88.3276812,27.9613967 87.6741864,28.2803644 C87.0206916,28.5993321 86.4839004,29.1088948 86.0637966,29.8090678 L85.9937797,29.8090678 L85.9937797,23.5308814 L82.6796441,23.5308814 Z M104.641627,32.8664746 C104.486033,32.026267 104.209858,31.3883412 103.813093,30.952678 C103.416329,30.5170148 102.813411,30.2991864 102.004322,30.2991864 C101.475302,30.2991864 101.035756,30.3886516 100.685669,30.5675847 C100.335583,30.7465178 100.055518,30.968236 99.8454661,31.2327458 C99.6354142,31.4972556 99.4876021,31.7773206 99.4020254,32.0729492 C99.3164487,32.3685777 99.2658814,32.6330836 99.250322,32.8664746 L104.641627,32.8664746 Z M99.250322,34.9669831 C99.2970002,36.0405816 99.5692856,36.81854 100.067186,37.3008814 C100.565087,37.7832228 101.280809,38.0243898 102.214373,38.0243898 C102.883427,38.0243898 103.459116,37.8571288 103.941458,37.5226017 C104.423799,37.1880746 104.719423,36.8341036 104.828339,36.460678 L107.745712,36.460678 C107.27893,37.9077022 106.563208,38.9423867 105.598525,39.5647627 C104.633843,40.1871387 103.466905,40.498322 102.097678,40.498322 C101.148555,40.498322 100.2928,40.3466202 99.5303898,40.0432119 C98.7679792,39.7398036 98.1222738,39.3080367 97.5932542,38.7478983 C97.0642346,38.1877599 96.6558065,37.5187158 96.3679576,36.7407458 C96.0801087,35.9627758 95.9361864,35.1070216 95.9361864,34.1734576 C95.9361864,33.2710124 96.0839985,32.4308174 96.3796271,31.6528475 C96.6752557,30.8748775 97.0953532,30.2019435 97.6399322,29.6340254 C98.1845112,29.0661073 98.8341064,28.6187813 99.5887373,28.2920339 C100.343368,27.9652865 101.179673,27.8019153 102.097678,27.8019153 C103.124598,27.8019153 104.01925,28.0002946 104.781661,28.3970593 C105.544072,28.793824 106.170328,29.3267255 106.660449,29.9957797 C107.15057,30.6648339 107.504541,31.427233 107.722373,32.283 C107.940204,33.138767 108.018,34.0334191 107.955763,34.9669831 L99.250322,34.9669831 Z M109.916237,28.128661 L109.916237,40.1949153 L113.230373,40.1949153 L113.230373,34.7569322 C113.230373,34.2123532 113.28483,33.7066803 113.393746,33.2398983 C113.502662,32.7731163 113.685482,32.3646882 113.942212,32.0146017 C114.198942,31.6645152 114.537354,31.38834 114.957458,31.1860678 C115.377561,30.9837956 115.891014,30.882661 116.497831,30.882661 C116.700103,30.882661 116.910151,30.8943304 117.127983,30.9176695 C117.345815,30.9410086 117.532525,30.9682371 117.688119,30.9993559 L117.688119,27.9186102 C117.423609,27.8408132 117.182442,27.8019153 116.96461,27.8019153 C116.544506,27.8019153 116.139968,27.8641519 115.750983,27.9886271 C115.361998,28.1131023 114.996358,28.2881429 114.654051,28.5137542 C114.311744,28.7393655 114.00834,29.0116509 113.743831,29.3306186 C113.479321,29.6495863 113.269272,29.9957778 113.113678,30.3692034 L113.067,30.3692034 L113.067,28.128661 L109.916237,28.128661 Z M126.696966,32.8664746 C126.541372,32.026267 126.265197,31.3883412 125.868432,30.952678 C125.471668,30.5170148 124.86875,30.2991864 124.059661,30.2991864 C123.530641,30.2991864 123.091095,30.3886516 122.741008,30.5675847 C122.390922,30.7465178 122.110857,30.968236 121.900805,31.2327458 C121.690753,31.4972556 121.542941,31.7773206 121.457364,32.0729492 C121.371788,32.3685777 121.32122,32.6330836 121.305661,32.8664746 L126.696966,32.8664746 Z M121.305661,34.9669831 C121.352339,36.0405816 121.624625,36.81854 122.122525,37.3008814 C122.620426,37.7832228 123.336148,38.0243898 124.269712,38.0243898 C124.938766,38.0243898 125.514455,37.8571288 125.996797,37.5226017 C126.479138,37.1880746 126.774762,36.8341036 126.883678,36.460678 L129.801051,36.460678 C129.334269,37.9077022 128.618547,38.9423867 127.653864,39.5647627 C126.689182,40.1871387 125.522244,40.498322 124.153017,40.498322 C123.203894,40.498322 122.348139,40.3466202 121.585729,40.0432119 C120.823318,39.7398036 120.177613,39.3080367 119.648593,38.7478983 C119.119574,38.1877599 118.711146,37.5187158 118.423297,36.7407458 C118.135448,35.9627758 117.991525,35.1070216 117.991525,34.1734576 C117.991525,33.2710124 118.139338,32.4308174 118.434966,31.6528475 C118.730595,30.8748775 119.150692,30.2019435 119.695271,29.6340254 C120.23985,29.0661073 120.889445,28.6187813 121.644076,28.2920339 C122.398707,27.9652865 123.235012,27.8019153 124.153017,27.8019153 C125.179937,27.8019153 126.074589,28.0002946 126.837,28.3970593 C127.599411,28.793824 128.225667,29.3267255 128.715788,29.9957797 C129.205909,30.6648339 129.55988,31.427233 129.777712,32.283 C129.995543,33.138767 130.073339,34.0334191 130.011102,34.9669831 L121.305661,34.9669831 Z M132.134949,36.6007119 L132.134949,40.1949153 L135.799169,40.1949153 L135.799169,36.6007119 L132.134949,36.6007119 Z M135.682475,28.0119661 L135.682475,23.5308814 L132.228305,23.5308814 L132.228305,28.0119661 L133.115186,35.2003729 L134.772254,35.2003729 L135.682475,28.0119661 Z"/>
    </g>
    <path fill="#FF6072" d="M25,20.1178451 C25,20.6790152 24.8035934,21.1560025 24.4107744,21.5488215 L21.5488215,24.4107744 C21.1560025,24.8035934 20.6790152,25 20.1178451,25 C19.5566751,25 19.0796877,24.8035934 18.6868687,24.4107744 L12.5,18.2239057 L6.31313131,24.4107744 C5.92031229,24.8035934 5.44332492,25 4.88215488,25 C4.32098485,25 3.84399747,24.8035934 3.45117845,24.4107744 L0.589225589,21.5488215 C0.196406566,21.1560025 0,20.6790152 0,20.1178451 C0,19.5566751 0.196406566,19.0796877 0.589225589,18.6868687 L6.77609428,12.5 L0.589225589,6.31313131 C0.196406566,5.92031229 0,5.44332492 0,4.88215488 C0,4.32098485 0.196406566,3.84399747 0.589225589,3.45117845 L3.45117845,0.589225589 C3.84399747,0.196406566 4.32098485,0 4.88215488,0 C5.44332492,0 5.92031229,0.196406566 6.31313131,0.589225589 L12.5,6.77609428 L18.6868687,0.589225589 C19.0796877,0.196406566 19.5566751,0 20.1178451,0 C20.6790152,0 21.1560025,0.196406566 21.5488215,0.589225589 L24.4107744,3.45117845 C24.8035934,3.84399747 25,4.32098485 25,4.88215488 C25,5.44332492 24.8035934,5.92031229 24.4107744,6.31313131 L18.2239057,12.5 L24.4107744,18.6868687 C24.8035934,19.0796877 25,19.5566751 25,20.1178451 Z" transform="translate(78 168)"/>
  </g>
</svg>
