<?xml version="1.0" encoding="UTF-8" standalone="no"?>
<svg width="333px" height="125px" viewBox="0 0 333 125" version="1.1" xmlns="http://www.w3.org/2000/svg" xmlns:xlink="http://www.w3.org/1999/xlink">
    <!-- Generator: Sketch 42 (36781) - http://www.bohemiancoding.com/sketch -->
    <title>justifiedText</title>
    <desc>Created with Sketch.</desc>
    <defs></defs>
    <g id="Page-2" stroke="none" stroke-width="1" fill="none" fill-rule="evenodd">
        <g id="Autistic-spectrum" transform="translate(-1159.000000, -1405.000000)" fill="#F47738">
            <g id="justifiedText" transform="translate(1159.000000, 1405.000000)">
                <path d="M157.736842,108.082707 L157.736842,119.360902 C157.736842,120.888166 157.17937,122.209816 156.064409,123.325893 C154.949448,124.44197 153.629119,125 152.103383,125 L5.63345865,125 C4.10772263,125 2.78739397,124.44197 1.67243304,123.325893 C0.557472104,122.209816 0,120.888166 0,119.360902 L0,108.082707 C0,106.555443 0.557472104,105.233793 1.67243304,104.117716 C2.78739397,103.001639 4.10772263,102.443609 5.63345865,102.443609 L152.103383,102.443609 C153.629119,102.443609 154.949448,103.001639 156.064409,104.117716 C157.17937,105.233793 157.736842,106.555443 157.736842,108.082707 Z M157.736842,74.2481203 L157.736842,85.5263158 C157.736842,87.0535791 157.17937,88.3752294 156.064409,89.4913064 C154.949448,90.6073834 153.629119,91.1654135 152.103383,91.1654135 L5.63345865,91.1654135 C4.10772263,91.1654135 2.78739397,90.6073834 1.67243304,89.4913064 C0.557472104,88.3752294 0,87.0535791 0,85.5263158 L0,74.2481203 C0,72.720857 0.557472104,71.3992067 1.67243304,70.2831297 C2.78739397,69.1670527 4.10772263,68.6090226 5.63345865,68.6090226 L152.103383,68.6090226 C153.629119,68.6090226 154.949448,69.1670527 156.064409,70.2831297 C157.17937,71.3992067 157.736842,72.720857 157.736842,74.2481203 Z M157.736842,40.4135338 L157.736842,51.6917293 C157.736842,53.2189926 157.17937,54.5406429 156.064409,55.6567199 C154.949448,56.7727969 153.629119,57.3308271 152.103383,57.3308271 L5.63345865,57.3308271 C4.10772263,57.3308271 2.78739397,56.7727969 1.67243304,55.6567199 C0.557472104,54.5406429 0,53.2189926 0,51.6917293 L0,40.4135338 C0,38.8862706 0.557472104,37.5646202 1.67243304,36.4485432 C2.78739397,35.3324662 4.10772263,34.7744361 5.63345865,34.7744361 L152.103383,34.7744361 C153.629119,34.7744361 154.949448,35.3324662 156.064409,36.4485432 C157.17937,37.5646202 157.736842,38.8862706 157.736842,40.4135338 Z M157.736842,6.57894737 L157.736842,17.8571429 C157.736842,19.3844061 157.17937,20.7060564 156.064409,21.8221335 C154.949448,22.9382105 153.629119,23.4962406 152.103383,23.4962406 L5.63345865,23.4962406 C4.10772263,23.4962406 2.78739397,22.9382105 1.67243304,21.8221335 C0.557472104,20.7060564 0,19.3844061 0,17.8571429 L0,6.57894737 C0,5.05168409 0.557472104,3.73003378 1.67243304,2.61395677 C2.78739397,1.49787976 4.10772263,0.939849624 5.63345865,0.939849624 L152.103383,0.939849624 C153.629119,0.939849624 154.949448,1.49787976 156.064409,2.61395677 C157.17937,3.73003378 157.736842,5.05168409 157.736842,6.57894737 Z" id=""></path>
                <path d="M333,108.082707 L333,119.360902 C333,120.888166 332.442528,122.209816 331.327567,123.325893 C330.212606,124.44197 328.892277,125 327.366541,125 L180.896617,125 C179.370881,125 178.050552,124.44197 176.935591,123.325893 C175.82063,122.209816 175.263158,120.888166 175.263158,119.360902 L175.263158,108.082707 C175.263158,106.555443 175.82063,105.233793 176.935591,104.117716 C178.050552,103.001639 179.370881,102.443609 180.896617,102.443609 L327.366541,102.443609 C328.892277,102.443609 330.212606,103.001639 331.327567,104.117716 C332.442528,105.233793 333,106.555443 333,108.082707 Z M333,74.2481203 L333,85.5263158 C333,87.0535791 332.442528,88.3752294 331.327567,89.4913064 C330.212606,90.6073834 328.892277,91.1654135 327.366541,91.1654135 L180.896617,91.1654135 C179.370881,91.1654135 178.050552,90.6073834 176.935591,89.4913064 C175.82063,88.3752294 175.263158,87.0535791 175.263158,85.5263158 L175.263158,74.2481203 C175.263158,72.720857 175.82063,71.3992067 176.935591,70.2831297 C178.050552,69.1670527 179.370881,68.6090226 180.896617,68.6090226 L327.366541,68.6090226 C328.892277,68.6090226 330.212606,69.1670527 331.327567,70.2831297 C332.442528,71.3992067 333,72.720857 333,74.2481203 Z M333,40.4135338 L333,51.6917293 C333,53.2189926 332.442528,54.5406429 331.327567,55.6567199 C330.212606,56.7727969 328.892277,57.3308271 327.366541,57.3308271 L180.896617,57.3308271 C179.370881,57.3308271 178.050552,56.7727969 176.935591,55.6567199 C175.82063,54.5406429 175.263158,53.2189926 175.263158,51.6917293 L175.263158,40.4135338 C175.263158,38.8862706 175.82063,37.5646202 176.935591,36.4485432 C178.050552,35.3324662 179.370881,34.7744361 180.896617,34.7744361 L327.366541,34.7744361 C328.892277,34.7744361 330.212606,35.3324662 331.327567,36.4485432 C332.442528,37.5646202 333,38.8862706 333,40.4135338 Z M333,6.57894737 L333,17.8571429 C333,19.3844061 332.442528,20.7060564 331.327567,21.8221335 C330.212606,22.9382105 328.892277,23.4962406 327.366541,23.4962406 L180.896617,23.4962406 C179.370881,23.4962406 178.050552,22.9382105 176.935591,21.8221335 C175.82063,20.7060564 175.263158,19.3844061 175.263158,17.8571429 L175.263158,6.57894737 C175.263158,5.05168409 175.82063,3.73003378 176.935591,2.61395677 C178.050552,1.49787976 179.370881,0.939849624 180.896617,0.939849624 L327.366541,0.939849624 C328.892277,0.939849624 330.212606,1.49787976 331.327567,2.61395677 C332.442528,3.73003378 333,5.05168409 333,6.57894737 Z" id=""></path>
            </g>
        </g>
    </g>
</svg>