<svg xmlns="http://www.w3.org/2000/svg" width="180" height="200" viewBox="0 0 180 200">
  <g fill="none" fill-rule="evenodd">
    <g transform="translate(43 18)">
      <rect width="76.797" height="105.059" x="7.987" y="7.373" fill="#FFF"/>
      <path fill="#333" d="M52.110795,104.46673 C52.110795,103.055389 51.5951204,101.834054 50.5637558,100.80269 C49.5323911,99.771325 48.3110566,99.2556504 46.8997155,99.2556504 C45.4883744,99.2556504 44.2670399,99.771325 43.2356752,100.80269 C42.2043106,101.834054 41.688636,103.055389 41.688636,104.46673 C41.688636,105.878071 42.2043106,107.099406 43.2356752,108.13077 C44.2670399,109.162135 45.4883744,109.677809 46.8997155,109.677809 C48.3110566,109.677809 49.5323911,109.162135 50.5637558,108.13077 C51.5951204,107.099406 52.110795,105.878071 52.110795,104.46673 Z M83.377272,91.4390311 L83.377272,13.2728386 C83.377272,12.5671681 83.1194347,11.9565008 82.6037524,11.4408185 C82.0880701,10.9251362 81.4774028,10.6672989 80.7717323,10.6672989 L13.0276988,10.6672989 C12.3220282,10.6672989 11.7113609,10.9251362 11.1956786,11.4408185 C10.6799963,11.9565008 10.422159,12.5671681 10.422159,13.2728386 L10.422159,91.4390311 C10.422159,92.1447017 10.6799963,92.755369 11.1956786,93.2710513 C11.7113609,93.7867336 12.3220282,94.0445709 13.0276988,94.0445709 L80.7717323,94.0445709 C81.4774028,94.0445709 82.0880701,93.7867336 82.6037524,93.2710513 C83.1194347,92.755369 83.377272,92.1447017 83.377272,91.4390311 Z M93.799431,13.2728386 L93.799431,101.86119 C93.799431,105.443825 92.5238149,108.510732 89.9725445,111.062002 C87.4212741,113.613273 84.3543673,114.888889 80.7717323,114.888889 L13.0276988,114.888889 C9.44506368,114.888889 6.37815694,113.613273 3.82688651,111.062002 C1.27561608,108.510732 0,105.443825 0,101.86119 L0,13.2728386 C0,9.69020356 1.27561608,6.62329681 3.82688651,4.07202638 C6.37815694,1.52075596 9.44506368,0.245139877 13.0276988,0.245139877 L80.7717323,0.245139877 C84.3543673,0.245139877 87.4212741,1.52075596 89.9725445,4.07202638 C92.5238149,6.62329681 93.799431,9.69020356 93.799431,13.2728386 Z"/>
      <rect width="36.838" height="6.357" x="44.459" y="34.058" fill="#B58840"/>
      <rect width="27.622" height="6.357" x="13.741" y="34.058" fill="#F47738"/>
      <rect width="27.622" height="6.357" x="13.741" y="43.888" fill="#FFBF47"/>
      <rect width="36.838" height="6.357" x="44.459" y="43.594" fill="#F47738"/>
      <rect width="36.838" height="6.357" x="13.338" y="53.13" fill="#B58840"/>
      <rect width="36.838" height="6.357" x="13.338" y="62.667" fill="#F47738"/>
      <rect width="36.838" height="6.357" x="13.338" y="72.203" fill="#B58840"/>
      <rect width="67.959" height="10.172" x="13.338" y="81.739" fill="#28A197"/>
      <rect width="67.959" height="18.437" x="13.338" y="13.078" fill="#FFF"/>
      <rect width="27.628" height="6.357" x="53.034" y="53.13" fill="#FFBF47"/>
      <rect width="27.628" height="6.357" x="53.034" y="62.961" fill="#28A197"/>
      <rect width="13.516" height="6.357" x="53.034" y="72.176" fill="#FFBF47"/>
      <rect width="11.059" height="6.357" x="69.622" y="72.176" fill="#B58840"/>
      <rect width="67.612" height="15.258" x="13.5" y="15.6" fill="#FFBF47"/>
    </g>
    <path fill="#FF6072" d="M25,20.1178451 C25,20.6790152 24.8035934,21.1560025 24.4107744,21.5488215 L21.5488215,24.4107744 C21.1560025,24.8035934 20.6790152,25 20.1178451,25 C19.5566751,25 19.0796877,24.8035934 18.6868687,24.4107744 L12.5,18.2239057 L6.31313131,24.4107744 C5.92031229,24.8035934 5.44332492,25 4.88215488,25 C4.32098485,25 3.84399747,24.8035934 3.45117845,24.4107744 L0.589225589,21.5488215 C0.196406566,21.1560025 0,20.6790152 0,20.1178451 C0,19.5566751 0.196406566,19.0796877 0.589225589,18.6868687 L6.77609428,12.5 L0.589225589,6.31313131 C0.196406566,5.92031229 0,5.44332492 0,4.88215488 C0,4.32098485 0.196406566,3.84399747 0.589225589,3.45117845 L3.45117845,0.589225589 C3.84399747,0.196406566 4.32098485,0 4.88215488,0 C5.44332492,0 5.92031229,0.196406566 6.31313131,0.589225589 L12.5,6.77609428 L18.6868687,0.589225589 C19.0796877,0.196406566 19.5566751,0 20.1178451,0 C20.6790152,0 21.1560025,0.196406566 21.5488215,0.589225589 L24.4107744,3.45117845 C24.8035934,3.84399747 25,4.32098485 25,4.88215488 C25,5.44332492 24.8035934,5.92031229 24.4107744,6.31313131 L18.2239057,12.5 L24.4107744,18.6868687 C24.8035934,19.0796877 25,19.5566751 25,20.1178451 Z" transform="translate(78 168)"/>
  </g>
</svg>
