<?xml version="1.0" encoding="UTF-8" standalone="no"?>
<svg width="123px" height="150px" viewBox="0 0 123 150" version="1.1" xmlns="http://www.w3.org/2000/svg" xmlns:xlink="http://www.w3.org/1999/xlink">
    <!-- Generator: Sketch 42 (36781) - http://www.bohemiancoding.com/sketch -->
    <title>messyTablet</title>
    <desc>Created with Sketch.</desc>
    <defs></defs>
    <g id="Page-2" stroke="none" stroke-width="1" fill="none" fill-rule="evenodd">
        <g id="Autistic-spectrum" transform="translate(-1276.000000, -1957.000000)">
            <g id="messyTablet" transform="translate(1276.000000, 1957.000000)">
                <rect id="Rectangle-236" fill="#FFFFFF" x="10.4278075" y="9.62566845" width="100.26738" height="137.165775"></rect>
                <path d="M68.0363378,136.392732 C68.0363378,134.550072 67.3630682,132.955487 66.016509,131.608927 C64.6699497,130.262368 63.075364,129.589099 61.232704,129.589099 C59.390044,129.589099 57.7954582,130.262368 56.448899,131.608927 C55.1023397,132.955487 54.4290702,134.550072 54.4290702,136.392732 C54.4290702,138.235392 55.1023397,139.829978 56.448899,141.176537 C57.7954582,142.523097 59.390044,143.196366 61.232704,143.196366 C63.075364,143.196366 64.6699497,142.523097 66.016509,141.176537 C67.3630682,139.829978 68.0363378,138.235392 68.0363378,136.392732 Z M108.85814,119.383648 L108.85814,17.3291413 C108.85814,16.4078113 108.521506,15.6105185 107.848226,14.9372388 C107.174946,14.2639592 106.377654,13.9273245 105.456324,13.9273245 L17.0090844,13.9273245 C16.0877544,13.9273245 15.2904616,14.2639592 14.6171819,14.9372388 C13.9439023,15.6105185 13.6072676,16.4078113 13.6072676,17.3291413 L13.6072676,119.383648 C13.6072676,120.304978 13.9439023,121.102271 14.6171819,121.775551 C15.2904616,122.44883 16.0877544,122.785465 17.0090844,122.785465 L105.456324,122.785465 C106.377654,122.785465 107.174946,122.44883 107.848226,121.775551 C108.521506,121.102271 108.85814,120.304978 108.85814,119.383648 Z M122.465408,17.3291413 L122.465408,132.990916 C122.465408,137.668437 120.799952,141.672619 117.468989,145.003581 C114.138027,148.334544 110.133845,150 105.456324,150 L17.0090844,150 C12.3315628,150 8.32738091,148.334544 4.99641856,145.003581 C1.6654562,141.672619 0,137.668437 0,132.990916 L0,17.3291413 C0,12.6516197 1.6654562,8.64743781 4.99641856,5.31647545 C8.32738091,1.9855131 12.3315628,0.320056899 17.0090844,0.320056899 L105.456324,0.320056899 C110.133845,0.320056899 114.138027,1.9855131 117.468989,5.31647545 C120.799952,8.64743781 122.465408,12.6516197 122.465408,17.3291413 Z" id="" fill="#333333"></path>
                <rect id="Rectangle-51" fill="#B58840" x="58.046683" y="44.4664032" width="48.0958231" height="8.30039526"></rect>
                <rect id="Rectangle-51" fill="#F47738" x="17.9397312" y="44.4664032" width="36.0641704" height="8.30039526"></rect>
                <rect id="Rectangle-51" fill="#FFBF47" x="17.9397312" y="57.3006278" width="36.0641704" height="8.30039526"></rect>
                <rect id="Rectangle-51" fill="#F47738" x="58.046683" y="56.916996" width="48.0958231" height="8.30039526"></rect>
                <rect id="Rectangle-51" fill="#B58840" x="17.4140049" y="69.3675889" width="48.0958231" height="8.30039526"></rect>
                <rect id="Rectangle-51" fill="#F47738" x="17.4140049" y="81.8181818" width="48.0958231" height="8.30039526"></rect>
                <rect id="Rectangle-51" fill="#B58840" x="17.4140049" y="94.2687747" width="48.0958231" height="8.30039526"></rect>
                <rect id="Rectangle-51" fill="#28A197" x="17.4140049" y="106.719368" width="88.7285012" height="13.2806324"></rect>
                <rect id="Rectangle-51" fill="#FFFFFF" x="17.4140049" y="17.0750988" width="88.7285012" height="24.0711462"></rect>
                <rect id="Rectangle-51" fill="#FFBF47" x="69.2414005" y="69.3675889" width="36.0718673" height="8.30039526"></rect>
                <rect id="Rectangle-51" fill="#28A197" x="69.2414005" y="82.2018135" width="36.0718673" height="8.30039526"></rect>
                <rect id="Rectangle-51" fill="#FFBF47" x="69.2414005" y="94.2338991" width="17.6470588" height="8.30039526"></rect>
                <rect id="Rectangle-51" fill="#B58840" x="90.8991545" y="94.2338991" width="14.4385027" height="8.30039526"></rect>
                <rect id="Rectangle-51" fill="#FFBF47" x="17.6253794" y="20.3673564" width="88.2754035" height="19.9209486"></rect>
            </g>
        </g>
    </g>
</svg>