<?xml version="1.0" encoding="UTF-8" standalone="no"?>
<svg width="122px" height="149px" viewBox="0 0 122 149" version="1.1" xmlns="http://www.w3.org/2000/svg" xmlns:xlink="http://www.w3.org/1999/xlink">
    <!-- Generator: Sketch 42 (36781) - http://www.bohemiancoding.com/sketch -->
    <title>neatTablet</title>
    <desc>Created with Sketch.</desc>
    <defs></defs>
    <g id="Page-2" stroke="none" stroke-width="1" fill="none" fill-rule="evenodd">
        <g id="Autistic-spectrum" transform="translate(-530.000000, -1957.000000)">
            <g id="neatTablet" transform="translate(530.000000, 1957.000000)">
                <rect id="Rectangle-236" fill="#FFFFFF" x="11.300043" y="12.7071531" width="99.8875463" height="132.837401"></rect>
                <path d="M67.4939919,135.016053 C67.4939919,133.188082 66.8260893,131.606207 65.490264,130.270382 C64.1544387,128.934557 62.5725641,128.266654 60.7445927,128.266654 C58.9166213,128.266654 57.3347467,128.934557 55.9989214,130.270382 C54.6630961,131.606207 53.9951935,133.188082 53.9951935,135.016053 C53.9951935,136.844025 54.6630961,138.425899 55.9989214,139.761724 C57.3347467,141.09755 58.9166213,141.765452 60.7445927,141.765452 C62.5725641,141.765452 64.1544387,141.09755 65.490264,139.761724 C66.8260893,138.425899 67.4939919,136.844025 67.4939919,135.016053 Z M107.990387,118.142555 L107.990387,16.9015673 C107.990387,15.9875816 107.656436,15.1966443 106.988523,14.5287317 C106.32061,13.860819 105.529673,13.5268677 104.615687,13.5268677 L16.873498,13.5268677 C15.9595123,13.5268677 15.168575,13.860819 14.5006623,14.5287317 C13.8327497,15.1966443 13.4987984,15.9875816 13.4987984,16.9015673 L13.4987984,118.142555 C13.4987984,119.056541 13.8327497,119.847478 14.5006623,120.515391 C15.168575,121.183303 15.9595123,121.517255 16.873498,121.517255 L104.615687,121.517255 C105.529673,121.517255 106.32061,121.183303 106.988523,120.515391 C107.656436,119.847478 107.990387,119.056541 107.990387,118.142555 Z M121.489185,16.9015673 L121.489185,131.641354 C121.489185,136.281589 119.837005,140.253852 116.532595,143.558261 C113.228185,146.862671 109.255923,148.514851 104.615687,148.514851 L16.873498,148.514851 C12.2332628,148.514851 8.2609999,146.862671 4.95659003,143.558261 C1.65218015,140.253852 0,136.281589 0,131.641354 L0,16.9015673 C0,12.2613322 1.65218015,8.28906924 4.95659003,4.98465936 C8.2609999,1.68024949 12.2332628,0.028069335 16.873498,0.028069335 L104.615687,0.028069335 C109.255923,0.028069335 113.228185,1.68024949 116.532595,4.98465936 C119.837005,8.28906924 121.489185,12.2613322 121.489185,16.9015673 Z" id="" fill="#0B0C0C"></path>
                <rect id="Rectangle-51" fill="#FFBF47" x="19.8334619" y="19.3715024" width="82.6394245" height="19.7237115"></rect>
                <rect id="Rectangle-51" fill="#F47738" x="19.8334619" y="48.9570696" width="82.6394245" height="8.21821313"></rect>
                <rect id="Rectangle-51" fill="#F47738" x="19.8334619" y="65.3934959" width="82.6394245" height="8.21821313"></rect>
                <rect id="Rectangle-51" fill="#F47738" x="19.8334619" y="81.8299221" width="82.6394245" height="8.21821313"></rect>
                <rect id="Rectangle-63" fill="#28A197" x="19.8334619" y="99.0881697" width="30.5765871" height="12.3273197"></rect>
            </g>
        </g>
    </g>
</svg>