<svg xmlns="http://www.w3.org/2000/svg" width="180" height="200" viewBox="0 0 180 200">
  <g fill="none" fill-rule="evenodd">
    <g transform="translate(43 17)">
      <rect width="77.1" height="102.533" x="8.722" y="9.808" fill="#FFF"/>
      <path fill="#0B0C0C" d="M52.096582,104.21483 C52.096582,102.803874 51.5810481,101.582872 50.5499648,100.551789 C49.5188814,99.5207057 48.29788,99.0051717 46.8869238,99.0051717 C45.4759677,99.0051717 44.2549662,99.5207057 43.2238829,100.551789 C42.1927996,101.582872 41.6772656,102.803874 41.6772656,104.21483 C41.6772656,105.625786 42.1927996,106.846788 43.2238829,107.877871 C44.2549662,108.908954 45.4759677,109.424488 46.8869238,109.424488 C48.29788,109.424488 49.5188814,108.908954 50.5499648,107.877871 C51.5810481,106.846788 52.096582,105.625786 52.096582,104.21483 Z M83.3545312,91.1906844 L83.3545312,13.0458114 C83.3545312,12.3403333 83.0967643,11.7298326 82.5812226,11.2142909 C82.0656809,10.6987493 81.4551802,10.4409823 80.7497021,10.4409823 L13.0241455,10.4409823 C12.3186674,10.4409823 11.7081667,10.6987493 11.192625,11.2142909 C10.6770834,11.7298326 10.4193164,12.3403333 10.4193164,13.0458114 L10.4193164,91.1906844 C10.4193164,91.8961625 10.6770834,92.5066632 11.192625,93.0222049 C11.7081667,93.5377466 12.3186674,93.7955135 13.0241455,93.7955135 L80.7497021,93.7955135 C81.4551802,93.7955135 82.0656809,93.5377466 82.5812226,93.0222049 C83.0967643,92.5066632 83.3545312,91.8961625 83.3545312,91.1906844 Z M93.7738477,13.0458114 L93.7738477,101.610001 C93.7738477,105.191659 92.4985795,108.257729 89.9480049,110.808304 C87.3974303,113.358878 84.3313601,114.634146 80.7497021,114.634146 L13.0241455,114.634146 C9.44248758,114.634146 6.37641732,113.358878 3.82584274,110.808304 C1.27526816,108.257729 0,105.191659 0,101.610001 L0,13.0458114 C0,9.46415346 1.27526816,6.3980832 3.82584274,3.84750862 C6.37641732,1.29693404 9.44248758,0.0216658753 13.0241455,0.0216658753 L80.7497021,0.0216658753 C84.3313601,0.0216658753 87.3974303,1.29693404 89.9480049,3.84750862 C92.4985795,6.3980832 93.7738477,9.46415346 93.7738477,13.0458114 Z"/>
      <rect width="63.787" height="15.224" x="15.309" y="14.952" fill="#FFBF47"/>
      <rect width="63.787" height="6.343" x="15.309" y="37.788" fill="#F47738"/>
      <rect width="63.787" height="6.343" x="15.309" y="50.475" fill="#F47738"/>
      <rect width="63.787" height="6.343" x="15.309" y="63.162" fill="#F47738"/>
      <rect width="23.601" height="9.515" x="15.309" y="76.483" fill="#28A197"/>
    </g>
    <path fill="#3FBE7C" d="M30,4.49158249 C30,5.00785892 29.8193566,5.44668731 29.4580645,5.80808081 L12.8129032,22.4579125 C12.4516111,22.819306 12.0129058,23 11.4967742,23 C10.9806426,23 10.5419373,22.819306 10.1806452,22.4579125 L0.541935484,12.8164983 C0.180643355,12.4551048 0,12.0162764 0,11.5 C0,10.9837236 0.180643355,10.5448952 0.541935484,10.1835017 L3.17419355,7.55050505 C3.53548568,7.18911155 3.97419097,7.00841751 4.49032258,7.00841751 C5.00645419,7.00841751 5.44515948,7.18911155 5.80645161,7.55050505 L11.4967742,13.2617845 L24.1935484,0.542087542 C24.5548405,0.18069404 24.9935458,0 25.5096774,0 C26.025809,0 26.4645143,0.18069404 26.8258065,0.542087542 L29.4580645,3.17508418 C29.8193566,3.53647768 30,3.97530606 30,4.49158249 Z" transform="translate(75 169)"/>
  </g>
</svg>
