<svg xmlns="http://www.w3.org/2000/svg" width="180" height="200" viewBox="0 0 180 200">
  <g fill="none" fill-rule="evenodd">
    <g transform="translate(20)">
      <circle cx="39.691" cy="86.598" r="39.691" fill="#F47738" opacity=".8"/>
      <circle cx="67.835" cy="39.691" r="39.691" fill="#FFBF47" opacity=".798"/>
      <circle cx="100.309" cy="86.598" r="39.691" fill="#28A197" opacity=".8"/>
    </g>
    <path fill="#3FBE7C" d="M30,4.49158249 C30,5.00785892 29.8193566,5.44668731 29.4580645,5.80808081 L12.8129032,22.4579125 C12.4516111,22.819306 12.0129058,23 11.4967742,23 C10.9806426,23 10.5419373,22.819306 10.1806452,22.4579125 L0.541935484,12.8164983 C0.180643355,12.4551048 0,12.0162764 0,11.5 C0,10.9837236 0.180643355,10.5448952 0.541935484,10.1835017 L3.17419355,7.55050505 C3.53548568,7.18911155 3.97419097,7.00841751 4.49032258,7.00841751 C5.00645419,7.00841751 5.44515948,7.18911155 5.80645161,7.55050505 L11.4967742,13.2617845 L24.1935484,0.542087542 C24.5548405,0.18069404 24.9935458,0 25.5096774,0 C26.025809,0 26.4645143,0.18069404 26.8258065,0.542087542 L29.4580645,3.17508418 C29.8193566,3.53647768 30,3.97530606 30,4.49158249 Z" transform="translate(75 169)"/>
  </g>
</svg>
