<?xml version="1.0" encoding="UTF-8" standalone="no"?>
<svg width="145px" height="154px" viewBox="0 0 145 154" version="1.1" xmlns="http://www.w3.org/2000/svg" xmlns:xlink="http://www.w3.org/1999/xlink">
    <!-- Generator: Sketch 42 (36781) - http://www.bohemiancoding.com/sketch -->
    <title>autismSpectrum/titleImage</title>
    <desc>Created with Sketch.</desc>
    <defs></defs>
    <g id="Site-assets" stroke="none" stroke-width="1" fill="none" fill-rule="evenodd" opacity="0.25">
        <g id="autismSpectrum/titleImage">
            <ellipse id="Oval-23" fill="#DF3034" cx="37.5615015" cy="56.2807018" rx="37.5615015" ry="37.2807018"></ellipse>
            <ellipse id="Oval-23" fill="#F47738" cx="72.5615015" cy="37.2807018" rx="37.5615015" ry="37.2807018"></ellipse>
            <ellipse id="Oval-23" fill="#FFBF47" cx="106.561502" cy="56.2807018" rx="37.5615015" ry="37.2807018"></ellipse>
            <path d="M106.561502,133.561404 C127.306146,133.561404 144.123003,116.870265 144.123003,96.2807018 C144.123003,75.6911387 127.306146,59 106.561502,59 C85.8168571,59 69,75.6911387 69,96.2807018 C69,116.870265 85.8168571,133.561404 106.561502,133.561404 Z" id="Oval-23" fill="#85994B"></path>
            <path d="M72.5615015,153.561404 C93.306146,153.561404 110.123003,136.870265 110.123003,116.280702 C110.123003,95.6911387 93.306146,79 72.5615015,79 C51.8168571,79 35,95.6911387 35,116.280702 C35,136.870265 51.8168571,153.561404 72.5615015,153.561404 Z" id="Oval-23" fill="#2E8ACA"></path>
            <path d="M37.5615015,133.561404 C58.306146,133.561404 75.1230031,116.870265 75.1230031,96.2807018 C75.1230031,75.6911387 58.306146,59 37.5615015,59 C16.8168571,59 0,75.6911387 0,96.2807018 C0,116.870265 16.8168571,133.561404 37.5615015,133.561404 Z" id="Oval-23" fill="#6F71AF"></path>
        </g>
    </g>
</svg>