<?xml version="1.0" encoding="UTF-8" standalone="no"?>
<svg width="285px" height="91px" viewBox="0 0 285 91" version="1.1" xmlns="http://www.w3.org/2000/svg" xmlns:xlink="http://www.w3.org/1999/xlink">
    <!-- Generator: Sketch 42 (36781) - http://www.bohemiancoding.com/sketch -->
    <title>screenreaders/altTag</title>
    <desc>Created with Sketch.</desc>
    <defs></defs>
    <g id="Site-assets" stroke="none" stroke-width="1" fill="none" fill-rule="evenodd">
        <g id="Visually-impaired---screenreader" transform="translate(-448.000000, -834.000000)" fill="#85994B">
            <g id="screenreaders/altTag" transform="translate(448.000000, 834.000000)">
                <path d="M63.696,39.524 L63.696,25.264 L0.704,50.312 L0.704,64.944 L63.696,89.868 L63.696,75.732 L18.188,57.628 L63.696,39.524 Z M75.352,44.608 C75.6000012,40.474646 76.6333242,37.0440136 78.452,34.316 C80.2706758,31.5879864 82.5853193,29.3973416 85.396,27.744 C88.2066807,26.0906584 91.3686491,24.9126702 94.882,24.21 C98.3953509,23.5073298 101.929316,23.156 105.484,23.156 C108.708016,23.156 111.973317,23.3833311 115.28,23.838 C118.586683,24.2926689 121.603986,25.1813267 124.332,26.504 C127.060014,27.8266733 129.291991,29.6659882 131.028,32.022 C132.764009,34.3780118 133.632,37.4986472 133.632,41.384 L133.632,74.74 C133.632,77.6333478 133.797332,80.4026534 134.128,83.048 C134.458668,85.6933466 135.037329,87.6773267 135.864,89 L118.008,89 C117.677332,88.007995 117.408668,86.9953385 117.202,85.962 C116.995332,84.9286615 116.850667,83.874672 116.768,82.8 C113.957319,85.6933478 110.650686,87.7186609 106.848,88.876 C103.045314,90.0333391 99.1600198,90.612 95.192,90.612 C92.133318,90.612 89.2813466,90.2400037 86.636,89.496 C83.9906534,88.7519963 81.6760099,87.5946745 79.692,86.024 C77.7079901,84.4533255 76.1580056,82.4693453 75.042,80.072 C73.9259944,77.6746547 73.368,74.8226832 73.368,71.516 C73.368,67.8786485 74.0086603,64.8820118 75.29,62.526 C76.5713397,60.1699882 78.2246565,58.2893404 80.25,56.884 C82.2753435,55.4786596 84.589987,54.4246702 87.194,53.722 C89.798013,53.0193298 92.4226534,52.4613354 95.068,52.048 C97.7133466,51.6346646 100.317321,51.3040012 102.88,51.056 C105.442679,50.8079988 107.71599,50.4360025 109.7,49.94 C111.68401,49.4439975 113.254661,48.7206714 114.412,47.77 C115.569339,46.8193286 116.106667,45.4346758 116.024,43.616 C116.024,41.7146572 115.714003,40.2060056 115.094,39.09 C114.473997,37.9739944 113.647339,37.1060031 112.614,36.486 C111.580662,35.8659969 110.382007,35.4526677 109.018,35.246 C107.653993,35.0393323 106.186675,34.936 104.616,34.936 C101.143983,34.936 98.4160099,35.6799926 96.432,37.168 C94.4479901,38.6560074 93.2906683,41.1359826 92.96,44.608 L75.352,44.608 Z M116.024,57.628 C115.279996,58.2893366 114.350006,58.8059981 113.234,59.178 C112.117994,59.5500019 110.91934,59.8599988 109.638,60.108 C108.35666,60.3560012 107.01334,60.5626658 105.608,60.728 C104.20266,60.8933342 102.79734,61.0999988 101.392,61.348 C100.069327,61.5960012 98.7673397,61.9266646 97.486,62.34 C96.2046603,62.7533354 95.0886714,63.3113298 94.138,64.014 C93.1873286,64.7166702 92.4226696,65.605328 91.844,66.68 C91.2653304,67.754672 90.976,69.1186584 90.976,70.772 C90.976,72.3426745 91.2653304,73.665328 91.844,74.74 C92.4226696,75.814672 93.207995,76.6619969 94.2,77.282 C95.192005,77.9020031 96.3493267,78.3359988 97.672,78.584 C98.9946733,78.8320012 100.35866,78.956 101.764,78.956 C105.236017,78.956 107.922657,78.3773391 109.824,77.22 C111.725343,76.0626609 113.130662,74.6780081 114.04,73.066 C114.949338,71.4539919 115.507332,69.8213416 115.714,68.168 C115.920668,66.5146584 116.024,65.192005 116.024,64.2 L116.024,57.628 Z M147.768,0.464 L147.768,89 L165.376,89 L165.376,0.464 L147.768,0.464 Z M201.584,24.892 L201.584,5.672 L183.976,5.672 L183.976,24.892 L173.312,24.892 L173.312,36.672 L183.976,36.672 L183.976,74.492 C183.976,77.7160161 184.513328,80.3199901 185.588,82.304 C186.662672,84.2880099 188.129991,85.817328 189.99,86.892 C191.850009,87.966672 193.999321,88.6899981 196.438,89.062 C198.876679,89.4340019 201.459986,89.62 204.188,89.62 C205.924009,89.62 207.701324,89.5786671 209.52,89.496 C211.338676,89.4133329 212.991993,89.2480012 214.48,89 L214.48,75.36 C213.653329,75.5253342 212.785338,75.6493329 211.876,75.732 C210.966662,75.8146671 210.016005,75.856 209.024,75.856 C206.047985,75.856 204.064005,75.360005 203.072,74.368 C202.079995,73.375995 201.584,71.3920149 201.584,68.416 L201.584,36.672 L214.48,36.672 L214.48,24.892 L201.584,24.892 Z M221.92,75.732 L221.92,89.868 L284.912,64.944 L284.912,50.312 L221.92,25.264 L221.92,39.524 L267.428,57.628 L221.92,75.732 Z" id="altTag"></path>
            </g>
        </g>
    </g>
</svg>