<?xml version="1.0" encoding="UTF-8" standalone="no"?>
<svg width="309px" height="199px" viewBox="0 0 309 199" version="1.1" xmlns="http://www.w3.org/2000/svg" xmlns:xlink="http://www.w3.org/1999/xlink">
    <!-- Generator: Sketch 42 (36781) - http://www.bohemiancoding.com/sketch -->
    <title>screenreaders/html5</title>
    <desc>Created with Sketch.</desc>
    <defs></defs>
    <g id="Site-assets" stroke="none" stroke-width="1" fill="none" fill-rule="evenodd">
        <g id="Visually-impaired---screenreader" transform="translate(-446.000000, -1364.000000)">
            <g id="screenreaders/html5" transform="translate(446.000000, 1364.000000)">
                <path d="M41.32,26.08 L41.32,16.88 L0.68,33.04 L0.68,42.48 L41.32,58.56 L41.32,49.44 L11.96,37.76 L41.32,26.08 Z M49.32,0.88 L49.32,58 L60.68,58 L60.68,36.32 C60.68,32.1066456 61.3733264,29.0800092 62.76,27.24 C64.1466736,25.3999908 66.3866512,24.48 69.48,24.48 C72.2000136,24.48 74.093328,25.3199916 75.16,27 C76.226672,28.6800084 76.76,31.2266496 76.76,34.64 L76.76,58 L88.12,58 L88.12,32.56 C88.12,29.9999872 87.8933356,27.6666772 87.44,25.56 C86.9866644,23.4533228 86.2000056,21.666674 85.08,20.2 C83.9599944,18.733326 82.4266764,17.5866708 80.48,16.76 C78.5333236,15.9333292 76.0400152,15.52 73,15.52 C70.866656,15.52 68.6800112,16.0666612 66.44,17.16 C64.1999888,18.2533388 62.3600072,19.999988 60.92,22.4 L60.68,22.4 L60.68,0.88 L49.32,0.88 Z M123.8,58 L123.8,2 L114.76,2 C114.439998,4.133344 113.773338,5.9199928 112.76,7.36 C111.746662,8.8000072 110.506674,9.9599956 109.04,10.84 C107.573326,11.7200044 105.920009,12.3333316 104.08,12.68 C102.239991,13.0266684 100.333343,13.1733336 98.36,13.12 L98.36,21.68 L112.44,21.68 L112.44,58 L123.8,58 Z M140.6,49.44 L140.6,58.56 L181.24,42.48 L181.24,33.04 L140.6,16.88 L140.6,26.08 L169.96,37.76 L140.6,49.44 Z" id="&lt;h1&gt;" fill="#B58840"></path>
                <path d="M162.456,97.464 L162.456,90.104 L129.944,103.032 L129.944,110.584 L162.456,123.448 L162.456,116.152 L138.968,106.808 L162.456,97.464 Z M168.856,89.912 L168.856,123 L177.944,123 L177.944,105.656 C177.944,102.285316 178.498661,99.8640074 179.608,98.392 C180.717339,96.9199926 182.509321,96.184 184.984,96.184 C187.160011,96.184 188.674662,96.8559933 189.528,98.2 C190.381338,99.5440067 190.808,101.58132 190.808,104.312 L190.808,123 L199.896,123 L199.896,102.648 C199.896,100.59999 199.714668,98.7333418 199.352,97.048 C198.989332,95.3626582 198.360004,93.9333392 197.464,92.76 C196.567996,91.5866608 195.341341,90.6693366 193.784,90.008 C192.226659,89.3466634 190.232012,89.016 187.8,89.016 C185.87999,89.016 184.002676,89.453329 182.168,90.328 C180.333324,91.202671 178.840006,92.5999904 177.688,94.52 L177.496,94.52 L177.496,89.912 L168.856,89.912 Z M206.424,100.088 C206.552001,97.954656 207.085329,96.184007 208.024,94.776 C208.962671,93.367993 210.157326,92.2373376 211.608,91.384 C213.058674,90.5306624 214.690658,89.9226685 216.504,89.56 C218.317342,89.1973315 220.141324,89.016 221.976,89.016 C223.640008,89.016 225.325325,89.1333322 227.032,89.368 C228.738675,89.6026678 230.295993,90.0613299 231.704,90.744 C233.112007,91.4266701 234.263996,92.3759939 235.16,93.592 C236.056004,94.8080061 236.504,96.4186566 236.504,98.424 L236.504,115.64 C236.504,117.133341 236.589332,118.56266 236.76,119.928 C236.930668,121.29334 237.229331,122.31733 237.656,123 L228.44,123 C228.269332,122.487997 228.130667,121.965336 228.024,121.432 C227.917333,120.898664 227.842667,120.354669 227.8,119.8 C226.349326,121.293341 224.642676,122.338664 222.68,122.936 C220.717324,123.533336 218.71201,123.832 216.664,123.832 C215.085325,123.832 213.61334,123.640002 212.248,123.256 C210.88266,122.871998 209.688005,122.274671 208.664,121.464 C207.639995,120.653329 206.840003,119.62934 206.264,118.392 C205.687997,117.15466 205.4,115.682675 205.4,113.976 C205.4,112.098657 205.730663,110.552006 206.392,109.336 C207.053337,108.119994 207.906661,107.149337 208.952,106.424 C209.997339,105.698663 211.191993,105.154668 212.536,104.792 C213.880007,104.429332 215.23466,104.141334 216.6,103.928 C217.96534,103.714666 219.309327,103.544001 220.632,103.416 C221.954673,103.287999 223.127995,103.096001 224.152,102.84 C225.176005,102.583999 225.986664,102.210669 226.584,101.72 C227.181336,101.229331 227.458667,100.514671 227.416,99.576 C227.416,98.5946618 227.256002,97.8160029 226.936,97.24 C226.615998,96.6639971 226.189336,96.2160016 225.656,95.896 C225.122664,95.5759984 224.504004,95.3626672 223.8,95.256 C223.095996,95.1493328 222.338671,95.096 221.528,95.096 C219.735991,95.096 218.328005,95.4799962 217.304,96.248 C216.279995,97.0160038 215.682668,98.295991 215.512,100.088 L206.424,100.088 Z M227.416,106.808 C227.031998,107.149335 226.552003,107.415999 225.976,107.608 C225.399997,107.800001 224.781337,107.959999 224.12,108.088 C223.458663,108.216001 222.765337,108.322666 222.04,108.408 C221.314663,108.493334 220.589337,108.599999 219.864,108.728 C219.18133,108.856001 218.509337,109.026666 217.848,109.24 C217.186663,109.453334 216.610669,109.741332 216.12,110.104 C215.629331,110.466668 215.234668,110.925331 214.936,111.48 C214.637332,112.034669 214.488,112.738662 214.488,113.592 C214.488,114.402671 214.637332,115.085331 214.936,115.64 C215.234668,116.194669 215.639997,116.631998 216.152,116.952 C216.664003,117.272002 217.26133,117.495999 217.944,117.624 C218.62667,117.752001 219.330663,117.816 220.056,117.816 C221.848009,117.816 223.234662,117.517336 224.216,116.92 C225.197338,116.322664 225.922664,115.608004 226.392,114.776 C226.861336,113.943996 227.149333,113.101338 227.256,112.248 C227.362667,111.394662 227.416,110.712003 227.416,110.2 L227.416,106.808 Z M261.848,123 L273.048,89.912 L264.024,89.912 L257.048,112.504 L256.92,112.504 L249.944,89.912 L240.408,89.912 L251.736,123 L261.848,123 Z M276.312,116.152 L276.312,123.448 L308.824,110.584 L308.824,103.032 L276.312,90.104 L276.312,97.464 L299.8,106.808 L276.312,116.152 Z" id="&lt;nav&gt;" fill="#28A197"></path>
                <path d="M47.24,174.06 L47.24,167.16 L16.76,179.28 L16.76,186.36 L47.24,198.42 L47.24,191.58 L25.22,182.82 L47.24,174.06 Z M53.48,155.16 L53.48,198 L62,198 L62,155.16 L53.48,155.16 Z M68.36,176.52 C68.4800006,174.51999 68.9799956,172.860007 69.86,171.54 C70.7400044,170.219993 71.8599932,169.160004 73.22,168.36 C74.5800068,167.559996 76.1099915,166.990002 77.81,166.65 C79.5100085,166.309998 81.2199914,166.14 82.94,166.14 C84.5000078,166.14 86.079992,166.249999 87.68,166.47 C89.280008,166.690001 90.7399934,167.119997 92.06,167.76 C93.3800066,168.400003 94.4599958,169.289994 95.3,170.43 C96.1400042,171.570006 96.56,173.079991 96.56,174.96 L96.56,191.1 C96.56,192.500007 96.6399992,193.839994 96.8,195.12 C96.9600008,196.400006 97.239998,197.359997 97.64,198 L89,198 C88.8399992,197.519998 88.7100005,197.030002 88.61,196.53 C88.5099995,196.029998 88.4400002,195.520003 88.4,195 C87.0399932,196.400007 85.4400092,197.379997 83.6,197.94 C81.7599908,198.500003 79.8800096,198.78 77.96,198.78 C76.4799926,198.78 75.1000064,198.600002 73.82,198.24 C72.5399936,197.879998 71.4200048,197.320004 70.46,196.56 C69.4999952,195.799996 68.7500027,194.840006 68.21,193.68 C67.6699973,192.519994 67.4,191.140008 67.4,189.54 C67.4,187.779991 67.7099969,186.330006 68.33,185.19 C68.9500031,184.049994 69.7499951,183.140003 70.73,182.46 C71.7100049,181.779997 72.8299937,181.270002 74.09,180.93 C75.3500063,180.589998 76.6199936,180.320001 77.9,180.12 C79.1800064,179.919999 80.4399938,179.760001 81.68,179.64 C82.9200062,179.519999 84.0199952,179.340001 84.98,179.1 C85.9400048,178.859999 86.6999972,178.510002 87.26,178.05 C87.8200028,177.589998 88.0800002,176.920004 88.04,176.04 C88.04,175.119995 87.8900015,174.390003 87.59,173.85 C87.2899985,173.309997 86.8900025,172.890001 86.39,172.59 C85.8899975,172.289998 85.3100033,172.090001 84.65,171.99 C83.9899967,171.889999 83.2800038,171.84 82.52,171.84 C80.8399916,171.84 79.5200048,172.199996 78.56,172.92 C77.5999952,173.640004 77.0400008,174.839992 76.88,176.52 L68.36,176.52 Z M88.04,182.82 C87.6799982,183.140002 87.2300027,183.389999 86.69,183.57 C86.1499973,183.750001 85.5700031,183.899999 84.95,184.02 C84.3299969,184.140001 83.6800034,184.24 83,184.32 C82.3199966,184.4 81.6400034,184.499999 80.96,184.62 C80.3199968,184.740001 79.6900031,184.899999 79.07,185.1 C78.4499969,185.300001 77.9100023,185.569998 77.45,185.91 C76.9899977,186.250002 76.6200014,186.679997 76.34,187.2 C76.0599986,187.720003 75.92,188.379996 75.92,189.18 C75.92,189.940004 76.0599986,190.579997 76.34,191.1 C76.6200014,191.620003 76.9999976,192.029998 77.48,192.33 C77.9600024,192.630001 78.5199968,192.839999 79.16,192.96 C79.8000032,193.080001 80.4599966,193.14 81.14,193.14 C82.8200084,193.14 84.1199954,192.860003 85.04,192.3 C85.9600046,191.739997 86.6399978,191.070004 87.08,190.29 C87.5200022,189.509996 87.7899995,188.720004 87.89,187.92 C87.9900005,187.119996 88.04,186.480002 88.04,186 L88.04,182.82 Z M125.9,182.52 C125.9,181.199993 125.760001,179.940006 125.48,178.74 C125.199999,177.539994 124.760003,176.480005 124.16,175.56 C123.559997,174.639995 122.810005,173.910003 121.91,173.37 C121.009996,172.829997 119.920006,172.56 118.64,172.56 C117.399994,172.56 116.320005,172.829997 115.4,173.37 C114.479995,173.910003 113.720003,174.639995 113.12,175.56 C112.519997,176.480005 112.080001,177.539994 111.8,178.74 C111.519999,179.940006 111.38,181.199993 111.38,182.52 C111.38,183.800006 111.519999,185.039994 111.8,186.24 C112.080001,187.440006 112.519997,188.499995 113.12,189.42 C113.720003,190.340005 114.479995,191.069997 115.4,191.61 C116.320005,192.150003 117.399994,192.42 118.64,192.42 C119.920006,192.42 121.009996,192.150003 121.91,191.61 C122.810005,191.069997 123.559997,190.340005 124.16,189.42 C124.760003,188.499995 125.199999,187.440006 125.48,186.24 C125.760001,185.039994 125.9,183.800006 125.9,182.52 Z M103.16,155.16 L111.68,155.16 L111.68,170.76 L111.8,170.76 C112.840005,169.159992 114.249991,167.990004 116.03,167.25 C117.810009,166.509996 119.65999,166.14 121.58,166.14 C123.140008,166.14 124.679992,166.459997 126.2,167.1 C127.720008,167.740003 129.089994,168.719993 130.31,170.04 C131.530006,171.360007 132.519996,173.04999 133.28,175.11 C134.040004,177.17001 134.42,179.619986 134.42,182.46 C134.42,185.300014 134.040004,187.74999 133.28,189.81 C132.519996,191.87001 131.530006,193.559993 130.31,194.88 C129.089994,196.200007 127.720008,197.179997 126.2,197.82 C124.679992,198.460003 123.140008,198.78 121.58,198.78 C119.299989,198.78 117.260009,198.420004 115.46,197.7 C113.659991,196.979996 112.300005,195.760009 111.38,194.04 L111.26,194.04 L111.26,198 L103.16,198 L103.16,155.16 Z M160.7,179.16 C160.299998,176.999989 159.590005,175.360006 158.57,174.24 C157.549995,173.119994 156.00001,172.56 153.92,172.56 C152.559993,172.56 151.430005,172.789998 150.53,173.25 C149.629996,173.710002 148.910003,174.279997 148.37,174.96 C147.829997,175.640003 147.450001,176.359996 147.23,177.12 C147.009999,177.880004 146.88,178.559997 146.84,179.16 L160.7,179.16 Z M146.84,184.56 C146.960001,187.320014 147.659994,189.319994 148.94,190.56 C150.220006,191.800006 152.059988,192.42 154.46,192.42 C156.180009,192.42 157.659994,191.990004 158.9,191.13 C160.140006,190.269996 160.899999,189.360005 161.18,188.4 L168.68,188.4 C167.479994,192.120019 165.640012,194.779992 163.16,196.38 C160.679988,197.980008 157.680018,198.78 154.16,198.78 C151.719988,198.78 149.52001,198.390004 147.56,197.61 C145.59999,196.829996 143.940007,195.720007 142.58,194.28 C141.219993,192.839993 140.170004,191.12001 139.43,189.12 C138.689996,187.11999 138.32,184.920012 138.32,182.52 C138.32,180.199988 138.699996,178.04001 139.46,176.04 C140.220004,174.03999 141.299993,172.310007 142.7,170.85 C144.100007,169.389993 145.76999,168.240004 147.71,167.4 C149.65001,166.559996 151.799988,166.14 154.16,166.14 C156.800013,166.14 159.09999,166.649995 161.06,167.67 C163.02001,168.690005 164.629994,170.059991 165.89,171.78 C167.150006,173.500009 168.059997,175.459989 168.62,177.66 C169.180003,179.860011 169.380001,182.159988 169.22,184.56 L146.84,184.56 Z M174.5,155.16 L174.5,198 L183.02,198 L183.02,155.16 L174.5,155.16 Z M189.26,191.58 L189.26,198.42 L219.74,186.36 L219.74,179.28 L189.26,167.16 L189.26,174.06 L211.28,182.82 L189.26,191.58 Z" id="&lt;label&gt;" fill="#F47738"></path>
            </g>
        </g>
    </g>
</svg>