<?xml version="1.0" encoding="UTF-8" standalone="no"?>
<svg width="328px" height="125px" viewBox="0 0 328 125" version="1.1" xmlns="http://www.w3.org/2000/svg" xmlns:xlink="http://www.w3.org/1999/xlink">
    <!-- Generator: Sketch 42 (36781) - http://www.bohemiancoding.com/sketch -->
    <title>screenreaders/textSizeAndPlacement</title>
    <desc>Created with Sketch.</desc>
    <defs></defs>
    <g id="Site-assets" stroke="none" stroke-width="1" fill="none" fill-rule="evenodd">
        <g id="Visually-impaired---screenreader" transform="translate(-1193.000000, -1392.000000)">
            <g id="screenreaders/textSizeAndPlacement" transform="translate(1193.000000, 1392.000000)">
                <path d="M49.658,64.452 L49.658,123 L62.532,123 L62.532,97.744 L86.23,97.744 L86.23,123 L99.104,123 L99.104,64.452 L86.23,64.452 L86.23,86.92 L62.532,86.92 L62.532,64.452 L49.658,64.452 Z M137.726,97.252 C137.179331,94.2999852 136.209007,92.0586743 134.815,90.528 C133.420993,88.9973257 131.302681,88.232 128.46,88.232 C126.601324,88.232 125.057006,88.5463302 123.827,89.175 C122.596994,89.8036698 121.613004,90.582662 120.875,91.512 C120.136996,92.441338 119.617668,93.4253281 119.317,94.464 C119.016332,95.5026719 118.838667,96.4319959 118.784,97.252 L137.726,97.252 Z M118.784,104.632 C118.948001,108.404019 119.904658,111.137325 121.654,112.832 C123.403342,114.526675 125.917984,115.374 129.198,115.374 C131.548678,115.374 133.571325,114.786339 135.266,113.611 C136.960675,112.435661 137.999331,111.192007 138.382,109.88 L148.632,109.88 C146.991992,114.964025 144.47735,118.599322 141.088,120.786 C137.69865,122.972678 133.598691,124.066 128.788,124.066 C125.453317,124.066 122.44668,123.533005 119.768,122.467 C117.08932,121.400995 114.820676,119.88401 112.962,117.916 C111.103324,115.94799 109.668338,113.597347 108.657,110.864 C107.645662,108.130653 107.14,105.124016 107.14,101.844 C107.14,98.6733175 107.659328,95.721347 108.698,92.988 C109.736672,90.254653 111.212657,87.8903433 113.126,85.895 C115.039343,83.8996567 117.321653,82.3280057 119.973,81.18 C122.624347,80.0319943 125.562651,79.458 128.788,79.458 C132.396018,79.458 135.53932,80.154993 138.218,81.549 C140.89668,82.943007 143.096991,84.8153216 144.819,87.166 C146.541009,89.5166784 147.784663,92.1953183 148.55,95.202 C149.315337,98.2086817 149.588668,101.351984 149.37,104.632 L118.784,104.632 Z M155.766,93.644 C155.930001,90.910653 156.613327,88.642009 157.816,86.838 C159.018673,85.033991 160.549324,83.5853388 162.408,82.492 C164.266676,81.3986612 166.357655,80.619669 168.681,80.155 C171.004345,79.690331 173.341322,79.458 175.692,79.458 C177.824011,79.458 179.983322,79.6083318 182.17,79.909 C184.356678,80.2096682 186.351991,80.797329 188.156,81.672 C189.960009,82.546671 191.435994,83.7629922 192.584,85.321 C193.732006,86.8790078 194.306,88.9426538 194.306,91.512 L194.306,113.57 C194.306,115.483343 194.415332,117.314658 194.634,119.064 C194.852668,120.813342 195.235331,122.125329 195.782,123 L183.974,123 C183.755332,122.343997 183.577667,121.674337 183.441,120.991 C183.304333,120.307663 183.208667,119.61067 183.154,118.9 C181.295324,120.813343 179.108679,122.152663 176.594,122.918 C174.079321,123.683337 171.510013,124.066 168.886,124.066 C166.863323,124.066 164.977342,123.820002 163.228,123.328 C161.478658,122.835998 159.948007,122.070672 158.636,121.032 C157.323993,119.993328 156.299004,118.681341 155.561,117.096 C154.822996,115.510659 154.454,113.624678 154.454,111.438 C154.454,109.032655 154.877662,107.051008 155.725,105.493 C156.572338,103.934992 157.66566,102.691338 159.005,101.762 C160.34434,100.832662 161.874991,100.135669 163.597,99.671 C165.319009,99.206331 167.054658,98.8373347 168.804,98.564 C170.553342,98.2906653 172.275325,98.0720008 173.97,97.908 C175.664675,97.7439992 177.167993,97.4980016 178.48,97.17 C179.792007,96.8419984 180.830663,96.3636698 181.596,95.735 C182.361337,95.1063302 182.716667,94.1906727 182.662,92.988 C182.662,91.7306604 182.457002,90.7330037 182.047,89.995 C181.636998,89.2569963 181.090337,88.683002 180.407,88.273 C179.723663,87.8629979 178.931005,87.5896673 178.029,87.453 C177.126995,87.3163326 176.156672,87.248 175.118,87.248 C172.821989,87.248 171.018007,87.7399951 169.706,88.724 C168.393993,89.7080049 167.628668,91.3479885 167.41,93.644 L155.766,93.644 Z M182.662,102.254 C182.169998,102.691336 181.555004,103.032999 180.817,103.279 C180.078996,103.525001 179.286338,103.729999 178.439,103.894 C177.591662,104.058001 176.703338,104.194666 175.774,104.304 C174.844662,104.413334 173.915338,104.549999 172.986,104.714 C172.111329,104.878001 171.250338,105.096665 170.403,105.37 C169.555662,105.643335 168.81767,106.012331 168.189,106.477 C167.56033,106.941669 167.054669,107.52933 166.672,108.24 C166.289331,108.95067 166.098,109.852661 166.098,110.946 C166.098,111.984672 166.289331,112.85933 166.672,113.57 C167.054669,114.28067 167.573997,114.840998 168.23,115.251 C168.886003,115.661002 169.651329,115.947999 170.526,116.112 C171.400671,116.276001 172.302662,116.358 173.232,116.358 C175.528011,116.358 177.30466,115.975337 178.562,115.21 C179.81934,114.444663 180.748664,113.529005 181.35,112.463 C181.951336,111.396995 182.320333,110.317339 182.457,109.224 C182.593667,108.130661 182.662,107.256003 182.662,106.6 L182.662,102.254 Z M233.42,101.68 C233.42,99.9306579 233.256002,98.2496747 232.928,96.637 C232.599998,95.0243253 232.039671,93.6030061 231.247,92.373 C230.454329,91.1429938 229.42934,90.1453372 228.172,89.38 C226.91466,88.6146628 225.329343,88.232 223.416,88.232 C221.502657,88.232 219.890007,88.6146628 218.578,89.38 C217.265993,90.1453372 216.213671,91.1566604 215.421,92.414 C214.628329,93.6713396 214.054335,95.1063253 213.699,96.719 C213.343665,98.3316747 213.166,100.012658 213.166,101.762 C213.166,103.402008 213.357331,105.041992 213.74,106.682 C214.122669,108.322008 214.737662,109.784327 215.585,111.069 C216.432338,112.353673 217.498327,113.392329 218.783,114.185 C220.067673,114.977671 221.611991,115.374 223.416,115.374 C225.329343,115.374 226.928327,114.991337 228.213,114.226 C229.497673,113.460663 230.522663,112.435673 231.288,111.151 C232.053337,109.866327 232.599998,108.404008 232.928,106.764 C233.256002,105.123992 233.42,103.429342 233.42,101.68 Z M233.584,117.588 L233.42,117.588 C232.053326,119.884011 230.263011,121.537662 228.049,122.549 C225.834989,123.560338 223.334014,124.066 220.546,124.066 C217.375317,124.066 214.587345,123.451006 212.182,122.221 C209.776655,120.990994 207.795008,119.323677 206.237,117.219 C204.678992,115.114323 203.503671,112.695347 202.711,109.962 C201.918329,107.228653 201.522,104.386015 201.522,101.434 C201.522,98.5913191 201.918329,95.8443466 202.711,93.193 C203.503671,90.5416534 204.678992,88.2046768 206.237,86.182 C207.795008,84.1593232 209.749322,82.5330061 212.1,81.303 C214.450678,80.0729939 217.183984,79.458 220.3,79.458 C222.814679,79.458 225.206322,79.9909947 227.475,81.057 C229.743678,82.1230053 231.533993,83.6946563 232.846,85.772 L233.01,85.772 L233.01,64.452 L244.654,64.452 L244.654,123 L233.584,123 L233.584,117.588 Z M281.964,97.252 C281.417331,94.2999852 280.447007,92.0586743 279.053,90.528 C277.658993,88.9973257 275.540681,88.232 272.698,88.232 C270.839324,88.232 269.295006,88.5463302 268.065,89.175 C266.834994,89.8036698 265.851004,90.582662 265.113,91.512 C264.374996,92.441338 263.855668,93.4253281 263.555,94.464 C263.254332,95.5026719 263.076667,96.4319959 263.022,97.252 L281.964,97.252 Z M263.022,104.632 C263.186001,108.404019 264.142658,111.137325 265.892,112.832 C267.641342,114.526675 270.155984,115.374 273.436,115.374 C275.786678,115.374 277.809325,114.786339 279.504,113.611 C281.198675,112.435661 282.237331,111.192007 282.62,109.88 L292.87,109.88 C291.229992,114.964025 288.71535,118.599322 285.326,120.786 C281.93665,122.972678 277.836691,124.066 273.026,124.066 C269.691317,124.066 266.68468,123.533005 264.006,122.467 C261.32732,121.400995 259.058676,119.88401 257.2,117.916 C255.341324,115.94799 253.906338,113.597347 252.895,110.864 C251.883662,108.130653 251.378,105.124016 251.378,101.844 C251.378,98.6733175 251.897328,95.721347 252.936,92.988 C253.974672,90.254653 255.450657,87.8903433 257.364,85.895 C259.277343,83.8996567 261.559653,82.3280057 264.211,81.18 C266.862347,80.0319943 269.800651,79.458 273.026,79.458 C276.634018,79.458 279.77732,80.154993 282.456,81.549 C285.13468,82.943007 287.334991,84.8153216 289.057,87.166 C290.779009,89.5166784 292.022663,92.1953183 292.788,95.202 C293.553337,98.2086817 293.826668,101.351984 293.608,104.632 L263.022,104.632 Z M300.496,80.606 L300.496,123 L312.14,123 L312.14,103.894 C312.14,101.980657 312.331331,100.204008 312.714,98.564 C313.096669,96.9239918 313.738995,95.4890061 314.641,94.259 C315.543005,93.0289939 316.731993,92.0586702 318.208,91.348 C319.684007,90.6373298 321.487989,90.282 323.62,90.282 C324.33067,90.282 325.068663,90.3229996 325.834,90.405 C326.599337,90.4870004 327.255331,90.5826661 327.802,90.692 L327.802,79.868 C326.872662,79.5946653 326.025337,79.458 325.26,79.458 C323.783993,79.458 322.362673,79.6766645 320.996,80.114 C319.629326,80.5513355 318.344673,81.1663294 317.142,81.959 C315.939327,82.7516706 314.873338,83.7083277 313.944,84.829 C313.014662,85.9496723 312.276669,87.1659934 311.73,88.478 L311.566,88.478 L311.566,80.606 L300.496,80.606 Z" id="Header" fill="#333333"></path>
                <path d="M10.944,14.984 L10.944,19.784 C11.7760042,19.784 12.6479954,19.8079998 13.56,19.856 C14.4720046,19.9040002 15.3119962,20.0799985 16.08,20.384 C16.8480038,20.6880015 17.4799975,21.1759966 17.976,21.848 C18.4720025,22.5200034 18.72,23.4959936 18.72,24.776 C18.72,26.4080082 18.1920053,27.6959953 17.136,28.64 C16.0799947,29.5840047 14.7840077,30.056 13.248,30.056 C12.255995,30.056 11.4000036,29.8800018 10.68,29.528 C9.9599964,29.1759982 9.3600024,28.704003 8.88,28.112 C8.3999976,27.519997 8.03200128,26.8160041 7.776,26 C7.51999872,25.1839959 7.37600016,24.3280045 7.344,23.432 L0.864,23.432 C0.83199984,25.3840098 1.11199704,27.1119925 1.704,28.616 C2.29600296,30.1200075 3.13599456,31.3919948 4.224,32.432 C5.31200544,33.4720052 6.63199224,34.2639973 8.184,34.808 C9.73600776,35.3520027 11.4559906,35.624 13.344,35.624 C14.9760082,35.624 16.5439925,35.3840024 18.048,34.904 C19.5520075,34.4239976 20.8799942,33.7200046 22.032,32.792 C23.1840058,31.8639954 24.1039966,30.7120069 24.792,29.336 C25.4800034,27.9599931 25.824,26.3920088 25.824,24.632 C25.824,22.7119904 25.2960053,21.0640069 24.24,19.688 C23.1839947,18.3119931 21.7280093,17.4160021 19.872,17 L19.872,16.904 C21.4400078,16.4559978 22.6159961,15.6080062 23.4,14.36 C24.1840039,13.1119938 24.576,11.6720082 24.576,10.04 C24.576,8.53599248 24.2400034,7.20800576 23.568,6.056 C22.8959966,4.90399424 22.0240054,3.928004 20.952,3.128 C19.8799946,2.327996 18.6720067,1.728002 17.328,1.328 C15.9839933,0.927998 14.6400067,0.728 13.296,0.728 C11.5679914,0.728 10.000007,1.0079972 8.592,1.568 C7.18399296,2.1280028 5.97600504,2.91999488 4.968,3.944 C3.95999496,4.96800512 3.1760028,6.19199288 2.616,7.616 C2.0559972,9.04000712 1.74400032,10.6159914 1.68,12.344 L8.16,12.344 C8.12799984,10.6159914 8.5519956,9.18400568 9.432,8.048 C10.3120044,6.91199432 11.6159914,6.344 13.344,6.344 C14.5920062,6.344 15.6959952,6.72799616 16.656,7.496 C17.6160048,8.26400384 18.096,9.3679928 18.096,10.808 C18.096,11.7680048 17.8640023,12.5359971 17.4,13.112 C16.9359977,13.6880029 16.3440036,14.1279985 15.624,14.432 C14.9039964,14.7360015 14.1280042,14.9199997 13.296,14.984 C12.4639958,15.0480003 11.6800037,15.0480003 10.944,14.984 Z M40.416,17.576 C39.5199955,17.576 38.7280034,17.7439983 38.04,18.08 C37.3519966,18.4160017 36.7840022,18.8719971 36.336,19.448 C35.8879978,20.0240029 35.5520011,20.6879962 35.328,21.44 C35.1039989,22.1920038 34.992,22.9839958 34.992,23.816 C34.992,24.5840038 35.1119988,25.3439962 35.352,26.096 C35.5920012,26.8480038 35.9439977,27.519997 36.408,28.112 C36.8720023,28.704003 37.4399966,29.1759982 38.112,29.528 C38.7840034,29.8800018 39.5519957,30.056 40.416,30.056 C41.2480042,30.056 41.9759969,29.8800018 42.6,29.528 C43.2240031,29.1759982 43.7599978,28.7120029 44.208,28.136 C44.6560022,27.5599971 44.9919989,26.9040037 45.216,26.168 C45.4400011,25.4319963 45.552,24.6800038 45.552,23.912 C45.552,23.111996 45.448001,22.3360038 45.24,21.584 C45.031999,20.8319962 44.7200021,20.160003 44.304,19.568 C43.8879979,18.975997 43.3520033,18.4960018 42.696,18.128 C42.0399967,17.7599982 41.2800043,17.576 40.416,17.576 Z M45.312,10.04 C45.0879989,8.9199944 44.576004,7.94400416 43.776,7.112 C42.975996,6.27999584 41.9840059,5.864 40.8,5.864 C39.5839939,5.864 38.5680041,6.2239964 37.752,6.944 C36.9359959,7.6640036 36.2880024,8.5439948 35.808,9.584 C35.3279976,10.6240052 34.9760011,11.7359941 34.752,12.92 C34.5279989,14.1040059 34.4000002,15.1599954 34.368,16.088 L34.464,16.184 C35.3920046,14.8399933 36.4799938,13.8800029 37.728,13.304 C38.9760062,12.7279971 40.4159918,12.44 42.048,12.44 C43.4880072,12.44 44.8959931,12.7519969 46.272,13.376 C47.6480069,14.0000031 48.8159952,14.8399947 49.776,15.896 C50.6720045,16.9200051 51.3279979,18.0879934 51.744,19.4 C52.1600021,20.7120066 52.368,22.0399933 52.368,23.384 C52.368,25.1120086 52.0880028,26.7199926 51.528,28.208 C50.9679972,29.6960074 50.1680052,30.9919945 49.128,32.096 C48.0879948,33.2000055 46.8480072,34.0639969 45.408,34.688 C43.9679928,35.3120031 42.3680088,35.624 40.608,35.624 C38.0799874,35.624 35.9840083,35.120005 34.32,34.112 C32.6559917,33.103995 31.328005,31.7840082 30.336,30.152 C29.343995,28.5199918 28.6560019,26.6720103 28.272,24.608 C27.8879981,22.5439897 27.696,20.4400107 27.696,18.296 C27.696,16.2159896 27.9359976,14.1360104 28.416,12.056 C28.8960024,9.9759896 29.6639947,8.0960084 30.72,6.416 C31.7760053,4.7359916 33.1359917,3.36800528 34.8,2.312 C36.4640083,1.25599472 38.495988,0.728 40.896,0.728 C42.3360072,0.728 43.6799938,0.93599792 44.928,1.352 C46.1760062,1.76800208 47.2799952,2.36799608 48.24,3.152 C49.2000048,3.93600392 49.983997,4.90399424 50.592,6.056 C51.200003,7.20800576 51.599999,8.53599248 51.792,10.04 L45.312,10.04 Z M68.496,30.536 C69.6160056,30.536 70.5519962,30.3120022 71.304,29.864 C72.0560038,29.4159978 72.6639977,28.8320036 73.128,28.112 C73.5920023,27.3919964 73.919999,26.5520048 74.112,25.592 C74.304001,24.6319952 74.4,23.656005 74.4,22.664 C74.4,21.671995 74.296001,20.6960048 74.088,19.736 C73.879999,18.7759952 73.5360024,17.9200038 73.056,17.168 C72.5759976,16.4159962 71.9600038,15.8080023 71.208,15.344 C70.4559962,14.8799977 69.5360054,14.648 68.448,14.648 C67.3279944,14.648 66.3920038,14.8799977 65.64,15.344 C64.8879962,15.8080023 64.2800023,16.4079963 63.816,17.144 C63.3519977,17.8800037 63.024001,18.7279952 62.832,19.688 C62.639999,20.6480048 62.544,21.6399949 62.544,22.664 C62.544,23.656005 62.647999,24.6319952 62.856,25.592 C63.064001,26.5520048 63.3999977,27.3919964 63.864,28.112 C64.3280023,28.8320036 64.9439962,29.4159978 65.712,29.864 C66.4800038,30.3120022 67.4079946,30.536 68.496,30.536 Z M55.968,10.184 L62.448,10.184 L62.448,13.352 L62.544,13.352 C63.3760042,12.0079933 64.4319936,11.032003 65.712,10.424 C66.9920064,9.81599696 68.3999923,9.512 69.936,9.512 C71.8880098,9.512 73.567993,9.87999632 74.976,10.616 C76.384007,11.3520037 77.5519954,12.3279939 78.48,13.544 C79.4080046,14.7600061 80.0959978,16.1759919 80.544,17.792 C80.9920022,19.4080081 81.216,21.0959912 81.216,22.856 C81.216,24.5200083 80.9920022,26.1199923 80.544,27.656 C80.0959978,29.1920077 79.4160046,30.5519941 78.504,31.736 C77.5919954,32.9200059 76.4560068,33.8639965 75.096,34.568 C73.7359932,35.2720035 72.1440091,35.624 70.32,35.624 C68.7839923,35.624 67.3680065,35.3120031 66.072,34.688 C64.7759935,34.0639969 63.7120042,33.1440061 62.88,31.928 L62.784,31.928 L62.784,43.688 L55.968,43.688 L55.968,10.184 Z M93.936,10.184 L93.936,2.744 L87.12,2.744 L87.12,10.184 L82.992,10.184 L82.992,14.744 L87.12,14.744 L87.12,29.384 C87.12,30.6320062 87.3279979,31.6399962 87.744,32.408 C88.1600021,33.1760038 88.7279964,33.7679979 89.448,34.184 C90.1680036,34.6000021 90.9999953,34.8799993 91.944,35.024 C92.8880047,35.1680007 93.8879947,35.24 94.944,35.24 C95.6160034,35.24 96.3039965,35.2240002 97.008,35.192 C97.7120035,35.1599998 98.3519971,35.0960005 98.928,35 L98.928,29.72 C98.6079984,29.7840003 98.2720018,29.8319998 97.92,29.864 C97.5679982,29.8960002 97.2000019,29.912 96.816,29.912 C95.6639942,29.912 94.8960019,29.7200019 94.512,29.336 C94.1279981,28.9519981 93.936,28.1840058 93.936,27.032 L93.936,14.744 L98.928,14.744 L98.928,10.184 L93.936,10.184 Z M102.528,27.608 L102.528,35 L105.984,35 C106.016,35.5120026 105.952001,36.0159975 105.792,36.512 C105.631999,37.0080025 105.392002,37.455998 105.072,37.856 C104.751998,38.256002 104.376002,38.5999986 103.944,38.888 C103.511998,39.1760014 103.056002,39.3679995 102.576,39.464 L102.576,42.92 C103.600005,42.7599992 104.567995,42.4640022 105.48,42.032 C106.392005,41.5999978 107.183997,41.0480034 107.856,40.376 C108.528003,39.7039966 109.063998,38.9120046 109.464,38 C109.864002,37.0879954 110.064,36.0880054 110.064,35 L110.064,27.608 L102.528,27.608 Z M147.072,22.616 C147.072,21.5599947 146.960001,20.5520048 146.736,19.592 C146.511999,18.6319952 146.160002,17.7840037 145.68,17.048 C145.199998,16.3119963 144.600004,15.7280022 143.88,15.296 C143.159996,14.8639978 142.288005,14.648 141.264,14.648 C140.271995,14.648 139.408004,14.8639978 138.672,15.296 C137.935996,15.7280022 137.328002,16.3119963 136.848,17.048 C136.367998,17.7840037 136.016001,18.6319952 135.792,19.592 C135.567999,20.5520048 135.456,21.5599947 135.456,22.616 C135.456,23.6400051 135.567999,24.6319952 135.792,25.592 C136.016001,26.5520048 136.367998,27.3999963 136.848,28.136 C137.328002,28.8720037 137.935996,29.4559978 138.672,29.888 C139.408004,30.3200022 140.271995,30.536 141.264,30.536 C142.288005,30.536 143.159996,30.3200022 143.88,29.888 C144.600004,29.4559978 145.199998,28.8720037 145.68,28.136 C146.160002,27.3999963 146.511999,26.5520048 146.736,25.592 C146.960001,24.6319952 147.072,23.6400051 147.072,22.616 Z M128.88,0.728 L135.696,0.728 L135.696,13.208 L135.792,13.208 C136.624004,11.9279936 137.751993,10.992003 139.176,10.4 C140.600007,9.80799704 142.079992,9.512 143.616,9.512 C144.864006,9.512 146.095994,9.76799744 147.312,10.28 C148.528006,10.7920026 149.623995,11.5759947 150.6,12.632 C151.576005,13.6880053 152.367997,15.0399918 152.976,16.688 C153.584003,18.3360082 153.888,20.2959886 153.888,22.568 C153.888,24.8400114 153.584003,26.7999918 152.976,28.448 C152.367997,30.0960082 151.576005,31.4479947 150.6,32.504 C149.623995,33.5600053 148.528006,34.3439974 147.312,34.856 C146.095994,35.3680026 144.864006,35.624 143.616,35.624 C141.791991,35.624 140.160007,35.3360029 138.72,34.76 C137.279993,34.1839971 136.192004,33.2080069 135.456,31.832 L135.36,31.832 L135.36,35 L128.88,35 L128.88,0.728 Z M164.256,22.616 C164.256,23.608005 164.351999,24.5759953 164.544,25.52 C164.736001,26.4640047 165.063998,27.3119962 165.528,28.064 C165.992002,28.8160038 166.607996,29.4159978 167.376,29.864 C168.144004,30.3120022 169.103994,30.536 170.256,30.536 C171.408006,30.536 172.375996,30.3120022 173.16,29.864 C173.944004,29.4159978 174.567998,28.8160038 175.032,28.064 C175.496002,27.3119962 175.823999,26.4640047 176.016,25.52 C176.208001,24.5759953 176.304,23.608005 176.304,22.616 C176.304,21.623995 176.208001,20.6480048 176.016,19.688 C175.823999,18.7279952 175.496002,17.8800037 175.032,17.144 C174.567998,16.4079963 173.944004,15.8080023 173.16,15.344 C172.375996,14.8799977 171.408006,14.648 170.256,14.648 C169.103994,14.648 168.144004,14.8799977 167.376,15.344 C166.607996,15.8080023 165.992002,16.4079963 165.528,17.144 C165.063998,17.8800037 164.736001,18.7279952 164.544,19.688 C164.351999,20.6480048 164.256,21.623995 164.256,22.616 Z M157.44,22.616 C157.44,20.6319901 157.743997,18.8320081 158.352,17.216 C158.960003,15.5999919 159.823994,14.2240057 160.944,13.088 C162.064006,11.9519943 163.407992,11.0720031 164.976,10.448 C166.544008,9.82399688 168.30399,9.512 170.256,9.512 C172.20801,9.512 173.975992,9.82399688 175.56,10.448 C177.144008,11.0720031 178.495994,11.9519943 179.616,13.088 C180.736006,14.2240057 181.599997,15.5999919 182.208,17.216 C182.816003,18.8320081 183.12,20.6319901 183.12,22.616 C183.12,24.6000099 182.816003,26.391992 182.208,27.992 C181.599997,29.592008 180.736006,30.9599943 179.616,32.096 C178.495994,33.2320057 177.144008,34.103997 175.56,34.712 C173.975992,35.320003 172.20801,35.624 170.256,35.624 C168.30399,35.624 166.544008,35.320003 164.976,34.712 C163.407992,34.103997 162.064006,33.2320057 160.944,32.096 C159.823994,30.9599943 158.960003,29.592008 158.352,27.992 C157.743997,26.391992 157.44,24.6000099 157.44,22.616 Z M187.728,0.728 L187.728,35 L194.544,35 L194.544,0.728 L187.728,0.728 Z M217.536,22.52 C217.536,21.4959949 217.440001,20.5120047 217.248,19.568 C217.055999,18.6239953 216.728002,17.7920036 216.264,17.072 C215.799998,16.3519964 215.200004,15.7680022 214.464,15.32 C213.727996,14.8719978 212.800006,14.648 211.68,14.648 C210.559994,14.648 209.616004,14.8719978 208.848,15.32 C208.079996,15.7680022 207.464002,16.3599963 207,17.096 C206.535998,17.8320037 206.200001,18.6719953 205.992,19.616 C205.783999,20.5600047 205.68,21.5439949 205.68,22.568 C205.68,23.5280048 205.791999,24.4879952 206.016,25.448 C206.240001,26.4080048 206.599998,27.2639962 207.096,28.016 C207.592002,28.7680038 208.215996,29.3759977 208.968,29.84 C209.720004,30.3040023 210.623995,30.536 211.68,30.536 C212.800006,30.536 213.735996,30.3120022 214.488,29.864 C215.240004,29.4159978 215.839998,28.8160038 216.288,28.064 C216.736002,27.3119962 217.055999,26.4560048 217.248,25.496 C217.440001,24.5359952 217.536,23.5440051 217.536,22.52 Z M217.632,31.832 L217.536,31.832 C216.735996,33.1760067 215.688006,34.143997 214.392,34.736 C213.095994,35.328003 211.632008,35.624 210,35.624 C208.143991,35.624 206.512007,35.2640036 205.104,34.544 C203.695993,33.8239964 202.536005,32.8480062 201.624,31.616 C200.711995,30.3839938 200.024002,28.968008 199.56,27.368 C199.095998,25.767992 198.864,24.1040086 198.864,22.376 C198.864,20.7119917 199.095998,19.1040078 199.56,17.552 C200.024002,15.9999922 200.711995,14.6320059 201.624,13.448 C202.536005,12.2639941 203.679993,11.3120036 205.056,10.592 C206.432007,9.8719964 208.031991,9.512 209.856,9.512 C211.328007,9.512 212.727993,9.82399688 214.056,10.448 C215.384007,11.0720031 216.431996,11.9919939 217.2,13.208 L217.296,13.208 L217.296,0.728 L224.112,0.728 L224.112,35 L217.632,35 L217.632,31.832 Z" id="36pt,-bold" fill="#28A197"></path>
                <path d="M40.6784237,66 L8.49507923,66" id="Line" stroke="#28A197" stroke-width="4" stroke-linecap="square"></path>
                <path d="M43.7107309,93.8672644 L4.62953699,93.8672644" id="Line" stroke="#28A197" stroke-width="4" stroke-linecap="square" transform="translate(24.500000, 93.867264) rotate(90.000000) translate(-24.500000, -93.867264) "></path>
                <path id="Line-decoration-1" d="M32.9107309,90.8672644 L43.7107309,93.8672644 L32.9107309,96.8672644" stroke="#28A197" stroke-width="4" stroke-linecap="square"></path>
                <path id="Line-decoration-2" d="M15.429537,90.8672644 L4.62953699,93.8672644 L15.429537,96.8672644" stroke="#28A197" stroke-width="4" stroke-linecap="square"></path>
                <path d="M40.6784237,121 L8.49507923,121" id="Line" stroke="#28A197" stroke-width="4" stroke-linecap="square"></path>
            </g>
        </g>
    </g>
</svg>