<?xml version="1.0" encoding="UTF-8" standalone="no"?>
<svg width="229px" height="37px" viewBox="0 0 229 37" version="1.1" xmlns="http://www.w3.org/2000/svg" xmlns:xlink="http://www.w3.org/1999/xlink">
    <!-- Generator: Sketch 42 (36781) - http://www.bohemiancoding.com/sketch -->
    <title>screenreaders/uninformativeLink</title>
    <desc>Created with Sketch.</desc>
    <defs></defs>
    <g id="Site-assets" stroke="none" stroke-width="1" fill="none" fill-rule="evenodd">
        <g id="Visually-impaired---screenreader" transform="translate(-1247.000000, -2033.000000)" fill="#0059A5">
            <g id="screenreaders/uninformativeLink" transform="translate(1247.000000, 2033.000000)">
                <path d="M25.16,13.248 L32.456,13.248 C32.2319989,11.2639901 31.6880043,9.50400768 30.824,7.968 C29.9599957,6.43199232 28.8640066,5.1440052 27.536,4.104 C26.2079934,3.0639948 24.7040084,2.27200272 23.024,1.728 C21.3439916,1.18399728 19.5600094,0.912 17.672,0.912 C15.0479869,0.912 12.6880105,1.37599536 10.592,2.304 C8.49598952,3.23200464 6.7280072,4.51199184 5.288,6.144 C3.8479928,7.77600816 2.74400384,9.68798904 1.976,11.88 C1.20799616,14.072011 0.824,16.4479872 0.824,19.008 C0.824,21.5040125 1.20799616,23.8319892 1.976,25.992 C2.74400384,28.1520108 3.8479928,30.031992 5.288,31.632 C6.7280072,33.232008 8.49598952,34.4879954 10.592,35.4 C12.6880105,36.3120046 15.0479869,36.768 17.672,36.768 C19.7840106,36.768 21.7199912,36.4480032 23.48,35.808 C25.2400088,35.1679968 26.7759934,34.2400061 28.088,33.024 C29.4000066,31.8079939 30.455996,30.3360086 31.256,28.608 C32.056004,26.8799914 32.551999,24.9440107 32.744,22.8 L25.448,22.8 C25.1599986,25.1040115 24.3680065,26.959993 23.072,28.368 C21.7759935,29.776007 19.9760115,30.48 17.672,30.48 C15.9759915,30.48 14.5360059,30.1520033 13.352,29.496 C12.1679941,28.8399967 11.2080037,27.9680054 10.472,26.88 C9.73599632,25.7919946 9.20000168,24.5680068 8.864,23.208 C8.52799832,21.8479932 8.36,20.4480072 8.36,19.008 C8.36,17.5039925 8.52799832,16.048007 8.864,14.64 C9.20000168,13.231993 9.73599632,11.9760055 10.472,10.872 C11.2080037,9.76799448 12.1679941,8.88800328 13.352,8.232 C14.5360059,7.57599672 15.9759915,7.248 17.672,7.248 C18.6000046,7.248 19.4879958,7.39999848 20.336,7.704 C21.1840042,8.00800152 21.9439966,8.43199728 22.616,8.976 C23.2880034,9.52000272 23.8479978,10.1519964 24.296,10.872 C24.7440022,11.5920036 25.0319994,12.3839957 25.16,13.248 Z M37.352,1.728 L37.352,36 L44.168,36 L44.168,1.728 L37.352,1.728 Z M56.552,7.344 L56.552,1.728 L49.736,1.728 L49.736,7.344 L56.552,7.344 Z M49.736,11.184 L49.736,36 L56.552,36 L56.552,11.184 L49.736,11.184 Z M78.824,19.92 L85.496,19.92 C85.3999995,18.319992 85.0160034,16.9360058 84.344,15.768 C83.6719966,14.5999942 82.8000054,13.6240039 81.728,12.84 C80.6559946,12.0559961 79.4400068,11.4720019 78.08,11.088 C76.7199932,10.7039981 75.3040074,10.512 73.832,10.512 C71.8159899,10.512 70.0240078,10.8479966 68.456,11.52 C66.8879922,12.1920034 65.5600054,13.127994 64.472,14.328 C63.3839946,15.528006 62.5600028,16.9519918 62,18.6 C61.4399972,20.2480082 61.16,22.0319904 61.16,23.952 C61.16,25.8080093 61.463997,27.5119922 62.072,29.064 C62.680003,30.6160078 63.5279946,31.9519944 64.616,33.072 C65.7040054,34.1920056 67.0239922,35.0639969 68.576,35.688 C70.1280078,36.3120031 71.8319907,36.624 73.688,36.624 C76.9840165,36.624 79.6879894,35.7600086 81.8,34.032 C83.9120106,32.3039914 85.1919978,29.7920165 85.64,26.496 L79.064,26.496 C78.8399989,28.0320077 78.2880044,29.2559954 77.408,30.168 C76.5279956,31.0800046 75.2720082,31.536 73.64,31.536 C72.5839947,31.536 71.6880037,31.2960024 70.952,30.816 C70.2159963,30.3359976 69.6320022,29.7200038 69.2,28.968 C68.7679978,28.2159962 68.456001,27.3760046 68.264,26.448 C68.071999,25.5199954 67.976,24.6080045 67.976,23.712 C67.976,22.7839954 68.071999,21.8480047 68.264,20.904 C68.456001,19.9599953 68.7839977,19.0960039 69.248,18.312 C69.7120023,17.5279961 70.3119963,16.8880025 71.048,16.392 C71.7840037,15.8959975 72.6959946,15.648 73.784,15.648 C76.6960146,15.648 78.3759978,17.0719858 78.824,19.92 Z M90.104,1.728 L90.104,36 L96.92,36 L96.92,27.456 L99.56,24.912 L106.376,36 L114.632,36 L104.216,20.304 L113.576,11.184 L105.512,11.184 L96.92,20.112 L96.92,1.728 L90.104,1.728 Z M130.376,1.728 L130.376,36 L137.192,36 L137.192,22.992 C137.192,20.4639874 137.607996,18.6480055 138.44,17.544 C139.272004,16.4399945 140.615991,15.888 142.472,15.888 C144.104008,15.888 145.239997,16.391995 145.88,17.4 C146.520003,18.408005 146.84,19.9359898 146.84,21.984 L146.84,36 L153.656,36 L153.656,20.736 C153.656,19.1999923 153.520001,17.8000063 153.248,16.536 C152.975999,15.2719937 152.504003,14.2000044 151.832,13.32 C151.159997,12.4399956 150.240006,11.7520025 149.072,11.256 C147.903994,10.7599975 146.408009,10.512 144.584,10.512 C143.303994,10.512 141.992007,10.8399967 140.648,11.496 C139.303993,12.1520033 138.200004,13.1999928 137.336,14.64 L137.192,14.64 L137.192,1.728 L130.376,1.728 Z M175.544,20.928 C175.223998,19.1999914 174.656004,17.8880045 173.84,16.992 C173.023996,16.0959955 171.784008,15.648 170.12,15.648 C169.031995,15.648 168.128004,15.8319982 167.408,16.2 C166.687996,16.5680018 166.112002,17.0239973 165.68,17.568 C165.247998,18.1120027 164.944001,18.687997 164.768,19.296 C164.591999,19.904003 164.488,20.4479976 164.456,20.928 L175.544,20.928 Z M164.456,25.248 C164.552,27.456011 165.111995,29.055995 166.136,30.048 C167.160005,31.040005 168.63199,31.536 170.552,31.536 C171.928007,31.536 173.111995,31.1920034 174.104,30.504 C175.096005,29.8159966 175.703999,29.0880038 175.928,28.32 L181.928,28.32 C180.967995,31.2960149 179.49601,33.4239936 177.512,34.704 C175.52799,35.9840064 173.128014,36.624 170.312,36.624 C168.35999,36.624 166.600008,36.3120031 165.032,35.688 C163.463992,35.0639969 162.136005,34.1760058 161.048,33.024 C159.959995,31.8719942 159.120003,30.496008 158.528,28.896 C157.935997,27.295992 157.64,25.5360096 157.64,23.616 C157.64,21.7599907 157.943997,20.032008 158.552,18.432 C159.160003,16.831992 160.023994,15.4480058 161.144,14.28 C162.264006,13.1119942 163.599992,12.1920034 165.152,11.52 C166.704008,10.8479966 168.423991,10.512 170.312,10.512 C172.424011,10.512 174.263992,10.9199959 175.832,11.736 C177.400008,12.5520041 178.687995,13.6479931 179.696,15.024 C180.704005,16.4000069 181.431998,17.9679912 181.88,19.728 C182.328002,21.4880088 182.488001,23.3279904 182.36,25.248 L164.456,25.248 Z M186.392,11.184 L186.392,36 L193.208,36 L193.208,24.816 C193.208,23.6959944 193.319999,22.6560048 193.544,21.696 C193.768001,20.7359952 194.143997,19.8960036 194.672,19.176 C195.200003,18.4559964 195.895996,17.8880021 196.76,17.472 C197.624004,17.0559979 198.679994,16.848 199.928,16.848 C200.344002,16.848 200.775998,16.8719998 201.224,16.92 C201.672002,16.9680002 202.055998,17.0239997 202.376,17.088 L202.376,10.752 C201.831997,10.5919992 201.336002,10.512 200.888,10.512 C200.023996,10.512 199.192004,10.6399987 198.392,10.896 C197.591996,11.1520013 196.840004,11.5119977 196.136,11.976 C195.431996,12.4400023 194.808003,12.9999967 194.264,13.656 C193.719997,14.3120033 193.288002,15.0239962 192.968,15.792 L192.872,15.792 L192.872,11.184 L186.392,11.184 Z M221.768,20.928 C221.447998,19.1999914 220.880004,17.8880045 220.064,16.992 C219.247996,16.0959955 218.008008,15.648 216.344,15.648 C215.255995,15.648 214.352004,15.8319982 213.632,16.2 C212.911996,16.5680018 212.336002,17.0239973 211.904,17.568 C211.471998,18.1120027 211.168001,18.687997 210.992,19.296 C210.815999,19.904003 210.712,20.4479976 210.68,20.928 L221.768,20.928 Z M210.68,25.248 C210.776,27.456011 211.335995,29.055995 212.36,30.048 C213.384005,31.040005 214.85599,31.536 216.776,31.536 C218.152007,31.536 219.335995,31.1920034 220.328,30.504 C221.320005,29.8159966 221.927999,29.0880038 222.152,28.32 L228.152,28.32 C227.191995,31.2960149 225.72001,33.4239936 223.736,34.704 C221.75199,35.9840064 219.352014,36.624 216.536,36.624 C214.58399,36.624 212.824008,36.3120031 211.256,35.688 C209.687992,35.0639969 208.360005,34.1760058 207.272,33.024 C206.183995,31.8719942 205.344003,30.496008 204.752,28.896 C204.159997,27.295992 203.864,25.5360096 203.864,23.616 C203.864,21.7599907 204.167997,20.032008 204.776,18.432 C205.384003,16.831992 206.247994,15.4480058 207.368,14.28 C208.488006,13.1119942 209.823992,12.1920034 211.376,11.52 C212.928008,10.8479966 214.647991,10.512 216.536,10.512 C218.648011,10.512 220.487992,10.9199959 222.056,11.736 C223.624008,12.5520041 224.911995,13.6479931 225.92,15.024 C226.928005,16.4000069 227.655998,17.9679912 228.104,19.728 C228.552002,21.4880088 228.712001,23.3279904 228.584,25.248 L210.68,25.248 Z" id="Click-here"></path>
            </g>
        </g>
    </g>
</svg>