<svg xmlns="http://www.w3.org/2000/svg" width="417" height="417" viewBox="0 0 417 417">
  <g fill="none" fill-rule="evenodd">
    <rect width="417" height="417" fill="#85994B" opacity=".25"/>
    <rect width="267" height="151" x="74" y="95" fill="#85994B"/>
    <path fill="#0B0C0C" d="M333,230.642857 L333,106.214286 C333,104.918148 332.526418,103.796508 331.579241,102.84933 C330.632064,101.902153 329.510423,101.428571 328.214286,101.428571 L88.9285714,101.428571 C87.632434,101.428571 86.5107934,101.902153 85.5636161,102.84933 C84.6164387,103.796508 84.1428571,104.918148 84.1428571,106.214286 L84.1428571,230.642857 C84.1428571,231.938995 84.6164387,233.060635 85.5636161,234.007812 C86.5107934,234.95499 87.632434,235.428571 88.9285714,235.428571 L328.214286,235.428571 C329.510423,235.428571 330.632064,234.95499 331.579241,234.007812 C332.526418,233.060635 333,231.938995 333,230.642857 Z M352.142857,106.214286 L352.142857,268.928571 C352.142857,275.508961 349.799875,281.14209 345.113839,285.828125 C340.427804,290.51416 334.794676,292.857143 328.214286,292.857143 L246.857143,292.857143 C246.857143,296.546149 247.654754,300.409578 249.25,304.447545 C250.845246,308.485511 252.440468,312.02491 254.035714,315.065848 C255.63096,318.106786 256.428571,320.275291 256.428571,321.571429 C256.428571,324.163703 255.481408,326.406985 253.587054,328.301339 C251.692699,330.195694 249.449418,331.142857 246.857143,331.142857 L170.285714,331.142857 C167.693439,331.142857 165.450158,330.195694 163.555804,328.301339 C161.661449,326.406985 160.714286,324.163703 160.714286,321.571429 C160.714286,320.175588 161.511897,317.982158 163.107143,314.991071 C164.702389,311.999985 166.297611,308.510437 167.892857,304.522321 C169.488103,300.534206 170.285714,296.645852 170.285714,292.857143 L88.9285714,292.857143 C82.3481814,292.857143 76.7150532,290.51416 72.0290179,285.828125 C67.3429825,281.14209 65,275.508961 65,268.928571 L65,106.214286 C65,99.6338957 67.3429825,94.0007675 72.0290179,89.3147321 C76.7150532,84.6286968 82.3481814,82.2857143 88.9285714,82.2857143 L328.214286,82.2857143 C334.794676,82.2857143 340.427804,84.6286968 345.113839,89.3147321 C349.799875,94.0007675 352.142857,99.6338957 352.142857,106.214286 Z"/>
    <path fill="#FFF" d="M207.571429,141.535714 L207.571429,196.178571 C207.571429,197.049111 207.253351,197.802452 206.617188,198.438616 C205.981024,199.07478 205.227683,199.392857 204.357143,199.392857 C203.486603,199.392857 202.733262,199.07478 202.097098,198.438616 L185.372768,181.714286 L172.214286,181.714286 C171.343746,181.714286 170.590405,181.396209 169.954241,180.760045 C169.318077,180.123881 169,179.37054 169,178.5 L169,159.214286 C169,158.343746 169.318077,157.590405 169.954241,156.954241 C170.590405,156.318077 171.343746,156 172.214286,156 L185.372768,156 L202.097098,139.27567 C202.733262,138.639506 203.486603,138.321429 204.357143,138.321429 C205.227683,138.321429 205.981024,138.639506 206.617188,139.27567 C207.253351,139.911834 207.571429,140.665174 207.571429,141.535714 Z M226.857143,168.857143 C226.857143,171.401798 226.145654,173.770636 224.722656,175.963728 C223.299658,178.156819 221.416306,179.722094 219.072545,180.659598 C218.737722,180.82701 218.319199,180.910714 217.816964,180.910714 C216.946424,180.910714 216.193084,180.601008 215.55692,179.981585 C214.920756,179.362162 214.602679,178.600451 214.602679,177.696429 C214.602679,176.9933 214.803569,176.398998 215.205357,175.913504 C215.607145,175.428011 216.092631,175.009488 216.66183,174.657924 C217.23103,174.30636 217.80022,173.921319 218.36942,173.50279 C218.938619,173.084261 219.424105,172.481589 219.825893,171.694754 C220.227681,170.90792 220.428571,169.962059 220.428571,168.857143 C220.428571,167.752227 220.227681,166.806366 219.825893,166.019531 C219.424105,165.232697 218.938619,164.630024 218.36942,164.211496 C217.80022,163.792967 217.23103,163.407926 216.66183,163.056362 C216.092631,162.704797 215.607145,162.286275 215.205357,161.800781 C214.803569,161.315288 214.602679,160.720986 214.602679,160.017857 C214.602679,159.113835 214.920756,158.352124 215.55692,157.732701 C216.193084,157.113278 216.946424,156.803571 217.816964,156.803571 C218.319199,156.803571 218.737722,156.887276 219.072545,157.054688 C221.416306,157.95871 223.299658,159.515614 224.722656,161.725446 C226.145654,163.935279 226.857143,166.312487 226.857143,168.857143 Z M239.714286,168.857143 C239.714286,173.979936 238.291309,178.709242 235.445312,183.045201 C232.599316,187.38116 228.832613,190.53682 224.145089,192.512277 C223.709819,192.679688 223.291297,192.763393 222.889509,192.763393 C221.985487,192.763393 221.215405,192.445316 220.579241,191.809152 C219.943077,191.172988 219.625,190.419647 219.625,189.549107 C219.625,188.243297 220.277895,187.255584 221.583705,186.585938 C223.458715,185.614951 224.731023,184.878351 225.40067,184.376116 C227.878361,182.568071 229.811935,180.299679 231.201451,177.570871 C232.590967,174.842062 233.285714,171.937515 233.285714,168.857143 C233.285714,165.77677 232.590967,162.872223 231.201451,160.143415 C229.811935,157.414607 227.878361,155.146214 225.40067,153.33817 C224.731023,152.835935 223.458715,152.099335 221.583705,151.128348 C220.277895,150.458702 219.625,149.470989 219.625,148.165179 C219.625,147.294639 219.943077,146.541298 220.579241,145.905134 C221.215405,145.26897 221.968746,144.950893 222.839286,144.950893 C223.274556,144.950893 223.709819,145.034597 224.145089,145.202009 C228.832613,147.177465 232.599316,150.333126 235.445312,154.669085 C238.291309,159.005044 239.714286,163.734349 239.714286,168.857143 Z M252.571429,168.857143 C252.571429,176.558074 250.445334,183.631106 246.19308,190.076451 C241.940827,196.521796 236.282401,201.267842 229.217634,204.314732 C228.782364,204.482144 228.3471,204.565848 227.91183,204.565848 C227.04129,204.565848 226.28795,204.247771 225.651786,203.611607 C225.015622,202.975443 224.697545,202.222103 224.697545,201.351562 C224.697545,200.146199 225.35044,199.158486 226.65625,198.388393 C226.890626,198.254464 227.267297,198.078684 227.786272,197.861049 C228.305248,197.643414 228.681918,197.467635 228.916295,197.333705 C230.456481,196.496648 231.829235,195.642861 233.034598,194.772321 C237.152922,191.725431 240.367176,187.925246 242.677455,183.371652 C244.987735,178.818058 246.142857,173.979936 246.142857,168.857143 C246.142857,163.734349 244.987735,158.896228 242.677455,154.342634 C240.367176,149.78904 237.152922,145.988855 233.034598,142.941964 C231.829235,142.071424 230.456481,141.217638 228.916295,140.38058 C228.681918,140.246651 228.305248,140.070872 227.786272,139.853237 C227.267297,139.635602 226.890626,139.459822 226.65625,139.325893 C225.35044,138.5558 224.697545,137.568086 224.697545,136.362723 C224.697545,135.492183 225.015622,134.738842 225.651786,134.102679 C226.28795,133.466515 227.04129,133.148438 227.91183,133.148438 C228.3471,133.148438 228.782364,133.232142 229.217634,133.399554 C236.282401,136.446444 241.940827,141.19249 246.19308,147.637835 C250.445334,154.08318 252.571429,161.156211 252.571429,168.857143 Z"/>
  </g>
</svg>
