<svg xmlns="http://www.w3.org/2000/svg" width="417" height="417" viewBox="0 0 417 417">
  <g fill="none" fill-rule="evenodd">
    <rect width="417" height="417" fill="#B58840" opacity=".25"/>
    <ellipse cx="147.877" cy="170.443" fill="#DF3034" fill-opacity=".36" rx="69.877" ry="69.238"/>
    <ellipse cx="212" cy="137.238" fill="#F47738" fill-opacity=".36" rx="69.877" ry="69.238"/>
    <ellipse cx="276.123" cy="170.443" fill="#FFBF47" fill-opacity=".36" rx="69.877" ry="69.238"/>
    <path fill="#85994B" fill-opacity=".36" d="M276.122699,312.992282 C314.714867,312.992282 346,281.993349 346,243.754227 C346,205.515105 314.714867,174.516172 276.122699,174.516172 C237.530532,174.516172 206.245399,205.515105 206.245399,243.754227 C206.245399,281.993349 237.530532,312.992282 276.122699,312.992282 Z"/>
    <path fill="#2E8ACA" fill-opacity=".36" d="M212,345 C250.592167,345 281.877301,314.001067 281.877301,275.761945 C281.877301,237.522823 250.592167,206.52389 212,206.52389 C173.407833,206.52389 142.122699,237.522823 142.122699,275.761945 C142.122699,314.001067 173.407833,345 212,345 Z"/>
    <path fill="#6F71AF" fill-opacity=".36" d="M147.877301,312.992282 C186.469468,312.992282 217.754601,281.993349 217.754601,243.754227 C217.754601,205.515105 186.469468,174.516172 147.877301,174.516172 C109.285133,174.516172 78,205.515105 78,243.754227 C78,281.993349 109.285133,312.992282 147.877301,312.992282 Z"/>
  </g>
</svg>
