<svg xmlns="http://www.w3.org/2000/svg" width="417" height="417" viewBox="0 0 417 417">
  <g fill="none" fill-rule="evenodd">
    <rect width="417" height="417" fill="#28A197" opacity=".25"/>
    <path fill="#FFBF47" d="M116.082589,290.866071 C115.859374,290.866071 115.524556,290.754465 115.078125,290.53125 C105.479863,284.169611 96.077055,276.078174 86.8694196,266.256696 C77.6617843,256.435219 69.877264,246.390676 63.515625,236.122768 C61.1718633,232.774537 60,228.924129 60,224.571429 C60,223.566959 60.111606,222.506702 60.3348214,221.390625 C60.5580368,220.274548 60.7812489,219.270094 61.0044643,218.377232 C61.2276797,217.484371 61.6183008,216.479916 62.1763393,215.363839 C62.7343778,214.247762 63.2087034,213.354914 63.5993304,212.685268 C63.9899573,212.015622 64.575889,211.06697 65.3571429,209.839286 C66.1383968,208.611601 66.6964269,207.774556 67.03125,207.328125 C67.3660731,206.881694 68.0357093,206.016747 69.0401786,204.733259 C70.0446479,203.44977 70.658481,202.640627 70.8816964,202.305804 C91.4175134,174.292271 116.640475,153.924171 146.551339,141.200893 C134.274492,119.102568 128.136161,107.328132 128.136161,105.877232 C128.136161,103.756686 129.084812,102.138398 130.982143,101.022321 C143.928636,93.8794286 151.071422,90.3080357 152.410714,90.3080357 C154.419653,90.3080357 155.982137,91.2008839 157.098214,92.9866071 L177.857143,131.323661 C188.125051,129.203114 198.83923,128.142857 210,128.142857 C239.687648,128.142857 267.449648,135.815771 293.28683,151.16183 C319.124013,166.507889 340.245454,187.127103 356.651786,213.020089 C358.88394,216.479928 360,220.330336 360,224.571429 C360,228.812521 358.88394,232.662929 356.651786,236.122768 C346.495485,251.971061 334.302527,266.117125 320.072545,278.561384 C305.842563,291.005643 290.301424,300.799071 273.448661,307.941964 C285.725508,330.040289 291.863839,341.814725 291.863839,343.265625 C291.863839,345.497779 290.915188,347.116066 289.017857,348.120536 C276.071364,355.263429 268.984381,358.834821 267.756696,358.834821 C265.63615,358.834821 264.017863,357.941973 262.901786,356.15625 L242.142857,317.819196 L231.428571,297.897321 L157.098214,160.620536 L158.270089,159.448661 C151.796843,162.127246 146.272344,164.749987 141.696429,167.316964 C142.031252,167.875003 149.118234,180.932908 162.957589,206.491071 C176.796944,232.049235 190.357076,257.104788 203.638393,281.658482 C216.919709,306.212176 223.560268,318.656248 223.560268,318.991071 C223.560268,319.772325 223.058041,320.274552 222.053571,320.497768 C220.602671,320.832591 216.584854,321 210,321 C203.638361,321 200.29018,320.609379 199.955357,319.828125 L123.616071,179.035714 C119.263371,182.16073 114.687524,185.955335 109.888393,190.419643 C112.566978,195.218774 124.508823,217.17726 145.714286,256.295759 C166.919749,295.414258 177.522321,315.196426 177.522321,315.642857 C177.522321,316.758934 176.908488,317.316964 175.680804,317.316964 C174.118296,317.316964 169.514547,316.089298 161.86942,313.633929 C154.224292,311.178559 150.178574,309.616075 149.732143,308.946429 L131.986607,275.966518 L94.4866071,206.825893 C89.5758683,212.741101 85.2232333,218.65622 81.4285714,224.571429 C81.6517868,224.906252 82.6562411,226.301327 84.4419643,228.756696 C86.2276875,231.212066 87.5111568,233.109368 88.2924107,234.448661 L117.756696,289.191964 C117.756696,290.308041 117.198666,290.866071 116.082589,290.866071 Z M255.033482,273.790179 L263.236607,289.024554 C293.705509,276.636099 318.816866,255.151939 338.571429,224.571429 C318.482042,193.656095 292.868459,171.948723 261.729911,159.448661 C269.207627,166.591554 274.955337,174.878301 278.973214,184.309152 C282.991092,193.740003 285,203.589234 285,213.857143 C285,225.687559 282.377258,236.876063 277.131696,247.422991 C271.886134,257.969919 264.520137,266.758893 255.033482,273.790179 Z M201.964286,171 C201.964286,173.232154 202.745528,175.129456 204.308036,176.691964 C205.870544,178.254472 207.767846,179.035714 210,179.035714 C219.598262,179.035714 227.801305,182.439698 234.609375,189.247768 C241.417445,196.055838 244.821429,204.258881 244.821429,213.857143 C244.821429,216.089297 245.602671,217.986599 247.165179,219.549107 C248.727686,221.111615 250.624989,221.892857 252.857143,221.892857 C255.089297,221.892857 256.986599,221.111615 258.549107,219.549107 C260.111615,217.986599 260.892857,216.089297 260.892857,213.857143 C260.892857,199.794573 255.926389,187.796925 245.993304,177.863839 C236.060218,167.930754 224.06257,162.964286 210,162.964286 C207.767846,162.964286 205.870544,163.745528 204.308036,165.308036 C202.745528,166.870544 201.964286,168.767846 201.964286,171 Z M263.236607,160.118304 L261.729911,159.448661 L262.901786,160.620536 L263.236607,160.118304 Z"/>
    <path fill="#F47738" d="M123.082589,273.866071 C122.859374,273.866071 122.524556,273.754465 122.078125,273.53125 C112.479863,267.169611 103.077055,259.078174 93.8694196,249.256696 C84.6617843,239.435219 76.877264,229.390676 70.515625,219.122768 C68.1718633,215.774537 67,211.924129 67,207.571429 C67,206.566959 67.111606,205.506702 67.3348214,204.390625 C67.5580368,203.274548 67.7812489,202.270094 68.0044643,201.377232 C68.2276797,200.484371 68.6183008,199.479916 69.1763393,198.363839 C69.7343778,197.247762 70.2087034,196.354914 70.5993304,195.685268 C70.9899573,195.015622 71.575889,194.06697 72.3571429,192.839286 C73.1383968,191.611601 73.6964269,190.774556 74.03125,190.328125 C74.3660731,189.881694 75.0357093,189.016747 76.0401786,187.733259 C77.0446479,186.44977 77.658481,185.640627 77.8816964,185.305804 C98.4175134,157.292271 123.640475,136.924171 153.551339,124.200893 C141.274492,102.102568 135.136161,90.3281323 135.136161,88.8772321 C135.136161,86.7566858 136.084812,85.1383984 137.982143,84.0223214 C150.928636,76.8794286 158.071422,73.3080357 159.410714,73.3080357 C161.419653,73.3080357 162.982137,74.2008839 164.098214,75.9866071 L184.857143,114.323661 C195.125051,112.203114 205.83923,111.142857 217,111.142857 C246.687648,111.142857 274.449648,118.815771 300.28683,134.16183 C326.124013,149.507889 347.245454,170.127103 363.651786,196.020089 C365.88394,199.479928 367,203.330336 367,207.571429 C367,211.812521 365.88394,215.662929 363.651786,219.122768 C353.495485,234.971061 341.302527,249.117125 327.072545,261.561384 C312.842563,274.005643 297.301424,283.799071 280.448661,290.941964 C292.725508,313.040289 298.863839,324.814725 298.863839,326.265625 C298.863839,328.497779 297.915188,330.116066 296.017857,331.120536 C283.071364,338.263429 275.984381,341.834821 274.756696,341.834821 C272.63615,341.834821 271.017863,340.941973 269.901786,339.15625 L249.142857,300.819196 L238.428571,280.897321 L164.098214,143.620536 L165.270089,142.448661 C158.796843,145.127246 153.272344,147.749987 148.696429,150.316964 C149.031252,150.875003 156.118234,163.932908 169.957589,189.491071 C183.796944,215.049235 197.357076,240.104788 210.638393,264.658482 C223.919709,289.212176 230.560268,301.656248 230.560268,301.991071 C230.560268,302.772325 230.058041,303.274552 229.053571,303.497768 C227.602671,303.832591 223.584854,304 217,304 C210.638361,304 207.29018,303.609379 206.955357,302.828125 L130.616071,162.035714 C126.263371,165.16073 121.687524,168.955335 116.888393,173.419643 C119.566978,178.218774 131.508823,200.17726 152.714286,239.295759 C173.919749,278.414258 184.522321,298.196426 184.522321,298.642857 C184.522321,299.758934 183.908488,300.316964 182.680804,300.316964 C181.118296,300.316964 176.514547,299.089298 168.86942,296.633929 C161.224292,294.178559 157.178574,292.616075 156.732143,291.946429 L138.986607,258.966518 L101.486607,189.825893 C96.5758683,195.741101 92.2232333,201.65622 88.4285714,207.571429 C88.6517868,207.906252 89.6562411,209.301327 91.4419643,211.756696 C93.2276875,214.212066 94.5111568,216.109368 95.2924107,217.448661 L124.756696,272.191964 C124.756696,273.308041 124.198666,273.866071 123.082589,273.866071 Z M262.033482,256.790179 L270.236607,272.024554 C300.705509,259.636099 325.816866,238.151939 345.571429,207.571429 C325.482042,176.656095 299.868459,154.948723 268.729911,142.448661 C276.207627,149.591554 281.955337,157.878301 285.973214,167.309152 C289.991092,176.740003 292,186.589234 292,196.857143 C292,208.687559 289.377258,219.876063 284.131696,230.422991 C278.886134,240.969919 271.520137,249.758893 262.033482,256.790179 Z M208.964286,154 C208.964286,156.232154 209.745528,158.129456 211.308036,159.691964 C212.870544,161.254472 214.767846,162.035714 217,162.035714 C226.598262,162.035714 234.801305,165.439698 241.609375,172.247768 C248.417445,179.055838 251.821429,187.258881 251.821429,196.857143 C251.821429,199.089297 252.602671,200.986599 254.165179,202.549107 C255.727686,204.111615 257.624989,204.892857 259.857143,204.892857 C262.089297,204.892857 263.986599,204.111615 265.549107,202.549107 C267.111615,200.986599 267.892857,199.089297 267.892857,196.857143 C267.892857,182.794573 262.926389,170.796925 252.993304,160.863839 C243.060218,150.930754 231.06257,145.964286 217,145.964286 C214.767846,145.964286 212.870544,146.745528 211.308036,148.308036 C209.745528,149.870544 208.964286,151.767846 208.964286,154 Z M270.236607,143.118304 L268.729911,142.448661 L269.901786,143.620536 L270.236607,143.118304 Z"/>
  </g>
</svg>
