<svg xmlns="http://www.w3.org/2000/svg" xmlns:xlink="http://www.w3.org/1999/xlink" width="291" height="127" viewBox="0 0 291 127">
  <defs>
    <rect id="buttonincontext-a" width="291" height="58"/>
  </defs>
  <g fill="none" fill-rule="evenodd">
    <use fill="#FFF" xlink:href="#buttonincontext-a"/>
    <rect width="286" height="53" x="2.5" y="2.5" stroke="#979797" stroke-width="5"/>
    <rect width="118" height="48" x="3" y="79" fill="#00823B"/>
    <path fill="#FFF" d="M21.8828125,108.277344 C22.1015636,108.527345 22.3671859,108.773436 22.6796875,109.015625 C22.9921891,109.257814 23.3378887,109.474608 23.7167969,109.666016 C24.095705,109.857423 24.5078103,110.009765 24.953125,110.123047 C25.3984397,110.236329 25.8789037,110.292969 26.3945312,110.292969 C27.3554736,110.292969 28.0917943,110.091799 28.6035156,109.689453 C29.1152369,109.287107 29.3710938,108.796878 29.3710938,108.21875 C29.3710938,107.617184 29.1464866,107.160158 28.6972656,106.847656 C28.2480446,106.535155 27.5351611,106.289063 26.5585938,106.109375 L26.03125,106.015625 C25.3281215,105.890624 24.6289097,105.726564 23.9335938,105.523438 C23.2382778,105.320311 22.6093778,105.027346 22.046875,104.644531 C21.4843722,104.261717 21.0273455,103.771487 20.6757812,103.173828 C20.324217,102.576169 20.1484375,101.820317 20.1484375,100.90625 C20.1484375,100.374997 20.2656238,99.8183623 20.5,99.2363281 C20.7343762,98.654294 21.1074193,98.1191431 21.6191406,97.6308594 C22.1308619,97.1425757 22.7910116,96.7421891 23.5996094,96.4296875 C24.4082072,96.1171859 25.386713,95.9609375 26.5351562,95.9609375 C27.894538,95.9609375 29.1074165,96.1855446 30.1738281,96.6347656 C31.2402397,97.0839866 32.1015592,97.6757776 32.7578125,98.4101562 L30.4960938,100.519531 C30.0351539,100.011716 29.443363,99.6132827 28.7207031,99.3242188 C27.9980433,99.0351548 27.2539101,98.890625 26.4882812,98.890625 C25.6054643,98.890625 24.9160181,99.0585921 24.4199219,99.3945312 C23.9238256,99.7304704 23.6757812,100.167966 23.6757812,100.707031 C23.6757812,101.058596 23.7558586,101.351561 23.9160156,101.585938 C24.0761727,101.820314 24.3007798,102.013671 24.5898438,102.166016 C24.8789077,102.31836 25.2265605,102.445312 25.6328125,102.546875 C26.0390645,102.648438 26.492185,102.749999 26.9921875,102.851562 L27.2617188,102.898438 C27.9335971,103.023438 28.6015592,103.18164 29.265625,103.373047 C29.9296908,103.564454 30.5332004,103.845701 31.0761719,104.216797 C31.6191433,104.587892 32.0585921,105.072263 32.3945312,105.669922 C32.7304704,106.267581 32.8984375,107.031245 32.8984375,107.960938 C32.8984375,108.804692 32.722658,109.550778 32.3710938,110.199219 C32.0195295,110.847659 31.5546904,111.400388 30.9765625,111.857422 C30.3984346,112.314455 29.7304725,112.658202 28.9726562,112.888672 C28.21484,113.119142 27.4257854,113.234375 26.6054688,113.234375 C25.7773396,113.234375 25.0097692,113.164063 24.3027344,113.023438 C23.5956996,112.882812 22.955081,112.683595 22.3808594,112.425781 C21.8066378,112.167967 21.2949241,111.878908 20.8457031,111.558594 C20.3964821,111.23828 20.0039079,110.894533 19.6679688,110.527344 L21.8828125,108.277344 Z M46.09375,113 L42.859375,113 L42.859375,111.921875 C42.6796866,112.093751 42.4843761,112.259765 42.2734375,112.419922 C42.0624989,112.580079 41.8281263,112.720703 41.5703125,112.841797 C41.3124987,112.962891 41.0253922,113.058593 40.7089844,113.128906 C40.3925765,113.199219 40.0429707,113.234375 39.6601562,113.234375 C38.9804654,113.234375 38.3710964,113.123048 37.8320312,112.900391 C37.2929661,112.677733 36.8378925,112.373049 36.4667969,111.986328 C36.0957013,111.599607 35.812501,111.144534 35.6171875,110.621094 C35.421874,110.097654 35.3242188,109.531253 35.3242188,108.921875 L35.3242188,100.449219 L38.5585938,100.449219 L38.5585938,107.738281 C38.5585938,108.183596 38.6074214,108.562498 38.7050781,108.875 C38.8027349,109.187502 38.9394522,109.439452 39.1152344,109.630859 C39.2910165,109.822267 39.4999988,109.96289 39.7421875,110.052734 C39.9843762,110.142579 40.2460923,110.1875 40.5273438,110.1875 C40.8554704,110.1875 41.1621079,110.128907 41.4472656,110.011719 C41.7324233,109.894531 41.9804677,109.716798 42.1914062,109.478516 C42.4023448,109.240233 42.5664057,108.941408 42.6835938,108.582031 C42.8007818,108.222654 42.859375,107.800784 42.859375,107.316406 L42.859375,100.449219 L46.09375,100.449219 L46.09375,113 Z M60.8125,106.730469 C60.8125,107.660161 60.6757826,108.523434 60.4023438,109.320312 C60.1289049,110.117191 59.7460962,110.804685 59.2539062,111.382812 C58.7617163,111.96094 58.1718784,112.414061 57.484375,112.742188 C56.7968716,113.070314 56.0390666,113.234375 55.2109375,113.234375 C54.8437482,113.234375 54.5097671,113.201172 54.2089844,113.134766 C53.9082016,113.068359 53.6328137,112.976563 53.3828125,112.859375 C53.1328113,112.742187 52.9023448,112.603516 52.6914062,112.443359 C52.4804677,112.283202 52.2890634,112.109376 52.1171875,111.921875 L52.1171875,113 L48.8828125,113 L48.8828125,96.1953125 L52.1171875,96.1953125 L52.1171875,101.527344 C52.4687518,101.160154 52.9023412,100.847658 53.4179688,100.589844 C53.9335963,100.33203 54.5585901,100.203125 55.2929688,100.203125 C56.1210979,100.203125 56.8730435,100.369139 57.5488281,100.701172 C58.2246128,101.033205 58.8046851,101.490231 59.2890625,102.072266 C59.7734399,102.6543 60.1484362,103.343746 60.4140625,104.140625 C60.6796888,104.937504 60.8125,105.800777 60.8125,106.730469 Z M52.0234375,107.890625 C52.0234375,108.226564 52.0839838,108.537108 52.2050781,108.822266 C52.3261725,109.107423 52.4999989,109.355468 52.7265625,109.566406 C52.9531261,109.777345 53.2246078,109.941406 53.5410156,110.058594 C53.8574235,110.175782 54.2148418,110.234375 54.6132812,110.234375 C55.0742211,110.234375 55.4824201,110.150391 55.8378906,109.982422 C56.1933612,109.814452 56.4921863,109.578127 56.734375,109.273438 C56.9765637,108.968748 57.1601556,108.607424 57.2851562,108.189453 C57.4101569,107.771482 57.4726562,107.312502 57.4726562,106.8125 L57.4726562,106.660156 C57.4726562,106.160154 57.4101569,105.699221 57.2851562,105.277344 C57.1601556,104.855467 56.9765637,104.490236 56.734375,104.181641 C56.4921863,103.873045 56.1933612,103.632813 55.8378906,103.460938 C55.4824201,103.289062 55.0742211,103.203125 54.6132812,103.203125 C54.2148418,103.203125 53.8574235,103.261718 53.5410156,103.378906 C53.2246078,103.496094 52.9531261,103.660155 52.7265625,103.871094 C52.4999989,104.082032 52.3261725,104.33203 52.2050781,104.621094 C52.0839838,104.910158 52.0234375,105.222655 52.0234375,105.558594 L52.0234375,107.890625 Z M73.5507812,113 L70.3046875,113 L70.3046875,105.699219 C70.3046875,105.253904 70.2558599,104.876955 70.1582031,104.568359 C70.0605464,104.259764 69.9257821,104.009767 69.7539062,103.818359 C69.5820304,103.626952 69.3828136,103.490235 69.15625,103.408203 C68.9296864,103.326171 68.6835951,103.285156 68.4179688,103.285156 C68.1054672,103.285156 67.8144545,103.339843 67.5449219,103.449219 C67.2753893,103.558594 67.0410166,103.730468 66.8417969,103.964844 C66.6425771,104.19922 66.4863287,104.498045 66.3730469,104.861328 C66.2597651,105.224611 66.203125,105.656248 66.203125,106.15625 L66.203125,113 L62.96875,113 L62.96875,100.449219 L66.203125,100.449219 L66.203125,101.550781 C66.6171896,101.089841 67.0996066,100.750001 67.6503906,100.53125 C68.2011746,100.312499 68.7929656,100.203125 69.4257812,100.203125 C70.074222,100.203125 70.6816378,100.335936 71.2480469,100.601562 C71.814456,100.867189 72.2851544,101.304684 72.6601562,101.914062 C72.8789073,101.601561 73.1308579,101.335939 73.4160156,101.117188 C73.7011733,100.898436 74.0078109,100.722657 74.3359375,100.589844 C74.6640641,100.457031 75.0058576,100.359375 75.3613281,100.296875 C75.7167987,100.234375 76.0820294,100.203125 76.4570312,100.203125 C77.1601598,100.203125 77.7871066,100.318358 78.3378906,100.548828 C78.8886746,100.779298 79.3554668,101.089842 79.7382812,101.480469 C80.1210957,101.871096 80.4140615,102.32031 80.6171875,102.828125 C80.8203135,103.33594 80.921875,103.871091 80.921875,104.433594 L80.921875,113 L77.6523438,113 L77.6523438,105.699219 C77.6523438,105.253904 77.6035161,104.876955 77.5058594,104.568359 C77.4082026,104.259764 77.2734384,104.009767 77.1015625,103.818359 C76.9296866,103.626952 76.7285168,103.490235 76.4980469,103.408203 C76.267577,103.326171 76.0195326,103.285156 75.7539062,103.285156 C75.4414047,103.285156 75.1523451,103.339843 74.8867188,103.449219 C74.6210924,103.558594 74.3886729,103.730468 74.1894531,103.964844 C73.9902334,104.19922 73.8339849,104.498045 73.7207031,104.861328 C73.6074213,105.224611 73.5507812,105.656248 73.5507812,106.15625 L73.5507812,113 Z M86.8398438,113 L83.6054688,113 L83.6054688,100.449219 L86.8398438,100.449219 L86.8398438,113 Z M83.265625,97.15625 C83.265625,96.8906237 83.3164057,96.6386731 83.4179688,96.4003906 C83.5195318,96.1621082 83.6582022,95.955079 83.8339844,95.7792969 C84.0097665,95.6035147 84.2148426,95.4648443 84.4492188,95.3632812 C84.6835949,95.2617182 84.9374986,95.2109375 85.2109375,95.2109375 C85.4765638,95.2109375 85.7285144,95.2617182 85.9667969,95.3632812 C86.2050793,95.4648443 86.4121085,95.6035147 86.5878906,95.7792969 C86.7636728,95.955079 86.9023432,96.1621082 87.0039062,96.4003906 C87.1054693,96.6386731 87.15625,96.8906237 87.15625,97.15625 C87.15625,97.4296889 87.1054693,97.6835926 87.0039062,97.9179688 C86.9023432,98.1523449 86.7636728,98.357421 86.5878906,98.5332031 C86.4121085,98.7089853 86.2050793,98.8476557 85.9667969,98.9492188 C85.7285144,99.0507818 85.4765638,99.1015625 85.2109375,99.1015625 C84.9374986,99.1015625 84.6835949,99.0507818 84.4492188,98.9492188 C84.2148426,98.8476557 84.0097665,98.7089853 83.8339844,98.5332031 C83.6582022,98.357421 83.5195318,98.1523449 83.4179688,97.9179688 C83.3164057,97.6835926 83.265625,97.4296889 83.265625,97.15625 Z M94.2578125,109.261719 C94.2578125,109.410157 94.2773436,109.550781 94.3164062,109.683594 C94.3554689,109.816407 94.4238276,109.93164 94.5214844,110.029297 C94.6191411,110.126954 94.7578116,110.203125 94.9375,110.257812 C95.1171884,110.3125 95.3476548,110.339844 95.6289062,110.339844 C95.7460943,110.339844 95.8789055,110.333984 96.0273438,110.322266 C96.175782,110.310547 96.324218,110.296875 96.4726562,110.28125 C96.6210945,110.265625 96.759765,110.246094 96.8886719,110.222656 L97.2109375,110.164062 L97.5039062,113.023438 C97.1992172,113.0625 96.8828141,113.097656 96.5546875,113.128906 C96.2734361,113.160156 95.9609392,113.185547 95.6171875,113.205078 C95.2734358,113.224609 94.925783,113.234375 94.5742188,113.234375 C93.4570257,113.234375 92.5859406,112.980471 91.9609375,112.472656 C91.3359344,111.964841 91.0234375,111.156256 91.0234375,110.046875 L91.0234375,103.261719 L88.7617188,103.261719 L88.7617188,100.449219 L91.0234375,100.449219 L91.0234375,96.8984375 L94.2578125,96.03125 L94.2578125,100.449219 L97.5507812,100.449219 L97.5507812,103.261719 L94.2578125,103.261719 L94.2578125,109.261719 Z"/>
  </g>
</svg>
