<?xml version="1.0" encoding="UTF-8" standalone="no"?>
<svg width="200px" height="200px" viewBox="0 0 200 200" version="1.1" xmlns="http://www.w3.org/2000/svg" xmlns:xlink="http://www.w3.org/1999/xlink">
    <!-- Generator: Sketch 42 (36781) - http://www.bohemiancoding.com/sketch -->
    <title>lowVision/goodContrast</title>
    <desc>Created with Sketch.</desc>
    <defs></defs>
    <g id="Site-assets" stroke="none" stroke-width="1" fill="none" fill-rule="evenodd">
        <g id="Visually-impaired---low-vision" transform="translate(-501.000000, -771.000000)">
            <g id="lowVision/goodContrast" transform="translate(501.000000, 771.000000)">
                <circle id="Oval-84" fill="#FFBF47" cx="100" cy="100" r="100"></circle>
                <path d="M47.35,102.6 L75.1,102.6 L61.6,63.3 L61.3,63.3 L47.35,102.6 Z M49.6,36.9 L73.75,36.9 L113.8,144 L89.35,144 L81.25,120.15 L41.2,120.15 L32.8,144 L9.1,144 L49.6,36.9 Z M119.95,90.3 C120.250002,85.299975 121.499989,81.1500165 123.7,77.85 C125.900011,74.5499835 128.699983,71.90001 132.1,69.9 C135.500017,67.89999 139.324979,66.4750042 143.575,65.625 C147.825021,64.7749958 152.099979,64.35 156.4,64.35 C160.30002,64.35 164.24998,64.6249972 168.25,65.175 C172.25002,65.7250027 175.899984,66.799992 179.2,68.4 C182.500017,70.000008 185.19999,72.2249857 187.3,75.075 C189.400011,77.9250143 190.45,81.6999765 190.45,86.4 L190.45,126.75 C190.45,130.250018 190.649998,133.599984 191.05,136.8 C191.450002,140.000016 192.149995,142.399992 193.15,144 L171.55,144 C171.149998,142.799994 170.825001,141.575006 170.575,140.325 C170.324999,139.074994 170.150001,137.800006 170.05,136.5 C166.649983,140.000018 162.650023,142.449993 158.05,143.85 C153.449977,145.250007 148.750024,145.95 143.95,145.95 C140.249982,145.95 136.800016,145.500004 133.6,144.6 C130.399984,143.699995 127.600012,142.300009 125.2,140.4 C122.799988,138.49999 120.925007,136.100015 119.575,133.2 C118.224993,130.299986 117.55,126.85002 117.55,122.85 C117.55,118.449978 118.324992,114.825014 119.875,111.975 C121.425008,109.124986 123.424988,106.850009 125.875,105.15 C128.325012,103.449992 131.124984,102.175004 134.275,101.325 C137.425016,100.474996 140.599984,99.8000025 143.8,99.3 C147.000016,98.7999975 150.149985,98.4000015 153.25,98.1 C156.350016,97.7999985 159.099988,97.350003 161.5,96.75 C163.900012,96.149997 165.799993,95.2750057 167.2,94.125 C168.600007,92.9749943 169.250001,91.300011 169.15,89.1 C169.15,86.7999885 168.775004,84.9750068 168.025,83.625 C167.274996,82.2749932 166.275006,81.2250038 165.025,80.475 C163.774994,79.7249963 162.325008,79.2250012 160.675,78.975 C159.024992,78.7249988 157.25001,78.6 155.35,78.6 C151.149979,78.6 147.850012,79.499991 145.45,81.3 C143.049988,83.100009 141.650002,86.099979 141.25,90.3 L119.95,90.3 Z M169.15,106.05 C168.249996,106.850004 167.125007,107.474998 165.775,107.925 C164.424993,108.375002 162.975008,108.749998 161.425,109.05 C159.874992,109.350001 158.250009,109.599999 156.55,109.8 C154.849992,110.000001 153.150009,110.249998 151.45,110.55 C149.849992,110.850001 148.275008,111.249998 146.725,111.75 C145.174992,112.250002 143.825006,112.924996 142.675,113.775 C141.524994,114.625004 140.600004,115.699994 139.9,117 C139.199997,118.300006 138.85,119.94999 138.85,121.95 C138.85,123.850009 139.199997,125.449994 139.9,126.75 C140.600004,128.050006 141.549994,129.074996 142.75,129.825 C143.950006,130.575004 145.349992,131.099998 146.95,131.4 C148.550008,131.700001 150.199992,131.85 151.9,131.85 C156.100021,131.85 159.349989,131.150007 161.65,129.75 C163.950012,128.349993 165.649995,126.67501 166.75,124.725 C167.850006,122.77499 168.524999,120.80001 168.775,118.8 C169.025001,116.79999 169.15,115.200006 169.15,114 L169.15,106.05 Z" id="Aa" fill="#000000"></path>
            </g>
        </g>
    </g>
</svg>