<svg xmlns="http://www.w3.org/2000/svg" width="155" height="183" viewBox="0 0 155 183">
  <g fill="none" fill-rule="evenodd">
    <path fill="#F47738" d="M147.455357,48.5267857 C148.392862,49.4642904 149.330352,50.6696355 150.267857,52.1428571 L102.857143,52.1428571 L102.857143,4.73214286 C104.330365,5.66964754 105.53571,6.60713817 106.473214,7.54464286 L147.455357,48.5267857 Z M99.6428571,65 L154.285714,65 L154.285714,171.071429 C154.285714,173.750013 153.348224,176.026776 151.473214,177.901786 C149.598205,179.776795 147.321442,180.714286 144.642857,180.714286 L9.64285714,180.714286 C6.96427232,180.714286 4.68750937,179.776795 2.8125,177.901786 C0.937490625,176.026776 0,173.750013 0,171.071429 L0,10.3571429 C0,7.67855804 0.937490625,5.40179509 2.8125,3.52678571 C4.68750937,1.65177634 6.96427232,0.714285714 9.64285714,0.714285714 L90,0.714285714 L90,55.3571429 C90,58.0357277 90.9374906,60.3124906 92.8125,62.1875 C94.6875094,64.0625094 96.9642723,65 99.6428571,65 Z M115.714286,138.928571 L115.714286,132.5 C115.714286,131.562495 115.412949,130.792414 114.810268,130.189732 C114.207586,129.587051 113.437505,129.285714 112.5,129.285714 L41.7857143,129.285714 C40.8482096,129.285714 40.078128,129.587051 39.4754464,130.189732 C38.8727648,130.792414 38.5714286,131.562495 38.5714286,132.5 L38.5714286,138.928571 C38.5714286,139.866076 38.8727648,140.636158 39.4754464,141.238839 C40.078128,141.841521 40.8482096,142.142857 41.7857143,142.142857 L112.5,142.142857 C113.437505,142.142857 114.207586,141.841521 114.810268,141.238839 C115.412949,140.636158 115.714286,139.866076 115.714286,138.928571 Z M115.714286,113.214286 L115.714286,106.785714 C115.714286,105.84821 115.412949,105.078128 114.810268,104.475446 C114.207586,103.872765 113.437505,103.571429 112.5,103.571429 L41.7857143,103.571429 C40.8482096,103.571429 40.078128,103.872765 39.4754464,104.475446 C38.8727648,105.078128 38.5714286,105.84821 38.5714286,106.785714 L38.5714286,113.214286 C38.5714286,114.15179 38.8727648,114.921872 39.4754464,115.524554 C40.078128,116.127235 40.8482096,116.428571 41.7857143,116.428571 L112.5,116.428571 C113.437505,116.428571 114.207586,116.127235 114.810268,115.524554 C115.412949,114.921872 115.714286,114.15179 115.714286,113.214286 Z M115.714286,87.5 L115.714286,81.0714286 C115.714286,80.1339239 115.412949,79.3638423 114.810268,78.7611607 C114.207586,78.1584791 113.437505,77.8571429 112.5,77.8571429 L41.7857143,77.8571429 C40.8482096,77.8571429 40.078128,78.1584791 39.4754464,78.7611607 C38.8727648,79.3638423 38.5714286,80.1339239 38.5714286,81.0714286 L38.5714286,87.5 C38.5714286,88.4375047 38.8727648,89.2075863 39.4754464,89.8102679 C40.078128,90.4129494 40.8482096,90.7142857 41.7857143,90.7142857 L112.5,90.7142857 C113.437505,90.7142857 114.207586,90.4129494 114.810268,89.8102679 C115.412949,89.2075863 115.714286,88.4375047 115.714286,87.5 Z"/>
    <text fill="#0B0C0C" font-family="HelveticaNeue-Bold, Helvetica Neue" font-size="32" font-weight="bold">
      <tspan x="36" y="176">HTML</tspan>
    </text>
  </g>
</svg>
