<svg xmlns="http://www.w3.org/2000/svg" width="302" height="234" viewBox="0 0 302 234">
  <g fill="none" fill-rule="evenodd">
    <rect width="196.433" height="139.65" x="77.565" y="60.133" fill="#FFF"/>
    <rect width="122.164" height="49.046" x="143.058" y="66.906" fill="#FFBF47"/>
    <rect width="122.164" height="13.53" x="144.308" y="126.407" fill="#F47738"/>
    <rect width="122.164" height="13.53" x="144.308" y="148.283" fill="#F47738"/>
    <rect width="71.968" height="24.371" x="193.593" y="169.377" fill="#28A197"/>
    <rect width="52.328" height="37.207" x="84.944" y="66.898" fill="#B58840"/>
    <rect width="52.328" height="37.207" x="84.944" y="111.716" fill="#DF3034"/>
    <rect width="52.328" height="37.207" x="84.944" y="156.533" fill="#FFBF47"/>
    <path fill="#333" d="M148.723842,216.855232 C148.723842,214.533533 147.875541,212.5244 146.178915,210.827774 C144.482289,209.131148 142.473157,208.282847 140.151458,208.282847 C137.829759,208.282847 135.820626,209.131148 134.124,210.827774 C132.427374,212.5244 131.579073,214.533533 131.579073,216.855232 C131.579073,219.176931 132.427374,221.186063 134.124,222.882689 C135.820626,224.579315 137.829759,225.427616 140.151458,225.427616 C142.473157,225.427616 144.482289,224.579315 146.178915,222.882689 C147.875541,221.186063 148.723842,219.176931 148.723842,216.855232 Z M200.158147,195.424271 L200.158147,66.8385087 C200.158147,65.6776592 199.733997,64.673093 198.885683,63.8247799 C198.03737,62.9764668 197.032804,62.5523166 195.871955,62.5523166 L84.4309604,62.5523166 C83.2701109,62.5523166 82.2655447,62.9764668 81.4172316,63.8247799 C80.5689185,64.673093 80.1447683,65.6776592 80.1447683,66.8385087 L80.1447683,195.424271 C80.1447683,196.585121 80.5689185,197.589687 81.4172316,198.438 C82.2655447,199.286313 83.2701109,199.710463 84.4309604,199.710463 L195.871955,199.710463 C197.032804,199.710463 198.03737,199.286313 198.885683,198.438 C199.733997,197.589687 200.158147,196.585121 200.158147,195.424271 Z M217.302915,66.8385087 L217.302915,212.56904 C217.302915,218.462583 215.204488,223.507738 211.00757,227.704655 C206.810653,231.901573 201.765498,234 195.871955,234 L84.4309604,234 C78.5374168,234 73.492262,231.901573 69.2953446,227.704655 C65.0984272,223.507738 63,218.462583 63,212.56904 L63,66.8385087 C63,60.9449651 65.0984272,55.8998103 69.2953446,51.7028929 C73.492262,47.5059755 78.5374168,45.4075483 84.4309604,45.4075483 L195.871955,45.4075483 C201.765498,45.4075483 206.810653,47.5059755 211.00757,51.7028929 C215.204488,55.8998103 217.302915,60.9449651 217.302915,66.8385087 Z"/>
    <path fill="#0B0C0C" d="M1.184,10.208 L5.536,10.208 C5.536,9.61066368 5.59466608,9.00800304 5.712,8.4 C5.82933392,7.79199696 6.02666528,7.23733584 6.304,6.736 C6.58133472,6.23466416 6.94933104,5.82933488 7.408,5.52 C7.86666896,5.21066512 8.42666336,5.056 9.088,5.056 C10.0693382,5.056 10.8746635,5.35999696 11.504,5.968 C12.1333365,6.57600304 12.448,7.42399456 12.448,8.512 C12.448,9.19467008 12.2933349,9.802664 11.984,10.336 C11.6746651,10.869336 11.290669,11.3493312 10.832,11.776 C10.373331,12.2026688 9.86666944,12.5919982 9.312,12.944 C8.75733056,13.2960018 8.23466912,13.642665 7.744,13.984 C6.7839952,14.6453366 5.87200432,15.2959968 5.008,15.936 C4.14399568,16.5760032 3.3920032,17.2746629 2.752,18.032 C2.1119968,18.7893371 1.6053352,19.6479952 1.232,20.608 C0.8586648,21.5680048 0.672,22.6986602 0.672,24 L17.12,24 L17.12,20.096 L6.528,20.096 C7.08266944,19.3279962 7.72266304,18.6560029 8.448,18.08 C9.17333696,17.5039971 9.91999616,16.9653358 10.688,16.464 C11.4560038,15.9626642 12.2186629,15.4560026 12.976,14.944 C13.7333371,14.4319974 14.4106637,13.8613365 15.008,13.232 C15.6053363,12.6026635 16.0853315,11.8826707 16.448,11.072 C16.8106685,10.2613293 16.992,9.29067232 16.992,8.16 C16.992,7.07199456 16.7840021,6.09067104 16.368,5.216 C15.9519979,4.34132896 15.3920035,3.60533632 14.688,3.008 C13.9839965,2.41066368 13.1680046,1.9520016 12.24,1.632 C11.3119954,1.3119984 10.3360051,1.152 9.312,1.152 C7.96799328,1.152 6.77867184,1.38133104 5.744,1.84 C4.70932816,2.29866896 3.85067008,2.93866256 3.168,3.76 C2.48532992,4.58133744 1.97333504,5.54132784 1.632,6.64 C1.29066496,7.73867216 1.14133312,8.9279936 1.184,10.208 Z M23.008,12.704 C23.008,13.3440032 23.0293331,14.1173288 23.072,15.024 C23.1146669,15.9306712 23.2479989,16.8053291 23.472,17.648 C23.6960011,18.4906709 24.0533309,19.2106637 24.544,19.808 C25.0346691,20.4053363 25.7386621,20.704 26.656,20.704 C27.5946714,20.704 28.3146642,20.4053363 28.816,19.808 C29.3173358,19.2106637 29.6799989,18.4906709 29.904,17.648 C30.1280011,16.8053291 30.2613331,15.9306712 30.304,15.024 C30.3466669,14.1173288 30.368,13.3440032 30.368,12.704 C30.368,12.3199981 30.3626667,11.8560027 30.352,11.312 C30.3413333,10.7679973 30.298667,10.2080029 30.224,9.632 C30.149333,9.05599712 30.0426674,8.48533616 29.904,7.92 C29.7653326,7.35466384 29.5573347,6.84800224 29.28,6.4 C29.0026653,5.95199776 28.6506688,5.58933472 28.224,5.312 C27.7973312,5.03466528 27.2746698,4.896 26.656,4.896 C26.0373302,4.896 25.5200021,5.03466528 25.104,5.312 C24.6879979,5.58933472 24.346668,5.95199776 24.08,6.4 C23.813332,6.84800224 23.6053341,7.35466384 23.456,7.92 C23.3066659,8.48533616 23.2000003,9.05599712 23.136,9.632 C23.0719997,10.2080029 23.0346667,10.7679973 23.024,11.312 C23.0133333,11.8560027 23.008,12.3199981 23.008,12.704 Z M18.464,12.704 C18.464,10.5279891 18.6826645,8.69867408 19.12,7.216 C19.5573355,5.73332592 20.1493296,4.54400448 20.896,3.648 C21.6426704,2.75199552 22.511995,2.11200192 23.504,1.728 C24.496005,1.34399808 25.5466611,1.152 26.656,1.152 C27.7866723,1.152 28.847995,1.34399808 29.84,1.728 C30.832005,2.11200192 31.7066629,2.75199552 32.464,3.648 C33.2213371,4.54400448 33.8186645,5.73332592 34.256,7.216 C34.6933355,8.69867408 34.912,10.5279891 34.912,12.704 C34.912,14.9440112 34.6933355,16.8159925 34.256,18.32 C33.8186645,19.8240075 33.2213371,21.0239955 32.464,21.92 C31.7066629,22.8160045 30.832005,23.4559981 29.84,23.84 C28.847995,24.2240019 27.7866723,24.416 26.656,24.416 C25.5466611,24.416 24.496005,24.2240019 23.504,23.84 C22.511995,23.4559981 21.6426704,22.8160045 20.896,21.92 C20.1493296,21.0239955 19.5573355,19.8240075 19.12,18.32 C18.6826645,16.8159925 18.464,14.9440112 18.464,12.704 Z M40.8,12.704 C40.8,13.3440032 40.8213331,14.1173288 40.864,15.024 C40.9066669,15.9306712 41.0399989,16.8053291 41.264,17.648 C41.4880011,18.4906709 41.8453309,19.2106637 42.336,19.808 C42.8266691,20.4053363 43.5306621,20.704 44.448,20.704 C45.3866714,20.704 46.1066642,20.4053363 46.608,19.808 C47.1093358,19.2106637 47.4719989,18.4906709 47.696,17.648 C47.9200011,16.8053291 48.0533331,15.9306712 48.096,15.024 C48.1386669,14.1173288 48.16,13.3440032 48.16,12.704 C48.16,12.3199981 48.1546667,11.8560027 48.144,11.312 C48.1333333,10.7679973 48.090667,10.2080029 48.016,9.632 C47.941333,9.05599712 47.8346674,8.48533616 47.696,7.92 C47.5573326,7.35466384 47.3493347,6.84800224 47.072,6.4 C46.7946653,5.95199776 46.4426688,5.58933472 46.016,5.312 C45.5893312,5.03466528 45.0666698,4.896 44.448,4.896 C43.8293302,4.896 43.3120021,5.03466528 42.896,5.312 C42.4799979,5.58933472 42.138668,5.95199776 41.872,6.4 C41.605332,6.84800224 41.3973341,7.35466384 41.248,7.92 C41.0986659,8.48533616 40.9920003,9.05599712 40.928,9.632 C40.8639997,10.2080029 40.8266667,10.7679973 40.816,11.312 C40.8053333,11.8560027 40.8,12.3199981 40.8,12.704 Z M36.256,12.704 C36.256,10.5279891 36.4746645,8.69867408 36.912,7.216 C37.3493355,5.73332592 37.9413296,4.54400448 38.688,3.648 C39.4346704,2.75199552 40.303995,2.11200192 41.296,1.728 C42.288005,1.34399808 43.3386611,1.152 44.448,1.152 C45.5786723,1.152 46.639995,1.34399808 47.632,1.728 C48.624005,2.11200192 49.4986629,2.75199552 50.256,3.648 C51.0133371,4.54400448 51.6106645,5.73332592 52.048,7.216 C52.4853355,8.69867408 52.704,10.5279891 52.704,12.704 C52.704,14.9440112 52.4853355,16.8159925 52.048,18.32 C51.6106645,19.8240075 51.0133371,21.0239955 50.256,21.92 C49.4986629,22.8160045 48.624005,23.4559981 47.632,23.84 C46.639995,24.2240019 45.5786723,24.416 44.448,24.416 C43.3386611,24.416 42.288005,24.2240019 41.296,23.84 C40.303995,23.4559981 39.4346704,22.8160045 38.688,21.92 C37.9413296,21.0239955 37.3493355,19.8240075 36.912,18.32 C36.4746645,16.8159925 36.256,14.9440112 36.256,12.704 Z M75.552,18.176 C75.552,18.517335 75.5626666,18.9119978 75.584,19.36 C75.6053334,19.8080022 75.6799994,20.2293314 75.808,20.624 C75.9360006,21.0186686 76.1386653,21.3546653 76.416,21.632 C76.6933347,21.9093347 77.0879974,22.048 77.6,22.048 C78.0906691,22.048 78.4799986,21.9093347 78.768,21.632 C79.0560014,21.3546653 79.2693326,21.0186686 79.408,20.624 C79.5466674,20.2293314 79.6319998,19.8133355 79.664,19.376 C79.6960002,18.9386645 79.712,18.549335 79.712,18.208 C79.712,17.8879984 79.6960002,17.5093355 79.664,17.072 C79.6319998,16.6346645 79.5520006,16.2186686 79.424,15.824 C79.2959994,15.4293314 79.098668,15.0880014 78.832,14.8 C78.565332,14.5119986 78.1973357,14.368 77.728,14.368 C77.2159974,14.368 76.8160014,14.4959987 76.528,14.752 C76.2399986,15.0080013 76.0213341,15.3279981 75.872,15.712 C75.7226659,16.0960019 75.6320002,16.5119978 75.6,16.96 C75.5679998,17.4080022 75.552,17.8133315 75.552,18.176 Z M72.288,18.144 C72.288,17.269329 72.3946656,16.4586704 72.608,15.712 C72.8213344,14.9653296 73.1519978,14.3146694 73.6,13.76 C74.0480022,13.2053306 74.6133299,12.7680016 75.296,12.448 C75.9786701,12.1279984 76.7893286,11.968 77.728,11.968 C78.7306717,11.968 79.5626634,12.1333317 80.224,12.464 C80.8853366,12.7946683 81.4239979,13.2426638 81.84,13.808 C82.2560021,14.3733362 82.5493325,15.0399962 82.72,15.808 C82.8906675,16.5760038 82.976,17.397329 82.976,18.272 C82.976,19.146671 82.8693344,19.9573296 82.656,20.704 C82.4426656,21.4506704 82.1173355,22.1013306 81.68,22.656 C81.2426645,23.2106694 80.6826701,23.6426651 80,23.952 C79.3173299,24.2613349 78.5066714,24.416 77.568,24.416 C76.5866618,24.416 75.7600034,24.2560016 75.088,23.936 C74.4159966,23.6159984 73.8720021,23.1733362 73.456,22.608 C73.0399979,22.0426638 72.7413342,21.3760038 72.56,20.608 C72.3786658,19.8399962 72.288,19.018671 72.288,18.144 Z M74.752,0.896 L77.472,0.896 L64.288,24.672 L61.504,24.672 L74.752,0.896 Z M59.04,7.552 C59.04,7.89333504 59.0506666,8.2773312 59.072,8.704 C59.0933334,9.1306688 59.1679994,9.5306648 59.296,9.904 C59.4240006,10.2773352 59.6266653,10.5919987 59.904,10.848 C60.1813347,11.1040013 60.5759974,11.232 61.088,11.232 C61.5786691,11.232 61.9679986,11.1040013 62.256,10.848 C62.5440014,10.5919987 62.7573326,10.2773352 62.896,9.904 C63.0346674,9.5306648 63.1199998,9.13600208 63.152,8.72 C63.1840002,8.30399792 63.2,7.92533504 63.2,7.584 C63.2,7.2639984 63.1840002,6.87466896 63.152,6.416 C63.1199998,5.95733104 63.0400006,5.5146688 62.912,5.088 C62.7839994,4.6613312 62.586668,4.29866816 62.32,4 C62.053332,3.70133184 61.6853357,3.552 61.216,3.552 C60.7039974,3.552 60.3040014,3.69066528 60.016,3.968 C59.7279986,4.24533472 59.5093341,4.58666464 59.36,4.992 C59.2106659,5.39733536 59.1200002,5.83466432 59.088,6.304 C59.0559998,6.77333568 59.04,7.18933152 59.04,7.552 Z M55.776,7.488 C55.776,6.61332896 55.8826656,5.79200384 56.096,5.024 C56.3093344,4.25599616 56.6399978,3.58400288 57.088,3.008 C57.5360022,2.43199712 58.1013299,1.97866832 58.784,1.648 C59.4666701,1.31733168 60.2773286,1.152 61.216,1.152 C62.2186717,1.152 63.0506634,1.32266496 63.712,1.664 C64.3733366,2.00533504 64.9119979,2.4693304 65.328,3.056 C65.7440021,3.6426696 66.0373325,4.33066272 66.208,5.12 C66.3786675,5.90933728 66.464,6.74132896 66.464,7.616 C66.464,8.49067104 66.3573344,9.29599632 66.144,10.032 C65.9306656,10.7680037 65.6053355,11.402664 65.168,11.936 C64.7306645,12.469336 64.1706701,12.8853318 63.488,13.184 C62.8053299,13.4826682 61.9946714,13.632 61.056,13.632 C60.0746618,13.632 59.2480034,13.4773349 58.576,13.168 C57.9039966,12.8586651 57.3600021,12.4320027 56.944,11.888 C56.5279979,11.3439973 56.2293342,10.6933371 56.048,9.936 C55.8666658,9.17866288 55.776,8.36267104 55.776,7.488 Z M96.128,7.456 L96.128,24 L100.672,24 L100.672,14.4 C100.672,13.5893293 100.789332,12.9333358 101.024,12.432 C101.258668,11.9306642 101.541332,11.546668 101.872,11.28 C102.202668,11.013332 102.543998,10.8320005 102.896,10.736 C103.248002,10.6399995 103.530666,10.592 103.744,10.592 C104.469337,10.592 105.018665,10.7146654 105.392,10.96 C105.765335,11.2053346 106.031999,11.5306646 106.192,11.936 C106.352001,12.3413354 106.442667,12.7839976 106.464,13.264 C106.485333,13.7440024 106.496,14.2293309 106.496,14.72 L106.496,24 L111.04,24 L111.04,14.784 C111.04,14.2719974 111.077333,13.7653358 111.152,13.264 C111.226667,12.7626642 111.375999,12.3146686 111.6,11.92 C111.824001,11.5253314 112.133331,11.2053346 112.528,10.96 C112.922669,10.7146654 113.439997,10.592 114.08,10.592 C114.720003,10.592 115.226665,10.6986656 115.6,10.912 C115.973335,11.1253344 116.255999,11.4133315 116.448,11.776 C116.640001,12.1386685 116.757333,12.5653309 116.8,13.056 C116.842667,13.5466691 116.864,14.0693306 116.864,14.624 L116.864,24 L121.408,24 L121.408,12.928 C121.408,11.861328 121.258668,10.9493371 120.96,10.192 C120.661332,9.43466288 120.245336,8.82133568 119.712,8.352 C119.178664,7.88266432 118.53867,7.5413344 117.792,7.328 C117.04533,7.1146656 116.234671,7.008 115.36,7.008 C114.207994,7.008 113.210671,7.28533056 112.368,7.84 C111.525329,8.39466944 110.858669,9.03466304 110.368,9.76 C109.919998,8.73599488 109.264004,8.02133536 108.4,7.616 C107.535996,7.21066464 106.581339,7.008 105.536,7.008 C104.447995,7.008 103.482671,7.24266432 102.64,7.712 C101.797329,8.18133568 101.077336,8.8426624 100.48,9.696 L100.416,9.696 L100.416,7.456 L96.128,7.456 Z M124.8,12.544 C124.864,11.477328 125.130664,10.5920035 125.6,9.888 C126.069336,9.18399648 126.666663,8.6186688 127.392,8.192 C128.117337,7.7653312 128.933329,7.46133424 129.84,7.28 C130.746671,7.09866576 131.658662,7.008 132.576,7.008 C133.408004,7.008 134.250662,7.06666608 135.104,7.184 C135.957338,7.30133392 136.735996,7.53066496 137.44,7.872 C138.144004,8.21333504 138.719998,8.68799696 139.168,9.296 C139.616002,9.90400304 139.84,10.7093283 139.84,11.712 L139.84,20.32 C139.84,21.0666704 139.882666,21.7813299 139.968,22.464 C140.053334,23.1466701 140.202666,23.658665 140.416,24 L135.808,24 C135.722666,23.7439987 135.653334,23.482668 135.6,23.216 C135.546666,22.949332 135.509333,22.6773347 135.488,22.4 C134.762663,23.1466704 133.909338,23.6693318 132.928,23.968 C131.946662,24.2666682 130.944005,24.416 129.92,24.416 C129.130663,24.416 128.39467,24.320001 127.712,24.128 C127.02933,23.935999 126.432003,23.6373354 125.92,23.232 C125.407997,22.8266646 125.008001,22.3146698 124.72,21.696 C124.431999,21.0773302 124.288,20.3413376 124.288,19.488 C124.288,18.5493286 124.453332,17.776003 124.784,17.168 C125.114668,16.559997 125.541331,16.0746685 126.064,15.712 C126.586669,15.3493315 127.183997,15.0773342 127.856,14.896 C128.528003,14.7146658 129.20533,14.5706672 129.888,14.464 C130.57067,14.3573328 131.242663,14.2720003 131.904,14.208 C132.565337,14.1439997 133.151997,14.0480006 133.664,13.92 C134.176003,13.7919994 134.581332,13.6053346 134.88,13.36 C135.178668,13.1146654 135.317333,12.7573357 135.296,12.288 C135.296,11.7973309 135.216001,11.4080014 135.056,11.12 C134.895999,10.8319986 134.682668,10.6080008 134.416,10.448 C134.149332,10.2879992 133.840002,10.1813336 133.488,10.128 C133.135998,10.0746664 132.757335,10.048 132.352,10.048 C131.455996,10.048 130.752003,10.2399981 130.24,10.624 C129.727997,11.0080019 129.429334,11.6479955 129.344,12.544 L124.8,12.544 Z M135.296,15.904 C135.103999,16.0746675 134.864001,16.2079995 134.576,16.304 C134.287999,16.4000005 133.978668,16.4799997 133.648,16.544 C133.317332,16.6080003 132.970668,16.6613331 132.608,16.704 C132.245332,16.7466669 131.882668,16.7999997 131.52,16.864 C131.178665,16.9280003 130.842668,17.0133328 130.512,17.12 C130.181332,17.2266672 129.893335,17.3706658 129.648,17.552 C129.402665,17.7333342 129.205334,17.9626653 129.056,18.24 C128.906666,18.5173347 128.832,18.8693312 128.832,19.296 C128.832,19.7013354 128.906666,20.0426653 129.056,20.32 C129.205334,20.5973347 129.407999,20.8159992 129.664,20.976 C129.920001,21.1360008 130.218665,21.2479997 130.56,21.312 C130.901335,21.3760003 131.253332,21.408 131.616,21.408 C132.512004,21.408 133.205331,21.2586682 133.696,20.96 C134.186669,20.6613318 134.549332,20.3040021 134.784,19.888 C135.018668,19.4719979 135.162666,19.0506688 135.216,18.624 C135.269334,18.1973312 135.296,17.8560013 135.296,17.6 L135.296,15.904 Z M151.072,20.096 C151.712003,20.096 152.277331,19.9680013 152.768,19.712 C153.258669,19.4559987 153.663998,19.1146688 153.984,18.688 C154.304002,18.2613312 154.543999,17.7760027 154.704,17.232 C154.864001,16.6879973 154.944,16.1173363 154.944,15.52 C154.944,14.8373299 154.880001,14.192003 154.752,13.584 C154.623999,12.975997 154.410668,12.4373357 154.112,11.968 C153.813332,11.4986643 153.418669,11.1253347 152.928,10.848 C152.437331,10.5706653 151.81867,10.432 151.072,10.432 C150.431997,10.432 149.882669,10.5599987 149.424,10.816 C148.965331,11.0720013 148.581335,11.4186645 148.272,11.856 C147.962665,12.2933355 147.738667,12.7946638 147.6,13.36 C147.461333,13.9253362 147.392,14.5173302 147.392,15.136 C147.392,15.7333363 147.450666,16.3253304 147.568,16.912 C147.685334,17.4986696 147.887999,18.0266643 148.176,18.496 C148.464001,18.9653357 148.842664,19.3493318 149.312,19.648 C149.781336,19.9466682 150.367996,20.096 151.072,20.096 Z M159.264,22.944 C159.264,23.6053366 159.173334,24.3626624 158.992,25.216 C158.810666,26.0693376 158.421336,26.8639963 157.824,27.6 C157.226664,28.3360037 156.362672,28.9599974 155.232,29.472 C154.101328,29.9840026 152.586676,30.24 150.688,30.24 C149.877329,30.24 149.050671,30.1386677 148.208,29.936 C147.365329,29.7333323 146.597337,29.4186688 145.904,28.992 C145.210663,28.5653312 144.634669,28.0160034 144.176,27.344 C143.717331,26.6719966 143.456,25.8666714 143.392,24.928 L147.904,24.928 C148.117334,25.7813376 148.53333,26.3733317 149.152,26.704 C149.77067,27.0346683 150.485329,27.2 151.296,27.2 C152.576006,27.2 153.50933,26.8160038 154.096,26.048 C154.68267,25.2799962 154.965333,24.3093392 154.944,23.136 L154.944,20.96 L154.88,20.96 C154.389331,21.834671 153.690671,22.4799979 152.784,22.896 C151.877329,23.3120021 150.922672,23.52 149.92,23.52 C148.68266,23.52 147.616004,23.3013355 146.72,22.864 C145.823996,22.4266645 145.088003,21.8293371 144.512,21.072 C143.935997,20.3146629 143.514668,19.4293384 143.248,18.416 C142.981332,17.4026616 142.848,16.3306723 142.848,15.2 C142.848,14.133328 143.002665,13.104005 143.312,12.112 C143.621335,11.119995 144.074664,10.2453371 144.672,9.488 C145.269336,8.73066288 146.010662,8.12800224 146.896,7.68 C147.781338,7.23199776 148.799994,7.008 149.952,7.008 C151.040005,7.008 151.994663,7.21066464 152.816,7.616 C153.637337,8.02133536 154.325331,8.7039952 154.88,9.664 L154.944,9.664 L154.944,7.456 L159.264,7.456 L159.264,22.944 Z M162.912,7.456 L162.912,24 L167.456,24 L167.456,15.328 C167.456,13.6426582 167.733331,12.4320037 168.288,11.696 C168.842669,10.9599963 169.73866,10.592 170.976,10.592 C172.064005,10.592 172.821331,10.9279966 173.248,11.6 C173.674669,12.2720034 173.888,13.2906598 173.888,14.656 L173.888,24 L178.432,24 L178.432,13.824 C178.432,12.7999949 178.341334,11.8666709 178.16,11.024 C177.978666,10.1813291 177.664002,9.4666696 177.216,8.88 C176.767998,8.2933304 176.154671,7.83466832 175.376,7.504 C174.597329,7.17333168 173.600006,7.008 172.384,7.008 C171.423995,7.008 170.485338,7.22666448 169.568,7.664 C168.650662,8.10133552 167.904003,8.7999952 167.328,9.76 L167.232,9.76 L167.232,7.456 L162.912,7.456 Z M186.56,4.896 L186.56,1.152 L182.016,1.152 L182.016,4.896 L186.56,4.896 Z M182.016,7.456 L182.016,24 L186.56,24 L186.56,7.456 L182.016,7.456 Z M191.136,10.496 L191.136,24 L195.68,24 L195.68,10.496 L198.816,10.496 L198.816,7.456 L195.68,7.456 L195.68,6.464 C195.68,5.78132992 195.813332,5.29600144 196.08,5.008 C196.346668,4.71999856 196.78933,4.576 197.408,4.576 C197.984003,4.576 198.538664,4.60799968 199.072,4.672 L199.072,1.28 C198.687998,1.25866656 198.293335,1.23200016 197.888,1.2 C197.482665,1.16799984 197.077335,1.152 196.672,1.152 C194.815991,1.152 193.429338,1.62132864 192.512,2.56 C191.594662,3.49867136 191.136,4.70399264 191.136,6.176 L191.136,7.456 L188.416,7.456 L188.416,10.496 L191.136,10.496 Z M201.568,7.456 L201.568,24 L206.112,24 L206.112,7.456 L201.568,7.456 Z M206.112,4.896 L206.112,1.152 L201.568,1.152 L201.568,4.896 L206.112,4.896 Z M220.96,13.28 L225.408,13.28 C225.344,12.213328 225.088002,11.2906706 224.64,10.512 C224.191998,9.73332944 223.61067,9.08266928 222.896,8.56 C222.18133,8.03733072 221.370671,7.64800128 220.464,7.392 C219.557329,7.13599872 218.613338,7.008 217.632,7.008 C216.287993,7.008 215.093339,7.23199776 214.048,7.68 C213.002661,8.12800224 212.117337,8.751996 211.392,9.552 C210.666663,10.352004 210.117335,11.3013278 209.744,12.4 C209.370665,13.4986722 209.184,14.6879936 209.184,15.968 C209.184,17.2053395 209.386665,18.3413282 209.792,19.376 C210.197335,20.4106718 210.762663,21.3013296 211.488,22.048 C212.213337,22.7946704 213.093328,23.3759979 214.128,23.792 C215.162672,24.2080021 216.29866,24.416 217.536,24.416 C219.733344,24.416 221.535993,23.8400058 222.944,22.688 C224.352007,21.5359942 225.205332,19.8613443 225.504,17.664 L221.12,17.664 C220.970666,18.6880051 220.60267,19.503997 220.016,20.112 C219.42933,20.720003 218.592005,21.024 217.504,21.024 C216.799996,21.024 216.202669,20.8640016 215.712,20.544 C215.221331,20.2239984 214.832001,19.8133358 214.544,19.312 C214.255999,18.8106642 214.048001,18.2506698 213.92,17.632 C213.791999,17.0133302 213.728,16.4053363 213.728,15.808 C213.728,15.1893302 213.791999,14.5653365 213.92,13.936 C214.048001,13.3066635 214.266665,12.7306693 214.576,12.208 C214.885335,11.6853307 215.285331,11.2586683 215.776,10.928 C216.266669,10.5973317 216.874663,10.432 217.6,10.432 C219.541343,10.432 220.661332,11.3813238 220.96,13.28 Z M227.872,12.544 C227.936,11.477328 228.202664,10.5920035 228.672,9.888 C229.141336,9.18399648 229.738663,8.6186688 230.464,8.192 C231.189337,7.7653312 232.005329,7.46133424 232.912,7.28 C233.818671,7.09866576 234.730662,7.008 235.648,7.008 C236.480004,7.008 237.322662,7.06666608 238.176,7.184 C239.029338,7.30133392 239.807996,7.53066496 240.512,7.872 C241.216004,8.21333504 241.791998,8.68799696 242.24,9.296 C242.688002,9.90400304 242.912,10.7093283 242.912,11.712 L242.912,20.32 C242.912,21.0666704 242.954666,21.7813299 243.04,22.464 C243.125334,23.1466701 243.274666,23.658665 243.488,24 L238.88,24 C238.794666,23.7439987 238.725334,23.482668 238.672,23.216 C238.618666,22.949332 238.581333,22.6773347 238.56,22.4 C237.834663,23.1466704 236.981338,23.6693318 236,23.968 C235.018662,24.2666682 234.016005,24.416 232.992,24.416 C232.202663,24.416 231.46667,24.320001 230.784,24.128 C230.10133,23.935999 229.504003,23.6373354 228.992,23.232 C228.479997,22.8266646 228.080001,22.3146698 227.792,21.696 C227.503999,21.0773302 227.36,20.3413376 227.36,19.488 C227.36,18.5493286 227.525332,17.776003 227.856,17.168 C228.186668,16.559997 228.613331,16.0746685 229.136,15.712 C229.658669,15.3493315 230.255997,15.0773342 230.928,14.896 C231.600003,14.7146658 232.27733,14.5706672 232.96,14.464 C233.64267,14.3573328 234.314663,14.2720003 234.976,14.208 C235.637337,14.1439997 236.223997,14.0480006 236.736,13.92 C237.248003,13.7919994 237.653332,13.6053346 237.952,13.36 C238.250668,13.1146654 238.389333,12.7573357 238.368,12.288 C238.368,11.7973309 238.288001,11.4080014 238.128,11.12 C237.967999,10.8319986 237.754668,10.6080008 237.488,10.448 C237.221332,10.2879992 236.912002,10.1813336 236.56,10.128 C236.207998,10.0746664 235.829335,10.048 235.424,10.048 C234.527996,10.048 233.824003,10.2399981 233.312,10.624 C232.799997,11.0080019 232.501334,11.6479955 232.416,12.544 L227.872,12.544 Z M238.368,15.904 C238.175999,16.0746675 237.936001,16.2079995 237.648,16.304 C237.359999,16.4000005 237.050668,16.4799997 236.72,16.544 C236.389332,16.6080003 236.042668,16.6613331 235.68,16.704 C235.317332,16.7466669 234.954668,16.7999997 234.592,16.864 C234.250665,16.9280003 233.914668,17.0133328 233.584,17.12 C233.253332,17.2266672 232.965335,17.3706658 232.72,17.552 C232.474665,17.7333342 232.277334,17.9626653 232.128,18.24 C231.978666,18.5173347 231.904,18.8693312 231.904,19.296 C231.904,19.7013354 231.978666,20.0426653 232.128,20.32 C232.277334,20.5973347 232.479999,20.8159992 232.736,20.976 C232.992001,21.1360008 233.290665,21.2479997 233.632,21.312 C233.973335,21.3760003 234.325332,21.408 234.688,21.408 C235.584004,21.408 236.277331,21.2586682 236.768,20.96 C237.258669,20.6613318 237.621332,20.3040021 237.856,19.888 C238.090668,19.4719979 238.234666,19.0506688 238.288,18.624 C238.341334,18.1973312 238.368,17.8560013 238.368,17.6 L238.368,15.904 Z M252.192,7.456 L252.192,2.496 L247.648,2.496 L247.648,7.456 L244.896,7.456 L244.896,10.496 L247.648,10.496 L247.648,20.256 C247.648,21.0880042 247.786665,21.7599974 248.064,22.272 C248.341335,22.7840026 248.719998,23.1786653 249.2,23.456 C249.680002,23.7333347 250.234664,23.9199995 250.864,24.016 C251.493336,24.1120005 252.159996,24.16 252.864,24.16 C253.312002,24.16 253.770664,24.1493334 254.24,24.128 C254.709336,24.1066666 255.135998,24.0640003 255.52,24 L255.52,20.48 C255.306666,20.5226669 255.082668,20.5546666 254.848,20.576 C254.613332,20.5973334 254.368001,20.608 254.112,20.608 C253.343996,20.608 252.832001,20.4800013 252.576,20.224 C252.319999,19.9679987 252.192,19.4560038 252.192,18.688 L252.192,10.496 L255.52,10.496 L255.52,7.456 L252.192,7.456 Z M262.368,4.896 L262.368,1.152 L257.824,1.152 L257.824,4.896 L262.368,4.896 Z M257.824,7.456 L257.824,24 L262.368,24 L262.368,7.456 L257.824,7.456 Z M269.984,15.744 C269.984,16.4053366 270.047999,17.0506635 270.176,17.68 C270.304001,18.3093365 270.522665,18.8746642 270.832,19.376 C271.141335,19.8773358 271.551997,20.2773318 272.064,20.576 C272.576003,20.8746682 273.215996,21.024 273.984,21.024 C274.752004,21.024 275.397331,20.8746682 275.92,20.576 C276.442669,20.2773318 276.858665,19.8773358 277.168,19.376 C277.477335,18.8746642 277.695999,18.3093365 277.824,17.68 C277.952001,17.0506635 278.016,16.4053366 278.016,15.744 C278.016,15.0826634 277.952001,14.4320032 277.824,13.792 C277.695999,13.1519968 277.477335,12.5866691 277.168,12.096 C276.858665,11.6053309 276.442669,11.2053349 275.92,10.896 C275.397331,10.5866651 274.752004,10.432 273.984,10.432 C273.215996,10.432 272.576003,10.5866651 272.064,10.896 C271.551997,11.2053349 271.141335,11.6053309 270.832,12.096 C270.522665,12.5866691 270.304001,13.1519968 270.176,13.792 C270.047999,14.4320032 269.984,15.0826634 269.984,15.744 Z M265.44,15.744 C265.44,14.4213267 265.642665,13.2213387 266.048,12.144 C266.453335,11.0666613 267.02933,10.1493371 267.776,9.392 C268.52267,8.63466288 269.418661,8.04800208 270.464,7.632 C271.509339,7.21599792 272.68266,7.008 273.984,7.008 C275.28534,7.008 276.463995,7.21599792 277.52,7.632 C278.576005,8.04800208 279.47733,8.63466288 280.224,9.392 C280.97067,10.1493371 281.546665,11.0666613 281.952,12.144 C282.357335,13.2213387 282.56,14.4213267 282.56,15.744 C282.56,17.0666733 282.357335,18.261328 281.952,19.328 C281.546665,20.394672 280.97067,21.3066629 280.224,22.064 C279.47733,22.8213371 278.576005,23.4026646 277.52,23.808 C276.463995,24.2133354 275.28534,24.416 273.984,24.416 C272.68266,24.416 271.509339,24.2133354 270.464,23.808 C269.418661,23.4026646 268.52267,22.8213371 267.776,22.064 C267.02933,21.3066629 266.453335,20.394672 266.048,19.328 C265.642665,18.261328 265.44,17.0666733 265.44,15.744 Z M285.504,7.456 L285.504,24 L290.048,24 L290.048,15.328 C290.048,13.6426582 290.325331,12.4320037 290.88,11.696 C291.434669,10.9599963 292.33066,10.592 293.568,10.592 C294.656005,10.592 295.413331,10.9279966 295.84,11.6 C296.266669,12.2720034 296.48,13.2906598 296.48,14.656 L296.48,24 L301.024,24 L301.024,13.824 C301.024,12.7999949 300.933334,11.8666709 300.752,11.024 C300.570666,10.1813291 300.256002,9.4666696 299.808,8.88 C299.359998,8.2933304 298.746671,7.83466832 297.968,7.504 C297.189329,7.17333168 296.192006,7.008 294.976,7.008 C294.015995,7.008 293.077338,7.22666448 292.16,7.664 C291.242662,8.10133552 290.496003,8.7999952 289.92,9.76 L289.824,9.76 L289.824,7.456 L285.504,7.456 Z"/>
  </g>
</svg>
