<svg xmlns="http://www.w3.org/2000/svg" width="45" height="45" viewBox="0 0 45 45">
  <g fill="none" fill-rule="evenodd">
    <path fill="#FFF" d="M23.5728059,3.84375 C23.5728059,4.26041875 23.4331796,4.61458187 23.1539229,4.90625 L10.2882314,18.34375 C10.0089747,18.6354181 9.66988231,18.78125 9.27094415,18.78125 C8.87200598,18.78125 8.53291363,18.6354181 8.25365691,18.34375 L0.803523936,10.5625 C0.524267221,10.2708319 0.384640957,9.91666875 0.384640957,9.5 C0.384640957,9.08333125 0.524267221,8.72916813 0.803523936,8.4375 L2.8380984,6.3125 C3.11735512,6.02083187 3.45644747,5.875 3.85538564,5.875 C4.2543238,5.875 4.59341616,6.02083187 4.87267287,6.3125 L9.27094415,10.921875 L19.0847739,0.65625 C19.3640307,0.364581875 19.703123,0.21875 20.1020612,0.21875 C20.5009993,0.21875 20.8400917,0.364581875 21.1193484,0.65625 L23.1539229,2.78125 C23.4331796,3.07291813 23.5728059,3.42708125 23.5728059,3.84375 Z" transform="translate(11 14)"/>
    <circle cx="22.5" cy="22.5" r="22.5" fill="#FF6072"/>
    <path fill="#FFF" d="M31.1183036,27.8950893 C31.1183036,28.281996 30.9828883,28.6108617 30.7120536,28.8816964 L28.7388393,30.8549107 C28.4680046,31.1257454 28.1391388,31.2611607 27.7522321,31.2611607 C27.3653254,31.2611607 27.0364597,31.1257454 26.765625,30.8549107 L22.5,26.5892857 L18.234375,30.8549107 C17.9635403,31.1257454 17.6346746,31.2611607 17.2477679,31.2611607 C16.8608612,31.2611607 16.5319954,31.1257454 16.2611607,30.8549107 L14.2879464,28.8816964 C14.0171117,28.6108617 13.8816964,28.281996 13.8816964,27.8950893 C13.8816964,27.5081826 14.0171117,27.1793168 14.2879464,26.9084821 L18.5535714,22.6428571 L14.2879464,18.3772321 C14.0171117,18.1063975 13.8816964,17.7775317 13.8816964,17.390625 C13.8816964,17.0037183 14.0171117,16.6748525 14.2879464,16.4040179 L16.2611607,14.4308036 C16.5319954,14.1599689 16.8608612,14.0245536 17.2477679,14.0245536 C17.6346746,14.0245536 17.9635403,14.1599689 18.234375,14.4308036 L22.5,18.6964286 L26.765625,14.4308036 C27.0364597,14.1599689 27.3653254,14.0245536 27.7522321,14.0245536 C28.1391388,14.0245536 28.4680046,14.1599689 28.7388393,14.4308036 L30.7120536,16.4040179 C30.9828883,16.6748525 31.1183036,17.0037183 31.1183036,17.390625 C31.1183036,17.7775317 30.9828883,18.1063975 30.7120536,18.3772321 L26.4464286,22.6428571 L30.7120536,26.9084821 C30.9828883,27.1793168 31.1183036,27.5081826 31.1183036,27.8950893 Z"/>
  </g>
</svg>
