<svg xmlns="http://www.w3.org/2000/svg" xmlns:xlink="http://www.w3.org/1999/xlink" width="265" height="165" viewBox="0 0 265 165">
  <defs>
    <rect id="addressfields-a" width="261.578" height="49" x="2.422" y="46"/>
    <rect id="addressfields-b" width="261.578" height="49" x="2.422" y="116"/>
  </defs>
  <g fill="none" fill-rule="evenodd">
    <use fill="#F8F8F8" xlink:href="#addressfields-a"/>
    <rect width="256.578" height="44" x="4.922" y="48.5" stroke="#979797" stroke-width="5"/>
    <use fill="#F8F8F8" xlink:href="#addressfields-b"/>
    <rect width="256.578" height="44" x="4.922" y="118.5" stroke="#979797" stroke-width="5"/>
    <path fill="#0B0C0C" d="M15.0488281,19.953125 L5.15234375,19.953125 L3.39453125,26 L0.107421875,26 L7.9296875,0.79296875 L12.3945312,0.79296875 L20.2695312,26 L16.859375,26 L15.0488281,19.953125 Z M5.90820312,17.3164062 L14.2929687,17.3164062 L10.2324219,3.5703125 L9.95117187,3.5703125 L5.90820312,17.3164062 Z M35.9316406,23.9433594 C35.4042942,24.6816443 34.686528,25.267576 33.7783203,25.7011719 C32.8701126,26.1347678 31.8359433,26.3515625 30.6757812,26.3515625 C29.5156192,26.3515625 28.4668016,26.1201195 27.5292969,25.6572266 C26.5917922,25.1943336 25.7890658,24.5498088 25.1210937,23.7236328 C24.4531217,22.8974568 23.9404315,21.9160213 23.5830078,20.7792969 C23.2255842,19.6425724 23.046875,18.394538 23.046875,17.0351562 C23.046875,15.6757745 23.2255842,14.4248104 23.5830078,13.2822266 C23.9404315,12.1396427 24.4531217,11.1523479 25.1210937,10.3203125 C25.7890658,9.48827709 26.5917922,8.84082263 27.5292969,8.37792969 C28.4668016,7.91503675 29.5156192,7.68359375 30.6757812,7.68359375 C31.8359433,7.68359375 32.8701126,7.90038846 33.7783203,8.33398438 C34.686528,8.76758029 35.4042942,9.35351193 35.9316406,10.0917969 L35.9316406,0.79296875 L38.8847656,0.79296875 L38.8847656,26 L35.9316406,26 L35.9316406,23.9433594 Z M26.1054688,17.1054688 C26.1054688,18.0429734 26.2167958,18.9160116 26.4394531,19.7246094 C26.6621105,20.5332072 26.9902322,21.2333955 27.4238281,21.8251953 C27.857424,22.4169951 28.3906218,22.8828108 29.0234375,23.2226562 C29.6562532,23.5625017 30.3886677,23.7324219 31.2207031,23.7324219 C32.0058633,23.7324219 32.694333,23.5976576 33.2861328,23.328125 C33.8779326,23.0585924 34.3730449,22.6894555 34.7714844,22.2207031 C35.1699239,21.7519508 35.468749,21.1982454 35.6679688,20.5595703 C35.8671885,19.9208952 35.9667969,19.2265663 35.9667969,18.4765625 L35.9667969,15.5585938 C35.9667969,14.80859 35.8671885,14.114261 35.6679688,13.4755859 C35.468749,12.8369109 35.1699239,12.2832055 34.7714844,11.8144531 C34.3730449,11.3457008 33.8779326,10.9765638 33.2861328,10.7070312 C32.694333,10.4374987 32.0058633,10.3027344 31.2207031,10.3027344 C30.3886677,10.3027344 29.6562532,10.4726546 29.0234375,10.8125 C28.3906218,11.1523454 27.857424,11.6181611 27.4238281,12.2099609 C26.9902322,12.8017608 26.6621105,13.5019491 26.4394531,14.3105469 C26.2167958,15.1191447 26.1054688,15.9921828 26.1054688,16.9296875 L26.1054688,17.1054688 Z M56.1289062,23.9433594 C55.6015599,24.6816443 54.8837936,25.267576 53.9755859,25.7011719 C53.0673783,26.1347678 52.0332089,26.3515625 50.8730469,26.3515625 C49.7128848,26.3515625 48.6640672,26.1201195 47.7265625,25.6572266 C46.7890578,25.1943336 45.9863315,24.5498088 45.3183594,23.7236328 C44.6503873,22.8974568 44.1376971,21.9160213 43.7802734,20.7792969 C43.4228498,19.6425724 43.2441406,18.394538 43.2441406,17.0351562 C43.2441406,15.6757745 43.4228498,14.4248104 43.7802734,13.2822266 C44.1376971,12.1396427 44.6503873,11.1523479 45.3183594,10.3203125 C45.9863315,9.48827709 46.7890578,8.84082263 47.7265625,8.37792969 C48.6640672,7.91503675 49.7128848,7.68359375 50.8730469,7.68359375 C52.0332089,7.68359375 53.0673783,7.90038846 53.9755859,8.33398438 C54.8837936,8.76758029 55.6015599,9.35351193 56.1289062,10.0917969 L56.1289062,0.79296875 L59.0820312,0.79296875 L59.0820312,26 L56.1289062,26 L56.1289062,23.9433594 Z M46.3027344,17.1054688 C46.3027344,18.0429734 46.4140614,18.9160116 46.6367187,19.7246094 C46.8593761,20.5332072 47.1874978,21.2333955 47.6210937,21.8251953 C48.0546897,22.4169951 48.5878875,22.8828108 49.2207031,23.2226562 C49.8535188,23.5625017 50.5859333,23.7324219 51.4179687,23.7324219 C52.2031289,23.7324219 52.8915986,23.5976576 53.4833984,23.328125 C54.0751983,23.0585924 54.5703105,22.6894555 54.96875,22.2207031 C55.3671895,21.7519508 55.6660146,21.1982454 55.8652344,20.5595703 C56.0644541,19.9208952 56.1640625,19.2265663 56.1640625,18.4765625 L56.1640625,15.5585938 C56.1640625,14.80859 56.0644541,14.114261 55.8652344,13.4755859 C55.6660146,12.8369109 55.3671895,12.2832055 54.96875,11.8144531 C54.5703105,11.3457008 54.0751983,10.9765638 53.4833984,10.7070312 C52.8915986,10.4374987 52.2031289,10.3027344 51.4179687,10.3027344 C50.5859333,10.3027344 49.8535188,10.4726546 49.2207031,10.8125 C48.5878875,11.1523454 48.0546897,11.6181611 47.6210937,12.2099609 C47.1874978,12.8017608 46.8593761,13.5019491 46.6367187,14.3105469 C46.4140614,15.1191447 46.3027344,15.9921828 46.3027344,16.9296875 L46.3027344,17.1054688 Z M73.671875,10.671875 L73.1972656,10.671875 C72.4355431,10.671875 71.7089878,10.7597647 71.0175781,10.9355469 C70.3261684,11.111329 69.7167995,11.4277321 69.1894531,11.8847656 C68.6621067,12.3417992 68.240236,12.9658164 67.9238281,13.7568359 C67.6074203,14.5478555 67.4492188,15.5585876 67.4492188,16.7890625 L67.4492188,26 L64.4960938,26 L64.4960938,8.03515625 L67.4492188,8.03515625 L67.4492188,10.8828125 C67.6718761,10.3554661 67.9707013,9.89258012 68.3457031,9.49414062 C68.720705,9.09570113 69.1455054,8.76464976 69.6201172,8.50097656 C70.0947289,8.23730337 70.6044895,8.04101627 71.1494141,7.91210938 C71.6943387,7.78320248 72.2480441,7.71875 72.8105469,7.71875 L73.671875,7.71875 L73.671875,10.671875 Z M79.1386719,17.9316406 C79.1972659,18.7753948 79.3671861,19.5546839 79.6484375,20.2695312 C79.9296889,20.9843786 80.3134741,21.6025365 80.7998047,22.1240234 C81.2861352,22.6455104 81.8603483,23.0498033 82.5224609,23.3369141 C83.1845736,23.6240249 83.9199178,23.7675781 84.7285156,23.7675781 C85.7246144,23.7675781 86.6005822,23.6005876 87.3564453,23.2666016 C88.1123085,22.9326155 88.8066375,22.5136744 89.4394531,22.0097656 L90.9511719,24.1367188 C90.1425741,24.7812532 89.2080131,25.3115214 88.1474609,25.7275391 C87.0869088,26.1435568 85.9003972,26.3515625 84.5878906,26.3515625 C83.2871029,26.3515625 82.1093803,26.1201195 81.0546875,25.6572266 C79.9999947,25.1943336 79.1005897,24.5498088 78.3564453,23.7236328 C77.612301,22.8974568 77.0410176,21.9130917 76.6425781,20.7705078 C76.2441386,19.627924 76.0449219,18.3828192 76.0449219,17.0351562 C76.0449219,15.6640556 76.241209,14.4072323 76.6337891,13.2646484 C77.0263692,12.1220646 77.5800746,11.1376994 78.2949219,10.3115234 C79.0097692,9.48534743 79.8652294,8.84082263 80.8613281,8.37792969 C81.8574269,7.91503675 82.9648377,7.68359375 84.1835937,7.68359375 C85.3671934,7.68359375 86.433589,7.91503675 87.3828125,8.37792969 C88.332036,8.84082263 89.1406217,9.48534743 89.8085937,10.3115234 C90.4765658,11.1376994 90.989256,12.1220646 91.3466797,13.2646484 C91.7041033,14.4072323 91.8828125,15.652337 91.8828125,17 L91.8828125,17.9316406 L79.1386719,17.9316406 Z M84.078125,10.2675781 C83.3281212,10.2675781 82.6601592,10.414061 82.0742187,10.7070312 C81.4882783,11.0000015 80.9873068,11.3925757 80.5712891,11.8847656 C80.1552714,12.3769556 79.8271496,12.9423796 79.5869141,13.5810547 C79.3466785,14.2197298 79.2089846,14.8789029 79.1738281,15.5585938 L88.6835937,15.5585938 C88.6601561,14.867184 88.5400401,14.2021516 88.3232422,13.5634766 C88.1064442,12.9248015 87.8017598,12.3623071 87.4091797,11.8759766 C87.0165996,11.389646 86.541995,11.0000015 85.9853516,10.7070312 C85.4287082,10.414061 84.7929723,10.2675781 84.078125,10.2675781 Z M108.019531,21.0253906 C108.019531,21.8691448 107.834963,22.622067 107.46582,23.2841797 C107.096678,23.9462924 106.607425,24.5058571 105.998047,24.9628906 C105.388669,25.4199242 104.688481,25.7656238 103.897461,26 C103.106441,26.2343762 102.294926,26.3515625 101.462891,26.3515625 C100.150384,26.3515625 98.8877014,26.1259788 97.6748047,25.6748047 C96.461908,25.2236306 95.3867234,24.5761761 94.4492187,23.7324219 L96.0664062,21.640625 C96.3476577,21.88672 96.6728497,22.1445299 97.0419922,22.4140625 C97.4111347,22.6835951 97.8242165,22.932616 98.28125,23.1611328 C98.7382835,23.3896496 99.2304661,23.5771477 99.7578125,23.7236328 C100.285159,23.8701179 100.841794,23.9433594 101.427734,23.9433594 C101.908206,23.9433594 102.368162,23.8818366 102.807617,23.7587891 C103.247073,23.6357416 103.630858,23.4541028 103.958984,23.2138672 C104.287111,22.9736316 104.547851,22.6865251 104.741211,22.3525391 C104.934571,22.018553 105.03125,21.6406271 105.03125,21.21875 C105.03125,20.7499977 104.928712,20.3574235 104.723633,20.0410156 C104.518554,19.7246078 104.240236,19.4550792 103.888672,19.2324219 C103.537108,19.0097645 103.126955,18.8164071 102.658203,18.6523438 C102.189451,18.4882804 101.697268,18.3242196 101.181641,18.1601562 L100.056641,17.7910156 C99.423825,17.5800771 98.8144561,17.3398451 98.2285156,17.0703125 C97.6425752,16.8007799 97.1240257,16.4697285 96.6728516,16.0771484 C96.2216774,15.6845683 95.8642591,15.2187527 95.6005859,14.6796875 C95.3369127,14.1406223 95.2050781,13.4960975 95.2050781,12.7460938 C95.2050781,12.1367157 95.3339831,11.5302765 95.5917969,10.9267578 C95.8496107,10.3232392 96.2451145,9.7812524 96.7783203,9.30078125 C97.3115261,8.8203101 97.9882771,8.43066556 98.8085937,8.13183594 C99.6289104,7.83300632 100.595698,7.68359375 101.708984,7.68359375 C102.939459,7.68359375 104.079096,7.88866982 105.12793,8.29882812 C106.176763,8.70898643 107.064449,9.21874695 107.791016,9.828125 L106.244141,11.9550781 C105.986327,11.7089831 105.681642,11.4746105 105.330078,11.2519531 C104.978514,11.0292958 104.603518,10.8330087 104.205078,10.6630859 C103.806639,10.4931632 103.390627,10.3554693 102.957031,10.25 C102.523435,10.1445307 102.095705,10.0917969 101.673828,10.0917969 C101.029294,10.0917969 100.484377,10.1650383 100.039062,10.3115234 C99.5937478,10.4580085 99.2363295,10.6484363 98.9667969,10.8828125 C98.6972643,11.1171887 98.5009772,11.3808579 98.3779297,11.6738281 C98.2548822,11.9667983 98.1933594,12.2539048 98.1933594,12.5351562 C98.1933594,12.9453146 98.2812491,13.2880846 98.4570312,13.5634766 C98.6328134,13.8388686 98.8642564,14.0761709 99.1513672,14.2753906 C99.438478,14.4746104 99.7665997,14.6445305 100.135742,14.7851562 C100.504885,14.925782 100.88867,15.0664055 101.287109,15.2070312 L102.763672,15.6992188 C103.4668,15.9335949 104.111325,16.1826159 104.697266,16.4462891 C105.283206,16.7099623 105.798826,17.0117171 106.244141,17.3515625 C106.806643,17.7968772 107.243163,18.3124971 107.553711,18.8984375 C107.864259,19.4843779 108.019531,20.1933552 108.019531,21.0253906 Z M124.578125,21.0253906 C124.578125,21.8691448 124.393557,22.622067 124.024414,23.2841797 C123.655272,23.9462924 123.166019,24.5058571 122.556641,24.9628906 C121.947263,25.4199242 121.247074,25.7656238 120.456055,26 C119.665035,26.2343762 118.85352,26.3515625 118.021484,26.3515625 C116.708978,26.3515625 115.446295,26.1259788 114.233398,25.6748047 C113.020502,25.2236306 111.945317,24.5761761 111.007812,23.7324219 L112.625,21.640625 C112.906251,21.88672 113.231443,22.1445299 113.600586,22.4140625 C113.969728,22.6835951 114.38281,22.932616 114.839844,23.1611328 C115.296877,23.3896496 115.78906,23.5771477 116.316406,23.7236328 C116.843753,23.8701179 117.400388,23.9433594 117.986328,23.9433594 C118.466799,23.9433594 118.926756,23.8818366 119.366211,23.7587891 C119.805666,23.6357416 120.189451,23.4541028 120.517578,23.2138672 C120.845705,22.9736316 121.106444,22.6865251 121.299805,22.3525391 C121.493165,22.018553 121.589844,21.6406271 121.589844,21.21875 C121.589844,20.7499977 121.487306,20.3574235 121.282227,20.0410156 C121.077147,19.7246078 120.79883,19.4550792 120.447266,19.2324219 C120.095701,19.0097645 119.685549,18.8164071 119.216797,18.6523438 C118.748045,18.4882804 118.255862,18.3242196 117.740234,18.1601562 L116.615234,17.7910156 C115.982419,17.5800771 115.37305,17.3398451 114.787109,17.0703125 C114.201169,16.8007799 113.682619,16.4697285 113.231445,16.0771484 C112.780271,15.6845683 112.422853,15.2187527 112.15918,14.6796875 C111.895506,14.1406223 111.763672,13.4960975 111.763672,12.7460938 C111.763672,12.1367157 111.892577,11.5302765 112.150391,10.9267578 C112.408204,10.3232392 112.803708,9.7812524 113.336914,9.30078125 C113.87012,8.8203101 114.546871,8.43066556 115.367187,8.13183594 C116.187504,7.83300632 117.154291,7.68359375 118.267578,7.68359375 C119.498053,7.68359375 120.63769,7.88866982 121.686523,8.29882812 C122.735357,8.70898643 123.623043,9.21874695 124.349609,9.828125 L122.802734,11.9550781 C122.544921,11.7089831 122.240236,11.4746105 121.888672,11.2519531 C121.537108,11.0292958 121.162111,10.8330087 120.763672,10.6630859 C120.365232,10.4931632 119.949221,10.3554693 119.515625,10.25 C119.082029,10.1445307 118.654299,10.0917969 118.232422,10.0917969 C117.587887,10.0917969 117.042971,10.1650383 116.597656,10.3115234 C116.152342,10.4580085 115.794923,10.6484363 115.525391,10.8828125 C115.255858,11.1171887 115.059571,11.3808579 114.936523,11.6738281 C114.813476,11.9667983 114.751953,12.2539048 114.751953,12.5351562 C114.751953,12.9453146 114.839843,13.2880846 115.015625,13.5634766 C115.191407,13.8388686 115.42285,14.0761709 115.709961,14.2753906 C115.997072,14.4746104 116.325193,14.6445305 116.694336,14.7851562 C117.063478,14.925782 117.447264,15.0664055 117.845703,15.2070312 L119.322266,15.6992188 C120.025394,15.9335949 120.669919,16.1826159 121.255859,16.4462891 C121.8418,16.7099623 122.35742,17.0117171 122.802734,17.3515625 C123.365237,17.7968772 123.801756,18.3124971 124.112305,18.8984375 C124.422853,19.4843779 124.578125,20.1933552 124.578125,21.0253906 Z"/>
  </g>
</svg>
