<svg xmlns="http://www.w3.org/2000/svg" width="344" height="253" viewBox="0 0 344 253">
  <g fill="none" fill-rule="evenodd">
    <rect width="140.156" height="60.037" y="3" fill="#FFBF47" rx="8"/>
    <rect width="164.078" height="60.037" x="144" y="66" fill="#BD9E5F" rx="8"/>
    <rect width="164.078" height="60.037" x="144" y="129" fill="#F47738" rx="8"/>
    <rect width="164.078" height="60.037" x="144" y="192" fill="#BD9E5F" rx="8"/>
    <rect width="140.156" height="60.037" y="65.725" fill="#FFBF47" rx="8"/>
    <rect width="140.156" height="60.037" y="128.45" fill="#FFBF47" rx="8"/>
    <rect width="140.156" height="60.037" y="65.725" fill="#6F777B" opacity=".464" rx="8"/>
    <path fill="#0B0C0C" d="M335.225446,205.488839 C336.378726,206.604916 336.63914,207.888386 336.006696,209.339286 C335.374253,210.827388 334.276794,211.571429 332.714286,211.571429 L311.397321,211.571429 L322.613839,238.133929 C322.985865,239.063993 322.985865,239.975442 322.613839,240.868304 C322.241814,241.761165 321.609379,242.4122 320.716518,242.821429 L310.839286,247.006696 C309.909222,247.378722 308.997772,247.378722 308.104911,247.006696 C307.212049,246.634671 306.561014,246.002237 306.151786,245.109375 L295.493304,219.886161 L278.082589,237.296875 C277.375741,238.003724 276.538695,238.357143 275.571429,238.357143 C275.124998,238.357143 274.678574,238.264138 274.232143,238.078125 C272.74404,237.445681 272,236.348222 272,234.785714 L272,150.857143 C272,149.294635 272.74404,148.197176 274.232143,147.564732 C274.678574,147.378719 275.124998,147.285714 275.571429,147.285714 C276.575898,147.285714 277.412943,147.639133 278.082589,148.345982 L335.225446,205.488839 Z"/>
    <text fill="#0B0C0C" font-family="HelveticaNeue-Bold, Helvetica Neue" font-size="48" font-weight="bold">
      <tspan x="24" y="47">1</tspan> <tspan x="24" y="108">2</tspan> <tspan x="24" y="169">3</tspan>
    </text>
    <text fill="#0B0C0C" font-family="HelveticaNeue-Bold, Helvetica Neue" font-size="48" font-weight="bold">
      <tspan x="166" y="113">2a</tspan> <tspan x="166" y="174">2b</tspan> <tspan x="166" y="235">2c</tspan>
    </text>
  </g>
</svg>
