<svg xmlns="http://www.w3.org/2000/svg" width="362" height="163" viewBox="0 0 362 163">
  <g fill="none" fill-rule="evenodd" transform="translate(3 3)">
    <rect width="356" height="157" fill="#FFF" stroke="#F47738" stroke-width="5" rx="8"/>
    <path fill="#F47738" d="M65.8571429,100.890625 L65.8571429,93.6808036 C65.8571429,93.3266351 65.7369804,93.0293911 65.4966518,92.7890625 C65.2563232,92.5487339 64.9717278,92.4285714 64.6428571,92.4285714 L57.3571429,92.4285714 C57.0282722,92.4285714 56.7436768,92.5487339 56.5033482,92.7890625 C56.2630196,93.0293911 56.1428571,93.3266351 56.1428571,93.6808036 L56.1428571,100.890625 C56.1428571,101.244793 56.2630196,101.542037 56.5033482,101.782366 C56.7436768,102.022695 57.0282722,102.142857 57.3571429,102.142857 L64.6428571,102.142857 C64.9717278,102.142857 65.2563232,102.022695 65.4966518,101.782366 C65.7369804,101.542037 65.8571429,101.244793 65.8571429,100.890625 Z M65.78125,86.6986607 L66.4642857,69.28125 C66.4642857,68.9776771 66.3377989,68.7373521 66.0848214,68.5602679 C65.7559507,68.2819927 65.4523823,68.1428571 65.1741071,68.1428571 L56.8258929,68.1428571 C56.5476177,68.1428571 56.2440493,68.2819927 55.9151786,68.5602679 C55.6622011,68.7373521 55.5357143,69.0029744 55.5357143,69.3571429 L56.1808036,86.6986607 C56.1808036,86.9516382 56.3072904,87.1603414 56.5602679,87.3247768 C56.8132453,87.4892121 57.1168137,87.5714286 57.4709821,87.5714286 L64.4910714,87.5714286 C64.8452399,87.5714286 65.1424839,87.4892121 65.3828125,87.3247768 C65.6231411,87.1603414 65.7559523,86.9516382 65.78125,86.6986607 Z M65.25,51.2566964 L94.3928571,104.685268 C95.2782782,106.279026 95.2529809,107.87276 94.3169643,109.466518 C93.8869026,110.200152 93.2987389,110.781992 92.5524554,111.212054 C91.8061719,111.642115 91.0029805,111.857143 90.1428571,111.857143 L31.8571429,111.857143 C30.9970195,111.857143 30.1938281,111.642115 29.4475446,111.212054 C28.7012611,110.781992 28.1130974,110.200152 27.6830357,109.466518 C26.7470191,107.87276 26.7217218,106.279026 27.6071429,104.685268 L56.75,51.2566964 C57.1800617,50.4724663 57.7745498,49.8526808 58.5334821,49.3973214 C59.2924145,48.941962 60.1145789,48.7142857 61,48.7142857 C61.8854211,48.7142857 62.7075855,48.941962 63.4665179,49.3973214 C64.2254502,49.8526808 64.8199383,50.4724663 65.25,51.2566964 Z"/>
    <text fill="#0B0C0C" font-family="HelveticaNeue-Bold, Helvetica Neue" font-size="34" font-weight="bold">
      <tspan x="112" y="72">Your session</tspan> <tspan x="112" y="112">has timed out</tspan>
    </text>
  </g>
</svg>
