<svg xmlns="http://www.w3.org/2000/svg" width="282" height="188" viewBox="0 0 282 188">
  <g fill="none" fill-rule="evenodd">
    <rect width="128.189" height="156.252" x="14.473" y="2.765" fill="#FFF"/>
    <path fill="#0B0C0C" d="M84.9179537,170.016409 C84.9179537,167.716537 84.0776282,165.726292 82.3969519,164.045616 C80.7162757,162.364939 78.726031,161.524614 76.4261583,161.524614 C74.1262856,161.524614 72.1360409,162.364939 70.4553647,164.045616 C68.7746884,165.726292 67.9343629,167.716537 67.9343629,170.016409 C67.9343629,172.316282 68.7746884,174.306527 70.4553647,175.987203 C72.1360409,177.667879 74.1262856,178.508205 76.4261583,178.508205 C78.726031,178.508205 80.7162757,177.667879 82.3969519,175.987203 C84.0776282,174.306527 84.9179537,172.316282 84.9179537,170.016409 Z M135.868726,148.786921 L135.868726,21.4099903 C135.868726,20.260054 135.448563,19.2649317 134.608225,18.4245935 C133.767887,17.5842554 132.772765,17.1640927 131.622828,17.1640927 L21.2294884,17.1640927 C20.079552,17.1640927 19.0844297,17.5842554 18.2440916,18.4245935 C17.4037535,19.2649317 16.9835907,20.260054 16.9835907,21.4099903 L16.9835907,148.786921 C16.9835907,149.936857 17.4037535,150.93198 18.2440916,151.772318 C19.0844297,152.612656 20.079552,153.032819 21.2294884,153.032819 L131.622828,153.032819 C132.772765,153.032819 133.767887,152.612656 134.608225,151.772318 C135.448563,150.93198 135.868726,149.936857 135.868726,148.786921 Z M152.852317,21.4099903 L152.852317,165.770512 C152.852317,171.60865 150.773617,176.606376 146.616154,180.763838 C142.458692,184.9213 137.460967,187 131.622828,187 L21.2294884,187 C15.3913499,187 10.3936245,184.9213 6.23616222,180.763838 C2.07869995,176.606376 0,171.60865 0,165.770512 L0,21.4099903 C0,15.5718518 2.07869995,10.5741264 6.23616222,6.41666415 C10.3936245,2.25920188 15.3913499,0.180501931 21.2294884,0.180501931 L131.622828,0.180501931 C137.460967,0.180501931 142.458692,2.25920188 146.616154,6.41666415 C150.773617,10.5741264 152.852317,15.5718518 152.852317,21.4099903 Z"/>
    <rect width="103.378" height="47.6" x="24.811" y="25.391" fill="#FFBF47"/>
    <rect width="103.378" height="13.315" x="24.811" y="80.843" fill="#F47738"/>
    <rect width="103.378" height="13.315" x="24.811" y="102.37" fill="#F47738"/>
    <rect width="53.757" height="23.984" x="24.811" y="123.129" fill="#28A197"/>
    <path fill="#0B0C0C" d="M252.053571,118.785714 L254.357143,118.785714 L254.357143,72.7142857 L252.053571,72.7142857 C250.373876,72.7142857 248.754193,72.4263422 247.194475,71.8504464 C245.634758,71.2745507 244.135052,70.3867247 242.695312,69.186942 C241.255573,67.9871592 240.055808,66.8833756 239.095982,65.875558 C238.136156,64.8677405 236.960386,63.5719945 235.568638,61.9882813 C235.184708,61.5563594 234.896764,61.2204253 234.704799,60.9804688 C231.249425,57.0931725 228.561952,53.6138546 226.642299,50.5424107 C225.970421,49.4866019 225.0586,47.8549218 223.906808,45.6473214 C223.858817,45.5033475 223.606866,44.9634533 223.150949,44.0276228 C222.695031,43.0917922 222.251118,42.2279615 221.819196,41.4361049 C221.387275,40.6442483 220.907369,39.7924153 220.379464,38.8805804 C219.85156,37.9687454 219.335661,37.2368889 218.831752,36.6849888 C218.327843,36.1330888 217.88393,35.8571429 217.5,35.8571429 C214.092617,35.8571429 211.32116,36.5889994 209.185547,38.0527344 C207.049934,39.5164694 205.982143,41.8560107 205.982143,45.0714286 C205.982143,47.135055 206.342072,49.1626575 207.061942,51.1542969 C207.781812,53.1459363 208.573656,54.7776164 209.4375,56.0493862 C210.301344,57.3211559 211.093188,58.6408972 211.813058,60.0086496 C212.532928,61.3764019 212.892857,62.5401738 212.892857,63.5 L171.428571,63.5 C169.029006,63.5 166.893425,64.4238189 165.021763,66.2714844 C163.150102,68.1191499 162.214286,70.2667288 162.214286,72.7142857 C162.214286,75.2098339 163.126107,77.3694105 164.949777,79.1930804 C166.773447,81.0167502 168.933023,81.9285714 171.428571,81.9285714 L195.256138,81.9285714 C194.536269,82.7444237 193.936386,83.8842003 193.456473,85.3479353 C192.97656,86.8116703 192.736607,88.1434092 192.736607,89.343192 C192.736607,92.6545924 194.008358,95.5100326 196.551897,97.9095982 C195.688054,99.4453202 195.256138,101.100996 195.256138,102.876674 C195.256138,104.652353 195.676056,106.416007 196.515904,108.16769 C197.355752,109.919373 198.495529,111.179126 199.935268,111.946987 C199.743303,113.098778 199.647321,114.442515 199.647321,115.978237 C199.647321,120.057498 200.811093,123.080905 203.138672,125.048549 C205.46625,127.016193 208.717613,128 212.892857,128 C216.924127,128 221.315266,127.232151 226.066406,125.696429 C230.817546,124.160707 235.472633,122.625008 240.031808,121.089286 C244.590983,119.553564 248.598197,118.785714 252.053571,118.785714 Z M272.785714,114.178571 C272.785714,112.930797 272.329804,111.851009 271.417969,110.939174 C270.506134,110.027339 269.426346,109.571429 268.178571,109.571429 C266.930797,109.571429 265.851009,110.027339 264.939174,110.939174 C264.027339,111.851009 263.571429,112.930797 263.571429,114.178571 C263.571429,115.426346 264.027339,116.506134 264.939174,117.417969 C265.851009,118.329804 266.930797,118.785714 268.178571,118.785714 C269.426346,118.785714 270.506134,118.329804 271.417969,117.417969 C272.329804,116.506134 272.785714,115.426346 272.785714,114.178571 Z M282,72.7142857 L282,118.785714 C282,121.329254 281.100176,123.500828 279.300502,125.300502 C277.500828,127.100176 275.329254,128 272.785714,128 L252.053571,128 C249.222084,128 243.871133,129.415722 236.000558,132.24721 C226.882209,135.55861 219.2757,137.214286 213.180804,137.214286 C206.366037,137.214286 200.847119,135.35465 196.623884,131.635324 C192.400649,127.915997 190.313058,122.69702 190.361049,115.978237 L190.433036,115.618304 C187.505566,111.970964 186.041853,107.699801 186.041853,102.804688 C186.041853,101.748879 186.113839,100.717081 186.257812,99.7092634 C184.674099,96.9737586 183.786273,94.1183184 183.594308,91.1428571 L171.428571,91.1428571 C166.389484,91.1428571 162.058333,89.3192147 158.434989,85.671875 C154.811645,82.0245353 153,77.6813868 153,72.6422991 C153,67.699194 154.823642,63.4040361 158.470982,59.7566964 C162.118322,56.1093568 166.437475,54.2857143 171.428571,54.2857143 L198.351562,54.2857143 C197.295754,51.4062356 196.767857,48.3348377 196.767857,45.0714286 C196.767857,39.2164886 198.723474,34.6813777 202.634766,31.4659598 C206.546058,28.250542 211.501086,26.6428571 217.5,26.6428571 C219.32367,26.6428571 220.991343,27.0627748 222.503069,27.9026228 C224.014796,28.7424707 225.334537,29.9302379 226.462333,31.4659598 C227.590128,33.0016818 228.561938,34.5133854 229.37779,36.0011161 C230.193642,37.4888467 231.081468,39.216508 232.041295,41.1841518 C233.001121,43.1517956 233.792966,44.6395039 234.416853,45.6473214 C236.096549,48.2868436 238.496078,51.3822367 241.615513,54.9335938 C241.711496,55.0775677 242.04743,55.4854877 242.623326,56.1573661 C243.199222,56.8292444 243.655132,57.3451433 243.991071,57.7050781 C244.327011,58.065013 244.818914,58.5809118 245.466797,59.2527902 C246.11468,59.9246685 246.690567,60.4645627 247.194475,60.8724888 C247.698384,61.280415 248.238278,61.7123303 248.814174,62.1682478 C249.39007,62.6241652 249.953959,62.9600994 250.505859,63.1760603 C251.057759,63.3920212 251.573658,63.5 252.053571,63.5 L272.785714,63.5 C275.329254,63.5 277.500828,64.3998236 279.300502,66.1994978 C281.100176,67.9991719 282,70.1707462 282,72.7142857 Z"/>
  </g>
</svg>
