<?xml version="1.0" encoding="UTF-8" standalone="no"?>
<svg width="248px" height="37px" viewBox="0 0 248 37" version="1.1" xmlns="http://www.w3.org/2000/svg" xmlns:xlink="http://www.w3.org/1999/xlink">
    <!-- Generator: Sketch 42 (36781) - http://www.bohemiancoding.com/sketch -->
    <title>screenreaders/descriptiveLink</title>
    <desc>Created with Sketch.</desc>
    <defs></defs>
    <g id="Site-assets" stroke="none" stroke-width="1" fill="none" fill-rule="evenodd">
        <g id="Visually-impaired---screenreader" transform="translate(-470.000000, -2033.000000)" fill="#005EA5">
            <path d="M495.16,2046.248 L502.456,2046.248 C502.231999,2044.26399 501.688004,2042.50401 500.824,2040.968 C499.959996,2039.43199 498.864007,2038.14401 497.536,2037.104 C496.207993,2036.06399 494.704008,2035.272 493.024,2034.728 C491.343992,2034.184 489.560009,2033.912 487.672,2033.912 C485.047987,2033.912 482.68801,2034.376 480.592,2035.304 C478.49599,2036.232 476.728007,2037.51199 475.288,2039.144 C473.847993,2040.77601 472.744004,2042.68799 471.976,2044.88 C471.207996,2047.07201 470.824,2049.44799 470.824,2052.008 C470.824,2054.50401 471.207996,2056.83199 471.976,2058.992 C472.744004,2061.15201 473.847993,2063.03199 475.288,2064.632 C476.728007,2066.23201 478.49599,2067.488 480.592,2068.4 C482.68801,2069.312 485.047987,2069.768 487.672,2069.768 C489.784011,2069.768 491.719991,2069.448 493.48,2068.808 C495.240009,2068.168 496.775993,2067.24001 498.088,2066.024 C499.400007,2064.80799 500.455996,2063.33601 501.256,2061.608 C502.056004,2059.87999 502.551999,2057.94401 502.744,2055.8 L495.448,2055.8 C495.159999,2058.10401 494.368006,2059.95999 493.072,2061.368 C491.775994,2062.77601 489.976012,2063.48 487.672,2063.48 C485.975992,2063.48 484.536006,2063.152 483.352,2062.496 C482.167994,2061.84 481.208004,2060.96801 480.472,2059.88 C479.735996,2058.79199 479.200002,2057.56801 478.864,2056.208 C478.527998,2054.84799 478.36,2053.44801 478.36,2052.008 C478.36,2050.50399 478.527998,2049.04801 478.864,2047.64 C479.200002,2046.23199 479.735996,2044.97601 480.472,2043.872 C481.208004,2042.76799 482.167994,2041.888 483.352,2041.232 C484.536006,2040.576 485.975992,2040.248 487.672,2040.248 C488.600005,2040.248 489.487996,2040.4 490.336,2040.704 C491.184004,2041.008 491.943997,2041.432 492.616,2041.976 C493.288003,2042.52 493.847998,2043.152 494.296,2043.872 C494.744002,2044.592 495.031999,2045.384 495.16,2046.248 Z M513.208,2056.616 C513.208,2057.608 513.303999,2058.576 513.496,2059.52 C513.688001,2060.464 514.015998,2061.312 514.48,2062.064 C514.944002,2062.816 515.559996,2063.416 516.328,2063.864 C517.096004,2064.312 518.055994,2064.536 519.208,2064.536 C520.360006,2064.536 521.327996,2064.312 522.112,2063.864 C522.896004,2063.416 523.519998,2062.816 523.984,2062.064 C524.448002,2061.312 524.775999,2060.464 524.968,2059.52 C525.160001,2058.576 525.256,2057.608 525.256,2056.616 C525.256,2055.624 525.160001,2054.648 524.968,2053.688 C524.775999,2052.728 524.448002,2051.88 523.984,2051.144 C523.519998,2050.408 522.896004,2049.808 522.112,2049.344 C521.327996,2048.88 520.360006,2048.648 519.208,2048.648 C518.055994,2048.648 517.096004,2048.88 516.328,2049.344 C515.559996,2049.808 514.944002,2050.408 514.48,2051.144 C514.015998,2051.88 513.688001,2052.728 513.496,2053.688 C513.303999,2054.648 513.208,2055.624 513.208,2056.616 Z M506.392,2056.616 C506.392,2054.63199 506.695997,2052.83201 507.304,2051.216 C507.912003,2049.59999 508.775994,2048.22401 509.896,2047.088 C511.016006,2045.95199 512.359992,2045.072 513.928,2044.448 C515.496008,2043.824 517.25599,2043.512 519.208,2043.512 C521.16001,2043.512 522.927992,2043.824 524.512,2044.448 C526.096008,2045.072 527.447994,2045.95199 528.568,2047.088 C529.688006,2048.22401 530.551997,2049.59999 531.16,2051.216 C531.768003,2052.83201 532.072,2054.63199 532.072,2056.616 C532.072,2058.60001 531.768003,2060.39199 531.16,2061.992 C530.551997,2063.59201 529.688006,2064.95999 528.568,2066.096 C527.447994,2067.23201 526.096008,2068.104 524.512,2068.712 C522.927992,2069.32 521.16001,2069.624 519.208,2069.624 C517.25599,2069.624 515.496008,2069.32 513.928,2068.712 C512.359992,2068.104 511.016006,2067.23201 509.896,2066.096 C508.775994,2064.95999 507.912003,2063.59201 507.304,2061.992 C506.695997,2060.39199 506.392,2058.60001 506.392,2056.616 Z M536.488,2044.184 L536.488,2069 L543.304,2069 L543.304,2055.992 C543.304,2053.46399 543.719996,2051.64801 544.552,2050.544 C545.384004,2049.43999 546.727991,2048.888 548.584,2048.888 C550.216008,2048.888 551.351997,2049.39199 551.992,2050.4 C552.632003,2051.40801 552.952,2052.93599 552.952,2054.984 L552.952,2069 L559.768,2069 L559.768,2053.736 C559.768,2052.19999 559.632001,2050.80001 559.36,2049.536 C559.087999,2048.27199 558.616003,2047.2 557.944,2046.32 C557.271997,2045.44 556.352006,2044.752 555.184,2044.256 C554.015994,2043.76 552.520009,2043.512 550.696,2043.512 C549.255993,2043.512 547.848007,2043.84 546.472,2044.496 C545.095993,2045.152 543.976004,2046.19999 543.112,2047.64 L542.968,2047.64 L542.968,2044.184 L536.488,2044.184 Z M573.592,2044.184 L573.592,2036.744 L566.776,2036.744 L566.776,2044.184 L562.648,2044.184 L562.648,2048.744 L566.776,2048.744 L566.776,2063.384 C566.776,2064.63201 566.983998,2065.64 567.4,2066.408 C567.816002,2067.176 568.383996,2067.768 569.104,2068.184 C569.824004,2068.6 570.655995,2068.88 571.6,2069.024 C572.544005,2069.168 573.543995,2069.24 574.6,2069.24 C575.272003,2069.24 575.959996,2069.224 576.664,2069.192 C577.368004,2069.16 578.007997,2069.096 578.584,2069 L578.584,2063.72 C578.263998,2063.784 577.928002,2063.832 577.576,2063.864 C577.223998,2063.896 576.856002,2063.912 576.472,2063.912 C575.319994,2063.912 574.552002,2063.72 574.168,2063.336 C573.783998,2062.952 573.592,2062.18401 573.592,2061.032 L573.592,2048.744 L578.584,2048.744 L578.584,2044.184 L573.592,2044.184 Z M581.56,2051.816 C581.656,2050.21599 582.055996,2048.88801 582.76,2047.832 C583.464004,2046.77599 584.359995,2045.928 585.448,2045.288 C586.536005,2044.648 587.759993,2044.192 589.12,2043.92 C590.480007,2043.648 591.847993,2043.512 593.224,2043.512 C594.472006,2043.512 595.735994,2043.6 597.016,2043.776 C598.296006,2043.952 599.463995,2044.296 600.52,2044.808 C601.576005,2045.32 602.439997,2046.032 603.112,2046.944 C603.784003,2047.856 604.12,2049.06399 604.12,2050.568 L604.12,2063.48 C604.12,2064.60001 604.183999,2065.67199 604.312,2066.696 C604.440001,2067.72001 604.663998,2068.488 604.984,2069 L598.072,2069 C597.943999,2068.616 597.84,2068.224 597.76,2067.824 C597.68,2067.424 597.624,2067.016 597.592,2066.6 C596.503995,2067.72001 595.224007,2068.504 593.752,2068.952 C592.279993,2069.4 590.776008,2069.624 589.24,2069.624 C588.055994,2069.624 586.952005,2069.48 585.928,2069.192 C584.903995,2068.904 584.008004,2068.456 583.24,2067.848 C582.471996,2067.24 581.872002,2066.472 581.44,2065.544 C581.007998,2064.616 580.792,2063.51201 580.792,2062.232 C580.792,2060.82399 581.039998,2059.664 581.536,2058.752 C582.032002,2057.84 582.671996,2057.112 583.456,2056.568 C584.240004,2056.024 585.135995,2055.616 586.144,2055.344 C587.152005,2055.072 588.167995,2054.856 589.192,2054.696 C590.216005,2054.536 591.223995,2054.408 592.216,2054.312 C593.208005,2054.216 594.087996,2054.072 594.856,2053.88 C595.624004,2053.688 596.231998,2053.408 596.68,2053.04 C597.128002,2052.672 597.336,2052.136 597.304,2051.432 C597.304,2050.696 597.184001,2050.112 596.944,2049.68 C596.703999,2049.248 596.384002,2048.912 595.984,2048.672 C595.583998,2048.432 595.120003,2048.272 594.592,2048.192 C594.063997,2048.112 593.496003,2048.072 592.888,2048.072 C591.543993,2048.072 590.488004,2048.36 589.72,2048.936 C588.951996,2049.512 588.504001,2050.47199 588.376,2051.816 L581.56,2051.816 Z M597.304,2056.856 C597.015999,2057.112 596.656002,2057.312 596.224,2057.456 C595.791998,2057.6 595.328002,2057.72 594.832,2057.816 C594.335998,2057.912 593.816003,2057.992 593.272,2058.056 C592.727997,2058.12 592.184003,2058.2 591.64,2058.296 C591.127997,2058.392 590.624002,2058.52 590.128,2058.68 C589.631998,2058.84 589.200002,2059.056 588.832,2059.328 C588.463998,2059.6 588.168001,2059.944 587.944,2060.36 C587.719999,2060.776 587.608,2061.304 587.608,2061.944 C587.608,2062.552 587.719999,2063.064 587.944,2063.48 C588.168001,2063.896 588.471998,2064.224 588.856,2064.464 C589.240002,2064.704 589.687997,2064.872 590.2,2064.968 C590.712003,2065.064 591.239997,2065.112 591.784,2065.112 C593.128007,2065.112 594.167996,2064.888 594.904,2064.44 C595.640004,2063.992 596.183998,2063.456 596.536,2062.832 C596.888002,2062.208 597.104,2061.576 597.184,2060.936 C597.264,2060.296 597.304,2059.784 597.304,2059.4 L597.304,2056.856 Z M626.296,2052.92 L632.968,2052.92 C632.872,2051.31999 632.488003,2049.93601 631.816,2048.768 C631.143997,2047.59999 630.272005,2046.624 629.2,2045.84 C628.127995,2045.056 626.912007,2044.472 625.552,2044.088 C624.191993,2043.704 622.776007,2043.512 621.304,2043.512 C619.28799,2043.512 617.496008,2043.848 615.928,2044.52 C614.359992,2045.192 613.032005,2046.12799 611.944,2047.328 C610.855995,2048.52801 610.032003,2049.95199 609.472,2051.6 C608.911997,2053.24801 608.632,2055.03199 608.632,2056.952 C608.632,2058.80801 608.935997,2060.51199 609.544,2062.064 C610.152003,2063.61601 610.999995,2064.95199 612.088,2066.072 C613.176005,2067.19201 614.495992,2068.064 616.048,2068.688 C617.600008,2069.312 619.303991,2069.624 621.16,2069.624 C624.456016,2069.624 627.159989,2068.76001 629.272,2067.032 C631.384011,2065.30399 632.663998,2062.79202 633.112,2059.496 L626.536,2059.496 C626.311999,2061.03201 625.760004,2062.256 624.88,2063.168 C623.999996,2064.08 622.744008,2064.536 621.112,2064.536 C620.055995,2064.536 619.160004,2064.296 618.424,2063.816 C617.687996,2063.336 617.104002,2062.72 616.672,2061.968 C616.239998,2061.216 615.928001,2060.376 615.736,2059.448 C615.543999,2058.52 615.448,2057.608 615.448,2056.712 C615.448,2055.784 615.543999,2054.848 615.736,2053.904 C615.928001,2052.96 616.255998,2052.096 616.72,2051.312 C617.184002,2050.528 617.783996,2049.888 618.52,2049.392 C619.256004,2048.896 620.167995,2048.648 621.256,2048.648 C624.168015,2048.648 625.847998,2050.07199 626.296,2052.92 Z M645.592,2044.184 L645.592,2036.744 L638.776,2036.744 L638.776,2044.184 L634.648,2044.184 L634.648,2048.744 L638.776,2048.744 L638.776,2063.384 C638.776,2064.63201 638.983998,2065.64 639.4,2066.408 C639.816002,2067.176 640.383996,2067.768 641.104,2068.184 C641.824004,2068.6 642.655995,2068.88 643.6,2069.024 C644.544005,2069.168 645.543995,2069.24 646.6,2069.24 C647.272003,2069.24 647.959996,2069.224 648.664,2069.192 C649.368004,2069.16 650.007997,2069.096 650.584,2069 L650.584,2063.72 C650.263998,2063.784 649.928002,2063.832 649.576,2063.864 C649.223998,2063.896 648.856002,2063.912 648.472,2063.912 C647.319994,2063.912 646.552002,2063.72 646.168,2063.336 C645.783998,2062.952 645.592,2062.18401 645.592,2061.032 L645.592,2048.744 L650.584,2048.744 L650.584,2044.184 L645.592,2044.184 Z M690.472,2069 L690.472,2044.184 L683.656,2044.184 L683.656,2057.192 C683.656,2059.72001 683.240004,2061.53599 682.408,2062.64 C681.575996,2063.74401 680.232009,2064.296 678.376,2064.296 C676.743992,2064.296 675.608003,2063.79201 674.968,2062.784 C674.327997,2061.77599 674.008,2060.24801 674.008,2058.2 L674.008,2044.184 L667.192,2044.184 L667.192,2059.448 C667.192,2060.98401 667.327999,2062.38399 667.6,2063.648 C667.872001,2064.91201 668.343997,2065.984 669.016,2066.864 C669.688003,2067.744 670.607994,2068.424 671.776,2068.904 C672.944006,2069.384 674.439991,2069.624 676.264,2069.624 C677.704007,2069.624 679.111993,2069.304 680.488,2068.664 C681.864007,2068.024 682.983996,2066.98401 683.848,2065.544 L683.992,2065.544 L683.992,2069 L690.472,2069 Z M700.936,2060.936 L694.456,2060.936 C694.52,2062.60001 694.895997,2063.98399 695.584,2065.088 C696.272003,2066.19201 697.151995,2067.08 698.224,2067.752 C699.296005,2068.424 700.519993,2068.904 701.896,2069.192 C703.272007,2069.48 704.679993,2069.624 706.12,2069.624 C707.528007,2069.624 708.911993,2069.488 710.272,2069.216 C711.632007,2068.944 712.839995,2068.472 713.896,2067.8 C714.952005,2067.128 715.807997,2066.24001 716.464,2065.136 C717.120003,2064.03199 717.448,2062.66401 717.448,2061.032 C717.448,2059.87999 717.224002,2058.912 716.776,2058.128 C716.327998,2057.344 715.736004,2056.688 715,2056.16 C714.263996,2055.632 713.424005,2055.208 712.48,2054.888 C711.535995,2054.568 710.568005,2054.296 709.576,2054.072 C708.615995,2053.848 707.672005,2053.64 706.744,2053.448 C705.815995,2053.256 704.992004,2053.04 704.272,2052.8 C703.551996,2052.56 702.968002,2052.248 702.52,2051.864 C702.071998,2051.48 701.848,2050.984 701.848,2050.376 C701.848,2049.864 701.975999,2049.456 702.232,2049.152 C702.488001,2048.848 702.799998,2048.616 703.168,2048.456 C703.536002,2048.296 703.943998,2048.192 704.392,2048.144 C704.840002,2048.096 705.255998,2048.072 705.64,2048.072 C706.856006,2048.072 707.911996,2048.304 708.808,2048.768 C709.704004,2049.232 710.2,2050.11999 710.296,2051.432 L716.776,2051.432 C716.647999,2049.89599 716.256003,2048.62401 715.6,2047.616 C714.943997,2046.60799 714.120005,2045.8 713.128,2045.192 C712.135995,2044.584 711.008006,2044.152 709.744,2043.896 C708.479994,2043.64 707.176007,2043.512 705.832,2043.512 C704.487993,2043.512 703.176006,2043.632 701.896,2043.872 C700.615994,2044.112 699.464005,2044.528 698.44,2045.12 C697.415995,2045.712 696.592003,2046.51999 695.968,2047.544 C695.343997,2048.56801 695.032,2049.87999 695.032,2051.48 C695.032,2052.56801 695.255998,2053.488 695.704,2054.24 C696.152002,2054.992 696.743996,2055.616 697.48,2056.112 C698.216004,2056.608 699.055995,2057.008 700,2057.312 C700.944005,2057.616 701.911995,2057.88 702.904,2058.104 C705.336012,2058.616 707.231993,2059.128 708.592,2059.64 C709.952007,2060.152 710.632,2060.91999 710.632,2061.944 C710.632,2062.552 710.488001,2063.056 710.2,2063.456 C709.911999,2063.856 709.552002,2064.176 709.12,2064.416 C708.687998,2064.656 708.208003,2064.832 707.68,2064.944 C707.151997,2065.056 706.648002,2065.112 706.168,2065.112 C705.495997,2065.112 704.848003,2065.032 704.224,2064.872 C703.599997,2064.712 703.048002,2064.464 702.568,2064.128 C702.087998,2063.792 701.696002,2063.36 701.392,2062.832 C701.087998,2062.304 700.936,2061.672 700.936,2060.936 Z" id="screenreaders/descriptiveLink"></path>
        </g>
    </g>
</svg>