<?xml version="1.0" encoding="UTF-8" standalone="no"?>
<svg width="215px" height="129px" viewBox="0 0 215 129" version="1.1" xmlns="http://www.w3.org/2000/svg" xmlns:xlink="http://www.w3.org/1999/xlink">
    <!-- Generator: Sketch 42 (36781) - http://www.bohemiancoding.com/sketch -->
    <title>screenreaders/keyboard</title>
    <desc>Created with Sketch.</desc>
    <defs></defs>
    <g id="Site-assets" stroke="none" stroke-width="1" fill="none" fill-rule="evenodd">
        <g id="Visually-impaired---screenreader" transform="translate(-502.000000, -1708.000000)">
            <g id="screenreaders/keyboard" transform="translate(502.000000, 1708.000000)">
                <rect id="Rectangle-81" fill="#FFFFFF" x="14" y="15" width="198" height="101"></rect>
                <path d="M42.8571429,87.9285714 L42.8571429,98.6428571 C42.8571429,99.8333393 42.2619107,100.428571 41.0714286,100.428571 L30.3571429,100.428571 C29.1666607,100.428571 28.5714286,99.8333393 28.5714286,98.6428571 L28.5714286,87.9285714 C28.5714286,86.7380893 29.1666607,86.1428571 30.3571429,86.1428571 L41.0714286,86.1428571 C42.2619107,86.1428571 42.8571429,86.7380893 42.8571429,87.9285714 Z M57.1428571,59.3571429 L57.1428571,70.0714286 C57.1428571,71.2619107 56.547625,71.8571429 55.3571429,71.8571429 L30.3571429,71.8571429 C29.1666607,71.8571429 28.5714286,71.2619107 28.5714286,70.0714286 L28.5714286,59.3571429 C28.5714286,58.1666607 29.1666607,57.5714286 30.3571429,57.5714286 L55.3571429,57.5714286 C56.547625,57.5714286 57.1428571,58.1666607 57.1428571,59.3571429 Z M42.8571429,30.7857143 L42.8571429,41.5 C42.8571429,42.6904821 42.2619107,43.2857143 41.0714286,43.2857143 L30.3571429,43.2857143 C29.1666607,43.2857143 28.5714286,42.6904821 28.5714286,41.5 L28.5714286,30.7857143 C28.5714286,29.5952321 29.1666607,29 30.3571429,29 L41.0714286,29 C42.2619107,29 42.8571429,29.5952321 42.8571429,30.7857143 Z M157.142857,87.9285714 L157.142857,98.6428571 C157.142857,99.8333393 156.547625,100.428571 155.357143,100.428571 L58.9285714,100.428571 C57.7380893,100.428571 57.1428571,99.8333393 57.1428571,98.6428571 L57.1428571,87.9285714 C57.1428571,86.7380893 57.7380893,86.1428571 58.9285714,86.1428571 L155.357143,86.1428571 C156.547625,86.1428571 157.142857,86.7380893 157.142857,87.9285714 Z M85.7142857,59.3571429 L85.7142857,70.0714286 C85.7142857,71.2619107 85.1190536,71.8571429 83.9285714,71.8571429 L73.2142857,71.8571429 C72.0238036,71.8571429 71.4285714,71.2619107 71.4285714,70.0714286 L71.4285714,59.3571429 C71.4285714,58.1666607 72.0238036,57.5714286 73.2142857,57.5714286 L83.9285714,57.5714286 C85.1190536,57.5714286 85.7142857,58.1666607 85.7142857,59.3571429 Z M71.4285714,30.7857143 L71.4285714,41.5 C71.4285714,42.6904821 70.8333393,43.2857143 69.6428571,43.2857143 L58.9285714,43.2857143 C57.7380893,43.2857143 57.1428571,42.6904821 57.1428571,41.5 L57.1428571,30.7857143 C57.1428571,29.5952321 57.7380893,29 58.9285714,29 L69.6428571,29 C70.8333393,29 71.4285714,29.5952321 71.4285714,30.7857143 Z M114.285714,59.3571429 L114.285714,70.0714286 C114.285714,71.2619107 113.690482,71.8571429 112.5,71.8571429 L101.785714,71.8571429 C100.595232,71.8571429 100,71.2619107 100,70.0714286 L100,59.3571429 C100,58.1666607 100.595232,57.5714286 101.785714,57.5714286 L112.5,57.5714286 C113.690482,57.5714286 114.285714,58.1666607 114.285714,59.3571429 Z M100,30.7857143 L100,41.5 C100,42.6904821 99.4047679,43.2857143 98.2142857,43.2857143 L87.5,43.2857143 C86.3095179,43.2857143 85.7142857,42.6904821 85.7142857,41.5 L85.7142857,30.7857143 C85.7142857,29.5952321 86.3095179,29 87.5,29 L98.2142857,29 C99.4047679,29 100,29.5952321 100,30.7857143 Z M142.857143,59.3571429 L142.857143,70.0714286 C142.857143,71.2619107 142.261911,71.8571429 141.071429,71.8571429 L130.357143,71.8571429 C129.166661,71.8571429 128.571429,71.2619107 128.571429,70.0714286 L128.571429,59.3571429 C128.571429,58.1666607 129.166661,57.5714286 130.357143,57.5714286 L141.071429,57.5714286 C142.261911,57.5714286 142.857143,58.1666607 142.857143,59.3571429 Z M185.714286,87.9285714 L185.714286,98.6428571 C185.714286,99.8333393 185.119054,100.428571 183.928571,100.428571 L173.214286,100.428571 C172.023804,100.428571 171.428571,99.8333393 171.428571,98.6428571 L171.428571,87.9285714 C171.428571,86.7380893 172.023804,86.1428571 173.214286,86.1428571 L183.928571,86.1428571 C185.119054,86.1428571 185.714286,86.7380893 185.714286,87.9285714 Z M128.571429,30.7857143 L128.571429,41.5 C128.571429,42.6904821 127.976196,43.2857143 126.785714,43.2857143 L116.071429,43.2857143 C114.880946,43.2857143 114.285714,42.6904821 114.285714,41.5 L114.285714,30.7857143 C114.285714,29.5952321 114.880946,29 116.071429,29 L126.785714,29 C127.976196,29 128.571429,29.5952321 128.571429,30.7857143 Z M157.142857,30.7857143 L157.142857,41.5 C157.142857,42.6904821 156.547625,43.2857143 155.357143,43.2857143 L144.642857,43.2857143 C143.452375,43.2857143 142.857143,42.6904821 142.857143,41.5 L142.857143,30.7857143 C142.857143,29.5952321 143.452375,29 144.642857,29 L155.357143,29 C156.547625,29 157.142857,29.5952321 157.142857,30.7857143 Z M185.714286,30.7857143 L185.714286,70.0714286 C185.714286,71.2619107 185.119054,71.8571429 183.928571,71.8571429 L158.928571,71.8571429 C157.738089,71.8571429 157.142857,71.2619107 157.142857,70.0714286 L157.142857,59.3571429 C157.142857,58.1666607 157.738089,57.5714286 158.928571,57.5714286 L171.428571,57.5714286 L171.428571,30.7857143 C171.428571,29.5952321 172.023804,29 173.214286,29 L183.928571,29 C185.119054,29 185.714286,29.5952321 185.714286,30.7857143 Z M200,114.714286 L200,14.7142857 L14.2857143,14.7142857 L14.2857143,114.714286 L200,114.714286 Z M214.285714,14.7142857 L214.285714,114.714286 C214.285714,118.657758 212.890639,122.02454 210.100446,124.814732 C207.310254,127.604925 203.943472,129 200,129 L14.2857143,129 C10.3422422,129 6.97546038,127.604925 4.18526786,124.814732 C1.39507533,122.02454 0,118.657758 0,114.714286 L0,14.7142857 C0,10.7708136 1.39507533,7.40403181 4.18526786,4.61383929 C6.97546038,1.82364676 10.3422422,0.428571429 14.2857143,0.428571429 L200,0.428571429 C203.943472,0.428571429 207.310254,1.82364676 210.100446,4.61383929 C212.890639,7.40403181 214.285714,10.7708136 214.285714,14.7142857 Z" fill="#28A197"></path>
            </g>
        </g>
    </g>
</svg>