<?xml version="1.0" encoding="UTF-8" standalone="no"?>
<svg width="206px" height="205px" viewBox="0 0 206 205" version="1.1" xmlns="http://www.w3.org/2000/svg" xmlns:xlink="http://www.w3.org/1999/xlink">
    <!-- Generator: Sketch 42 (36781) - http://www.bohemiancoding.com/sketch -->
    <title>screenreaders/MouseAndScreenUse</title>
    <desc>Created with Sketch.</desc>
    <defs></defs>
    <g id="Site-assets" stroke="none" stroke-width="1" fill="none" fill-rule="evenodd">
        <g id="Visually-impaired---screenreader" transform="translate(-1200.000000, -1653.000000)">
            <g id="screenreaders/MouseAndScreenUse" transform="translate(1200.000000, 1653.000000)">
                <circle id="Oval-78" fill="#EFF1E7" cx="100" cy="100" r="100"></circle>
                <path d="M204.354353,147.859933 C205.91128,149.366637 206.262839,151.099321 205.40904,153.058036 C204.555241,155.066974 203.073671,156.071429 200.964286,156.071429 L172.186384,156.071429 L187.328683,191.930804 C187.830918,193.18639 187.830918,194.416847 187.328683,195.62221 C186.826448,196.827573 185.972662,197.70647 184.767299,198.258929 L171.433036,203.90904 C170.177449,204.411275 168.946993,204.411275 167.741629,203.90904 C166.536266,203.406806 165.657369,202.553019 165.104911,201.347656 L150.71596,167.296317 L127.211496,190.800781 C126.25725,191.755027 125.127239,192.232143 123.821429,192.232143 C123.218747,192.232143 122.616074,192.106586 122.013393,191.855469 C120.004454,191.00167 119,189.5201 119,187.410714 L119,74.1071429 C119,71.9977573 120.004454,70.5161873 122.013393,69.6623884 C122.616074,69.4112711 123.218747,69.2857143 123.821429,69.2857143 C125.177462,69.2857143 126.307473,69.7628301 127.211496,70.7170759 L204.354353,147.859933 Z" id="" fill="#F47738"></path>
            </g>
        </g>
    </g>
</svg>