<?xml version="1.0" encoding="UTF-8" standalone="no"?>
<svg width="252px" height="219px" viewBox="0 0 252 219" version="1.1" xmlns="http://www.w3.org/2000/svg" xmlns:xlink="http://www.w3.org/1999/xlink">
    <!-- Generator: Sketch 42 (36781) - http://www.bohemiancoding.com/sketch -->
    <title>screenreaders/spreadContent</title>
    <desc>Created with Sketch.</desc>
    <defs></defs>
    <g id="Site-assets" stroke="none" stroke-width="1" fill="none" fill-rule="evenodd">
        <g id="Visually-impaired---screenreader" transform="translate(-1234.000000, -1062.000000)">
            <g id="screenreaders/spreadContent" transform="translate(1234.000000, 1062.000000)">
                <rect id="Rectangle-64" fill="#FFFFFF" x="4" y="11" width="232" height="125"></rect>
                <path d="M235,130.660714 L235,21.5535714 C235,20.417033 234.584733,19.4335049 233.754185,18.6029576 C232.923638,17.7724103 231.94011,17.3571429 230.803571,17.3571429 L20.9821429,17.3571429 C19.8456044,17.3571429 18.8620763,17.7724103 18.031529,18.6029576 C17.2009817,19.4335049 16.7857143,20.417033 16.7857143,21.5535714 L16.7857143,130.660714 C16.7857143,131.797253 17.2009817,132.780781 18.031529,133.611328 C18.8620763,134.441875 19.8456044,134.857143 20.9821429,134.857143 L230.803571,134.857143 C231.94011,134.857143 232.923638,134.441875 233.754185,133.611328 C234.584733,132.780781 235,131.797253 235,130.660714 Z M251.785714,21.5535714 L251.785714,164.232143 C251.785714,170.002261 249.731233,174.941758 245.62221,179.050781 C241.513186,183.159805 236.57369,185.214286 230.803571,185.214286 L159.464286,185.214286 C159.464286,188.449049 160.163683,191.836757 161.5625,195.377511 C162.961317,198.918265 164.360112,202.021843 165.758929,204.688337 C167.157745,207.354831 167.857143,209.256319 167.857143,210.392857 C167.857143,212.665934 167.026608,214.63299 165.365513,216.294085 C163.704419,217.955179 161.737363,218.785714 159.464286,218.785714 L92.3214286,218.785714 C90.0483517,218.785714 88.0812955,217.955179 86.4202009,216.294085 C84.7591063,214.63299 83.9285714,212.665934 83.9285714,210.392857 C83.9285714,209.168893 84.6279692,207.245549 86.0267857,204.622768 C87.4256022,201.999987 88.8243978,198.940122 90.2232143,195.44308 C91.6220308,191.946039 92.3214286,188.536475 92.3214286,185.214286 L20.9821429,185.214286 C15.2120247,185.214286 10.272528,183.159805 6.16350446,179.050781 C2.05448094,174.941758 0,170.002261 0,164.232143 L0,21.5535714 C0,15.7834533 2.05448094,10.8439566 6.16350446,6.73493304 C10.272528,2.62590951 15.2120247,0.571428571 20.9821429,0.571428571 L230.803571,0.571428571 C236.57369,0.571428571 241.513186,2.62590951 245.62221,6.73493304 C249.731233,10.8439566 251.785714,15.7834533 251.785714,21.5535714 Z" id="" fill="#333333"></path>
                <rect id="Rectangle-70" fill="#28A197" x="157" y="53" width="69" height="21.5360754"></rect>
                <rect id="Rectangle-70" fill="#B58840" x="157" y="78.8432904" width="69" height="21.5360754"></rect>
                <rect id="Rectangle-70" fill="#28A197" x="157" y="104.686581" width="69" height="21.5360754"></rect>
                <rect id="Rectangle-66" fill="#F47738" x="24" y="26" width="51.9599991" height="20"></rect>
                <rect id="Rectangle-66" fill="#F47738" x="90.5196507" y="26" width="51.9599991" height="20"></rect>
                <rect id="Rectangle-66" fill="#F47738" x="157" y="26" width="69" height="21.9400005"></rect>
                <rect id="Rectangle-66" fill="#85994B" x="24.109375" y="53" width="122.890625" height="13.211"></rect>
                <rect id="Rectangle-66" fill="#FFBF47" x="24.109375" y="73" width="122.890625" height="13.211"></rect>
                <rect id="Rectangle-66" fill="#85994B" x="24.109375" y="93" width="122.890625" height="13.211"></rect>
                <rect id="Rectangle-66" fill="#FFBF47" x="24.109375" y="113" width="122.890625" height="13.211"></rect>
            </g>
        </g>
    </g>
</svg>