<?xml version="1.0" encoding="UTF-8" standalone="no"?>
<svg width="288px" height="250px" viewBox="0 0 288 250" version="1.1" xmlns="http://www.w3.org/2000/svg" xmlns:xlink="http://www.w3.org/1999/xlink">
    <!-- Generator: Sketch 42 (36781) - http://www.bohemiancoding.com/sketch -->
    <title>screenreaders/titleImage</title>
    <desc>Created with Sketch.</desc>
    <defs></defs>
    <g id="Site-assets" stroke="none" stroke-width="1" fill="none" fill-rule="evenodd">
        <g id="Visually-impaired---screenreader" transform="translate(-1184.000000, -165.000000)">
            <g id="screenreaders/titleImage" transform="translate(1184.000000, 165.000000)">
                <rect id="Rectangle-112" fill="#85994B" x="9" y="13" width="267" height="151"></rect>
                <path d="M268,148.642857 L268,24.2142857 C268,22.9181483 267.526418,21.7965077 266.579241,20.8493304 C265.632064,19.902153 264.510423,19.4285714 263.214286,19.4285714 L23.9285714,19.4285714 C22.632434,19.4285714 21.5107934,19.902153 20.5636161,20.8493304 C19.6164387,21.7965077 19.1428571,22.9181483 19.1428571,24.2142857 L19.1428571,148.642857 C19.1428571,149.938995 19.6164387,151.060635 20.5636161,152.007812 C21.5107934,152.95499 22.632434,153.428571 23.9285714,153.428571 L263.214286,153.428571 C264.510423,153.428571 265.632064,152.95499 266.579241,152.007812 C267.526418,151.060635 268,149.938995 268,148.642857 Z M287.142857,24.2142857 L287.142857,186.928571 C287.142857,193.508961 284.799875,199.14209 280.113839,203.828125 C275.427804,208.51416 269.794676,210.857143 263.214286,210.857143 L181.857143,210.857143 C181.857143,214.546149 182.654754,218.409578 184.25,222.447545 C185.845246,226.485511 187.440468,230.02491 189.035714,233.065848 C190.63096,236.106786 191.428571,238.275291 191.428571,239.571429 C191.428571,242.163703 190.481408,244.406985 188.587054,246.301339 C186.692699,248.195694 184.449418,249.142857 181.857143,249.142857 L105.285714,249.142857 C102.693439,249.142857 100.450158,248.195694 98.5558036,246.301339 C96.6614489,244.406985 95.7142857,242.163703 95.7142857,239.571429 C95.7142857,238.175588 96.5118968,235.982158 98.1071429,232.991071 C99.7023889,229.999985 101.297611,226.510437 102.892857,222.522321 C104.488103,218.534206 105.285714,214.645852 105.285714,210.857143 L23.9285714,210.857143 C17.3481814,210.857143 11.7150532,208.51416 7.02901786,203.828125 C2.34298252,199.14209 0,193.508961 0,186.928571 L0,24.2142857 C0,17.6338957 2.34298252,12.0007675 7.02901786,7.31473214 C11.7150532,2.62869681 17.3481814,0.285714286 23.9285714,0.285714286 L263.214286,0.285714286 C269.794676,0.285714286 275.427804,2.62869681 280.113839,7.31473214 C284.799875,12.0007675 287.142857,17.6338957 287.142857,24.2142857 Z" id="" fill="#0B0C0C"></path>
                <text id="" font-family="FontAwesome" font-size="90" font-weight="normal" fill="#FFFFFF">
                    <tspan x="104" y="119"></tspan>
                </text>
            </g>
        </g>
    </g>
</svg>