<?xml version="1.0" encoding="UTF-8" standalone="no"?>
<svg width="187px" height="141px" viewBox="0 0 187 141" version="1.1" xmlns="http://www.w3.org/2000/svg" xmlns:xlink="http://www.w3.org/1999/xlink">
    <!-- Generator: Sketch 42 (36781) - http://www.bohemiancoding.com/sketch -->
    <title>dyslexia/leftAlignedText</title>
    <desc>Created with Sketch.</desc>
    <defs></defs>
    <g id="Site-assets" stroke="none" stroke-width="1" fill="none" fill-rule="evenodd">
        <g id="Dyslexia" transform="translate(-509.000000, -1102.000000)" fill="#B58840">
            <g id="dyslexia/leftAlignedText" transform="translate(509.000000, 1102.000000)">
                <rect id="Rectangle-95" x="0" y="0" width="144" height="21" rx="5"></rect>
                <path d="M0,35.0033431 C0,32.240073 2.23037012,30 5.00179827,30 L181.998202,30 C184.760619,30 187,32.2473679 187,35.0033431 L187,45.9966569 C187,48.759927 184.76966,51 182.007674,51 L125.356554,51 L4.99148252,51 C2.23476285,51 0,48.7526321 0,45.9966569 L0,35.0033431 Z" id="Rectangle-95"></path>
                <path d="M0,65.0033431 C0,62.240073 2.2292099,60 5.00848892,60 L61.9915111,60 C64.7576231,60 67,62.2473679 67,65.0033431 L67,75.9966569 C67,78.759927 64.7607179,81 62.0021094,81 L44.9138455,81 L4.9997948,81 C2.23848438,81 0,78.7526321 0,75.9966569 L0,65.0033431 Z" id="Rectangle-95"></path>
                <path d="M80,65.0033431 C80,62.240073 82.2292099,60 85.0084889,60 L141.991511,60 C144.757623,60 147,62.2473679 147,65.0033431 L147,75.9966569 C147,78.759927 144.760718,81 142.002109,81 L124.913845,81 L84.9997948,81 C82.2384844,81 80,78.7526321 80,75.9966569 L80,65.0033431 Z" id="Rectangle-95"></path>
                <path d="M0,95.0033431 C0,92.240073 2.23181675,90 5.00127338,90 L107.998727,90 C110.760854,90 113,92.2473679 113,95.0033431 L113,105.996657 C113,108.759927 110.753746,111 107.995669,111 L75.750217,111 L4.99947816,111 C2.23834261,111 0,108.752632 0,105.996657 L0,95.0033431 Z" id="Rectangle-95"></path>
                <path d="M0,125.003343 C0,122.240073 2.2344402,120 4.99339079,120 L173.006609,120 C175.764383,120 178,122.247368 178,125.003343 L178,135.996657 C178,138.759927 175.75364,141 172.997262,141 L119.323351,141 L4.9941369,141 C2.23595125,141 0,138.752632 0,135.996657 L0,125.003343 Z" id="Rectangle-95"></path>
            </g>
        </g>
    </g>
</svg>