<?xml version="1.0" encoding="UTF-8" standalone="no"?>
<svg width="390px" height="353px" viewBox="0 0 390 353" version="1.1" xmlns="http://www.w3.org/2000/svg" xmlns:xlink="http://www.w3.org/1999/xlink">
    <!-- Generator: Sketch 42 (36781) - http://www.bohemiancoding.com/sketch -->
    <title>dyslexia/titleImage</title>
    <desc>Created with Sketch.</desc>
    <defs></defs>
    <g id="Site-assets" stroke="none" stroke-width="1" fill="none" fill-rule="evenodd">
        <g id="Dyslexia" transform="translate(-1084.000000, -99.000000)">
            <g id="dyslexia/titleImage" transform="translate(1084.000000, 99.000000)">
                <polygon id="X" fill="#FFBF47" points="49.8 278.2 0 353 35.2 353 67 303.6 98.2 353 135.6 353 85.8 278.4 131.6 210.2 97.2 210.2 68.2 255.8 40.2 210.2 3.8 210.2"></polygon>
                <path d="M179.496,281.216 L210.6,197.552 L189.432,197.552 L173.16,248.528 L172.872,248.528 L156.024,197.552 L134.28,197.552 L160.344,267.392 C160.920003,268.832007 161.208,270.367992 161.208,272 C161.208,274.208011 160.560006,276.223991 159.264,278.048 C157.967994,279.872009 155.976013,280.927999 153.288,281.216 C151.27199,281.312 149.25601,281.264001 147.24,281.072 C145.22399,280.879999 143.25601,280.688001 141.336,280.496 L141.336,297.344 C143.448011,297.536001 145.53599,297.703999 147.6,297.848 C149.66401,297.992001 151.751989,298.064 153.864,298.064 C160.872035,298.064 166.34398,296.768013 170.28,294.176 C174.21602,291.583987 177.287989,287.26403 179.496,281.216 Z" id="y" fill="#FFBF47"></path>
                <polygon id="L" fill="#FFBF47" points="214.936 227.184 214.936 330 287.656 330 287.656 310.992 237.544 310.992 237.544 227.184"></polygon>
                <path d="M113.624,151.56 C113.624,148.487985 113.336003,145.536014 112.76,142.704 C112.183997,139.871986 111.200007,137.376011 109.808,135.216 C108.415993,133.055989 106.616011,131.304007 104.408,129.96 C102.199989,128.615993 99.4160168,127.944 96.056,127.944 C92.6959832,127.944 89.8640115,128.615993 87.56,129.96 C85.2559885,131.304007 83.408007,133.079989 82.016,135.288 C80.623993,137.496011 79.6160031,140.015986 78.992,142.848 C78.3679969,145.680014 78.056,148.631985 78.056,151.704 C78.056,154.584014 78.3919966,157.463986 79.064,160.344 C79.7360034,163.224014 80.8159926,165.791989 82.304,168.048 C83.7920074,170.304011 85.6639887,172.127993 87.92,173.52 C90.1760113,174.912007 92.8879842,175.608 96.056,175.608 C99.4160168,175.608 102.223989,174.936007 104.48,173.592 C106.736011,172.247993 108.535993,170.448011 109.88,168.192 C111.224007,165.935989 112.183997,163.368014 112.76,160.488 C113.336003,157.607986 113.624,154.632015 113.624,151.56 Z M113.912,179.496 L113.624,179.496 C111.223988,183.52802 108.080019,186.431991 104.192,188.208 C100.303981,189.984009 95.9120245,190.872 91.016,190.872 C85.4479722,190.872 80.5520211,189.792011 76.328,187.632 C72.1039789,185.471989 68.6240137,182.544018 65.888,178.848 C63.1519863,175.151982 61.088007,170.904024 59.696,166.104 C58.303993,161.303976 57.608,156.312026 57.608,151.128 C57.608,146.135975 58.303993,141.312023 59.696,136.656 C61.088007,131.999977 63.1519863,127.896018 65.888,124.344 C68.6240137,120.791982 72.0559794,117.936011 76.184,115.776 C80.3120206,113.615989 85.1119726,112.536 90.584,112.536 C95.0000221,112.536 99.1999801,113.471991 103.184,115.344 C107.16802,117.216009 110.311988,119.975982 112.616,123.624 L112.904,123.624 L112.904,86.184 L133.352,86.184 L133.352,189 L113.912,189 L113.912,179.496 Z M176.84,149.256 L203.48,149.256 L190.52,111.528 L190.232,111.528 L176.84,149.256 Z M179,86.184 L202.184,86.184 L240.632,189 L217.16,189 L209.384,166.104 L170.936,166.104 L162.872,189 L140.12,189 L179,86.184 Z" id="dA" fill="#FFBF47"></path>
                <path d="M272.2,203.6 L241.8,203.6 C241.666666,212.400044 243.26665,219.999968 246.6,226.4 C249.93335,232.800032 254.433305,238.066646 260.1,242.2 C265.766695,246.333354 272.299963,249.366657 279.7,251.3 C287.100037,253.233343 294.733294,254.2 302.6,254.2 C312.333382,254.2 320.899963,253.066678 328.3,250.8 C335.700037,248.533322 341.899975,245.366687 346.9,241.3 C351.900025,237.233313 355.666654,232.400028 358.2,226.8 C360.733346,221.199972 362,215.133366 362,208.6 C362,200.59996 360.300017,194.033359 356.9,188.9 C353.499983,183.766641 349.46669,179.666682 344.8,176.6 C340.13331,173.533318 335.433357,171.300007 330.7,169.9 C325.966643,168.499993 322.26668,167.533336 319.6,167 C310.666622,164.733322 303.433361,162.866674 297.9,161.4 C292.366639,159.933326 288.033349,158.466674 284.9,157 C281.766651,155.533326 279.666672,153.933342 278.6,152.2 C277.533328,150.466658 277,148.200014 277,145.4 C277,142.333318 277.66666,139.80001 279,137.8 C280.33334,135.79999 282.033323,134.13334 284.1,132.8 C286.166677,131.46666 288.466654,130.533336 291,130 C293.533346,129.466664 296.066654,129.2 298.6,129.2 C302.466686,129.2 306.033317,129.53333 309.3,130.2 C312.566683,130.86667 315.466654,131.999992 318,133.6 C320.533346,135.200008 322.566659,137.399986 324.1,140.2 C325.633341,143.000014 326.533332,146.533312 326.8,150.8 L357.2,150.8 C357.2,142.533292 355.633349,135.500029 352.5,129.7 C349.366651,123.899971 345.13336,119.133352 339.8,115.4 C334.46664,111.666648 328.366701,108.966675 321.5,107.3 C314.633299,105.633325 307.466704,104.8 300,104.8 C293.599968,104.8 287.200032,105.666658 280.8,107.4 C274.399968,109.133342 268.666692,111.799982 263.6,115.4 C258.533308,119.000018 254.433349,123.499973 251.3,128.9 C248.166651,134.300027 246.6,140.66663 246.6,148 C246.6,154.533366 247.833321,160.099977 250.3,164.7 C252.766679,169.300023 255.99998,173.133318 260,176.2 C264.00002,179.266682 268.533308,181.766657 273.6,183.7 C278.666692,185.633343 283.86664,187.26666 289.2,188.6 C294.400026,190.066674 299.533308,191.399994 304.6,192.6 C309.666692,193.800006 314.19998,195.199992 318.2,196.8 C322.20002,198.400008 325.433321,200.399988 327.9,202.8 C330.366679,205.200012 331.6,208.333314 331.6,212.2 C331.6,215.800018 330.666676,218.766655 328.8,221.1 C326.933324,223.433345 324.600014,225.26666 321.8,226.6 C318.999986,227.93334 316.000016,228.833331 312.8,229.3 C309.599984,229.766669 306.600014,230 303.8,230 C299.666646,230 295.666686,229.500005 291.8,228.5 C287.933314,227.499995 284.566681,225.966677 281.7,223.9 C278.833319,221.833323 276.533342,219.13335 274.8,215.8 C273.066658,212.46665 272.2,208.400024 272.2,203.6 Z" id="S" fill="#FFBF47"></path>
                <path d="M343.28,297.04 C342.346662,291.999975 340.690012,288.173346 338.31,285.56 C335.929988,282.946654 332.313358,281.64 327.46,281.64 C324.286651,281.64 321.650011,282.176661 319.55,283.25 C317.449989,284.323339 315.770006,285.653325 314.51,287.24 C313.249994,288.826675 312.363336,290.506658 311.85,292.28 C311.336664,294.053342 311.033334,295.639993 310.94,297.04 L343.28,297.04 Z M310.94,309.64 C311.220001,316.080032 312.853318,320.746652 315.84,323.64 C318.826682,326.533348 323.119972,327.98 328.72,327.98 C332.733353,327.98 336.186652,326.976677 339.08,324.97 C341.973348,322.963323 343.746663,320.840011 344.4,318.6 L361.9,318.6 C359.099986,327.280043 354.806696,333.486648 349.02,337.22 C343.233304,340.953352 336.233374,342.82 328.02,342.82 C322.326638,342.82 317.193356,341.910009 312.62,340.09 C308.046644,338.269991 304.173349,335.680017 301,332.32 C297.826651,328.959983 295.376675,324.94669 293.65,320.28 C291.923325,315.61331 291.06,310.480028 291.06,304.88 C291.06,299.46664 291.946658,294.42669 293.72,289.76 C295.493342,285.09331 298.013317,281.056684 301.28,277.65 C304.546683,274.243316 308.443311,271.56001 312.97,269.6 C317.496689,267.63999 322.513306,266.66 328.02,266.66 C334.180031,266.66 339.546644,267.849988 344.12,270.23 C348.693356,272.610012 352.449985,275.806647 355.39,279.82 C358.330015,283.833353 360.453327,288.406641 361.76,293.54 C363.066673,298.673359 363.533335,304.039972 363.16,309.64 L310.94,309.64 Z" id="e" fill="#FFBF47"></path>
                <path d="M250,37.42 L250,21.04 L230.12,21.04 L230.12,37.42 L250,37.42 Z M230.12,48.62 L230.12,121 L250,121 L250,48.62 L230.12,48.62 Z" id="i" fill="#FFBF47"></path>
                <polygon id="X" fill="#38A9F6" points="59.8 257.2 10 332 45.2 332 77 282.6 108.2 332 145.6 332 95.8 257.4 141.6 189.2 107.2 189.2 78.2 234.8 50.2 189.2 13.8 189.2"></polygon>
                <path d="M189.496,260.216 L220.6,176.552 L199.432,176.552 L183.16,227.528 L182.872,227.528 L166.024,176.552 L144.28,176.552 L170.344,246.392 C170.920003,247.832007 171.208,249.367992 171.208,251 C171.208,253.208011 170.560006,255.223991 169.264,257.048 C167.967994,258.872009 165.976013,259.927999 163.288,260.216 C161.27199,260.312 159.25601,260.264001 157.24,260.072 C155.22399,259.879999 153.25601,259.688001 151.336,259.496 L151.336,276.344 C153.448011,276.536001 155.53599,276.703999 157.6,276.848 C159.66401,276.992001 161.751989,277.064 163.864,277.064 C170.872035,277.064 176.34398,275.768013 180.28,273.176 C184.21602,270.583987 187.287989,266.26403 189.496,260.216 Z" id="y" fill="#38A9F6"></path>
                <polygon id="L" fill="#38A9F6" points="224.936 206.184 224.936 309 297.656 309 297.656 289.992 247.544 289.992 247.544 206.184"></polygon>
                <path d="M123.624,130.56 C123.624,127.487985 123.336003,124.536014 122.76,121.704 C122.183997,118.871986 121.200007,116.376011 119.808,114.216 C118.415993,112.055989 116.616011,110.304007 114.408,108.96 C112.199989,107.615993 109.416017,106.944 106.056,106.944 C102.695983,106.944 99.8640115,107.615993 97.56,108.96 C95.2559885,110.304007 93.408007,112.079989 92.016,114.288 C90.623993,116.496011 89.6160031,119.015986 88.992,121.848 C88.3679969,124.680014 88.056,127.631985 88.056,130.704 C88.056,133.584014 88.3919966,136.463986 89.064,139.344 C89.7360034,142.224014 90.8159926,144.791989 92.304,147.048 C93.7920074,149.304011 95.6639887,151.127993 97.92,152.52 C100.176011,153.912007 102.887984,154.608 106.056,154.608 C109.416017,154.608 112.223989,153.936007 114.48,152.592 C116.736011,151.247993 118.535993,149.448011 119.88,147.192 C121.224007,144.935989 122.183997,142.368014 122.76,139.488 C123.336003,136.607986 123.624,133.632015 123.624,130.56 Z M123.912,158.496 L123.624,158.496 C121.223988,162.52802 118.080019,165.431991 114.192,167.208 C110.303981,168.984009 105.912024,169.872 101.016,169.872 C95.4479722,169.872 90.5520211,168.792011 86.328,166.632 C82.1039789,164.471989 78.6240137,161.544018 75.888,157.848 C73.1519863,154.151982 71.088007,149.904024 69.696,145.104 C68.303993,140.303976 67.608,135.312026 67.608,130.128 C67.608,125.135975 68.303993,120.312023 69.696,115.656 C71.088007,110.999977 73.1519863,106.896018 75.888,103.344 C78.6240137,99.7919822 82.0559794,96.9360108 86.184,94.776 C90.3120206,92.6159892 95.1119726,91.536 100.584,91.536 C105.000022,91.536 109.19998,92.4719906 113.184,94.344 C117.16802,96.2160094 120.311988,98.9759818 122.616,102.624 L122.904,102.624 L122.904,65.184 L143.352,65.184 L143.352,168 L123.912,168 L123.912,158.496 Z M186.84,128.256 L213.48,128.256 L200.52,90.528 L200.232,90.528 L186.84,128.256 Z M189,65.184 L212.184,65.184 L250.632,168 L227.16,168 L219.384,145.104 L180.936,145.104 L172.872,168 L150.12,168 L189,65.184 Z" id="dA" fill="#38A9F6"></path>
                <path d="M282.2,182.6 L251.8,182.6 C251.666666,191.400044 253.26665,198.999968 256.6,205.4 C259.93335,211.800032 264.433305,217.066646 270.1,221.2 C275.766695,225.333354 282.299963,228.366657 289.7,230.3 C297.100037,232.233343 304.733294,233.2 312.6,233.2 C322.333382,233.2 330.899963,232.066678 338.3,229.8 C345.700037,227.533322 351.899975,224.366687 356.9,220.3 C361.900025,216.233313 365.666654,211.400028 368.2,205.8 C370.733346,200.199972 372,194.133366 372,187.6 C372,179.59996 370.300017,173.033359 366.9,167.9 C363.499983,162.766641 359.46669,158.666682 354.8,155.6 C350.13331,152.533318 345.433357,150.300007 340.7,148.9 C335.966643,147.499993 332.26668,146.533336 329.6,146 C320.666622,143.733322 313.433361,141.866674 307.9,140.4 C302.366639,138.933326 298.033349,137.466674 294.9,136 C291.766651,134.533326 289.666672,132.933342 288.6,131.2 C287.533328,129.466658 287,127.200014 287,124.4 C287,121.333318 287.66666,118.80001 289,116.8 C290.33334,114.79999 292.033323,113.13334 294.1,111.8 C296.166677,110.46666 298.466654,109.533336 301,109 C303.533346,108.466664 306.066654,108.2 308.6,108.2 C312.466686,108.2 316.033317,108.53333 319.3,109.2 C322.566683,109.86667 325.466654,110.999992 328,112.6 C330.533346,114.200008 332.566659,116.399986 334.1,119.2 C335.633341,122.000014 336.533332,125.533312 336.8,129.8 L367.2,129.8 C367.2,121.533292 365.633349,114.500029 362.5,108.7 C359.366651,102.899971 355.13336,98.133352 349.8,94.4 C344.46664,90.666648 338.366701,87.966675 331.5,86.3 C324.633299,84.633325 317.466704,83.8 310,83.8 C303.599968,83.8 297.200032,84.666658 290.8,86.4 C284.399968,88.133342 278.666692,90.799982 273.6,94.4 C268.533308,98.000018 264.433349,102.499973 261.3,107.9 C258.166651,113.300027 256.6,119.66663 256.6,127 C256.6,133.533366 257.833321,139.099977 260.3,143.7 C262.766679,148.300023 265.99998,152.133318 270,155.2 C274.00002,158.266682 278.533308,160.766657 283.6,162.7 C288.666692,164.633343 293.86664,166.26666 299.2,167.6 C304.400026,169.066674 309.533308,170.399994 314.6,171.6 C319.666692,172.800006 324.19998,174.199992 328.2,175.8 C332.20002,177.400008 335.433321,179.399988 337.9,181.8 C340.366679,184.200012 341.6,187.333314 341.6,191.2 C341.6,194.800018 340.666676,197.766655 338.8,200.1 C336.933324,202.433345 334.600014,204.26666 331.8,205.6 C328.999986,206.93334 326.000016,207.833331 322.8,208.3 C319.599984,208.766669 316.600014,209 313.8,209 C309.666646,209 305.666686,208.500005 301.8,207.5 C297.933314,206.499995 294.566681,204.966677 291.7,202.9 C288.833319,200.833323 286.533342,198.13335 284.8,194.8 C283.066658,191.46665 282.2,187.400024 282.2,182.6 Z" id="S" fill="#38A9F6"></path>
                <path d="M353.28,276.04 C352.346662,270.999975 350.690012,267.173346 348.31,264.56 C345.929988,261.946654 342.313358,260.64 337.46,260.64 C334.286651,260.64 331.650011,261.176661 329.55,262.25 C327.449989,263.323339 325.770006,264.653325 324.51,266.24 C323.249994,267.826675 322.363336,269.506658 321.85,271.28 C321.336664,273.053342 321.033334,274.639993 320.94,276.04 L353.28,276.04 Z M320.94,288.64 C321.220001,295.080032 322.853318,299.746652 325.84,302.64 C328.826682,305.533348 333.119972,306.98 338.72,306.98 C342.733353,306.98 346.186652,305.976677 349.08,303.97 C351.973348,301.963323 353.746663,299.840011 354.4,297.6 L371.9,297.6 C369.099986,306.280043 364.806696,312.486648 359.02,316.22 C353.233304,319.953352 346.233374,321.82 338.02,321.82 C332.326638,321.82 327.193356,320.910009 322.62,319.09 C318.046644,317.269991 314.173349,314.680017 311,311.32 C307.826651,307.959983 305.376675,303.94669 303.65,299.28 C301.923325,294.61331 301.06,289.480028 301.06,283.88 C301.06,278.46664 301.946658,273.42669 303.72,268.76 C305.493342,264.09331 308.013317,260.056684 311.28,256.65 C314.546683,253.243316 318.443311,250.56001 322.97,248.6 C327.496689,246.63999 332.513306,245.66 338.02,245.66 C344.180031,245.66 349.546644,246.849988 354.12,249.23 C358.693356,251.610012 362.449985,254.806647 365.39,258.82 C368.330015,262.833353 370.453327,267.406641 371.76,272.54 C373.066673,277.673359 373.533335,283.039972 373.16,288.64 L320.94,288.64 Z" id="e" fill="#38A9F6"></path>
                <path d="M260,16.42 L260,0.04 L240.12,0.04 L240.12,16.42 L260,16.42 Z M240.12,27.62 L240.12,100 L260,100 L260,27.62 L240.12,27.62 Z" id="i" fill="#38A9F6"></path>
                <polygon id="X" fill="#B10E1E" points="75.8 276.2 26 351 61.2 351 93 301.6 124.2 351 161.6 351 111.8 276.4 157.6 208.2 123.2 208.2 94.2 253.8 66.2 208.2 29.8 208.2"></polygon>
                <path d="M205.496,279.216 L236.6,195.552 L215.432,195.552 L199.16,246.528 L198.872,246.528 L182.024,195.552 L160.28,195.552 L186.344,265.392 C186.920003,266.832007 187.208,268.367992 187.208,270 C187.208,272.208011 186.560006,274.223991 185.264,276.048 C183.967994,277.872009 181.976013,278.927999 179.288,279.216 C177.27199,279.312 175.25601,279.264001 173.24,279.072 C171.22399,278.879999 169.25601,278.688001 167.336,278.496 L167.336,295.344 C169.448011,295.536001 171.53599,295.703999 173.6,295.848 C175.66401,295.992001 177.751989,296.064 179.864,296.064 C186.872035,296.064 192.34398,294.768013 196.28,292.176 C200.21602,289.583987 203.287989,285.26403 205.496,279.216 Z" id="y" fill="#B10E1E"></path>
                <polygon id="L" fill="#B10E1E" points="240.936 225.184 240.936 328 313.656 328 313.656 308.992 263.544 308.992 263.544 225.184"></polygon>
                <path d="M139.624,149.56 C139.624,146.487985 139.336003,143.536014 138.76,140.704 C138.183997,137.871986 137.200007,135.376011 135.808,133.216 C134.415993,131.055989 132.616011,129.304007 130.408,127.96 C128.199989,126.615993 125.416017,125.944 122.056,125.944 C118.695983,125.944 115.864012,126.615993 113.56,127.96 C111.255988,129.304007 109.408007,131.079989 108.016,133.288 C106.623993,135.496011 105.616003,138.015986 104.992,140.848 C104.367997,143.680014 104.056,146.631985 104.056,149.704 C104.056,152.584014 104.391997,155.463986 105.064,158.344 C105.736003,161.224014 106.815993,163.791989 108.304,166.048 C109.792007,168.304011 111.663989,170.127993 113.92,171.52 C116.176011,172.912007 118.887984,173.608 122.056,173.608 C125.416017,173.608 128.223989,172.936007 130.48,171.592 C132.736011,170.247993 134.535993,168.448011 135.88,166.192 C137.224007,163.935989 138.183997,161.368014 138.76,158.488 C139.336003,155.607986 139.624,152.632015 139.624,149.56 Z M139.912,177.496 L139.624,177.496 C137.223988,181.52802 134.080019,184.431991 130.192,186.208 C126.303981,187.984009 121.912024,188.872 117.016,188.872 C111.447972,188.872 106.552021,187.792011 102.328,185.632 C98.1039789,183.471989 94.6240137,180.544018 91.888,176.848 C89.1519863,173.151982 87.088007,168.904024 85.696,164.104 C84.303993,159.303976 83.608,154.312026 83.608,149.128 C83.608,144.135975 84.303993,139.312023 85.696,134.656 C87.088007,129.999977 89.1519863,125.896018 91.888,122.344 C94.6240137,118.791982 98.0559794,115.936011 102.184,113.776 C106.312021,111.615989 111.111973,110.536 116.584,110.536 C121.000022,110.536 125.19998,111.471991 129.184,113.344 C133.16802,115.216009 136.311988,117.975982 138.616,121.624 L138.904,121.624 L138.904,84.184 L159.352,84.184 L159.352,187 L139.912,187 L139.912,177.496 Z M202.84,147.256 L229.48,147.256 L216.52,109.528 L216.232,109.528 L202.84,147.256 Z M205,84.184 L228.184,84.184 L266.632,187 L243.16,187 L235.384,164.104 L196.936,164.104 L188.872,187 L166.12,187 L205,84.184 Z" id="dA" fill="#B10E1E"></path>
                <path d="M298.2,201.6 L267.8,201.6 C267.666666,210.400044 269.26665,217.999968 272.6,224.4 C275.93335,230.800032 280.433305,236.066646 286.1,240.2 C291.766695,244.333354 298.299963,247.366657 305.7,249.3 C313.100037,251.233343 320.733294,252.2 328.6,252.2 C338.333382,252.2 346.899963,251.066678 354.3,248.8 C361.700037,246.533322 367.899975,243.366687 372.9,239.3 C377.900025,235.233313 381.666654,230.400028 384.2,224.8 C386.733346,219.199972 388,213.133366 388,206.6 C388,198.59996 386.300017,192.033359 382.9,186.9 C379.499983,181.766641 375.46669,177.666682 370.8,174.6 C366.13331,171.533318 361.433357,169.300007 356.7,167.9 C351.966643,166.499993 348.26668,165.533336 345.6,165 C336.666622,162.733322 329.433361,160.866674 323.9,159.4 C318.366639,157.933326 314.033349,156.466674 310.9,155 C307.766651,153.533326 305.666672,151.933342 304.6,150.2 C303.533328,148.466658 303,146.200014 303,143.4 C303,140.333318 303.66666,137.80001 305,135.8 C306.33334,133.79999 308.033323,132.13334 310.1,130.8 C312.166677,129.46666 314.466654,128.533336 317,128 C319.533346,127.466664 322.066654,127.2 324.6,127.2 C328.466686,127.2 332.033317,127.53333 335.3,128.2 C338.566683,128.86667 341.466654,129.999992 344,131.6 C346.533346,133.200008 348.566659,135.399986 350.1,138.2 C351.633341,141.000014 352.533332,144.533312 352.8,148.8 L383.2,148.8 C383.2,140.533292 381.633349,133.500029 378.5,127.7 C375.366651,121.899971 371.13336,117.133352 365.8,113.4 C360.46664,109.666648 354.366701,106.966675 347.5,105.3 C340.633299,103.633325 333.466704,102.8 326,102.8 C319.599968,102.8 313.200032,103.666658 306.8,105.4 C300.399968,107.133342 294.666692,109.799982 289.6,113.4 C284.533308,117.000018 280.433349,121.499973 277.3,126.9 C274.166651,132.300027 272.6,138.66663 272.6,146 C272.6,152.533366 273.833321,158.099977 276.3,162.7 C278.766679,167.300023 281.99998,171.133318 286,174.2 C290.00002,177.266682 294.533308,179.766657 299.6,181.7 C304.666692,183.633343 309.86664,185.26666 315.2,186.6 C320.400026,188.066674 325.533308,189.399994 330.6,190.6 C335.666692,191.800006 340.19998,193.199992 344.2,194.8 C348.20002,196.400008 351.433321,198.399988 353.9,200.8 C356.366679,203.200012 357.6,206.333314 357.6,210.2 C357.6,213.800018 356.666676,216.766655 354.8,219.1 C352.933324,221.433345 350.600014,223.26666 347.8,224.6 C344.999986,225.93334 342.000016,226.833331 338.8,227.3 C335.599984,227.766669 332.600014,228 329.8,228 C325.666646,228 321.666686,227.500005 317.8,226.5 C313.933314,225.499995 310.566681,223.966677 307.7,221.9 C304.833319,219.833323 302.533342,217.13335 300.8,213.8 C299.066658,210.46665 298.2,206.400024 298.2,201.6 Z" id="S" fill="#B10E1E"></path>
                <path d="M369.28,295.04 C368.346662,289.999975 366.690012,286.173346 364.31,283.56 C361.929988,280.946654 358.313358,279.64 353.46,279.64 C350.286651,279.64 347.650011,280.176661 345.55,281.25 C343.449989,282.323339 341.770006,283.653325 340.51,285.24 C339.249994,286.826675 338.363336,288.506658 337.85,290.28 C337.336664,292.053342 337.033334,293.639993 336.94,295.04 L369.28,295.04 Z M336.94,307.64 C337.220001,314.080032 338.853318,318.746652 341.84,321.64 C344.826682,324.533348 349.119972,325.98 354.72,325.98 C358.733353,325.98 362.186652,324.976677 365.08,322.97 C367.973348,320.963323 369.746663,318.840011 370.4,316.6 L387.9,316.6 C385.099986,325.280043 380.806696,331.486648 375.02,335.22 C369.233304,338.953352 362.233374,340.82 354.02,340.82 C348.326638,340.82 343.193356,339.910009 338.62,338.09 C334.046644,336.269991 330.173349,333.680017 327,330.32 C323.826651,326.959983 321.376675,322.94669 319.65,318.28 C317.923325,313.61331 317.06,308.480028 317.06,302.88 C317.06,297.46664 317.946658,292.42669 319.72,287.76 C321.493342,283.09331 324.013317,279.056684 327.28,275.65 C330.546683,272.243316 334.443311,269.56001 338.97,267.6 C343.496689,265.63999 348.513306,264.66 354.02,264.66 C360.180031,264.66 365.546644,265.849988 370.12,268.23 C374.693356,270.610012 378.449985,273.806647 381.39,277.82 C384.330015,281.833353 386.453327,286.406641 387.76,291.54 C389.066673,296.673359 389.533335,302.039972 389.16,307.64 L336.94,307.64 Z" id="e" fill="#B10E1E"></path>
                <path d="M276,35.42 L276,19.04 L256.12,19.04 L256.12,35.42 L276,35.42 Z M256.12,46.62 L256.12,119 L276,119 L276,46.62 L256.12,46.62 Z" id="i" fill="#B10E1E"></path>
            </g>
        </g>
    </g>
</svg>